<?xml version="1.0" encoding="utf-8"?>
<!-- Generator: Adobe Illustrator 22.0.0, SVG Export Plug-In . SVG Version: 6.00 Build 0)  -->
<svg version="1.1" id="Bolt" xmlns="http://www.w3.org/2000/svg" xmlns:xlink="http://www.w3.org/1999/xlink" x="0px" y="0px"
	 viewBox="0 0 43 27" style="enable-background:new 0 0 43 27;" xml:space="preserve">
<style type="text/css">
	.st0{fill:#B8BCCC;}
	.st1{filter:url(#Adobe_OpacityMaskFilter);}
	.st2{fill:#FFFFFF;}
	.st3{mask:url(#mask-2_1_);fill:#B8BCCC;}
	.st4{filter:url(#Adobe_OpacityMaskFilter_1_);}
	.st5{mask:url(#mask-4_1_);fill:#B8BCCC;}
</style>
<path id="Fill-2" class="st0" d="M21.3,16.5c-1.1,0-2.1-0.9-2.1-2.1s0.9-2.1,2.1-2.1c1.1,0,2.1,0.9,2.1,2.1S22.5,16.5,21.3,16.5
	 M21.3,8c-3.5,0-6.4,2.9-6.4,6.4s2.9,6.4,6.4,6.4c3.5,0,6.4-2.9,6.4-6.4S24.9,8,21.3,8"/>
<path id="Fill-4" class="st0" d="M21.3,22.3c1.1,0,2.1,0.9,2.1,2.1s-0.9,2.1-2.1,2.1c-1.1,0-2.1-0.9-2.1-2.1S20.2,22.3,21.3,22.3"/>
<g id="Group-8">
	<g id="Clip-7">
	</g>
	<defs>
		<filter id="Adobe_OpacityMaskFilter" filterUnits="userSpaceOnUse" x="1" y="3" width="12.7" height="17.6">
			<feColorMatrix  type="matrix" values="1 0 0 0 0  0 1 0 0 0  0 0 1 0 0  0 0 0 1 0"/>
		</filter>
	</defs>
	<mask maskUnits="userSpaceOnUse" x="1" y="3" width="12.7" height="17.6" id="mask-2_1_">
		<g class="st1">
			<polygon id="path-1_1_" class="st2" points="1,3 13.7,3 13.7,20.6 1,20.6 			"/>
		</g>
	</mask>
	<path id="Fill-6" class="st3" d="M8.3,16.5H5.2v-2.6h3.1c0.7,0,1.3,0.6,1.3,1.3S9,16.5,8.3,16.5z M5.2,7.1h2.3
		c0.7,0,1.3,0.6,1.3,1.3S8.2,9.7,7.5,9.7H5.2V7.1z M12.1,11.3c0.5-0.8,0.8-1.8,0.8-2.9c0-3-2.4-5.4-5.4-5.4H5.1H1v17.6h4.1h3.1
		c3,0,5.4-2.4,5.4-5.4C13.7,13.7,13.1,12.3,12.1,11.3z"/>
</g>
<g id="Group-11" transform="translate(33.717579, 2.074928)">
	<g id="Clip-10">
	</g>
	<defs>
		<filter id="Adobe_OpacityMaskFilter_1_" filterUnits="userSpaceOnUse" x="1" y="3" width="6.2" height="15.7">
			<feColorMatrix  type="matrix" values="1 0 0 0 0  0 1 0 0 0  0 0 1 0 0  0 0 0 1 0"/>
		</filter>
	</defs>
	<mask maskUnits="userSpaceOnUse" x="1" y="3" width="6.2" height="15.7" id="mask-4_1_">
		<g class="st4">
			<polygon id="path-3_1_" class="st2" points="1,3 7.3,3 7.3,18.7 1,18.7 			"/>
		</g>
	</mask>
	<path id="Fill-9" class="st5" d="M7.3,10.3V6.2H5.2V3L1,3.9v6.4v4.3v0v0c0,2.5,1.6,4,3.9,4.1c0,0,0.1,0,0.1,0h0c0.1,0,0.1,0,0.1,0
		h0.1c1.2,0,2-0.5,2-0.5v-3.1c0,0-0.4,0.1-0.9,0.1c-0.8,0-1.1-0.7-1.1-1.7v-3.3H7.3z"/>
</g>
<polygon id="Fill-1" class="st0" points="33.1,3 29,3.9 29,20.6 33.1,20.6 "/>
</svg>
