<?xml version="1.0" encoding="UTF-8"?>
<svg width="28px" height="17px" viewBox="0 0 28 17" version="1.1" xmlns="http://www.w3.org/2000/svg" xmlns:xlink="http://www.w3.org/1999/xlink">
    <!-- Generator: Sketch 52.4 (67378) - http://www.bohemiancoding.com/sketch -->
    <title>Bolt</title>
    <desc>Created with Sketch.</desc>
    <defs>
        <polygon id="path-1" points="0 0 8.89626524 0 8.89626524 12.4927913 0 12.4927913"></polygon>
        <polygon id="path-3" points="0.0241913545 -4.08261287e-06 4.38559078 -4.08261287e-06 4.38559078 11.1496117 0.0241913545 11.1496117"></polygon>
    </defs>
    <g id="Page-1" stroke="none" stroke-width="1" fill="none" fill-rule="evenodd">
        <g id="Bolt">
            <g id="Group-12">
                <path d="M14.2259205,9.55331004 C13.4230386,9.55331004 12.7734709,8.89600937 12.7734709,8.0835694 C12.7734709,7.27112944 13.4230386,6.61382877 14.2259205,6.61382877 C15.0288023,6.61382877 15.67837,7.27112944 15.67837,8.0835694 C15.67837,8.89600937 15.0288023,9.55331004 14.2259205,9.55331004 M14.2259205,3.5477865 C11.7527216,3.5477865 9.74349971,5.5768451 9.74349971,8.0835694 C9.74349971,10.5902937 11.748687,12.6193523 14.2259205,12.6193523 C16.6991193,12.6193523 18.7083816,10.5902937 18.7083816,8.0835694 C18.7083816,5.5768451 16.6991597,3.5477865 14.2259205,3.5477865" id="Fill-2" fill="#B8BCCC"></path>
                <path d="M14.2259205,13.676749 C15.0281164,13.676749 15.67837,14.3347846 15.67837,15.1464897 C15.67837,15.9581948 15.0281164,16.6162303 14.2259205,16.6162303 C13.4237648,16.6162303 12.7734709,15.9581948 12.7734709,15.1464897 C12.7734709,14.3347846 13.4237648,13.676749 14.2259205,13.676749" id="Fill-4" fill="#B8BCCC"></path>
                <g id="Group-8">
                    <mask id="mask-2" fill="white">
                        <use xlink:href="#path-1"></use>
                    </mask>
                    <g id="Clip-7"></g>
                    <path d="M5.08759193,9.55331004 L2.90891758,9.55331004 L2.90891758,7.71613425 L5.08759193,7.71613425 C5.58788012,7.71613425 5.99537291,8.12847815 5.99537291,8.63472214 C5.99537291,9.14096614 5.58788012,9.55331004 5.08759193,9.55331004 Z M2.90891758,2.93947719 L4.52275043,2.93947719 C5.02303862,2.93947719 5.43053141,3.35182109 5.43053141,3.85806508 C5.43053141,4.36430908 5.02303862,4.77665298 4.52275043,4.77665298 L2.90891758,4.77665298 L2.90891758,2.93947719 Z M7.76251988,5.88712368 C8.12563228,5.29922743 8.33139597,4.60110062 8.33139597,3.85806508 C8.33139597,1.72694116 6.62480807,-4.08261287e-06 4.51871585,-4.08261287e-06 L2.904883,-4.08261287e-06 L-1.61383285e-05,-4.08261287e-06 L-1.61383285e-05,12.4927913 L2.904883,12.4927913 L5.08355735,12.4927913 C7.18964957,12.4927913 8.89623746,10.7658461 8.89623746,8.63472214 C8.90027205,7.56099496 8.46453718,6.58933309 7.76251988,5.88712368 Z" id="Fill-6" fill="#B8BCCC" mask="url(#mask-2)"></path>
                </g>
                <g id="Group-11" transform="translate(23.602305, 1.469741)">
                    <mask id="mask-4" fill="white">
                        <use xlink:href="#path-3"></use>
                    </mask>
                    <g id="Clip-10"></g>
                    <path d="M4.38154006,5.18491427 L4.38154006,2.245433 L2.92909049,2.245433 L2.92909049,-4.08261287e-06 L0.0241913545,0.624635687 L0.0241913545,5.18491427 L0.0241913545,8.2101304 L0.0241913545,8.22237824 L0.0241913545,8.23054347 C0.0241913545,10.0228105 1.12563228,11.0557116 2.74753429,11.1414464 C2.76367262,11.1414464 2.78384553,11.1455291 2.79998386,11.1455291 L2.82822594,11.1455291 C2.86453718,11.1455291 2.89681383,11.1496117 2.93316542,11.1496117 L2.96943631,11.1496117 C3.7844219,11.1496117 4.38561499,10.7821765 4.38561499,10.7821765 L4.38561499,8.61839169 C4.38561499,8.61839169 4.1112634,8.70412656 3.73600692,8.70412656 C3.15506744,8.70412656 2.93316542,8.18971734 2.93316542,7.49159054 L2.93316542,5.18491427 L4.38154006,5.18491427 Z" id="Fill-9" fill="#B8BCCC" mask="url(#mask-4)"></path>
                </g>
                <polygon id="Fill-1" fill="#B8BCCC" points="22.4968098 8.16522574e-06 19.5919107 0.624607109 19.5919107 12.4928036 22.4968098 12.4928036"></polygon>
            </g>
        </g>
    </g>
</svg>