<?xml version="1.0" encoding="UTF-8"?>
<svg width="36px" height="22px" viewBox="0 0 36 22" version="1.1" xmlns="http://www.w3.org/2000/svg" xmlns:xlink="http://www.w3.org/1999/xlink">
    <!-- Generator: Sketch 52.4 (67378) - http://www.bohemiancoding.com/sketch -->
    <title>Bolt</title>
    <desc>Created with Sketch.</desc>
    <defs>
        <polygon id="path-1" points="0 0 11.4380553 0 11.4380553 16.1671417 0 16.1671417"></polygon>
        <polygon id="path-3" points="0.03110317 -5.28338136e-06 5.63861671 -5.28338136e-06 5.63861671 14.4289092 0.03110317 14.4289092"></polygon>
    </defs>
    <g id="Page-1" stroke="none" stroke-width="1" fill="none" fill-rule="evenodd">
        <g id="Bolt">
            <g id="Group-12">
                <path d="M18.2904692,12.3631071 C17.2581925,12.3631071 16.423034,11.5124827 16.423034,10.4610898 C16.423034,9.40969693 17.2581925,8.55907253 18.2904692,8.55907253 C19.3227458,8.55907253 20.1579043,9.40969693 20.1579043,10.4610898 C20.1579043,11.5124827 19.3227458,12.3631071 18.2904692,12.3631071 M18.2904692,4.59125312 C15.1106421,4.59125312 12.5273568,7.21709366 12.5273568,10.4610898 C12.5273568,13.705086 15.1054548,16.3309265 18.2904692,16.3309265 C21.4702963,16.3309265 24.0536334,13.705086 24.0536334,10.4610898 C24.0536334,7.21709366 21.4703481,4.59125312 18.2904692,4.59125312" id="Fill-2" fill="#B8BCCC"></path>
                <path d="M18.2904692,17.6993223 C19.321864,17.6993223 20.1579043,18.5508977 20.1579043,19.6013396 C20.1579043,20.6517815 19.321864,21.5033569 18.2904692,21.5033569 C17.2591262,21.5033569 16.423034,20.6517815 16.423034,19.6013396 C16.423034,18.5508977 17.2591262,17.6993223 18.2904692,17.6993223" id="Fill-4" fill="#B8BCCC"></path>
                <g id="Group-8">
                    <mask id="mask-2" fill="white">
                        <use xlink:href="#path-1"></use>
                    </mask>
                    <g id="Clip-7"></g>
                    <path d="M6.54118963,12.3631071 L3.74003689,12.3631071 L3.74003689,9.98558549 L6.54118963,9.98558549 C7.18441729,9.98558549 7.7083366,10.519207 7.7083366,11.1743463 C7.7083366,11.8294856 7.18441729,12.3631071 6.54118963,12.3631071 Z M3.74003689,3.8040293 L5.81496484,3.8040293 C6.45819251,3.8040293 6.98211182,4.33765082 6.98211182,4.99279011 C6.98211182,5.64792939 6.45819251,6.18155091 5.81496484,6.18155091 L3.74003689,6.18155091 L3.74003689,3.8040293 Z M9.98038271,7.61863064 C10.4472415,6.85782373 10.7117948,5.95436551 10.7117948,4.99279011 C10.7117948,2.23486503 8.51761037,-5.28338136e-06 5.80977752,-5.28338136e-06 L3.73484957,-5.28338136e-06 L-2.07492795e-05,-5.28338136e-06 L-2.07492795e-05,16.1671417 L3.73484957,16.1671417 L6.53600231,16.1671417 C9.24383516,16.1671417 11.4380196,13.9322714 11.4380196,11.1743463 C11.4432069,9.784817 10.8829764,8.52737224 9.98038271,7.61863064 Z" id="Fill-6" fill="#B8BCCC" mask="url(#mask-2)"></path>
                </g>
                <g id="Group-11" transform="translate(30.345821, 1.902017)">
                    <mask id="mask-4" fill="white">
                        <use xlink:href="#path-3"></use>
                    </mask>
                    <g id="Clip-10"></g>
                    <path d="M5.63340865,6.70988905 L5.63340865,2.90585447 L3.76597349,2.90585447 L3.76597349,-5.28338136e-06 L0.03110317,0.808352065 L0.03110317,6.70988905 L0.03110317,10.6248746 L0.03110317,10.6407248 L0.03110317,10.6512915 C0.03110317,12.970696 1.4472415,14.3073915 3.53254409,14.4183425 C3.55329337,14.4183425 3.57922997,14.4236258 3.59997925,14.4236258 L3.63629049,14.4236258 C3.68297637,14.4236258 3.72447493,14.4289092 3.77121268,14.4289092 L3.81784669,14.4289092 C4.8656853,14.4289092 5.63864784,13.9534049 5.63864784,13.9534049 L5.63864784,11.1532128 C5.63864784,11.1532128 5.28591009,11.2641638 4.80343746,11.2641638 C4.05651527,11.2641638 3.77121268,10.5984577 3.77121268,9.69499952 L3.77121268,6.70988905 L5.63340865,6.70988905 Z" id="Fill-9" fill="#B8BCCC" mask="url(#mask-4)"></path>
                </g>
                <polygon id="Fill-1" fill="#B8BCCC" points="28.9244697 1.05667627e-05 25.1895994 0.808315082 25.1895994 16.1671575 28.9244697 16.1671575"></polygon>
            </g>
        </g>
    </g>
</svg>