<?xml version="1.0" encoding="UTF-8"?>
<svg width="39px" height="23px" viewBox="0 0 39 23" version="1.1" xmlns="http://www.w3.org/2000/svg" xmlns:xlink="http://www.w3.org/1999/xlink">
    <!-- Generator: Sketch 52.4 (67378) - http://www.bohemiancoding.com/sketch -->
    <title>Bolt</title>
    <desc>Created with Sketch.</desc>
    <defs>
        <polygon id="path-1" points="0 0 12.1794107 0 12.1794107 16.9020118 0 16.9020118"></polygon>
        <polygon id="path-3" points="0.0331191162 -5.52353506e-06 6.00408261 -5.52353506e-06 6.00408261 15.0847687 0.0331191162 15.0847687"></polygon>
    </defs>
    <g id="Page-1" stroke="none" stroke-width="1" fill="none" fill-rule="evenodd">
        <g id="Bolt">
            <g id="Group-12">
                <path d="M19.4759625,12.9250665 C18.3767791,12.9250665 17.4874899,12.0357774 17.4874899,10.9365939 C17.4874899,9.83741042 18.3767791,8.94812128 19.4759625,8.94812128 C20.575146,8.94812128 21.4644352,9.83741042 21.4644352,10.9365939 C21.4644352,12.0357774 20.575146,12.9250665 19.4759625,12.9250665 M19.4759625,4.79994645 C16.0900355,4.79994645 13.3393151,7.54514337 13.3393151,10.9365939 C13.3393151,14.3280444 16.084512,17.0732414 19.4759625,17.0732414 C22.8618895,17.0732414 25.6126652,14.3280444 25.6126652,10.9365939 C25.6126652,7.54514337 22.8619448,4.79994645 19.4759625,4.79994645" id="Fill-2" fill="#B8BCCC"></path>
                <path d="M19.4759625,18.5038369 C20.574207,18.5038369 21.4644352,19.3941203 21.4644352,20.4923096 C21.4644352,21.5904988 20.574207,22.4807822 19.4759625,22.4807822 C18.3777733,22.4807822 17.4874899,21.5904988 17.4874899,20.4923096 C17.4874899,19.3941203 18.3777733,18.5038369 19.4759625,18.5038369" id="Fill-4" fill="#B8BCCC"></path>
                <g id="Group-8">
                    <mask id="mask-2" fill="white">
                        <use xlink:href="#path-1"></use>
                    </mask>
                    <g id="Clip-7"></g>
                    <path d="M6.96515562,12.9250665 L3.98244669,12.9250665 L3.98244669,10.4394757 L6.96515562,10.4394757 C7.65007397,10.4394757 8.20795101,10.9973528 8.20795101,11.6822711 C8.20795101,12.3671895 7.65007397,12.9250665 6.96515562,12.9250665 Z M3.98244669,3.97693972 L6.19186071,3.97693972 C6.87677906,3.97693972 7.4346561,4.53481676 7.4346561,5.21973511 C7.4346561,5.90465346 6.87677906,6.4625305 6.19186071,6.4625305 L3.98244669,6.4625305 L3.98244669,3.97693972 Z M10.6272594,7.96493204 C11.1243775,7.16954299 11.4060778,6.22501849 11.4060778,5.21973511 C11.4060778,2.33644981 9.06967771,-5.52353506e-06 6.18633718,-5.52353506e-06 L3.97692315,-5.52353506e-06 L-2.20941402e-05,-5.52353506e-06 L-2.20941402e-05,16.9020118 L3.97692315,16.9020118 L6.95963208,16.9020118 C9.84297262,16.9020118 12.1793727,14.5655564 12.1793727,11.6822711 C12.1848963,10.2295814 11.5883545,8.91498007 10.6272594,7.96493204 Z" id="Fill-6" fill="#B8BCCC" mask="url(#mask-2)"></path>
                </g>
                <g id="Group-11" transform="translate(32.312680, 1.988473)">
                    <mask id="mask-4" fill="white">
                        <use xlink:href="#path-3"></use>
                    </mask>
                    <g id="Clip-10"></g>
                    <path d="M5.99853698,7.01488401 L5.99853698,3.03793876 L4.01006436,3.03793876 L4.01006436,-5.52353506e-06 L0.0331191162,0.845095341 L0.0331191162,7.01488401 L0.0331191162,11.1078235 L0.0331191162,11.1243941 L0.0331191162,11.1354412 C0.0331191162,13.5602731 1.54104419,14.9577274 3.76150528,15.0737217 C3.78359942,15.0737217 3.8112171,15.0792452 3.83331124,15.0792452 L3.87197598,15.0792452 C3.9216878,15.0792452 3.96587608,15.0847687 4.01564313,15.0847687 L4.06529971,15.0847687 C5.18105379,15.0847687 6.00411575,14.5876506 6.00411575,14.5876506 L6.00411575,11.660177 C6.00411575,11.660177 5.62851537,11.7761712 5.11477137,11.7761712 C4.31943756,11.7761712 4.01564313,11.0802058 4.01564313,10.1356813 L4.01564313,7.01488401 L5.99853698,7.01488401 Z" id="Fill-9" fill="#B8BCCC" mask="url(#mask-4)"></path>
                </g>
                <polygon id="Fill-1" fill="#B8BCCC" points="30.7992039 1.10470701e-05 26.8222586 0.845056676 26.8222586 16.9020283 30.7992039 16.9020283"></polygon>
            </g>
        </g>
    </g>
</svg>