<?xml version="1.0" encoding="UTF-8"?>
<svg width="40px" height="24px" viewBox="0 0 40 24" version="1.1" xmlns="http://www.w3.org/2000/svg" xmlns:xlink="http://www.w3.org/1999/xlink">
    <!-- Generator: Sketch 52.4 (67378) - http://www.bohemiancoding.com/sketch -->
    <title>Bolt</title>
    <desc>Created with Sketch.</desc>
    <defs>
        <polygon id="path-1" points="0 0 12.7089503 0 12.7089503 17.6368818 0 17.6368818"></polygon>
        <polygon id="path-3" points="0.0345590778 -5.76368876e-06 6.26512968 -5.76368876e-06 6.26512968 15.7406282 0.0345590778 15.7406282"></polygon>
    </defs>
    <g id="Page-1" stroke="none" stroke-width="1" fill="none" fill-rule="evenodd">
        <g id="Bolt">
            <g id="Group-12">
                <path d="M20.3227435,13.4870259 C19.1757695,13.4870259 18.2478156,12.559072 18.2478156,11.412098 C18.2478156,10.2651239 19.1757695,9.33717003 20.3227435,9.33717003 C21.4697176,9.33717003 22.3976715,10.2651239 22.3976715,11.412098 C22.3976715,12.559072 21.4697176,13.4870259 20.3227435,13.4870259 M20.3227435,5.00863977 C16.7896023,5.00863977 13.9192853,7.87319308 13.9192853,11.412098 C13.9192853,14.9510029 16.7838386,17.8155562 20.3227435,17.8155562 C23.8558847,17.8155562 26.7262594,14.9510029 26.7262594,11.412098 C26.7262594,7.87319308 23.8559424,5.00863977 20.3227435,5.00863977" id="Fill-2" fill="#B8BCCC"></path>
                <path d="M20.3227435,19.3083516 C21.4687378,19.3083516 22.3976715,20.2373429 22.3976715,21.3832795 C22.3976715,22.5292161 21.4687378,23.4582075 20.3227435,23.4582075 C19.1768069,23.4582075 18.2478156,22.5292161 18.2478156,21.3832795 C18.2478156,20.2373429 19.1768069,19.3083516 20.3227435,19.3083516" id="Fill-4" fill="#B8BCCC"></path>
                <g id="Group-8">
                    <mask id="mask-2" fill="white">
                        <use xlink:href="#path-1"></use>
                    </mask>
                    <g id="Clip-7"></g>
                    <path d="M7.26798847,13.4870259 L4.15559654,13.4870259 L4.15559654,10.893366 L7.26798847,10.893366 C7.98268588,10.893366 8.56481844,11.4754986 8.56481844,12.190196 C8.56481844,12.9048934 7.98268588,13.4870259 7.26798847,13.4870259 Z M4.15559654,4.14985014 L6.46107205,4.14985014 C7.17576945,4.14985014 7.75790202,4.73198271 7.75790202,5.44668012 C7.75790202,6.16137752 7.17576945,6.74351009 6.46107205,6.74351009 L4.15559654,6.74351009 L4.15559654,4.14985014 Z M11.0893141,8.31123343 C11.6080461,7.48126225 11.9019942,6.49567147 11.9019942,5.44668012 C11.9019942,2.43803458 9.46401153,-5.76368876e-06 6.45530836,-5.76368876e-06 L4.14983285,-5.76368876e-06 L-2.3054755e-05,-5.76368876e-06 L-2.3054755e-05,17.6368818 L4.14983285,17.6368818 L7.26222478,17.6368818 C10.270928,17.6368818 12.7089107,15.1988415 12.7089107,12.190196 C12.7146744,10.6743458 12.092196,9.3025879 11.0893141,8.31123343 Z" id="Fill-6" fill="#B8BCCC" mask="url(#mask-2)"></path>
                </g>
                <g id="Group-11" transform="translate(33.717579, 2.074928)">
                    <mask id="mask-4" fill="white">
                        <use xlink:href="#path-3"></use>
                    </mask>
                    <g id="Clip-10"></g>
                    <path d="M6.25934294,7.31987896 L6.25934294,3.17002305 L4.18441499,3.17002305 L4.18441499,-5.76368876e-06 L0.0345590778,0.881838617 L0.0345590778,7.31987896 L0.0345590778,11.5907723 L0.0345590778,11.6080634 L0.0345590778,11.6195908 C0.0345590778,14.1498501 1.60804611,15.6080634 3.92504899,15.7291009 C3.94810375,15.7291009 3.97692219,15.7348646 3.99997695,15.7348646 L4.04032277,15.7348646 C4.09219597,15.7348646 4.13830548,15.7406282 4.19023631,15.7406282 L4.24205187,15.7406282 C5.406317,15.7406282 6.26516427,15.2218963 6.26516427,15.2218963 L6.26516427,12.1671412 C6.26516427,12.1671412 5.87323343,12.2881787 5.33715274,12.2881787 C4.50723919,12.2881787 4.19023631,11.5619539 4.19023631,10.5763631 L4.19023631,7.31987896 L6.25934294,7.31987896 Z" id="Fill-9" fill="#B8BCCC" mask="url(#mask-4)"></path>
                </g>
                <polygon id="Fill-1" fill="#B8BCCC" points="32.1382997 1.15273775e-05 27.9884438 0.881798271 27.9884438 17.6368991 32.1382997 17.6368991"></polygon>
            </g>
        </g>
    </g>
</svg>