<?xml version="1.0" encoding="UTF-8"?>
<svg width="105px" height="20px" viewBox="0 0 105 20" version="1.1" xmlns="http://www.w3.org/2000/svg" xmlns:xlink="http://www.w3.org/1999/xlink">
    <!-- Generator: Sketch 52.4 (67378) - http://www.bohemiancoding.com/sketch -->
    <title>Bytedance</title>
    <desc>Created with Sketch.</desc>
    <g id="Page-1" stroke="none" stroke-width="1" fill="none" fill-rule="evenodd">
        <g id="Bytedance" transform="translate(-1.000000, 0.000000)" fill="#B8BCCC">
            <g id="Group" transform="translate(25.881279, 2.258065)">
                <g fill-rule="nonzero" id="Shape">
                    <path d="M0.325924289,12.4193548 L0.325924289,0.225806452 L2.85464722,0.225806452 C4.16958315,0.225806452 5.14735602,0.462903226 5.78796583,0.948387097 C6.15884519,1.23064516 6.46229194,1.59193548 6.67582855,2.04354839 C6.90060392,2.49516129 7.00175284,2.96935484 7.00175284,3.45483871 C7.00175284,4.43709677 6.54096332,5.27258065 5.60814553,5.97258065 C6.03521874,6.14193548 6.36114303,6.33387097 6.59715717,6.5483871 C7.28272205,7.19193548 7.61988511,8.01612903 7.61988511,9.02096774 C7.61988511,10.0596774 7.20405067,10.9177419 6.37238179,11.5725806 C5.99026366,11.8774194 5.58566799,12.0919355 5.14735602,12.216129 C4.70904404,12.3403226 4.14710561,12.4080645 3.46154073,12.4080645 L0.325924289,12.4080645 L0.325924289,12.4193548 Z M1.67457652,5.58870968 L3.05694506,5.58870968 C3.56268965,5.58870968 3.95604655,5.55483871 4.23701576,5.48709677 C4.51798498,5.41935484 4.76523788,5.28387097 5.00125203,5.10322581 C5.48451907,4.70806452 5.73177198,4.18870968 5.73177198,3.52258065 C5.73177198,2.81129032 5.48451907,2.28064516 4.99001326,1.91935484 C4.58541759,1.62580645 3.94480778,1.47903226 3.05694506,1.47903226 L1.67457652,1.47903226 L1.67457652,5.58870968 Z M1.67457652,11.1548387 L3.34915304,11.1548387 C3.8998527,11.1548387 4.31568714,11.1209677 4.63037266,11.0419355 C4.93381941,10.9629032 5.2260274,10.8274194 5.49575784,10.6241935 C6.02397997,10.2177419 6.28247165,9.66451613 6.28247165,8.96451613 C6.28247165,8.58064516 6.1925615,8.23064516 6.00150243,7.89193548 C5.82168213,7.56451613 5.57442922,7.30483871 5.2597437,7.13548387 C4.81019296,6.87580645 4.11338931,6.7516129 3.16933274,6.7516129 L1.66333775,6.7516129 L1.66333775,11.1548387 L1.67457652,11.1548387 Z"></path>
                    <path d="M3.45030196,12.6451613 L0.101148917,12.6451613 L0.101148917,0 L2.85464722,0 C4.21453822,0 5.24850493,0.259677419 5.92283105,0.767741935 C6.32742672,1.07258065 6.64211224,1.46774194 6.87812638,1.95322581 C7.11414052,2.43870968 7.22652821,2.94677419 7.22652821,3.46612903 C7.22652821,4.41451613 6.82193254,5.23870968 6.03521874,5.92741935 C6.32742672,6.07419355 6.56344086,6.23225806 6.74326116,6.4016129 C7.47378112,7.09032258 7.83342171,7.97096774 7.83342171,9.04354839 C7.83342171,10.15 7.38387097,11.0758065 6.50724702,11.7758065 C6.10265135,12.0919355 5.66433937,12.3290323 5.20354986,12.4645161 C4.74276035,12.5774194 4.15834438,12.6451613 3.45030196,12.6451613 Z M0.550699661,12.1935484 L3.45030196,12.1935484 C4.11338931,12.1935484 4.66408897,12.1370968 5.07992341,12.0129032 C5.48451907,11.9 5.87787598,11.6967742 6.2262778,11.4145161 C7.00175284,10.7935484 7.38387097,10.0145161 7.38387097,9.03225806 C7.38387097,8.08387097 7.06918545,7.32741935 6.42857564,6.71774194 C6.21503903,6.52580645 5.91159228,6.34516129 5.50699661,6.18709677 L5.13611725,6.04032258 L5.46204154,5.80322581 C6.33866549,5.1483871 6.76573869,4.38064516 6.76573869,3.46612903 C6.76573869,3.01451613 6.66458978,2.57419355 6.46229194,2.15645161 C6.25999411,1.73870968 5.97902489,1.4 5.64186184,1.14032258 C5.0462071,0.688709677 4.10215054,0.462903226 2.84340845,0.462903226 L0.539460893,0.462903226 L0.539460893,12.1935484 L0.550699661,12.1935484 Z M3.34915304,11.3806452 L1.44980115,11.3806452 L1.44980115,6.52580645 L3.18057151,6.52580645 C4.16958315,6.52580645 4.88886434,6.66129032 5.38337016,6.94354839 C5.72053322,7.13548387 6.00150243,7.41774194 6.20380027,7.79032258 C6.4060981,8.1516129 6.50724702,8.54677419 6.50724702,8.96451613 C6.50724702,9.73225806 6.21503903,10.3532258 5.63062307,10.8048387 C5.33841508,11.0306452 5.02372956,11.1774194 4.6865665,11.2677419 C4.34940345,11.3467742 3.91109147,11.3806452 3.34915304,11.3806452 Z M1.89935189,10.9290323 L3.34915304,10.9290323 C3.87737517,10.9290323 4.28197084,10.8951613 4.57417882,10.816129 C4.85514803,10.7483871 5.11363971,10.6129032 5.36089262,10.4322581 C5.8329209,10.0596774 6.05769627,9.58548387 6.05769627,8.95322581 C6.05769627,8.61451613 5.97902489,8.28709677 5.81044336,7.99354839 C5.64186184,7.7 5.42832523,7.47419355 5.15859479,7.32741935 C4.74276035,7.09032258 4.079673,6.97741935 3.18057151,6.97741935 L1.89935189,6.97741935 L1.89935189,10.9290323 Z M3.05694506,5.81451613 L1.44980115,5.81451613 L1.44980115,1.25322581 L3.05694506,1.25322581 C4.00100162,1.25322581 4.67532774,1.41129032 5.11363971,1.73870968 C5.66433937,2.13387097 5.94530859,2.74354839 5.94530859,3.52258065 C5.94530859,4.25645161 5.67557814,4.84354839 5.13611725,5.28387097 C4.87762557,5.4983871 4.59665636,5.63387097 4.2932096,5.71290323 C3.98976285,5.78064516 3.59640595,5.81451613 3.05694506,5.81451613 Z M1.89935189,5.36290323 L3.05694506,5.36290323 C3.55145088,5.36290323 3.92233024,5.32903226 4.18082192,5.26129032 C4.41683606,5.20483871 4.6528502,5.08064516 4.85514803,4.92258065 C5.29346001,4.57258065 5.50699661,4.10967742 5.50699661,3.51129032 C5.50699661,2.87903226 5.29346001,2.41612903 4.8663868,2.1 C4.50674621,1.84032258 3.8998527,1.70483871 3.06818383,1.70483871 L1.91059066,1.70483871 L1.91059066,5.36290323 L1.89935189,5.36290323 Z"></path>
                </g>
                <g transform="translate(20.791722, 3.838710)" fill-rule="nonzero" id="Shape">
                    <path d="M1.5734276,5.08064516 C1.61838268,5.39677419 1.69705406,5.69032258 1.80944174,5.96129032 C2.03421712,6.50322581 2.37138017,6.92096774 2.83216969,7.21451613 C3.24800412,7.48548387 3.72003241,7.62096774 4.2594933,7.62096774 C5.34965385,7.62096774 6.17008396,7.14677419 6.70954485,6.18709677 L7.86713802,6.68387097 C7.47378112,7.37258065 6.95679776,7.90322581 6.33866549,8.26451613 C5.72053322,8.62580645 5.02372956,8.80645161 4.2594933,8.80645161 C3.02322875,8.80645161 2.01173958,8.34354839 1.24750331,7.40645161 C0.573177198,6.60483871 0.247252909,5.63387097 0.247252909,4.51612903 C0.247252909,3.75967742 0.415834438,3.0483871 0.752997496,2.40483871 C1.11263809,1.72741935 1.60714391,1.19677419 2.23651495,0.812903226 C2.83216969,0.451612903 3.4727795,0.282258065 4.16958315,0.282258065 C5.29346001,0.282258065 6.21503903,0.7 6.94555899,1.52419355 C7.66484018,2.3483871 8.03571955,3.40967742 8.03571955,4.70806452 C8.03571955,4.78709677 8.03571955,4.92258065 8.02448078,5.11451613 L1.5734276,5.11451613 L1.5734276,5.08064516 Z M6.72078362,3.96290323 C6.67582855,3.62419355 6.59715717,3.33064516 6.49600825,3.08225806 C6.27123288,2.54032258 5.94530859,2.12258065 5.51823538,1.82903226 C5.11363971,1.55806452 4.66408897,1.42258065 4.16958315,1.42258065 C3.48401826,1.42258065 2.91084107,1.6483871 2.45005155,2.11129032 C1.97802327,2.57419355 1.68581529,3.18387097 1.5734276,3.9516129 L6.72078362,3.9516129 L6.72078362,3.96290323 Z"></path>
                    <path d="M4.2594933,9.02096774 C2.95579614,9.02096774 1.88811312,8.52419355 1.06768302,7.54193548 C0.370879364,6.70645161 0.0112387686,5.67903226 0.0112387686,4.50483871 C0.0112387686,3.71451613 0.191059066,2.95806452 0.539460893,2.28064516 C0.921579025,1.56935484 1.44980115,1.00483871 2.10164973,0.598387097 C2.73102077,0.225806452 3.41658565,0.0338709677 4.14710561,0.0338709677 C5.33841508,0.0338709677 6.32742672,0.474193548 7.09166298,1.35483871 C7.84466048,2.22419355 8.22677861,3.34193548 8.22677861,4.68548387 C8.22677861,4.76451613 8.22677861,4.9 8.21553984,5.09193548 L8.20430108,5.30645161 L1.82068051,5.30645161 C1.86563559,5.50967742 1.92182943,5.69032258 1.98926204,5.87096774 C2.19155988,6.36774194 2.5062454,6.7516129 2.92207984,7.02258065 C3.30419797,7.27096774 3.74250994,7.39516129 4.22577699,7.39516129 C5.23726617,7.39516129 5.97902489,6.96612903 6.48476948,6.07419355 L6.5859184,5.90483871 L8.159346,6.57096774 L8.03571955,6.79677419 C7.61988511,7.51935484 7.08042422,8.07258065 6.42857564,8.45645161 C5.7992046,8.82903226 5.05744587,9.02096774 4.2594933,9.02096774 Z M4.15834438,0.485483871 C3.5064958,0.485483871 2.8996023,0.65483871 2.34890264,0.993548387 C1.76448667,1.35483871 1.29245839,1.8516129 0.944056562,2.49516129 C0.629371041,3.10483871 0.460789512,3.78225806 0.460789512,4.50483871 C0.460789512,5.56612903 0.786713802,6.49193548 1.41608484,7.2483871 C2.1466048,8.14032258 3.0794226,8.56935484 4.2594933,8.56935484 C4.97877449,8.56935484 5.64186184,8.4 6.2262778,8.05 C6.74326116,7.74516129 7.18157313,7.31612903 7.54121373,6.77419355 L6.799455,6.45806452 C6.21503903,7.37258065 5.36089262,7.83548387 4.2594933,7.83548387 C3.6863161,7.83548387 3.15809398,7.68870968 2.70854323,7.38387097 C2.21403741,7.06774194 1.84315805,6.61612903 1.60714391,6.02903226 C1.48351745,5.74677419 1.40484607,5.43064516 1.359891,5.09193548 L1.32617469,4.83225806 L7.79970541,4.83225806 C7.79970541,4.75322581 7.79970541,4.69677419 7.79970541,4.6516129 C7.79970541,3.42096774 7.45130358,2.40483871 6.76573869,1.62580645 C6.08017381,0.869354839 5.2260274,0.485483871 4.15834438,0.485483871 Z M6.9792753,4.18870968 L1.31493593,4.18870968 L1.34865223,3.92903226 C1.47227869,3.11612903 1.78696421,2.45 2.28147003,1.96451613 C2.78721461,1.46774194 3.42782442,1.20806452 4.15834438,1.20806452 C4.69780527,1.20806452 5.19231109,1.35483871 5.63062307,1.6483871 C6.09141258,1.96451613 6.45105317,2.41612903 6.68706731,3.00322581 C6.799455,3.26290323 6.87812638,3.57903226 6.92308146,3.92903226 L6.9792753,4.18870968 Z M1.84315805,3.73709677 L6.45105317,3.73709677 C6.4060981,3.52258065 6.34990426,3.34193548 6.28247165,3.17258065 C6.08017381,2.67580645 5.77672706,2.29193548 5.38337016,2.02096774 C5.02372956,1.78387097 4.60789512,1.65967742 4.15834438,1.65967742 C3.52897334,1.65967742 3.02322875,1.86290323 2.59615555,2.28064516 C2.22527618,2.65322581 1.9667845,3.13870968 1.84315805,3.73709677 Z"></path>
                </g>
                <g transform="translate(34.727795, 0.000000)" fill-rule="nonzero" id="Shape">
                    <path d="M0.325924289,0.225806452 L2.80969215,0.225806452 C4.61913389,0.225806452 6.11389012,0.677419355 7.27148328,1.59193548 C8.66509059,2.68709677 9.36189424,4.25645161 9.36189424,6.31129032 C9.36189424,8.37741935 8.66509059,9.95806452 7.27148328,11.0532258 C6.12512888,11.9677419 4.63037266,12.4193548 2.80969215,12.4193548 L0.325924289,12.4193548 L0.325924289,0.225806452 Z M1.68581529,1.5016129 L1.68581529,11.1548387 L2.87712476,11.1548387 C4.2932096,11.1548387 5.45080277,10.7935484 6.34990426,10.0709677 C7.45130358,9.19032258 7.99076447,7.93709677 7.99076447,6.31129032 C7.99076447,4.69677419 7.44006481,3.45483871 6.34990426,2.57419355 C5.439564,1.8516129 4.28197084,1.49032258 2.87712476,1.49032258 L1.68581529,1.49032258 L1.68581529,1.5016129 Z"></path>
                    <path d="M2.80969215,12.6451613 L0.101148917,12.6451613 L0.101148917,0 L2.80969215,0 C4.66408897,0 6.21503903,0.474193548 7.4063485,1.41129032 C8.84491089,2.5516129 9.58666961,4.18870968 9.58666961,6.3 C9.58666961,8.43387097 8.85614965,10.0822581 7.4063485,11.2225806 C6.2262778,12.1709677 4.67532774,12.6451613 2.80969215,12.6451613 Z M0.550699661,12.1935484 L2.80969215,12.1935484 C4.57417882,12.1935484 6.02397997,11.7532258 7.13661806,10.8725806 C8.46279275,9.82258065 9.13711887,8.28709677 9.13711887,6.31129032 C9.13711887,4.34677419 8.46279275,2.82258065 7.13661806,1.77258065 C6.02397997,0.903225806 4.56294005,0.451612903 2.80969215,0.451612903 L0.550699661,0.451612903 L0.550699661,12.1935484 Z M2.87712476,11.3806452 L1.46103992,11.3806452 L1.46103992,1.27580645 L2.87712476,1.27580645 C4.33816468,1.27580645 5.55195169,1.65967742 6.49600825,2.40483871 C7.64236265,3.31935484 8.22677861,4.64032258 8.22677861,6.31129032 C8.22677861,8.00483871 7.64236265,9.32580645 6.49600825,10.2516129 C5.55195169,10.9967742 4.33816468,11.3806452 2.87712476,11.3806452 Z M1.91059066,10.9290323 L2.87712476,10.9290323 C4.23701576,10.9290323 5.36089262,10.5790323 6.21503903,9.9016129 C7.24900574,9.06612903 7.77722787,7.86935484 7.77722787,6.32258065 C7.77722787,4.76451613 7.27148328,3.6016129 6.21503903,2.76612903 C5.34965385,2.07741935 4.22577699,1.73870968 2.87712476,1.73870968 L1.91059066,1.73870968 L1.91059066,10.9290323 Z"></path>
                </g>
                <g transform="translate(44.955074, 3.838710)" fill-rule="nonzero" id="Shape">
                    <path d="M8.50774783,8.58064516 L7.21528944,8.58064516 L7.21528944,7.51935484 C6.45105317,8.36612903 5.50699661,8.79516129 4.38311975,8.79516129 C3.6863161,8.79516129 3.02322875,8.61451613 2.40509648,8.25322581 C1.74200913,7.86935484 1.22502578,7.33870968 0.854146413,6.66129032 C0.494505818,6.01774194 0.314685521,5.30645161 0.314685521,4.52741935 C0.314685521,3.24032258 0.775475033,2.16774194 1.68581529,1.33225806 C2.47252909,0.620967742 3.37163058,0.259677419 4.39435852,0.259677419 C5.50699661,0.259677419 6.45105317,0.688709677 7.22652821,1.54677419 L7.22652821,0.474193548 L8.5189866,0.474193548 L8.5189866,8.58064516 L8.50774783,8.58064516 Z M4.38311975,1.43387097 C3.49525703,1.43387097 2.77597584,1.79516129 2.22527618,2.50645161 C1.80944174,3.03709677 1.60714391,3.70322581 1.60714391,4.51612903 C1.60714391,5.46451613 1.88811312,6.23225806 2.45005155,6.79677419 C2.98951245,7.35 3.65259979,7.62096774 4.4393136,7.62096774 C5.36089262,7.62096774 6.09141258,7.25967742 6.63087347,6.53709677 C7.03546914,6.00645161 7.23776698,5.32903226 7.23776698,4.50483871 C7.23776698,3.57903226 6.96803653,2.82258065 6.41733687,2.25806452 C5.90035351,1.70483871 5.2260274,1.43387097 4.38311975,1.43387097 Z"></path>
                    <path d="M4.37188098,9.02096774 C3.64136103,9.02096774 2.9333186,8.82903226 2.28147003,8.44516129 C1.58466637,8.05 1.03396671,7.48548387 0.64060981,6.77419355 C0.258491678,6.09677419 0.0674326116,5.34032258 0.0674326116,4.52741935 C0.0674326116,3.17258065 0.550699661,2.04354839 1.50599499,1.16290323 C2.3264251,0.417741935 3.2929592,0.0338709677 4.37188098,0.0338709677 C5.36089262,0.0338709677 6.23751657,0.361290323 6.9792753,1.01612903 L6.9792753,0.248387097 L8.72128443,0.248387097 L8.72128443,8.80645161 L6.9792753,8.80645161 L6.9792753,8.06129032 C6.25999411,8.69354839 5.38337016,9.02096774 4.37188098,9.02096774 Z M4.37188098,0.485483871 C3.40534688,0.485483871 2.55120047,0.824193548 1.80944174,1.5016129 C0.932817793,2.30322581 0.516983355,3.29677419 0.516983355,4.52741935 C0.516983355,5.26129032 0.685564884,5.93870968 1.03396671,6.5483871 C1.38236854,7.19193548 1.87687436,7.68870968 2.5062454,8.05 C3.09066136,8.38870968 3.72003241,8.56935484 4.37188098,8.56935484 C5.45080277,8.56935484 6.31618795,8.17419355 7.03546914,7.37258065 L7.42882604,6.93225806 L7.42882604,8.35483871 L8.27173369,8.35483871 L8.27173369,0.7 L7.42882604,0.7 L7.42882604,2.12258065 L7.03546914,1.69354839 C6.30494918,0.880645161 5.42832523,0.485483871 4.37188098,0.485483871 Z M4.4393136,7.84677419 C3.59640595,7.84677419 2.86588599,7.55322581 2.29270879,6.95483871 C1.68581529,6.34516129 1.38236854,5.53225806 1.38236854,4.51612903 C1.38236854,3.65806452 1.60714391,2.93548387 2.05669465,2.37096774 C2.65234939,1.60322581 3.43906319,1.20806452 4.39435852,1.20806452 C5.29346001,1.20806452 6.02397997,1.51290323 6.59715717,2.1 C7.18157313,2.70967742 7.47378112,3.52258065 7.47378112,4.50483871 C7.47378112,5.36290323 7.26024451,6.09677419 6.82193254,6.67258065 C6.23751657,7.4516129 5.42832523,7.84677419 4.4393136,7.84677419 Z M4.38311975,1.65967742 C3.56268965,1.65967742 2.92207984,1.98709677 2.40509648,2.64193548 C2.02297835,3.12741935 1.83191928,3.75967742 1.83191928,4.51612903 C1.83191928,5.41935484 2.09041096,6.10806452 2.60739431,6.63870968 C3.1131389,7.14677419 3.70879364,7.39516129 4.4393136,7.39516129 C5.29346001,7.39516129 5.95654736,7.06774194 6.45105317,6.4016129 C6.82193254,5.90483871 7.0129916,5.27258065 7.0129916,4.50483871 C7.0129916,3.63548387 6.75449993,2.93548387 6.25999411,2.41612903 C5.77672706,1.90806452 5.16983355,1.65967742 4.38311975,1.65967742 Z"></path>
                </g>
                <g transform="translate(55.294741, 3.838710)">
                    <path d="M1.52847253,1.37741935 C2.12412726,0.632258065 2.9333186,0.248387097 3.95604655,0.248387097 C4.94505818,0.248387097 5.75424952,0.587096774 6.37238179,1.27580645 C6.66458978,1.59193548 6.87812638,1.98709677 7.0129916,2.43870968 C7.14785683,2.89032258 7.20405067,3.47741935 7.20405067,4.17741935 L7.20405067,8.58064516 L5.91159228,8.58064516 L5.91159228,4.34677419 C5.91159228,3.75967742 5.86663721,3.29677419 5.78796583,2.95806452 C5.70929445,2.61935484 5.56319046,2.3483871 5.36089262,2.12258065 C4.97877449,1.71612903 4.4730299,1.5016129 3.84365886,1.5016129 C3.05694506,1.5016129 2.45005155,1.76129032 2.03421712,2.26935484 C1.69705406,2.67580645 1.52847253,3.43225806 1.52847253,4.51612903 L1.52847253,8.58064516 L0.224775372,8.58064516 L0.224775372,0.474193548 L1.51723376,0.474193548 L1.51723376,1.37741935 L1.52847253,1.37741935 Z" id="Path"></path>
                    <path d="M7.42882604,8.80645161 L5.68681691,8.80645161 L5.68681691,4.34677419 C5.68681691,3.78225806 5.64186184,3.33064516 5.57442922,3.01451613 C5.49575784,2.72096774 5.37213139,2.47258065 5.20354986,2.28064516 C4.8663868,1.91935484 4.42807483,1.73870968 3.84365886,1.73870968 C3.12437767,1.73870968 2.58491678,1.96451613 2.21403741,2.42741935 C1.91059066,2.8 1.7532479,3.5 1.7532479,4.53870968 L1.7532479,8.80645161 L0,8.80645161 L0,0.248387097 L1.74200913,0.248387097 L1.74200913,0.824193548 C2.3264251,0.30483871 3.06818383,0.0338709677 3.94480778,0.0338709677 C4.99001326,0.0338709677 5.86663721,0.406451613 6.52972455,1.12903226 C6.84441008,1.47903226 7.08042422,1.89677419 7.21528944,2.38225806 C7.35015466,2.85645161 7.41758727,3.46612903 7.41758727,4.17741935 L7.41758727,8.80645161 L7.42882604,8.80645161 Z M6.13636765,8.35483871 L6.9792753,8.35483871 L6.9792753,4.18870968 C6.9792753,3.51129032 6.91184269,2.94677419 6.78821623,2.51774194 C6.66458978,2.1 6.47353071,1.73870968 6.20380027,1.44516129 C5.6193843,0.801612903 4.87762557,0.485483871 3.95604655,0.485483871 C3.00075122,0.485483871 2.25899249,0.824193548 1.70829283,1.52419355 L1.30369716,2.02096774 L1.30369716,0.688709677 L0.449550744,0.688709677 L0.449550744,8.35483871 L1.29245839,8.35483871 L1.29245839,4.52741935 C1.29245839,3.37580645 1.47227869,2.58548387 1.85439682,2.13387097 C2.31518633,1.56935484 2.97827368,1.28709677 3.83242009,1.28709677 C4.52922374,1.28709677 5.09116217,1.52419355 5.51823538,1.97580645 C5.74301075,2.22419355 5.91159228,2.54032258 6.00150243,2.91290323 C6.09141258,3.27419355 6.13636765,3.73709677 6.13636765,4.35806452 L6.13636765,8.35483871 Z" id="Shape" fill-rule="nonzero"></path>
                </g>
                <g transform="translate(63.723818, 3.838710)">
                    <path d="M6.68706731,2.50645161 C6.06893504,1.79516129 5.33841508,1.43387097 4.49550744,1.43387097 C3.55145088,1.43387097 2.79845338,1.79516129 2.24775372,2.50645161 C1.84315805,3.03709677 1.62962145,3.71451613 1.62962145,4.51612903 C1.62962145,5.46451613 1.91059066,6.23225806 2.46129032,6.79677419 C3.00075122,7.35 3.6863161,7.62096774 4.51798498,7.62096774 C4.99001326,7.62096774 5.39460893,7.54193548 5.72053322,7.37258065 C6.0464575,7.20322581 6.39485933,6.90967742 6.74326116,6.49193548 L7.61988511,7.37258065 C7.13661806,7.89193548 6.65335101,8.26451613 6.17008396,8.47903226 C5.69805568,8.70483871 5.13611725,8.80645161 4.50674621,8.80645161 C3.22552659,8.80645161 2.16908234,8.34354839 1.37112977,7.41774194 C0.663087347,6.60483871 0.314685521,5.64516129 0.314685521,4.53870968 C0.314685521,3.2516129 0.775475033,2.17903226 1.68581529,1.35483871 C2.46129032,0.643548387 3.40534688,0.282258065 4.51798498,0.282258065 C5.6531006,0.282258065 6.66458978,0.74516129 7.56369127,1.65967742 L6.68706731,2.50645161 Z" id="Path"></path>
                    <path d="M4.51798498,9.02096774 C3.16933274,9.02096774 2.05669465,8.52419355 1.21378701,7.55322581 C0.472028281,6.70645161 0.101148917,5.69032258 0.101148917,4.51612903 C0.101148917,3.16129032 0.584415967,2.03225806 1.5397113,1.16290323 C2.36014141,0.417741935 3.36039181,0.0338709677 4.51798498,0.0338709677 C5.70929445,0.0338709677 6.78821623,0.519354839 7.72103403,1.47903226 L7.87837679,1.63709677 L6.67582855,2.84516129 L6.51848579,2.66451613 C5.94530859,1.9983871 5.28222124,1.67096774 4.49550744,1.67096774 C3.60764472,1.67096774 2.9333186,1.9983871 2.42757402,2.65322581 C2.05669465,3.15 1.86563559,3.77096774 1.86563559,4.52741935 C1.86563559,5.43064516 2.1128885,6.11935484 2.64111062,6.65 C3.13561644,7.15806452 3.76498748,7.40645161 4.54046251,7.40645161 C4.97877449,7.40645161 5.34965385,7.32741935 5.64186184,7.18064516 C5.94530859,7.03387097 6.25999411,6.7516129 6.59715717,6.35645161 L6.75449993,6.16451613 L7.95704817,7.37258065 L7.81094417,7.53064516 C7.30519959,8.07258065 6.799455,8.45645161 6.29371041,8.69354839 C5.76548829,8.90806452 5.16983355,9.02096774 4.51798498,9.02096774 Z M4.51798498,0.485483871 C3.4727795,0.485483871 2.57367801,0.824193548 1.84315805,1.5016129 C0.966534099,2.30322581 0.550699661,3.28548387 0.550699661,4.52741935 C0.550699661,5.57741935 0.887862719,6.50322581 1.55095007,7.25967742 C2.31518633,8.14032258 3.2929592,8.58064516 4.51798498,8.58064516 C5.11363971,8.58064516 5.64186184,8.47903226 6.08017381,8.27580645 C6.48476948,8.09516129 6.88936515,7.79032258 7.30519959,7.37258065 L6.75449993,6.81935484 C6.43981441,7.16935484 6.12512888,7.41774194 5.82168213,7.57580645 C5.46204154,7.75645161 5.02372956,7.84677419 4.51798498,7.84677419 C3.63012226,7.84677419 2.88836353,7.55322581 2.30394756,6.95483871 C1.70829283,6.34516129 1.40484607,5.53225806 1.40484607,4.51612903 C1.40484607,3.66935484 1.62962145,2.94677419 2.06793342,2.37096774 C2.66358816,1.60322581 3.48401826,1.20806452 4.49550744,1.20806452 C5.33841508,1.20806452 6.06893504,1.53548387 6.69830608,2.17903226 L7.23776698,1.63709677 C6.42857564,0.869354839 5.51823538,0.485483871 4.51798498,0.485483871 Z" id="Shape" fill-rule="nonzero"></path>
                </g>
                <g transform="translate(71.815731, 3.838710)" fill-rule="nonzero" id="Shape">
                    <path d="M1.64086022,5.08064516 C1.68581529,5.39677419 1.76448667,5.69032258 1.87687436,5.96129032 C2.10164973,6.50322581 2.43881279,6.92096774 2.8996023,7.21451613 C3.31543674,7.48548387 3.78746502,7.62096774 4.32692591,7.62096774 C5.41708646,7.62096774 6.23751657,7.14677419 6.77697746,6.18709677 L7.93457063,6.68387097 C7.54121373,7.37258065 7.02423037,7.90322581 6.4060981,8.26451613 C5.78796583,8.62580645 5.09116217,8.80645161 4.32692591,8.80645161 C3.09066136,8.80645161 2.07917219,8.34354839 1.31493593,7.40645161 C0.64060981,6.60483871 0.314685521,5.63387097 0.314685521,4.51612903 C0.314685521,3.75967742 0.48326705,3.0483871 0.820430108,2.40483871 C1.1800707,1.72741935 1.67457652,1.19677419 2.30394756,0.812903226 C2.8996023,0.451612903 3.54021211,0.282258065 4.23701576,0.282258065 C5.36089262,0.282258065 6.28247165,0.7 7.0129916,1.52419355 C7.73227279,2.3483871 8.10315216,3.40967742 8.10315216,4.70806452 C8.10315216,4.78709677 8.10315216,4.92258065 8.09191339,5.11451613 L1.64086022,5.11451613 L1.64086022,5.08064516 Z M6.78821623,3.96290323 C6.74326116,3.62419355 6.66458978,3.33064516 6.56344086,3.08225806 C6.33866549,2.54032258 6.0127412,2.12258065 5.58566799,1.82903226 C5.18107232,1.55806452 4.73152158,1.42258065 4.23701576,1.42258065 C3.55145088,1.42258065 2.97827368,1.6483871 2.51748417,2.11129032 C2.04545588,2.57419355 1.7532479,3.18387097 1.64086022,3.9516129 L6.78821623,3.9516129 L6.78821623,3.96290323 Z"></path>
                    <path d="M4.32692591,9.02096774 C3.02322875,9.02096774 1.95554574,8.52419355 1.13511563,7.54193548 C0.438311975,6.70645161 0.0786713802,5.67903226 0.0786713802,4.50483871 C0.0786713802,3.71451613 0.258491678,2.95806452 0.606893504,2.28064516 C0.989011636,1.56935484 1.51723376,1.00483871 2.16908234,0.598387097 C2.79845338,0.225806452 3.48401826,0.0338709677 4.21453822,0.0338709677 C5.40584769,0.0338709677 6.39485933,0.474193548 7.1590956,1.35483871 C7.91209309,2.22419355 8.29421122,3.34193548 8.29421122,4.68548387 C8.29421122,4.76451613 8.29421122,4.9 8.28297246,5.09193548 L8.27173369,5.30645161 L1.91059066,5.30645161 C1.95554574,5.50967742 2.01173958,5.69032258 2.07917219,5.87096774 C2.28147003,6.36774194 2.59615555,6.7516129 3.01198998,7.02258065 C3.39410812,7.27096774 3.83242009,7.39516129 4.31568714,7.39516129 C5.32717631,7.39516129 6.06893504,6.96612903 6.57467963,6.07419355 L6.67582855,5.90483871 L8.24925615,6.57096774 L8.1256297,6.79677419 C7.70979526,7.51935484 7.17033436,8.07258065 6.51848579,8.45645161 C5.86663721,8.82903226 5.13611725,9.02096774 4.32692591,9.02096774 Z M4.23701576,0.485483871 C3.58516718,0.485483871 2.97827368,0.65483871 2.42757402,0.993548387 C1.84315805,1.35483871 1.37112977,1.8516129 1.02272794,2.49516129 C0.708042422,3.10483871 0.539460893,3.78225806 0.539460893,4.50483871 C0.539460893,5.56612903 0.865385182,6.49193548 1.49475622,7.2483871 C2.22527618,8.14032258 3.15809398,8.56935484 4.33816468,8.56935484 C5.05744587,8.56935484 5.72053322,8.4 6.30494918,8.05 C6.82193254,7.74516129 7.26024451,7.31612903 7.61988511,6.77419355 L6.87812638,6.45806452 C6.29371041,7.37258065 5.439564,7.83548387 4.33816468,7.83548387 C3.76498748,7.83548387 3.23676536,7.68870968 2.78721461,7.38387097 C2.29270879,7.06774194 1.92182943,6.61612903 1.68581529,6.02903226 C1.56218883,5.74677419 1.48351745,5.43064516 1.43856238,5.09193548 L1.40484607,4.83225806 L7.86713802,4.83225806 C7.86713802,4.75322581 7.86713802,4.69677419 7.86713802,4.6516129 C7.86713802,3.42096774 7.51873619,2.40483871 6.83317131,1.62580645 C6.14760642,0.869354839 5.30469878,0.485483871 4.23701576,0.485483871 Z M7.04670791,4.18870968 L1.38236854,4.18870968 L1.41608484,3.92903226 C1.5397113,3.11612903 1.85439682,2.45 2.34890264,1.96451613 C2.85464722,1.46774194 3.49525703,1.20806452 4.22577699,1.20806452 C4.76523788,1.20806452 5.2597437,1.35483871 5.69805568,1.6483871 C6.15884519,1.96451613 6.51848579,2.41612903 6.75449993,3.00322581 C6.86688761,3.26290323 6.94555899,3.57903226 6.99051407,3.92903226 L7.04670791,4.18870968 Z M1.91059066,3.73709677 L6.51848579,3.73709677 C6.47353071,3.52258065 6.41733687,3.34193548 6.34990426,3.17258065 C6.14760642,2.67580645 5.84415967,2.29193548 5.45080277,2.02096774 C5.09116217,1.78387097 4.67532774,1.65967742 4.22577699,1.65967742 C3.59640595,1.65967742 3.09066136,1.86290323 2.66358816,2.28064516 C2.29270879,2.65322581 2.04545588,3.13870968 1.91059066,3.73709677 Z"></path>
                </g>
                <path d="M19.5891737,11.0983871 C19.3981146,11.0983871 18.9036088,11.0983871 18.9036088,9.98064516 L18.9036088,5.71290323 L20.2410222,5.71290323 L20.2410222,4.08709677 L18.9036088,4.08709677 L18.9036088,2.3483871 L17.1615996,2.3483871 L17.1615996,4.08709677 L14.7003093,4.08709677 L12.1940639,9.9016129 L9.76648991,4.08709677 L7.87837679,4.08709677 L11.2500074,12.0580645 L9.14835764,16.9241935 L10.9690381,16.9241935 L15.8466637,5.72419355 L17.1391221,5.72419355 L17.1391221,9.99193548 C17.1391221,12.2951613 18.3304316,12.7806452 19.3194432,12.7806452 C19.5779349,12.7806452 19.8701429,12.7354839 20.1848284,12.6451613 L20.3534099,12.6 L20.3534099,10.9516129 L20.0724407,11.0193548 C19.8701429,11.0758065 19.7015613,11.0983871 19.5891737,11.0983871 Z" id="Path"></path>
            </g>
            <g id="Group">
                <g transform="translate(0.577994, 0.000000)" id="Path">
                    <path d="M16.1886434,8.1516129 C16.1886434,5.58870968 16.1998822,3.01451613 16.1774046,0.451612903 C16.1774046,0.0677419355 16.2673148,-4.11476409e-15 16.6157166,0.101612903 C17.3687141,0.316129032 18.1329504,0.508064516 18.8859479,0.7 C19.1893946,0.779032258 19.3130211,0.903225806 19.3130211,1.24193548 C19.3017823,5.87096774 19.3017823,10.4887097 19.3130211,15.1177419 C19.3130211,15.4225806 19.2231109,15.5693548 18.9196642,15.6483871 C18.1329504,15.8403226 17.3462366,16.0435484 16.5595228,16.2693548 C16.2335985,16.3596774 16.1661659,16.2693548 16.1661659,15.9419355 C16.1886434,13.333871 16.1886434,10.7370968 16.1886434,8.1516129 Z"></path>
                    <path d="M5.98384151,11.6064516 C5.98384151,10.3080645 5.99508028,9.00967742 5.98384151,7.71129032 C5.98384151,7.40645161 6.05127412,7.31612903 6.36595964,7.40645161 C7.17515098,7.63225806 7.99558109,7.84677419 8.80477243,8.05 C9.0632641,8.11774194 9.13069672,8.24193548 9.11945795,8.49032258 C9.10821918,10.5790323 9.10821918,12.6677419 9.11945795,14.7564516 C9.11945795,15.0048387 9.05202534,15.1290323 8.79353366,15.1967742 C7.97310355,15.4 7.16391221,15.6145161 6.35472087,15.8403226 C6.06251289,15.9193548 5.97260274,15.8629032 5.97260274,15.5467742 C5.98384151,14.2370968 5.98384151,12.916129 5.98384151,11.6064516 Z"></path>
                    <path d="M14.3342466,9.52903226 C14.3342466,10.8387097 14.3342466,12.1483871 14.3342466,13.4580645 C14.3342466,13.7290323 14.311769,13.8419355 13.9858447,13.7403226 C13.1766534,13.5032258 12.3562233,13.3 11.547032,13.1080645 C11.254824,13.0403226 11.1761526,12.8935484 11.1873914,12.6112903 C11.1986301,10.5564516 11.1986301,8.49032258 11.1873914,6.43548387 C11.1873914,6.11935484 11.2885403,5.99516129 11.591987,5.92741935 C12.4011784,5.73548387 13.1991309,5.52096774 13.9970835,5.29516129 C14.3005303,5.21612903 14.3567241,5.30645161 14.3567241,5.58870968 C14.3342466,6.8983871 14.3342466,8.21935484 14.3342466,9.52903226 Z"></path>
                    <path d="M4.12944469,2.03225806 C4.12944469,2.03225806 4.12944469,2.03225806 4.12944469,2.03225806 L4.12944469,1.97580645 C4.11820592,1.76129032 4.03953454,1.6483871 3.8035204,1.59193548 C3.0168066,1.4 2.2300928,1.18548387 1.443379,0.982258065 C0.971350714,0.858064516 0.971350714,0.858064516 0.971350714,1.36612903 C0.971350714,1.56935484 0.971350714,1.77258065 0.971350714,1.97580645 L0.960111946,1.97580645 L0.960111946,14.3387097 C0.960111946,14.5870968 0.960111946,14.8354839 0.960111946,15.083871 C0.960111946,15.4225806 1.03878333,15.4903226 1.36470762,15.4 C2.16266019,15.1629032 2.96061276,14.9596774 3.76980409,14.7677419 C4.017057,14.7112903 4.12944469,14.6096774 4.12944469,14.35 L4.12944469,2.17903226 C4.12944469,2.13387097 4.12944469,2.07741935 4.12944469,2.03225806 Z"></path>
                </g>
            </g>
        </g>
    </g>
</svg>