<?xml version="1.0" encoding="UTF-8"?>
<svg width="116px" height="22px" viewBox="0 0 116 22" version="1.1" xmlns="http://www.w3.org/2000/svg" xmlns:xlink="http://www.w3.org/1999/xlink">
    <!-- Generator: Sketch 52.4 (67378) - http://www.bohemiancoding.com/sketch -->
    <title>Bytedance</title>
    <desc>Created with Sketch.</desc>
    <g id="Page-1" stroke="none" stroke-width="1" fill="none" fill-rule="evenodd">
        <g id="Bytedance" transform="translate(-1.000000, 0.000000)" fill="#B8BCCC">
            <g id="Group" transform="translate(28.493151, 2.473118)">
                <g fill-rule="nonzero" id="Shape">
                    <path d="M0.358815731,13.6021505 L0.358815731,0.247311828 L3.14273089,0.247311828 C4.59036677,0.247311828 5.66681396,0.506989247 6.37207247,1.03870968 C6.78038003,1.34784946 7.11444985,1.74354839 7.34953601,2.23817204 C7.59699514,2.7327957 7.70835175,3.25215054 7.70835175,3.78387097 C7.70835175,4.85967742 7.20106054,5.77473118 6.17410517,6.54139785 C6.64427751,6.72688172 7.00309324,6.93709677 7.26292532,7.17204301 C8.01767565,7.87688172 8.38886434,8.77956989 8.38886434,9.88010753 C8.38886434,11.0177419 7.93106496,11.9575269 7.0154662,12.6747312 C6.59478568,13.0086022 6.14935926,13.2435484 5.66681396,13.3795699 C5.18426867,13.5155914 4.56562086,13.5897849 3.81087053,13.5897849 L0.358815731,13.5897849 L0.358815731,13.6021505 Z M1.84357048,6.12096774 L3.3654441,6.12096774 C3.92222713,6.12096774 4.3552806,6.08387097 4.66460451,6.00967742 C4.97392841,5.93548387 5.24613345,5.78709677 5.50596553,5.58924731 C6.03800265,5.15645161 6.31020769,4.58763441 6.31020769,3.85806452 C6.31020769,3.07903226 6.03800265,2.49784946 5.49359258,2.10215054 C5.04816615,1.78064516 4.34290764,1.61989247 3.3654441,1.61989247 L1.84357048,1.61989247 L1.84357048,6.12096774 Z M1.84357048,12.2172043 L3.68714096,12.2172043 C4.29341582,12.2172043 4.7512152,12.1801075 5.09765798,12.0935484 C5.43172779,12.0069892 5.75342466,11.8586022 6.05037561,11.6360215 C6.63190455,11.1908602 6.91648255,10.5849462 6.91648255,9.81827957 C6.91648255,9.39784946 6.8174989,9.01451613 6.60715864,8.64354839 C6.40919134,8.28494624 6.1369863,8.00053763 5.79054353,7.81505376 C5.29562528,7.53064516 4.52850199,7.39462366 3.48917366,7.39462366 L1.83119753,7.39462366 L1.83119753,12.2172043 L1.84357048,12.2172043 Z"></path>
                    <path d="M3.79849757,13.8494624 L0.111356606,13.8494624 L0.111356606,0 L3.14273089,0 C4.63985859,0 5.77817057,0.284408602 6.52054795,0.840860215 C6.96597437,1.17473118 7.31241715,1.60752688 7.57224923,2.13924731 C7.83208131,2.67096774 7.95581087,3.22741935 7.95581087,3.79623656 C7.95581087,4.83494624 7.51038445,5.73763441 6.64427751,6.49193548 C6.96597437,6.65268817 7.22580645,6.82580645 7.42377375,7.01129032 C8.22801591,7.7655914 8.62395051,8.73010753 8.62395051,9.90483871 C8.62395051,11.1166667 8.12903226,12.1306452 7.16394167,12.8973118 C6.71851525,13.2435484 6.23596995,13.5032258 5.72867875,13.6516129 C5.22138754,13.7752688 4.57799381,13.8494624 3.79849757,13.8494624 Z M0.606274856,13.3548387 L3.79849757,13.3548387 C4.52850199,13.3548387 5.13477684,13.2930108 5.59257623,13.1569892 C6.03800265,13.0333333 6.47105612,12.8107527 6.85461776,12.5016129 C7.70835175,11.8215054 8.12903226,10.9682796 8.12903226,9.89247312 C8.12903226,8.85376344 7.78258948,8.02526882 7.07733098,7.35752688 C6.84224481,7.14731183 6.50817499,6.94946237 6.06274856,6.77634409 L5.65444101,6.6155914 L6.01325674,6.35591398 C6.97834733,5.63870968 7.44851966,4.79784946 7.44851966,3.79623656 C7.44851966,3.3016129 7.33716306,2.81935484 7.11444985,2.36182796 C6.89173663,1.90430108 6.58241273,1.53333333 6.21122404,1.24892473 C5.55545736,0.754301075 4.51612903,0.506989247 3.13035793,0.506989247 L0.5939019,0.506989247 L0.5939019,13.3548387 L0.606274856,13.3548387 Z M3.68714096,12.4645161 L1.59611136,12.4645161 L1.59611136,7.14731183 L3.50154662,7.14731183 C4.59036677,7.14731183 5.38223597,7.29569892 5.92664605,7.60483871 C6.29783473,7.81505376 6.60715864,8.12419355 6.82987185,8.53225806 C7.05258506,8.92795699 7.16394167,9.36075269 7.16394167,9.81827957 C7.16394167,10.6591398 6.84224481,11.3392473 6.19885108,11.833871 C5.87715422,12.0811828 5.53071144,12.2419355 5.15952276,12.3408602 C4.78833407,12.4274194 4.30578878,12.4645161 3.68714096,12.4645161 Z M2.09102961,11.9698925 L3.68714096,11.9698925 C4.26866991,11.9698925 4.71409633,11.9327957 5.03579319,11.8462366 C5.3451171,11.772043 5.6296951,11.6236559 5.90190013,11.4258065 C6.4215643,11.0177419 6.66902342,10.4983871 6.66902342,9.80591398 C6.66902342,9.43494624 6.58241273,9.07634409 6.39681838,8.75483871 C6.21122404,8.43333333 5.97613787,8.18602151 5.67918692,8.02526882 C5.22138754,7.7655914 4.49138312,7.64193548 3.50154662,7.64193548 L2.09102961,7.64193548 L2.09102961,11.9698925 Z M3.3654441,6.36827957 L1.59611136,6.36827957 L1.59611136,1.37258065 L3.3654441,1.37258065 C4.40477243,1.37258065 5.1471498,1.54569892 5.6296951,1.90430108 C6.23596995,2.33709677 6.54529386,3.00483871 6.54529386,3.85806452 C6.54529386,4.66182796 6.24834291,5.30483871 5.65444101,5.78709677 C5.36986301,6.02204301 5.06053911,6.17043011 4.72646929,6.25698925 C4.39239947,6.3311828 3.959346,6.36827957 3.3654441,6.36827957 Z M2.09102961,5.87365591 L3.3654441,5.87365591 C3.90985418,5.87365591 4.31816173,5.83655914 4.60273973,5.76236559 C4.86257181,5.70053763 5.12240389,5.56451613 5.3451171,5.39139785 C5.8276624,5.00806452 6.06274856,4.50107527 6.06274856,3.84569892 C6.06274856,3.15322581 5.8276624,2.64623656 5.35749006,2.3 C4.96155546,2.0155914 4.29341582,1.8672043 3.37781706,1.8672043 L2.10340256,1.8672043 L2.10340256,5.87365591 L2.09102961,5.87365591 Z"></path>
                </g>
                <g transform="translate(22.889969, 4.204301)" fill-rule="nonzero" id="Shape">
                    <path d="M1.73221388,5.56451613 C1.7817057,5.91075269 1.86831639,6.23225806 1.99204596,6.52903226 C2.23950508,7.12258065 2.61069377,7.58010753 3.11798498,7.9016129 C3.57578436,8.1983871 4.09544852,8.34677419 4.68935042,8.34677419 C5.88952718,8.34677419 6.79275298,7.82741935 7.38665488,6.77634409 L8.66106938,7.32043011 C8.22801591,8.07473118 7.65885992,8.65591398 6.97834733,9.0516129 C6.29783473,9.44731183 5.53071144,9.64516129 4.68935042,9.64516129 C3.32832523,9.64516129 2.21475917,9.13817204 1.37339814,8.11182796 C0.631020769,7.23387097 0.272205038,6.17043011 0.272205038,4.94623656 C0.272205038,4.11774194 0.457799381,3.33870968 0.828988069,2.63387097 C1.22492267,1.89193548 1.76933274,1.31075269 2.46221829,0.890322581 C3.11798498,0.494623656 3.82324348,0.309139785 4.59036677,0.309139785 C5.8276624,0.309139785 6.84224481,0.766666667 7.64648696,1.66935484 C8.43835616,2.57204301 8.84666372,3.7344086 8.84666372,5.15645161 C8.84666372,5.24301075 8.84666372,5.39139785 8.83429076,5.6016129 L1.73221388,5.6016129 L1.73221388,5.56451613 Z M7.39902784,4.34032258 C7.34953601,3.96935484 7.26292532,3.64784946 7.15156871,3.37580645 C6.90410959,2.78225806 6.54529386,2.32473118 6.07512152,2.00322581 C5.6296951,1.70645161 5.13477684,1.55806452 4.59036677,1.55806452 C3.83561644,1.55806452 3.20459567,1.80537634 2.69730446,2.31236559 C2.1776403,2.81935484 1.85594344,3.48709677 1.73221388,4.32795699 L7.39902784,4.32795699 L7.39902784,4.34032258 Z"></path>
                    <path d="M4.68935042,9.88010753 C3.25408749,9.88010753 2.07865665,9.33602151 1.17543084,8.26021505 C0.408307556,7.34516129 0.0123729563,6.21989247 0.0123729563,4.93387097 C0.0123729563,4.06827957 0.210340256,3.23978495 0.5939019,2.49784946 C1.01458241,1.7188172 1.59611136,1.10053763 2.31374282,0.655376344 C3.00662837,0.247311828 3.7613787,0.0370967742 4.56562086,0.0370967742 C5.87715422,0.0370967742 6.96597437,0.519354839 7.8073354,1.48387097 C8.63632346,2.43602151 9.05700398,3.66021505 9.05700398,5.13172043 C9.05700398,5.21827957 9.05700398,5.36666667 9.04463102,5.57688172 L9.03225806,5.81182796 L2.00441891,5.81182796 C2.05391074,6.0344086 2.11577552,6.23225806 2.19001326,6.43010753 C2.41272647,6.97419355 2.75916924,7.39462366 3.21696863,7.69139785 C3.63764914,7.96344086 4.12019443,8.09946237 4.65223155,8.09946237 C5.76579761,8.09946237 6.58241273,7.62956989 7.13919576,6.65268817 L7.25055236,6.4672043 L8.98276624,7.19677419 L8.84666372,7.44408602 C8.38886434,8.23548387 7.79496244,8.84139785 7.07733098,9.26182796 C6.38444543,9.66989247 5.56783031,9.88010753 4.68935042,9.88010753 Z M4.57799381,0.53172043 C3.86036235,0.53172043 3.19222271,0.717204301 2.58594786,1.08817204 C1.94255413,1.48387097 1.42288997,2.02795699 1.03932833,2.7327957 C0.69288555,3.40053763 0.507291206,4.14247312 0.507291206,4.93387097 C0.507291206,6.09623656 0.866106938,7.11021505 1.55899249,7.93870968 C2.36323464,8.9155914 3.39019001,9.38548387 4.68935042,9.38548387 C5.48121962,9.38548387 6.21122404,9.2 6.85461776,8.81666667 C7.42377375,8.4827957 7.90631905,8.01290323 8.30225365,7.41935484 L7.48563853,7.07311828 C6.84224481,8.07473118 5.90190013,8.58172043 4.68935042,8.58172043 C4.05832965,8.58172043 3.47680071,8.42096774 2.98188246,8.08709677 C2.43747238,7.74086022 2.02916483,7.24623656 1.76933274,6.60322581 C1.63323023,6.29408602 1.54661953,5.94784946 1.49712771,5.57688172 L1.46000884,5.29247312 L8.58683164,5.29247312 C8.58683164,5.20591398 8.58683164,5.14408602 8.58683164,5.09462366 C8.58683164,3.74677419 8.20327,2.63387097 7.44851966,1.78064516 C6.69376933,0.952150538 5.75342466,0.53172043 4.57799381,0.53172043 Z M7.68360583,4.58763441 L1.44763588,4.58763441 L1.48475475,4.30322581 C1.62085727,3.41290323 1.96730004,2.68333333 2.51171012,2.1516129 C3.06849315,1.60752688 3.77375166,1.32311828 4.57799381,1.32311828 C5.17189571,1.32311828 5.71630579,1.48387097 6.19885108,1.80537634 C6.70614229,2.1516129 7.10207689,2.64623656 7.36190897,3.28924731 C7.48563853,3.57365591 7.57224923,3.91989247 7.62174105,4.30322581 L7.68360583,4.58763441 Z M2.02916483,4.09301075 L7.10207689,4.09301075 C7.05258506,3.85806452 6.99072028,3.66021505 6.91648255,3.47473118 C6.69376933,2.93064516 6.35969951,2.51021505 5.92664605,2.21344086 C5.53071144,1.95376344 5.07291206,1.81774194 4.57799381,1.81774194 C3.88510826,1.81774194 3.32832523,2.04032258 2.85815289,2.49784946 C2.44984534,2.90591398 2.16526734,3.43763441 2.02916483,4.09301075 Z"></path>
                </g>
                <g transform="translate(38.232435, 0.000000)" fill-rule="nonzero" id="Shape">
                    <path d="M0.358815731,0.247311828 L3.09323906,0.247311828 C5.08528502,0.247311828 6.7308882,0.741935484 8.0053027,1.74354839 C9.53954927,2.94301075 10.3066726,4.66182796 10.3066726,6.91236559 C10.3066726,9.17526882 9.53954927,10.9064516 8.0053027,12.105914 C6.74326116,13.1075269 5.09765798,13.6021505 3.09323906,13.6021505 L0.358815731,13.6021505 L0.358815731,0.247311828 Z M1.85594344,1.64462366 L1.85594344,12.2172043 L3.1674768,12.2172043 C4.72646929,12.2172043 6.00088378,11.8215054 6.99072028,11.0301075 C8.20327,10.0655914 8.7971719,8.69301075 8.7971719,6.91236559 C8.7971719,5.14408602 8.19089704,3.78387097 6.99072028,2.81935484 C5.98851083,2.02795699 4.71409633,1.63225806 3.1674768,1.63225806 L1.85594344,1.63225806 L1.85594344,1.64462366 Z"></path>
                    <path d="M3.09323906,13.8494624 L0.111356606,13.8494624 L0.111356606,0 L3.09323906,0 C5.13477684,0 6.84224481,0.519354839 8.15377817,1.54569892 C9.73751657,2.79462366 10.5541317,4.58763441 10.5541317,6.9 C10.5541317,9.23709677 9.74988953,11.0424731 8.15377817,12.2913978 C6.85461776,13.3301075 5.1471498,13.8494624 3.09323906,13.8494624 Z M0.606274856,13.3548387 L3.09323906,13.3548387 C5.03579319,13.3548387 6.63190455,12.8725806 7.85682722,11.9080645 C9.31683606,10.7580645 10.0592134,9.07634409 10.0592134,6.91236559 C10.0592134,4.76075269 9.31683606,3.09139785 7.85682722,1.94139785 C6.63190455,0.989247312 5.02342024,0.494623656 3.09323906,0.494623656 L0.606274856,0.494623656 L0.606274856,13.3548387 Z M3.1674768,12.4645161 L1.60848431,12.4645161 L1.60848431,1.39731183 L3.1674768,1.39731183 C4.77596111,1.39731183 6.11224039,1.81774194 7.15156871,2.63387097 C8.41361025,3.63548387 9.05700398,5.08225806 9.05700398,6.91236559 C9.05700398,8.7672043 8.41361025,10.2139785 7.15156871,11.227957 C6.11224039,12.044086 4.77596111,12.4645161 3.1674768,12.4645161 Z M2.10340256,11.9698925 L3.1674768,11.9698925 C4.66460451,11.9698925 5.90190013,11.5865591 6.84224481,10.8446237 C7.98055678,9.92956989 8.56208573,8.6188172 8.56208573,6.92473118 C8.56208573,5.21827957 8.0053027,3.94462366 6.84224481,3.02956989 C5.88952718,2.27526882 4.65223155,1.90430108 3.1674768,1.90430108 L2.10340256,1.90430108 L2.10340256,11.9698925 Z"></path>
                </g>
                <g transform="translate(49.491825, 4.204301)" fill-rule="nonzero" id="Shape">
                    <path d="M9.36632788,9.39784946 L7.94343791,9.39784946 L7.94343791,8.23548387 C7.10207689,9.16290323 6.06274856,9.6327957 4.82545294,9.6327957 C4.05832965,9.6327957 3.32832523,9.43494624 2.64781264,9.03924731 C1.91780822,8.6188172 1.34865223,8.03763441 0.940344675,7.29569892 C0.544410075,6.59086022 0.346442775,5.81182796 0.346442775,4.95860215 C0.346442775,3.54892473 0.853733981,2.37419355 1.85594344,1.45913978 C2.72205038,0.680107527 3.71188688,0.284408602 4.83782589,0.284408602 C6.06274856,0.284408602 7.10207689,0.754301075 7.95581087,1.69408602 L7.95581087,0.519354839 L9.37870084,0.519354839 L9.37870084,9.39784946 L9.36632788,9.39784946 Z M4.82545294,1.57043011 C3.84798939,1.57043011 3.05612019,1.96612903 2.44984534,2.74516129 C1.99204596,3.32634409 1.76933274,4.05591398 1.76933274,4.94623656 C1.76933274,5.98494624 2.07865665,6.82580645 2.69730446,7.44408602 C3.29120636,8.05 4.02121078,8.34677419 4.88731772,8.34677419 C5.90190013,8.34677419 6.70614229,7.95107527 7.30004419,7.15967742 C7.74547061,6.57849462 7.96818383,5.83655914 7.96818383,4.93387097 C7.96818383,3.91989247 7.67123288,3.09139785 7.06495802,2.47311828 C6.49580203,1.8672043 5.75342466,1.57043011 4.82545294,1.57043011 Z"></path>
                    <path d="M4.81307998,9.88010753 C4.00883783,9.88010753 3.22934158,9.66989247 2.51171012,9.24946237 C1.74458683,8.81666667 1.13831198,8.1983871 0.705258506,7.41935484 C0.284577994,6.67741935 0.0742377375,5.84892473 0.0742377375,4.95860215 C0.0742377375,3.47473118 0.606274856,2.23817204 1.65797614,1.27365591 C2.56120194,0.457526882 3.62527618,0.0370967742 4.81307998,0.0370967742 C5.90190013,0.0370967742 6.86699072,0.395698925 7.68360583,1.11290323 L7.68360583,0.272043011 L9.60141405,0.272043011 L9.60141405,9.64516129 L7.68360583,9.64516129 L7.68360583,8.82903226 C6.89173663,9.52150538 5.92664605,9.88010753 4.81307998,9.88010753 Z M4.81307998,0.53172043 C3.74900574,0.53172043 2.80866107,0.902688172 1.99204596,1.64462366 C1.02695537,2.52258065 0.569155988,3.61075269 0.569155988,4.95860215 C0.569155988,5.76236559 0.754750331,6.50430108 1.13831198,7.17204301 C1.52187362,7.87688172 2.06628369,8.42096774 2.75916924,8.81666667 C3.40256297,9.18763441 4.09544852,9.38548387 4.81307998,9.38548387 C6.00088378,9.38548387 6.95360141,8.95268817 7.74547061,8.07473118 L8.17852408,7.59247312 L8.17852408,9.15053763 L9.1064958,9.15053763 L9.1064958,0.766666667 L8.17852408,0.766666667 L8.17852408,2.32473118 L7.74547061,1.85483871 C6.94122846,0.964516129 5.97613787,0.53172043 4.81307998,0.53172043 Z M4.88731772,8.59408602 C3.959346,8.59408602 3.15510384,8.27258065 2.52408308,7.6172043 C1.85594344,6.94946237 1.52187362,6.05913978 1.52187362,4.94623656 C1.52187362,4.00645161 1.76933274,3.21505376 2.26425099,2.59677419 C2.92001768,1.75591398 3.78612461,1.32311828 4.83782589,1.32311828 C5.8276624,1.32311828 6.63190455,1.65698925 7.26292532,2.3 C7.90631905,2.96774194 8.22801591,3.85806452 8.22801591,4.93387097 C8.22801591,5.87365591 7.99292974,6.67741935 7.51038445,7.30806452 C6.86699072,8.16129032 5.97613787,8.59408602 4.88731772,8.59408602 Z M4.82545294,1.81774194 C3.92222713,1.81774194 3.21696863,2.17634409 2.64781264,2.89354839 C2.22713213,3.42526882 2.01679187,4.11774194 2.01679187,4.94623656 C2.01679187,5.93548387 2.30136986,6.68978495 2.87052585,7.27096774 C3.42730888,7.82741935 4.08307556,8.09946237 4.88731772,8.09946237 C5.8276624,8.09946237 6.55766681,7.74086022 7.10207689,7.01129032 C7.51038445,6.4672043 7.7207247,5.77473118 7.7207247,4.93387097 C7.7207247,3.98172043 7.43614671,3.21505376 6.89173663,2.64623656 C6.35969951,2.08978495 5.69155988,1.81774194 4.82545294,1.81774194 Z"></path>
                </g>
                <g transform="translate(60.874945, 4.204301)">
                    <path d="M1.68272205,1.50860215 C2.33848873,0.692473118 3.22934158,0.272043011 4.3552806,0.272043011 C5.44410075,0.272043011 6.3349536,0.643010753 7.0154662,1.39731183 C7.33716306,1.74354839 7.57224923,2.17634409 7.7207247,2.67096774 C7.86920018,3.1655914 7.93106496,3.80860215 7.93106496,4.57526882 L7.93106496,9.39784946 L6.50817499,9.39784946 L6.50817499,4.76075269 C6.50817499,4.11774194 6.45868316,3.61075269 6.37207247,3.23978495 C6.28546178,2.8688172 6.12461335,2.57204301 5.90190013,2.32473118 C5.48121962,1.87956989 4.92443659,1.64462366 4.23155104,1.64462366 C3.3654441,1.64462366 2.69730446,1.92903226 2.23950508,2.48548387 C1.86831639,2.93064516 1.68272205,3.75913978 1.68272205,4.94623656 L1.68272205,9.39784946 L0.247459125,9.39784946 L0.247459125,0.519354839 L1.67034909,0.519354839 L1.67034909,1.50860215 L1.68272205,1.50860215 Z" id="Path"></path>
                    <path d="M8.17852408,9.64516129 L6.26071586,9.64516129 L6.26071586,4.76075269 C6.26071586,4.14247312 6.21122404,3.64784946 6.1369863,3.3016129 C6.05037561,2.98010753 5.91427309,2.70806452 5.72867875,2.49784946 C5.35749006,2.10215054 4.87494476,1.90430108 4.23155104,1.90430108 C3.43968184,1.90430108 2.84577994,2.1516129 2.43747238,2.65860215 C2.10340256,3.06666667 1.93018118,3.83333333 1.93018118,4.97096774 L1.93018118,9.64516129 L0,9.64516129 L0,0.272043011 L1.91780822,0.272043011 L1.91780822,0.902688172 C2.56120194,0.333870968 3.37781706,0.0370967742 4.34290764,0.0370967742 C5.49359258,0.0370967742 6.45868316,0.44516129 7.18868758,1.23655914 C7.53513036,1.61989247 7.79496244,2.07741935 7.94343791,2.60913978 C8.09191339,3.12849462 8.16615113,3.79623656 8.16615113,4.57526882 L8.16615113,9.64516129 L8.17852408,9.64516129 Z M6.75563411,9.15053763 L7.68360583,9.15053763 L7.68360583,4.58763441 C7.68360583,3.84569892 7.6093681,3.22741935 7.47326558,2.75752688 C7.33716306,2.3 7.1268228,1.90430108 6.82987185,1.5827957 C6.18647813,0.877956989 5.36986301,0.53172043 4.3552806,0.53172043 C3.30357932,0.53172043 2.48696421,0.902688172 1.88068935,1.66935484 L1.43526293,2.21344086 L1.43526293,0.754301075 L0.49491825,0.754301075 L0.49491825,9.15053763 L1.42288997,9.15053763 L1.42288997,4.95860215 C1.42288997,3.69731183 1.62085727,2.83172043 2.04153778,2.33709677 C2.54882899,1.7188172 3.27883341,1.40967742 4.21917808,1.40967742 C4.98630137,1.40967742 5.60494918,1.66935484 6.07512152,2.16397849 C6.32258065,2.43602151 6.50817499,2.78225806 6.60715864,3.19032258 C6.70614229,3.58602151 6.75563411,4.09301075 6.75563411,4.77311828 L6.75563411,9.15053763 Z" id="Shape" fill-rule="nonzero"></path>
                </g>
                <g transform="translate(70.154662, 4.204301)">
                    <path d="M7.36190897,2.74516129 C6.68139638,1.96612903 5.87715422,1.57043011 4.9491825,1.57043011 C3.90985418,1.57043011 3.08086611,1.96612903 2.47459125,2.74516129 C2.02916483,3.32634409 1.79407866,4.06827957 1.79407866,4.94623656 C1.79407866,5.98494624 2.10340256,6.82580645 2.70967742,7.44408602 C3.30357932,8.05 4.05832965,8.34677419 4.97392841,8.34677419 C5.49359258,8.34677419 5.939019,8.26021505 6.29783473,8.07473118 C6.65665046,7.88924731 7.04021211,7.56774194 7.42377375,7.11021505 L8.38886434,8.07473118 C7.85682722,8.64354839 7.3247901,9.0516129 6.79275298,9.28655914 C6.27308882,9.53387097 5.65444101,9.64516129 4.96155546,9.64516129 C3.55103844,9.64516129 2.38798056,9.13817204 1.50950066,8.12419355 C0.730004419,7.23387097 0.346442775,6.1827957 0.346442775,4.97096774 C0.346442775,3.56129032 0.853733981,2.38655914 1.85594344,1.48387097 C2.70967742,0.70483871 3.74900574,0.309139785 4.97392841,0.309139785 C6.223597,0.309139785 7.33716306,0.816129032 8.32699956,1.81774194 L7.36190897,2.74516129 Z" id="Path"></path>
                    <path d="M4.97392841,9.88010753 C3.48917366,9.88010753 2.26425099,9.33602151 1.33627928,8.27258065 C0.519664163,7.34516129 0.111356606,6.23225806 0.111356606,4.94623656 C0.111356606,3.46236559 0.643393725,2.22580645 1.69509501,1.27365591 C2.59832081,0.457526882 3.69951392,0.0370967742 4.97392841,0.0370967742 C6.28546178,0.0370967742 7.47326558,0.568817204 8.50022095,1.61989247 L8.67344233,1.79301075 L7.34953601,3.11612903 L7.17631463,2.91827957 C6.54529386,2.18870968 5.81528944,1.83010753 4.9491825,1.83010753 C3.97171896,1.83010753 3.22934158,2.18870968 2.67255855,2.90591398 C2.26425099,3.45 2.05391074,4.13010753 2.05391074,4.95860215 C2.05391074,5.94784946 2.32611578,6.70215054 2.90764472,7.28333333 C3.45205479,7.83978495 4.14494034,8.11182796 4.99867433,8.11182796 C5.48121962,8.11182796 5.88952718,8.02526882 6.21122404,7.86451613 C6.54529386,7.70376344 6.89173663,7.39462366 7.26292532,6.96182796 L7.43614671,6.7516129 L8.76005303,8.07473118 L8.5992046,8.24784946 C8.04242156,8.84139785 7.48563853,9.26182796 6.9288555,9.52150538 C6.34732656,9.75645161 5.69155988,9.88010753 4.97392841,9.88010753 Z M4.97392841,0.53172043 C3.82324348,0.53172043 2.83340698,0.902688172 2.02916483,1.64462366 C1.06407424,2.52258065 0.606274856,3.5983871 0.606274856,4.95860215 C0.606274856,6.10860215 0.977463544,7.12258065 1.70746796,7.95107527 C2.54882899,8.9155914 3.62527618,9.39784946 4.97392841,9.39784946 C5.6296951,9.39784946 6.21122404,9.28655914 6.69376933,9.06397849 C7.13919576,8.86612903 7.58462218,8.53225806 8.04242156,8.07473118 L7.43614671,7.4688172 C7.08970393,7.85215054 6.74326116,8.12419355 6.40919134,8.29731183 C6.01325674,8.49516129 5.53071144,8.59408602 4.97392841,8.59408602 C3.99646487,8.59408602 3.17984976,8.27258065 2.53645603,7.6172043 C1.88068935,6.94946237 1.54661953,6.05913978 1.54661953,4.94623656 C1.54661953,4.0188172 1.79407866,3.22741935 2.27662395,2.59677419 C2.93239063,1.75591398 3.83561644,1.32311828 4.9491825,1.32311828 C5.87715422,1.32311828 6.68139638,1.68172043 7.37428193,2.38655914 L7.96818383,1.79301075 C7.07733098,0.952150538 6.07512152,0.53172043 4.97392841,0.53172043 Z" id="Shape" fill-rule="nonzero"></path>
                </g>
                <g transform="translate(79.063190, 4.204301)" fill-rule="nonzero" id="Shape">
                    <path d="M1.80645161,5.56451613 C1.85594344,5.91075269 1.94255413,6.23225806 2.06628369,6.52903226 C2.31374282,7.12258065 2.68493151,7.58010753 3.19222271,7.9016129 C3.65002209,8.1983871 4.16968626,8.34677419 4.76358816,8.34677419 C5.96376491,8.34677419 6.86699072,7.82741935 7.46089262,6.77634409 L8.73530711,7.32043011 C8.30225365,8.07473118 7.73309766,8.65591398 7.05258506,9.0516129 C6.37207247,9.44731183 5.60494918,9.64516129 4.76358816,9.64516129 C3.40256297,9.64516129 2.28899691,9.13817204 1.44763588,8.11182796 C0.705258506,7.23387097 0.346442775,6.17043011 0.346442775,4.94623656 C0.346442775,4.11774194 0.532037119,3.33870968 0.903225806,2.63387097 C1.29916041,1.89193548 1.84357048,1.31075269 2.53645603,0.890322581 C3.19222271,0.494623656 3.89748122,0.309139785 4.66460451,0.309139785 C5.90190013,0.309139785 6.91648255,0.766666667 7.7207247,1.66935484 C8.5125939,2.57204301 8.92090146,3.7344086 8.92090146,5.15645161 C8.92090146,5.24301075 8.92090146,5.39139785 8.9085285,5.6016129 L1.80645161,5.6016129 L1.80645161,5.56451613 Z M7.47326558,4.34032258 C7.42377375,3.96935484 7.33716306,3.64784946 7.22580645,3.37580645 C6.97834733,2.78225806 6.6195316,2.32473118 6.14935926,2.00322581 C5.70393283,1.70645161 5.20901458,1.55806452 4.66460451,1.55806452 C3.90985418,1.55806452 3.27883341,1.80537634 2.7715422,2.31236559 C2.25187804,2.81935484 1.93018118,3.48709677 1.80645161,4.32795699 L7.47326558,4.32795699 L7.47326558,4.34032258 Z"></path>
                    <path d="M4.76358816,9.88010753 C3.32832523,9.88010753 2.15289439,9.33602151 1.24966858,8.26021505 C0.482545294,7.34516129 0.0866106938,6.21989247 0.0866106938,4.93387097 C0.0866106938,4.06827957 0.284577994,3.23978495 0.668139638,2.49784946 C1.08882015,1.7188172 1.67034909,1.10053763 2.38798056,0.655376344 C3.08086611,0.247311828 3.83561644,0.0370967742 4.63985859,0.0370967742 C5.95139196,0.0370967742 7.04021211,0.519354839 7.88157313,1.48387097 C8.7105612,2.43602151 9.13124171,3.66021505 9.13124171,5.13172043 C9.13124171,5.21827957 9.13124171,5.36666667 9.11886876,5.57688172 L9.1064958,5.81182796 L2.10340256,5.81182796 C2.15289439,6.0344086 2.21475917,6.23225806 2.28899691,6.43010753 C2.51171012,6.97419355 2.85815289,7.39462366 3.31595228,7.69139785 C3.73663279,7.96344086 4.21917808,8.09946237 4.7512152,8.09946237 C5.86478126,8.09946237 6.68139638,7.62956989 7.23817941,6.65268817 L7.34953601,6.4672043 L9.08174989,7.19677419 L8.94564737,7.44408602 C8.48784799,8.23548387 7.89394609,8.84139785 7.17631463,9.26182796 C6.45868316,9.66989247 5.65444101,9.88010753 4.76358816,9.88010753 Z M4.66460451,0.53172043 C3.94697304,0.53172043 3.27883341,0.717204301 2.67255855,1.08817204 C2.02916483,1.48387097 1.50950066,2.02795699 1.12593902,2.7327957 C0.779496244,3.40053763 0.5939019,4.14247312 0.5939019,4.93387097 C0.5939019,6.09623656 0.952717631,7.11021505 1.64560318,7.93870968 C2.44984534,8.9155914 3.47680071,9.38548387 4.77596111,9.38548387 C5.56783031,9.38548387 6.29783473,9.2 6.94122846,8.81666667 C7.51038445,8.4827957 7.99292974,8.01290323 8.38886434,7.41935484 L7.57224923,7.07311828 C6.9288555,8.07473118 5.98851083,8.58172043 4.77596111,8.58172043 C4.14494034,8.58172043 3.5634114,8.42096774 3.06849315,8.08709677 C2.52408308,7.74086022 2.11577552,7.24623656 1.85594344,6.60322581 C1.71984092,6.29408602 1.63323023,5.94784946 1.5837384,5.57688172 L1.54661953,5.29247312 L8.66106938,5.29247312 C8.66106938,5.20591398 8.66106938,5.14408602 8.66106938,5.09462366 C8.66106938,3.74677419 8.27750773,2.63387097 7.5227574,1.78064516 C6.76800707,0.952150538 5.84003535,0.53172043 4.66460451,0.53172043 Z M7.75784357,4.58763441 L1.52187362,4.58763441 L1.55899249,4.30322581 C1.69509501,3.41290323 2.04153778,2.68333333 2.58594786,2.1516129 C3.14273089,1.60752688 3.84798939,1.32311828 4.65223155,1.32311828 C5.24613345,1.32311828 5.79054353,1.48387097 6.27308882,1.80537634 C6.78038003,2.1516129 7.17631463,2.64623656 7.43614671,3.28924731 C7.55987627,3.57365591 7.64648696,3.91989247 7.69597879,4.30322581 L7.75784357,4.58763441 Z M2.10340256,4.09301075 L7.17631463,4.09301075 C7.1268228,3.85806452 7.06495802,3.66021505 6.99072028,3.47473118 C6.76800707,2.93064516 6.43393725,2.51021505 6.00088378,2.21344086 C5.60494918,1.95376344 5.1471498,1.81774194 4.65223155,1.81774194 C3.959346,1.81774194 3.40256297,2.04032258 2.93239063,2.49784946 C2.52408308,2.90591398 2.25187804,3.43763441 2.10340256,4.09301075 Z"></path>
                </g>
                <path d="M21.5660627,12.1553763 C21.3557225,12.1553763 20.8113124,12.1553763 20.8113124,10.9311828 L20.8113124,6.25698925 L22.2836942,6.25698925 L22.2836942,4.47634409 L20.8113124,4.47634409 L20.8113124,2.57204301 L18.8935042,2.57204301 L18.8935042,4.47634409 L16.1838268,4.47634409 L13.4246575,10.8446237 L10.752099,4.47634409 L8.67344233,4.47634409 L12.3853292,13.2064516 L10.0715864,18.5360215 L12.0760053,18.5360215 L17.4458683,6.26935484 L18.8687583,6.26935484 L18.8687583,10.9435484 C18.8687583,13.466129 20.1802916,13.9978495 21.2691118,13.9978495 C21.5536898,13.9978495 21.8753867,13.9483871 22.2218294,13.8494624 L22.4074238,13.8 L22.4074238,11.9946237 L22.0980999,12.0688172 C21.8753867,12.1306452 21.6897923,12.1553763 21.5660627,12.1553763 Z" id="Path"></path>
            </g>
            <g id="Group">
                <g transform="translate(0.636323, 0.000000)" id="Path">
                    <path d="M17.8223597,8.92795699 C17.8223597,6.12096774 17.8347327,3.3016129 17.8099867,0.494623656 C17.8099867,0.0741935484 17.9089704,-4.51028104e-15 18.292532,0.111290323 C19.1215201,0.346236559 19.9628811,0.556451613 20.7918692,0.766666667 C21.125939,0.853225806 21.2620415,0.989247312 21.2620415,1.36021505 C21.2496686,6.43010753 21.2496686,11.4876344 21.2620415,16.5575269 C21.2620415,16.8913978 21.1630579,17.0521505 20.8289881,17.1387097 C19.9628811,17.3489247 19.0967742,17.5715054 18.2306673,17.8188172 C17.8718515,17.9177419 17.7976138,17.8188172 17.7976138,17.4602151 C17.8223597,14.6037634 17.8223597,11.7596774 17.8223597,8.92795699 Z"></path>
                    <path d="M6.58771542,12.711828 C6.58771542,11.2897849 6.60008838,9.86774194 6.58771542,8.44569892 C6.58771542,8.11182796 6.66195316,8.01290323 7.00839593,8.11182796 C7.89924878,8.35913978 8.80247459,8.59408602 9.69332744,8.81666667 C9.97790544,8.89086022 10.0521432,9.02688172 10.0397702,9.29892473 C10.0273973,11.5865591 10.0273973,13.8741935 10.0397702,16.161828 C10.0397702,16.433871 9.96553248,16.5698925 9.68095449,16.644086 C8.77772868,16.8666667 7.88687583,17.1016129 6.99602298,17.3489247 C6.67432612,17.4354839 6.57534247,17.3736559 6.57534247,17.0274194 C6.58771542,15.5930108 6.58771542,14.1462366 6.58771542,12.711828 Z"></path>
                    <path d="M15.7808219,10.4365591 C15.7808219,11.8709677 15.7808219,13.3053763 15.7808219,14.7397849 C15.7808219,15.0365591 15.756076,15.1602151 15.3972603,15.0489247 C14.5064074,14.7892473 13.6031816,14.5666667 12.7123288,14.3564516 C12.3906319,14.2822581 12.3040212,14.1215054 12.3163942,13.8123656 C12.3287671,11.561828 12.3287671,9.29892473 12.3163942,7.0483871 C12.3163942,6.70215054 12.4277508,6.56612903 12.7618206,6.49193548 C13.6526734,6.28172043 14.5311533,6.04677419 15.4096332,5.79946237 C15.743703,5.71290323 15.8055678,5.81182796 15.8055678,6.12096774 C15.7808219,7.55537634 15.7808219,9.00215054 15.7808219,10.4365591 Z"></path>
                    <path d="M4.54617764,2.22580645 C4.54617764,2.22580645 4.54617764,2.22580645 4.54617764,2.22580645 L4.54617764,2.16397849 C4.53380468,1.92903226 4.44719399,1.80537634 4.18736191,1.74354839 C3.32125497,1.53333333 2.45514803,1.2983871 1.5890411,1.07580645 C1.06937693,0.939784946 1.06937693,0.939784946 1.06937693,1.49623656 C1.06937693,1.7188172 1.06937693,1.94139785 1.06937693,2.16397849 L1.05700398,2.16397849 L1.05700398,15.7043011 C1.05700398,15.9763441 1.05700398,16.2483871 1.05700398,16.5204301 C1.05700398,16.8913978 1.14361467,16.9655914 1.5024304,16.8666667 C2.3809103,16.6069892 3.25939019,16.3844086 4.15024304,16.1741935 C4.42244808,16.1123656 4.54617764,16.0010753 4.54617764,15.7166667 L4.54617764,2.38655914 C4.54617764,2.33709677 4.54617764,2.27526882 4.54617764,2.22580645 Z"></path>
                </g>
            </g>
        </g>
    </g>
</svg>