<?xml version="1.0" encoding="UTF-8"?>
<svg width="132px" height="24px" viewBox="0 0 132 24" version="1.1" xmlns="http://www.w3.org/2000/svg" xmlns:xlink="http://www.w3.org/1999/xlink">
    <!-- Generator: Sketch 52.4 (67378) - http://www.bohemiancoding.com/sketch -->
    <title>Bytedance</title>
    <desc>Created with Sketch.</desc>
    <g id="Page-1" stroke="none" stroke-width="1" fill="none" fill-rule="evenodd">
        <g id="Bytedance" fill="#B8BCCC">
            <path d="M39.7,10.8 C39.5,10.6 39.2,10.5 38.8,10.2 C39.8,9.3 40.4,8.3 40.4,7.1 C40.4,6.4 40.3,5.9 39.9,5.2 C39.6,4.6 39.2,4.2 38.6,3.7 C37.8,3.1 36.4,2.8 34.7,2.8 L31.3,2.8 L31.3,18.5 L35.5,18.5 C36.4,18.5 37.1,18.4 37.7,18.3 C38.3,18.2 38.8,17.8 39.3,17.4 C40.4,16.5 41,15.4 41,14 C41,12.7 40.6,11.7 39.7,10.8 Z M33.6,5 L35.1,5 C36.1,5 36.9,5.1 37.4,5.5 C38,5.8 38.2,6.5 38.2,7.2 C38.2,8 37.9,8.6 37.3,9 C37.1,9.2 36.8,9.3 36.5,9.5 C36.2,9.5 35.7,9.6 35.1,9.6 L33.6,9.6 L33.6,5 Z M38,15.9 C37.7,16.1 37.3,16.2 37,16.4 C36.7,16.4 36.2,16.5 35.5,16.5 L33.7,16.5 L33.7,11.5 L35.3,11.5 C36.4,11.5 37.2,11.6 37.8,12 C38.1,12.2 38.4,12.5 38.6,12.9 C38.8,13.2 38.9,13.7 38.9,14.1 C38.9,14.9 38.6,15.4 38,15.9 Z" id="Shape" fill-rule="nonzero"></path>
            <path d="M66.2,9.3 C65.3,8.2 64,7.7 62.6,7.7 C61.7,7.7 60.8,7.9 60,8.4 C59.2,8.9 58.5,9.6 58.1,10.4 C57.6,11.2 57.4,12.2 57.4,13.1 C57.4,14.6 57.9,15.8 58.8,16.9 C59.8,18.1 61.2,18.7 62.8,18.7 C63.8,18.7 64.7,18.5 65.5,18 C66.3,17.5 67,16.9 67.5,16 L67.6,15.8 L65.6,15 L65.4,15.2 C64.7,16.3 63.8,16.8 62.6,16.8 C62,16.8 61.5,16.7 61,16.3 C60.4,16 60.1,15.5 59.9,14.8 C59.8,14.6 59.8,14.3 59.7,14.1 L67.7,14.1 L67.7,13.9 C67.7,13.7 67.7,13.4 67.7,13.4 C67.5,11.8 67.1,10.3 66.2,9.3 Z M59.6,12.2 C59.7,11.4 60.1,10.8 60.5,10.4 C61.1,9.8 61.6,9.6 62.4,9.6 C63,9.6 63.5,9.7 63.9,10.1 C64.4,10.4 64.8,10.9 65,11.6 C65.2,11.8 65.2,12.1 65.3,12.3 L59.6,12.3 L59.6,12.2 Z" id="Shape" fill-rule="nonzero"></path>
            <path d="M84,4.5 C82.5,3.4 80.6,2.8 78.2,2.8 L74.8,2.8 L74.8,18.5 L78.2,18.5 C80.6,18.5 82.5,17.9 84,16.7 C85.8,15.3 86.7,13.2 86.7,10.6 C86.7,8 85.8,6 84,4.5 Z M82.5,15.1 C81.5,15.9 80,16.3 78.3,16.3 L77,16.3 L77,5 L78.3,5 C80,5 81.4,5.5 82.5,6.2 C83.9,7.2 84.4,8.7 84.4,10.6 C84.4,12.5 83.8,14.1 82.5,15.1 Z" id="Shape" fill-rule="nonzero"></path>
            <path d="M96.3,7.9 L96.3,8.8 C95.4,8 94.3,7.6 93,7.6 C91.6,7.6 90.4,8.1 89.4,9 C88.1,10.1 87.6,11.5 87.6,13.2 C87.6,14.2 87.8,15.1 88.3,16 C88.8,16.9 89.4,17.6 90.3,18 C91.1,18.5 92,18.7 92.9,18.7 C94.2,18.7 95.3,18.2 96.2,17.5 L96.2,18.4 L98.4,18.4 L98.4,7.9 L96.3,7.9 Z M95.6,15.5 C95,16.3 94.1,16.7 93.1,16.7 C92.2,16.7 91.4,16.4 90.8,15.8 C90.1,15.1 89.8,14.3 89.8,13.2 C89.8,12.3 90,11.5 90.5,10.8 C91.2,10 92,9.6 93,9.6 C94,9.6 94.7,9.9 95.4,10.5 C96,11.2 96.3,12.1 96.3,13.1 C96.3,14.1 96,14.9 95.6,15.5 Z" id="Shape" fill-rule="nonzero"></path>
            <path d="M109.5,10.5 C109.4,9.9 109,9.4 108.6,8.9 C107.8,8 106.7,7.5 105.4,7.5 C104.3,7.5 103.4,7.8 102.7,8.5 L102.7,7.9 L100.5,7.9 L100.5,18.6 L102.7,18.6 L102.7,13.3 C102.7,12.1 102.9,11.1 103.3,10.7 C103.8,10.1 104.4,9.8 105.3,9.8 C106,9.8 106.6,10 107,10.5 C107.2,10.7 107.3,11.1 107.5,11.4 C107.6,11.7 107.6,12.3 107.6,13.1 L107.6,18.7 L109.8,18.7 L109.8,12.9 C109.7,11.9 109.7,11.1 109.5,10.5 Z" id="Path"></path>
            <path d="M119.5,15.3 L119.3,15.5 C118.8,16 118.5,16.3 118,16.5 C117.7,16.7 117.2,16.7 116.6,16.7 C115.6,16.7 114.9,16.4 114.2,15.8 C113.5,15.1 113.2,14.3 113.2,13.2 C113.2,12.3 113.4,11.5 113.9,10.8 C114.7,10 115.5,9.6 116.6,9.6 C117.6,9.6 118.4,10.1 119.1,10.8 L119.3,11 L120.8,9.5 L120.6,9.3 C119.5,8.1 118.1,7.5 116.6,7.5 C115.1,7.5 113.9,8 112.8,8.9 C111.5,10 111,11.4 111,13.1 C111,14.6 111.5,15.8 112.4,16.9 C113.4,18.1 114.9,18.7 116.5,18.7 C117.3,18.7 118.1,18.6 118.8,18.2 C119.5,17.9 120.1,17.4 120.7,16.7 L120.9,16.5 L119.5,15.3 Z" id="Path"></path>
            <path d="M130,9.3 C129.1,8.2 127.8,7.7 126.4,7.7 C125.5,7.7 124.6,7.9 123.8,8.4 C123,8.9 122.3,9.6 121.9,10.4 C121.4,11.2 121.2,12.2 121.2,13.1 C121.2,14.6 121.7,15.8 122.6,16.9 C123.6,18.1 125,18.7 126.6,18.7 C127.6,18.7 128.5,18.5 129.3,18 C130.1,17.5 130.8,16.9 131.3,16 L131.4,15.8 L129.5,15 L129.4,15.2 C128.7,16.3 127.8,16.8 126.6,16.8 C126,16.8 125.5,16.7 125,16.3 C124.4,16 124.1,15.5 123.9,14.8 C123.8,14.6 123.8,14.3 123.7,14.1 L131.7,14.1 L131.7,13.9 C131.7,13.7 131.7,13.4 131.7,13.4 C131.5,11.8 131.1,10.3 130,9.3 Z M123.4,12.2 C123.5,11.4 123.9,10.8 124.3,10.4 C125,9.8 125.6,9.6 126.3,9.6 C126.9,9.6 127.4,9.7 127.8,10.1 C128.3,10.4 128.7,10.9 128.9,11.6 C129,11.8 129.1,12.1 129.1,12.3 L123.4,12.3 L123.4,12.2 Z" id="Shape" fill-rule="nonzero"></path>
            <path d="M55.8,16.7 C55.6,16.7 54.9,16.7 54.9,15.3 L54.9,10 L56.6,10 L56.6,8 L54.9,8 L54.9,5.8 L52.7,5.8 L52.7,8 L49.6,8 L46.4,15.3 L43.3,8 L41,8 L45.2,17.9 L42.6,23.9 L45,23.9 L51.1,9.9 L52.7,9.9 L52.7,15.2 C52.7,18 54.2,18.7 55.4,18.7 C55.7,18.7 56.1,18.7 56.5,18.6 L56.7,18.6 L56.7,16.4 L56.4,16.5 C56.1,16.6 55.9,16.7 55.8,16.7 Z" id="Path_2_"></path>
            <path d="M19.8,10.1 C19.8,6.9 19.8,3.7 19.8,0.6 C19.8,0.1 19.9,-1.11022302e-16 20.4,0.1 C21.3,0.3 22.3,0.6 23.2,0.9 C23.5,1 23.8,1.1 23.8,1.6 C23.8,7.4 23.8,13.1 23.8,18.9 C23.8,19.2 23.7,19.5 23.3,19.6 C22.3,19.8 21.4,20.1 20.3,20.4 C19.8,20.5 19.8,20.4 19.8,19.9 C19.8,16.6 19.8,13.4 19.8,10.1 Z" id="Path_1_"></path>
            <path d="M7.1,14.4 C7.1,12.8 7.1,11.2 7.1,9.5 C7.1,9.2 7.2,9 7.6,9.2 C8.6,9.4 9.6,9.8 10.7,10 C11,10.1 11.2,10.2 11,10.6 C11,13.2 11,15.8 11,18.4 C11,18.7 10.9,18.9 10.5,19 C9.5,19.2 8.5,19.6 7.4,19.8 C7.1,19.9 6.9,19.8 6.9,19.5 C7.1,17.7 7.1,16 7.1,14.4 Z" id="Path_3_"></path>
            <path d="M17.5,11.8 C17.5,13.4 17.5,15.1 17.5,16.7 C17.5,17 17.5,17.2 17,17 C16,16.7 15,16.4 13.9,16.2 C13.6,16.1 13.4,16 13.4,15.6 C13.4,13 13.4,10.5 13.4,7.9 C13.4,7.6 13.5,7.3 13.9,7.2 C14.9,7 15.9,6.7 16.9,6.4 C17.2,6.3 17.4,6.4 17.4,6.7 C17.5,8.6 17.5,10.2 17.5,11.8 Z" id="Path_4_"></path>
            <path d="M4.7,2.5 C4.7,2.2 4.6,2 4.2,1.9 C3.3,1.7 2.4,1.5 1.4,1.2 C0.8,1 0.8,1 0.8,1.7 C0.8,1.9 0.8,2.2 0.8,2.5 L0.8,17.8 C0.8,18.1 0.8,18.4 0.8,18.7 C0.8,19.2 0.9,19.2 1.3,19 C2.3,18.7 3.3,18.4 4.3,18.2 C4.6,18.1 4.8,18 4.8,17.6 L4.8,2.6 C4.7,2.6 4.7,2.6 4.7,2.5 Z" id="Path_5_"></path>
        </g>
    </g>
</svg>