<?xml version="1.0" encoding="UTF-8"?>
<svg width="81px" height="15px" viewBox="0 0 81 15" version="1.1" xmlns="http://www.w3.org/2000/svg" xmlns:xlink="http://www.w3.org/1999/xlink">
    <!-- Generator: Sketch 52.4 (67378) - http://www.bohemiancoding.com/sketch -->
    <title>Bytedance</title>
    <desc>Created with Sketch.</desc>
    <g id="Page-1" stroke="none" stroke-width="1" fill="none" fill-rule="evenodd">
        <g id="Bytedance" transform="translate(-1.000000, 0.000000)" fill="#B8BCCC">
            <g id="Group" transform="translate(19.945205, 1.720430)">
                <g fill-rule="nonzero" id="Shape">
                    <path d="M0.251171012,9.46236559 L0.251171012,0.172043011 L2.19991162,0.172043011 C3.21325674,0.172043011 3.96676977,0.352688172 4.46045073,0.722580645 C4.74626602,0.937634409 4.98011489,1.21290323 5.14467521,1.55698925 C5.3178966,1.90107527 5.39584622,2.26236559 5.39584622,2.63225806 C5.39584622,3.38064516 5.04074238,4.0172043 4.32187362,4.55053763 C4.65099426,4.67956989 4.90216527,4.82580645 5.08404772,4.98924731 C5.61237296,5.47956989 5.87220504,6.10752688 5.87220504,6.87311828 C5.87220504,7.66451613 5.55174547,8.31827957 4.91082634,8.8172043 C4.61634998,9.04946237 4.30455148,9.21290323 3.96676977,9.30752688 C3.62898807,9.40215054 3.1959346,9.45376344 2.66760937,9.45376344 L0.251171012,9.45376344 L0.251171012,9.46236559 Z M1.29049934,4.25806452 L2.35581087,4.25806452 C2.74555899,4.25806452 3.04869642,4.23225806 3.26522316,4.18064516 C3.48174989,4.12903226 3.67229342,4.02580645 3.85417587,3.88817204 C4.22660186,3.58709677 4.41714538,3.19139785 4.41714538,2.68387097 C4.41714538,2.14193548 4.22660186,1.73763441 3.8455148,1.46236559 C3.53371631,1.23870968 3.04003535,1.12688172 2.35581087,1.12688172 L1.29049934,1.12688172 L1.29049934,4.25806452 Z M1.29049934,8.49892473 L2.58099867,8.49892473 C3.00539107,8.49892473 3.32585064,8.47311828 3.56836058,8.41290323 C3.80220946,8.35268817 4.02739726,8.24946237 4.23526293,8.09462366 C4.64233319,7.78494624 4.84153778,7.36344086 4.84153778,6.83010753 C4.84153778,6.53763441 4.77224923,6.27096774 4.62501105,6.01290323 C4.48643394,5.76344086 4.29589041,5.5655914 4.05338047,5.43655914 C3.70693769,5.23870968 3.16995139,5.14408602 2.44242156,5.14408602 L1.28183827,5.14408602 L1.28183827,8.49892473 L1.29049934,8.49892473 Z"></path>
                    <path d="M2.6589483,9.6344086 L0.0779496244,9.6344086 L0.0779496244,0 L2.19991162,0 C3.24790102,0 4.0447194,0.197849462 4.56438356,0.584946237 C4.87618206,0.817204301 5.118692,1.11827957 5.30057446,1.48817204 C5.48245692,1.85806452 5.56906761,2.24516129 5.56906761,2.64086022 C5.56906761,3.36344086 5.25726911,3.99139785 4.65099426,4.51612903 C4.87618206,4.62795699 5.05806452,4.7483871 5.19664163,4.87741935 C5.75961114,5.40215054 6.03676536,6.07311828 6.03676536,6.89032258 C6.03676536,7.73333333 5.69032258,8.43870968 5.01475917,8.97204301 C4.70296067,9.21290323 4.36517897,9.39354839 4.01007512,9.49677419 C3.65497128,9.5827957 3.20459567,9.6344086 2.6589483,9.6344086 Z M0.424392399,9.29032258 L2.6589483,9.29032258 C3.16995139,9.29032258 3.59434379,9.24731183 3.91480336,9.15268817 C4.22660186,9.06666667 4.52973928,8.91182796 4.79823243,8.69677419 C5.39584622,8.22365591 5.69032258,7.63010753 5.69032258,6.88172043 C5.69032258,6.15913978 5.44781264,5.5827957 4.95413168,5.11827957 C4.78957137,4.97204301 4.55572249,4.8344086 4.24392399,4.71397849 L3.95810871,4.60215054 L4.20927972,4.42150538 C4.88484313,3.92258065 5.21396376,3.33763441 5.21396376,2.64086022 C5.21396376,2.29677419 5.13601414,1.96129032 4.98011489,1.64301075 C4.82421564,1.32473118 4.60768891,1.06666667 4.34785683,0.868817204 C3.88882015,0.524731183 3.16129032,0.352688172 2.19125055,0.352688172 L0.41573133,0.352688172 L0.41573133,9.29032258 L0.424392399,9.29032258 Z M2.58099867,8.67096774 L1.11727795,8.67096774 L1.11727795,4.97204301 L2.45108263,4.97204301 C3.21325674,4.97204301 3.76756518,5.07526882 4.14865223,5.29032258 C4.40848431,5.43655914 4.62501105,5.6516129 4.7809103,5.93548387 C4.93680954,6.21075269 5.01475917,6.51182796 5.01475917,6.83010753 C5.01475917,7.41505376 4.78957137,7.88817204 4.33919576,8.23225806 C4.11400795,8.40430108 3.87149801,8.51612903 3.61166593,8.58494624 C3.35183385,8.64516129 3.01405214,8.67096774 2.58099867,8.67096774 Z M1.46372072,8.32688172 L2.58099867,8.32688172 C2.98806894,8.32688172 3.29986743,8.30107527 3.52505524,8.24086022 C3.74158197,8.18924731 3.94078657,8.08602151 4.13133009,7.9483871 C4.49509501,7.66451613 4.66831639,7.30322581 4.66831639,6.82150538 C4.66831639,6.56344086 4.60768891,6.31397849 4.47777287,6.09032258 C4.34785683,5.86666667 4.18329651,5.69462366 3.97543084,5.5827957 C3.65497128,5.40215054 3.14396818,5.31612903 2.45108263,5.31612903 L1.46372072,5.31612903 L1.46372072,8.32688172 Z M2.35581087,4.43010753 L1.11727795,4.43010753 L1.11727795,0.95483871 L2.35581087,0.95483871 C3.0833407,0.95483871 3.60300486,1.07526882 3.94078657,1.32473118 C4.36517897,1.62580645 4.5817057,2.09032258 4.5817057,2.68387097 C4.5817057,3.24301075 4.37384004,3.69032258 3.95810871,4.02580645 C3.75890411,4.18924731 3.54237738,4.29247312 3.3085285,4.35268817 C3.07467963,4.40430108 2.7715422,4.43010753 2.35581087,4.43010753 Z M1.46372072,4.08602151 L2.35581087,4.08602151 C2.73689792,4.08602151 3.02271321,4.06021505 3.22191781,4.00860215 C3.40380027,3.9655914 3.58568272,3.87096774 3.74158197,3.75053763 C4.07936368,3.48387097 4.24392399,3.1311828 4.24392399,2.67526882 C4.24392399,2.19354839 4.07936368,1.84086022 3.75024304,1.6 C3.47308882,1.40215054 3.00539107,1.29892473 2.36447194,1.29892473 L1.47238179,1.29892473 L1.47238179,4.08602151 L1.46372072,4.08602151 Z"></path>
                </g>
                <g transform="translate(16.022978, 2.924731)" fill-rule="nonzero" id="Shape">
                    <path d="M1.21254971,3.87096774 C1.24719399,4.11182796 1.30782148,4.33548387 1.39443217,4.54193548 C1.56765356,4.95483871 1.82748564,5.27311828 2.18258948,5.49677419 C2.50304905,5.70322581 2.86681396,5.80645161 3.28254529,5.80645161 C4.12266902,5.80645161 4.75492709,5.44516129 5.17065842,4.71397849 L6.06274856,5.09247312 C5.75961114,5.6172043 5.36120194,6.02150538 4.88484313,6.29677419 C4.40848431,6.57204301 3.87149801,6.70967742 3.28254529,6.70967742 C2.32982766,6.70967742 1.55033142,6.35698925 0.961378701,5.64301075 C0.441714538,5.03225806 0.190543526,4.29247312 0.190543526,3.44086022 C0.190543526,2.86451613 0.320459567,2.32258065 0.580291648,1.83225806 C0.857445868,1.31612903 1.23853292,0.911827957 1.72355281,0.619354839 C2.18258948,0.344086022 2.67627044,0.215053763 3.21325674,0.215053763 C4.07936368,0.215053763 4.78957137,0.533333333 5.35254087,1.16129032 C5.90684932,1.78924731 6.1926646,2.59784946 6.1926646,3.58709677 C6.1926646,3.64731183 6.1926646,3.75053763 6.18400354,3.89677419 L1.21254971,3.89677419 L1.21254971,3.87096774 Z M5.17931949,3.01935484 C5.14467521,2.76129032 5.08404772,2.53763441 5.0060981,2.3483871 C4.83287671,1.93548387 4.5817057,1.6172043 4.25258506,1.39354839 C3.94078657,1.18709677 3.59434379,1.08387097 3.21325674,1.08387097 C2.68493151,1.08387097 2.24321697,1.25591398 1.88811312,1.60860215 C1.52434821,1.96129032 1.29916041,2.42580645 1.21254971,3.01075269 L5.17931949,3.01075269 L5.17931949,3.01935484 Z"></path>
                    <path d="M3.28254529,6.87311828 C2.27786125,6.87311828 1.45505966,6.49462366 0.822801591,5.74623656 C0.285815289,5.10967742 0.00866106938,4.32688172 0.00866106938,3.43225806 C0.00866106938,2.83010753 0.147238179,2.25376344 0.41573133,1.73763441 C0.710207689,1.19569892 1.11727795,0.765591398 1.61961997,0.455913978 C2.10463986,0.172043011 2.63296509,0.0258064516 3.1959346,0.0258064516 C4.11400795,0.0258064516 4.87618206,0.361290323 5.46513478,1.03225806 C6.04542643,1.69462366 6.33990278,2.54623656 6.33990278,3.56989247 C6.33990278,3.63010753 6.33990278,3.73333333 6.33124171,3.87956989 L6.32258065,4.04301075 L1.40309324,4.04301075 C1.43773752,4.19784946 1.48104286,4.33548387 1.53300928,4.47311828 C1.68890853,4.8516129 1.93141847,5.14408602 2.25187804,5.35053763 C2.5463544,5.53978495 2.8841361,5.6344086 3.25656209,5.6344086 C4.03605833,5.6344086 4.60768891,5.30752688 4.99743703,4.62795699 L5.07538665,4.49892473 L6.28793637,5.00645161 L6.1926646,5.17849462 C5.87220504,5.72903226 5.45647371,6.15053763 4.95413168,6.44301075 C4.4691118,6.72688172 3.89748122,6.87311828 3.28254529,6.87311828 Z M3.20459567,0.369892473 C2.70225365,0.369892473 2.2345559,0.498924731 1.8101635,0.756989247 C1.35978789,1.03225806 0.996022978,1.41075269 0.727529828,1.90107527 C0.485019885,2.3655914 0.355103844,2.88172043 0.355103844,3.43225806 C0.355103844,4.24086022 0.606274856,4.94623656 1.09129474,5.52258065 C1.65426425,6.20215054 2.37313301,6.52903226 3.28254529,6.52903226 C3.83685373,6.52903226 4.34785683,6.4 4.79823243,6.13333333 C5.19664163,5.90107527 5.53442333,5.57419355 5.81157755,5.16129032 L5.23994697,4.92043011 C4.78957137,5.6172043 4.13133009,5.96989247 3.28254529,5.96989247 C2.84083076,5.96989247 2.43376049,5.85806452 2.08731772,5.62580645 C1.70623067,5.38494624 1.42041538,5.04086022 1.23853292,4.59354839 C1.14326116,4.37849462 1.08263367,4.13763441 1.04798939,3.87956989 L1.02200619,3.68172043 L6.01078215,3.68172043 C6.01078215,3.62150538 6.01078215,3.57849462 6.01078215,3.54408602 C6.01078215,2.60645161 5.742289,1.83225806 5.21396376,1.23870968 C4.68563853,0.662365591 4.02739726,0.369892473 3.20459567,0.369892473 Z M5.37852408,3.19139785 L1.01334512,3.19139785 L1.03932833,2.99354839 C1.13460009,2.37419355 1.37711003,1.86666667 1.75819708,1.49677419 C2.14794521,1.11827957 2.64162616,0.920430108 3.20459567,0.920430108 C3.620327,0.920430108 4.00141405,1.03225806 4.33919576,1.25591398 C4.6942996,1.49677419 4.97145382,1.84086022 5.15333628,2.28817204 C5.23994697,2.48602151 5.30057446,2.72688172 5.33521874,2.99354839 L5.37852408,3.19139785 Z M1.42041538,2.84731183 L4.97145382,2.84731183 C4.93680954,2.68387097 4.8935042,2.54623656 4.84153778,2.4172043 C4.68563853,2.03870968 4.45178966,1.74623656 4.14865223,1.53978495 C3.87149801,1.35913978 3.55103844,1.26451613 3.20459567,1.26451613 C2.71957578,1.26451613 2.32982766,1.41935484 2.00070703,1.73763441 C1.71489174,2.02150538 1.51568714,2.39139785 1.42041538,2.84731183 Z"></path>
                </g>
                <g transform="translate(26.762704, 0.000000)" fill-rule="nonzero" id="Shape">
                    <path d="M0.251171012,0.172043011 L2.16526734,0.172043011 C3.55969951,0.172043011 4.71162174,0.516129032 5.60371189,1.21290323 C6.67768449,2.04731183 7.21467079,3.24301075 7.21467079,4.80860215 C7.21467079,6.3827957 6.67768449,7.58709677 5.60371189,8.42150538 C4.72028281,9.11827957 3.56836058,9.46236559 2.16526734,9.46236559 L0.251171012,9.46236559 L0.251171012,0.172043011 Z M1.29916041,1.14408602 L1.29916041,8.49892473 L2.21723376,8.49892473 C3.3085285,8.49892473 4.20061865,8.22365591 4.8935042,7.67311828 C5.742289,7.00215054 6.15802033,6.04731183 6.15802033,4.80860215 C6.15802033,3.57849462 5.73362793,2.63225806 4.8935042,1.96129032 C4.19195758,1.41075269 3.29986743,1.13548387 2.21723376,1.13548387 L1.29916041,1.13548387 L1.29916041,1.14408602 Z"></path>
                    <path d="M2.16526734,9.6344086 L0.0779496244,9.6344086 L0.0779496244,0 L2.16526734,0 C3.59434379,0 4.78957137,0.361290323 5.70764472,1.07526882 C6.8162616,1.94408602 7.38789218,3.19139785 7.38789218,4.8 C7.38789218,6.42580645 6.82492267,7.68172043 5.70764472,8.55053763 C4.79823243,9.27311828 3.60300486,9.6344086 2.16526734,9.6344086 Z M0.424392399,9.29032258 L2.16526734,9.29032258 C3.52505524,9.29032258 4.64233319,8.95483871 5.49977905,8.28387097 C6.52178524,7.48387097 7.0414494,6.31397849 7.0414494,4.80860215 C7.0414494,3.31182796 6.52178524,2.15053763 5.49977905,1.35053763 C4.64233319,0.688172043 3.51639417,0.344086022 2.16526734,0.344086022 L0.424392399,0.344086022 L0.424392399,9.29032258 Z M2.21723376,8.67096774 L1.12593902,8.67096774 L1.12593902,0.972043011 L2.21723376,0.972043011 C3.34317278,0.972043011 4.27856827,1.26451613 5.0060981,1.83225806 C5.88952718,2.52903226 6.33990278,3.53548387 6.33990278,4.80860215 C6.33990278,6.09892473 5.88952718,7.10537634 5.0060981,7.81075269 C4.27856827,8.37849462 3.34317278,8.67096774 2.21723376,8.67096774 Z M1.47238179,8.32688172 L2.21723376,8.32688172 C3.26522316,8.32688172 4.13133009,8.06021505 4.78957137,7.54408602 C5.58638975,6.90752688 5.99346001,5.99569892 5.99346001,4.8172043 C5.99346001,3.63010753 5.60371189,2.74408602 4.78957137,2.10752688 C4.12266902,1.5827957 3.25656209,1.32473118 2.21723376,1.32473118 L1.47238179,1.32473118 L1.47238179,8.32688172 Z"></path>
                </g>
                <g transform="translate(34.644278, 2.924731)" fill-rule="nonzero" id="Shape">
                    <path d="M6.55642952,6.53763441 L5.56040654,6.53763441 L5.56040654,5.72903226 C4.97145382,6.37419355 4.24392399,6.70107527 3.37781706,6.70107527 C2.84083076,6.70107527 2.32982766,6.56344086 1.85346885,6.28817204 C1.34246575,5.99569892 0.944056562,5.59139785 0.658241273,5.07526882 C0.381087053,4.58494624 0.242509943,4.04301075 0.242509943,3.44946237 C0.242509943,2.4688172 0.597613787,1.6516129 1.29916041,1.01505376 C1.90543526,0.47311828 2.59832081,0.197849462 3.38647813,0.197849462 C4.24392399,0.197849462 4.97145382,0.524731183 5.56906761,1.17849462 L5.56906761,0.361290323 L6.56509059,0.361290323 L6.56509059,6.53763441 L6.55642952,6.53763441 Z M3.37781706,1.09247312 C2.69359258,1.09247312 2.13928414,1.36774194 1.71489174,1.90967742 C1.39443217,2.31397849 1.23853292,2.82150538 1.23853292,3.44086022 C1.23853292,4.16344086 1.45505966,4.7483871 1.88811312,5.17849462 C2.30384445,5.6 2.81484755,5.80645161 3.4211224,5.80645161 C4.13133009,5.80645161 4.6942996,5.5311828 5.11003093,4.98064516 C5.42182943,4.57634409 5.57772868,4.06021505 5.57772868,3.43225806 C5.57772868,2.72688172 5.36986301,2.15053763 4.94547061,1.72043011 C4.54706142,1.29892473 4.02739726,1.09247312 3.37781706,1.09247312 Z"></path>
                    <path d="M3.36915599,6.87311828 C2.80618648,6.87311828 2.26053911,6.72688172 1.75819708,6.4344086 C1.22121078,6.13333333 0.796818383,5.70322581 0.493680954,5.16129032 C0.199204596,4.64516129 0.0519664163,4.0688172 0.0519664163,3.44946237 C0.0519664163,2.4172043 0.424392399,1.55698925 1.1605833,0.886021505 C1.79284136,0.31827957 2.53769333,0.0258064516 3.36915599,0.0258064516 C4.13133009,0.0258064516 4.8068935,0.275268817 5.37852408,0.774193548 L5.37852408,0.189247312 L6.72098984,0.189247312 L6.72098984,6.70967742 L5.37852408,6.70967742 L5.37852408,6.14193548 C4.82421564,6.62365591 4.14865223,6.87311828 3.36915599,6.87311828 Z M3.36915599,0.369892473 C2.62430402,0.369892473 1.96606275,0.627956989 1.39443217,1.14408602 C0.718868758,1.75483871 0.398409191,2.51182796 0.398409191,3.44946237 C0.398409191,4.00860215 0.528325232,4.52473118 0.796818383,4.98924731 C1.06531153,5.47956989 1.44639859,5.85806452 1.93141847,6.13333333 C2.38179408,6.39139785 2.86681396,6.52903226 3.36915599,6.52903226 C4.20061865,6.52903226 4.86752099,6.22795699 5.42182943,5.6172043 L5.72496686,5.28172043 L5.72496686,6.3655914 L6.37454706,6.3655914 L6.37454706,0.533333333 L5.72496686,0.533333333 L5.72496686,1.6172043 L5.42182943,1.29032258 C4.85885992,0.670967742 4.18329651,0.369892473 3.36915599,0.369892473 Z M3.4211224,5.97849462 C2.7715422,5.97849462 2.20857269,5.75483871 1.76685815,5.29892473 C1.29916041,4.8344086 1.06531153,4.21505376 1.06531153,3.44086022 C1.06531153,2.78709677 1.23853292,2.23655914 1.5849757,1.80645161 C2.04401237,1.22150538 2.65028723,0.920430108 3.38647813,0.920430108 C4.07936368,0.920430108 4.64233319,1.15268817 5.08404772,1.6 C5.53442333,2.06451613 5.75961114,2.68387097 5.75961114,3.43225806 C5.75961114,4.08602151 5.59505082,4.64516129 5.25726911,5.08387097 C4.8068935,5.67741935 4.18329651,5.97849462 3.4211224,5.97849462 Z M3.37781706,1.26451613 C2.74555899,1.26451613 2.25187804,1.51397849 1.85346885,2.01290323 C1.55899249,2.3827957 1.41175431,2.86451613 1.41175431,3.44086022 C1.41175431,4.12903226 1.6109589,4.65376344 2.0093681,5.05806452 C2.39911622,5.44516129 2.85815289,5.6344086 3.4211224,5.6344086 C4.07936368,5.6344086 4.59036677,5.38494624 4.97145382,4.87741935 C5.25726911,4.49892473 5.40450729,4.0172043 5.40450729,3.43225806 C5.40450729,2.76989247 5.2053027,2.23655914 4.82421564,1.84086022 C4.45178966,1.45376344 3.98409191,1.26451613 3.37781706,1.26451613 Z"></path>
                </g>
                <g transform="translate(42.612461, 2.924731)">
                    <path d="M1.17790544,1.04946237 C1.63694211,0.48172043 2.26053911,0.189247312 3.04869642,0.189247312 C3.81087053,0.189247312 4.43446752,0.447311828 4.91082634,0.972043011 C5.13601414,1.21290323 5.30057446,1.51397849 5.40450729,1.85806452 C5.50844012,2.20215054 5.55174547,2.64946237 5.55174547,3.1827957 L5.55174547,6.53763441 L4.55572249,6.53763441 L4.55572249,3.31182796 C4.55572249,2.86451613 4.52107821,2.51182796 4.46045073,2.25376344 C4.39982324,1.99569892 4.28722934,1.78924731 4.13133009,1.6172043 C3.83685373,1.30752688 3.44710561,1.14408602 2.96208573,1.14408602 C2.35581087,1.14408602 1.88811312,1.34193548 1.56765356,1.72903226 C1.30782148,2.03870968 1.17790544,2.61505376 1.17790544,3.44086022 L1.17790544,6.53763441 L0.173221388,6.53763441 L0.173221388,0.361290323 L1.16924437,0.361290323 L1.16924437,1.04946237 L1.17790544,1.04946237 Z" id="Path"></path>
                    <path d="M5.72496686,6.70967742 L4.3825011,6.70967742 L4.3825011,3.31182796 C4.3825011,2.88172043 4.34785683,2.53763441 4.29589041,2.29677419 C4.23526293,2.07311828 4.13999116,1.88387097 4.01007512,1.73763441 C3.75024304,1.46236559 3.41246133,1.32473118 2.96208573,1.32473118 C2.40777729,1.32473118 1.99204596,1.49677419 1.70623067,1.84946237 C1.47238179,2.13333333 1.35112682,2.66666667 1.35112682,3.45806452 L1.35112682,6.70967742 L0,6.70967742 L0,0.189247312 L1.34246575,0.189247312 L1.34246575,0.627956989 C1.79284136,0.232258065 2.36447194,0.0258064516 3.04003535,0.0258064516 C3.8455148,0.0258064516 4.52107821,0.309677419 5.03208131,0.860215054 C5.27459125,1.12688172 5.45647371,1.44516129 5.56040654,1.81505376 C5.66433937,2.17634409 5.71630579,2.64086022 5.71630579,3.1827957 L5.71630579,6.70967742 L5.72496686,6.70967742 Z M4.72894388,6.3655914 L5.37852408,6.3655914 L5.37852408,3.19139785 C5.37852408,2.67526882 5.32655767,2.24516129 5.2312859,1.91827957 C5.13601414,1.6 4.98877596,1.32473118 4.7809103,1.10107527 C4.33053469,0.610752688 3.75890411,0.369892473 3.04869642,0.369892473 C2.31250552,0.369892473 1.74087494,0.627956989 1.31648255,1.16129032 L1.00468405,1.53978495 L1.00468405,0.524731183 L0.346442775,0.524731183 L0.346442775,6.3655914 L0.996022978,6.3655914 L0.996022978,3.44946237 C0.996022978,2.57204301 1.13460009,1.96989247 1.42907645,1.62580645 C1.78418029,1.19569892 2.29518338,0.980645161 2.95342466,0.980645161 C3.49041096,0.980645161 3.92346443,1.16129032 4.25258506,1.50537634 C4.42580645,1.69462366 4.55572249,1.93548387 4.62501105,2.21935484 C4.6942996,2.49462366 4.72894388,2.84731183 4.72894388,3.32043011 L4.72894388,6.3655914 Z" id="Shape" fill-rule="nonzero"></path>
                </g>
                <g transform="translate(49.108263, 2.924731)">
                    <path d="M5.15333628,1.90967742 C4.67697746,1.36774194 4.11400795,1.09247312 3.46442775,1.09247312 C2.73689792,1.09247312 2.15660627,1.36774194 1.73221388,1.90967742 C1.42041538,2.31397849 1.25585506,2.83010753 1.25585506,3.44086022 C1.25585506,4.16344086 1.47238179,4.7483871 1.89677419,5.17849462 C2.31250552,5.6 2.84083076,5.80645161 3.48174989,5.80645161 C3.8455148,5.80645161 4.1573133,5.74623656 4.40848431,5.6172043 C4.65965532,5.48817204 4.92814848,5.26451613 5.19664163,4.94623656 L5.87220504,5.6172043 C5.49977905,6.01290323 5.12735307,6.29677419 4.75492709,6.46021505 C4.39116217,6.63225806 3.95810871,6.70967742 3.47308882,6.70967742 C2.48572691,6.70967742 1.67158639,6.35698925 1.05665046,5.6516129 C0.511003093,5.03225806 0.242509943,4.30107527 0.242509943,3.45806452 C0.242509943,2.47741935 0.597613787,1.66021505 1.29916041,1.03225806 C1.89677419,0.490322581 2.62430402,0.215053763 3.48174989,0.215053763 C4.3565179,0.215053763 5.13601414,0.567741935 5.82889969,1.26451613 L5.15333628,1.90967742 Z" id="Path"></path>
                    <path d="M3.48174989,6.87311828 C2.44242156,6.87311828 1.5849757,6.49462366 0.935395493,5.75483871 C0.363764914,5.10967742 0.0779496244,4.33548387 0.0779496244,3.44086022 C0.0779496244,2.40860215 0.450375608,1.5483871 1.1865665,0.886021505 C1.81882457,0.31827957 2.58965974,0.0258064516 3.48174989,0.0258064516 C4.39982324,0.0258064516 5.2312859,0.395698925 5.95015466,1.12688172 L6.07140963,1.24731183 L5.14467521,2.16774194 L5.02342024,2.03010753 C4.5817057,1.52258065 4.07070261,1.27311828 3.46442775,1.27311828 C2.78020327,1.27311828 2.26053911,1.52258065 1.87079099,2.02150538 C1.5849757,2.4 1.43773752,2.87311828 1.43773752,3.44946237 C1.43773752,4.13763441 1.62828104,4.66236559 2.0353513,5.06666667 C2.41643836,5.45376344 2.90145824,5.64301075 3.49907203,5.64301075 C3.83685373,5.64301075 4.12266902,5.5827957 4.34785683,5.47096774 C4.5817057,5.35913978 4.82421564,5.14408602 5.08404772,4.84301075 L5.2053027,4.69677419 L6.13203712,5.6172043 L6.01944322,5.73763441 C5.6296951,6.15053763 5.23994697,6.44301075 4.85019885,6.62365591 C4.44312859,6.78709677 3.98409191,6.87311828 3.48174989,6.87311828 Z M3.48174989,0.369892473 C2.67627044,0.369892473 1.98338489,0.627956989 1.42041538,1.14408602 C0.744851966,1.75483871 0.424392399,2.50322581 0.424392399,3.44946237 C0.424392399,4.24946237 0.684224481,4.95483871 1.19522757,5.5311828 C1.78418029,6.20215054 2.53769333,6.53763441 3.48174989,6.53763441 C3.94078657,6.53763441 4.34785683,6.46021505 4.68563853,6.30537634 C4.99743703,6.16774194 5.30923553,5.93548387 5.6296951,5.6172043 L5.2053027,5.19569892 C4.96279275,5.46236559 4.72028281,5.6516129 4.48643394,5.77204301 C4.20927972,5.90967742 3.87149801,5.97849462 3.48174989,5.97849462 C2.79752541,5.97849462 2.22589483,5.75483871 1.77551922,5.29892473 C1.31648255,4.8344086 1.08263367,4.21505376 1.08263367,3.44086022 C1.08263367,2.79569892 1.25585506,2.24516129 1.59363677,1.80645161 C2.05267344,1.22150538 2.68493151,0.920430108 3.46442775,0.920430108 C4.11400795,0.920430108 4.67697746,1.16989247 5.16199735,1.66021505 L5.57772868,1.24731183 C4.95413168,0.662365591 4.25258506,0.369892473 3.48174989,0.369892473 Z" id="Shape" fill-rule="nonzero"></path>
                </g>
                <g transform="translate(55.344233, 2.924731)" fill-rule="nonzero" id="Shape">
                    <path d="M1.26451613,3.87096774 C1.29916041,4.11182796 1.35978789,4.33548387 1.44639859,4.54193548 C1.61961997,4.95483871 1.87945205,5.27311828 2.2345559,5.49677419 C2.55501547,5.70322581 2.91878038,5.80645161 3.33451171,5.80645161 C4.17463544,5.80645161 4.8068935,5.44516129 5.22262483,4.71397849 L6.11471498,5.09247312 C5.81157755,5.6172043 5.41316836,6.02150538 4.93680954,6.29677419 C4.46045073,6.57204301 3.92346443,6.70967742 3.33451171,6.70967742 C2.38179408,6.70967742 1.60229783,6.35698925 1.01334512,5.64301075 C0.493680954,5.03225806 0.242509943,4.29247312 0.242509943,3.44086022 C0.242509943,2.86451613 0.372425983,2.32258065 0.632258065,1.83225806 C0.909412285,1.31612903 1.29049934,0.911827957 1.77551922,0.619354839 C2.2345559,0.344086022 2.72823685,0.215053763 3.26522316,0.215053763 C4.13133009,0.215053763 4.84153778,0.533333333 5.40450729,1.16129032 C5.95881573,1.78924731 6.24463102,2.59784946 6.24463102,3.58709677 C6.24463102,3.64731183 6.24463102,3.75053763 6.23596995,3.89677419 L1.26451613,3.89677419 L1.26451613,3.87096774 Z M5.2312859,3.01935484 C5.19664163,2.76129032 5.13601414,2.53763441 5.05806452,2.3483871 C4.88484313,1.93548387 4.63367212,1.6172043 4.30455148,1.39354839 C3.99275298,1.18709677 3.64631021,1.08387097 3.26522316,1.08387097 C2.73689792,1.08387097 2.29518338,1.25591398 1.94007954,1.60860215 C1.57631463,1.96129032 1.35112682,2.42580645 1.26451613,3.01075269 L5.2312859,3.01075269 L5.2312859,3.01935484 Z"></path>
                    <path d="M3.33451171,6.87311828 C2.32982766,6.87311828 1.50702607,6.49462366 0.874768007,5.74623656 C0.337781706,5.10967742 0.0606274856,4.32688172 0.0606274856,3.43225806 C0.0606274856,2.83010753 0.199204596,2.25376344 0.467697746,1.73763441 C0.762174105,1.19569892 1.16924437,0.765591398 1.67158639,0.455913978 C2.15660627,0.172043011 2.68493151,0.0258064516 3.24790102,0.0258064516 C4.16597437,0.0258064516 4.92814848,0.361290323 5.51710119,1.03225806 C6.09739284,1.69462366 6.3918692,2.54623656 6.3918692,3.56989247 C6.3918692,3.63010753 6.3918692,3.73333333 6.38320813,3.87956989 L6.37454706,4.04301075 L1.47238179,4.04301075 C1.50702607,4.19784946 1.55033142,4.33548387 1.60229783,4.47311828 C1.75819708,4.8516129 2.00070703,5.14408602 2.32116659,5.35053763 C2.61564295,5.53978495 2.95342466,5.6344086 3.32585064,5.6344086 C4.10534688,5.6344086 4.67697746,5.30752688 5.06672559,4.62795699 L5.14467521,4.49892473 L6.35722492,5.00645161 L6.26195316,5.17849462 C5.94149359,5.72903226 5.52576226,6.15053763 5.02342024,6.44301075 C4.52107821,6.72688172 3.95810871,6.87311828 3.33451171,6.87311828 Z M3.26522316,0.369892473 C2.76288113,0.369892473 2.29518338,0.498924731 1.87079099,0.756989247 C1.42041538,1.03225806 1.05665046,1.41075269 0.788157313,1.90107527 C0.545647371,2.3655914 0.41573133,2.88172043 0.41573133,3.43225806 C0.41573133,4.24086022 0.666902342,4.94623656 1.15192223,5.52258065 C1.71489174,6.20215054 2.43376049,6.52903226 3.34317278,6.52903226 C3.89748122,6.52903226 4.40848431,6.4 4.85885992,6.13333333 C5.25726911,5.90107527 5.59505082,5.57419355 5.87220504,5.16129032 L5.30057446,4.92043011 C4.85019885,5.6172043 4.19195758,5.96989247 3.34317278,5.96989247 C2.90145824,5.96989247 2.49438798,5.85806452 2.14794521,5.62580645 C1.76685815,5.38494624 1.48104286,5.04086022 1.29916041,4.59354839 C1.20388864,4.37849462 1.14326116,4.13763441 1.10861688,3.87956989 L1.08263367,3.68172043 L6.06274856,3.68172043 C6.06274856,3.62150538 6.06274856,3.57849462 6.06274856,3.54408602 C6.06274856,2.60645161 5.79425541,1.83225806 5.26593018,1.23870968 C4.73760495,0.662365591 4.08802475,0.369892473 3.26522316,0.369892473 Z M5.4304905,3.19139785 L1.06531153,3.19139785 L1.09129474,2.99354839 C1.1865665,2.37419355 1.42907645,1.86666667 1.8101635,1.49677419 C2.19991162,1.11827957 2.69359258,0.920430108 3.25656209,0.920430108 C3.67229342,0.920430108 4.05338047,1.03225806 4.39116217,1.25591398 C4.74626602,1.49677419 5.02342024,1.84086022 5.2053027,2.28817204 C5.29191339,2.48602151 5.35254087,2.72688172 5.38718515,2.99354839 L5.4304905,3.19139785 Z M1.47238179,2.84731183 L5.02342024,2.84731183 C4.98877596,2.68387097 4.94547061,2.54623656 4.8935042,2.4172043 C4.73760495,2.03870968 4.50375608,1.74623656 4.20061865,1.53978495 C3.92346443,1.35913978 3.60300486,1.26451613 3.25656209,1.26451613 C2.7715422,1.26451613 2.38179408,1.41935484 2.05267344,1.73763441 C1.76685815,2.02150538 1.57631463,2.39139785 1.47238179,2.84731183 Z"></path>
                </g>
                <path d="M15.0962439,8.45591398 C14.9490057,8.45591398 14.5679187,8.45591398 14.5679187,7.60430108 L14.5679187,4.35268817 L15.5985859,4.35268817 L15.5985859,3.11397849 L14.5679187,3.11397849 L14.5679187,1.78924731 L13.2254529,1.78924731 L13.2254529,3.11397849 L11.3286787,3.11397849 L9.39726027,7.54408602 L7.52646929,3.11397849 L6.07140963,3.11397849 L8.66973045,9.18709677 L7.05011047,12.8946237 L8.45320371,12.8946237 L12.2121078,4.36129032 L13.2081308,4.36129032 L13.2081308,7.61290323 C13.2081308,9.36774194 14.1262042,9.73763441 14.8883783,9.73763441 C15.0875829,9.73763441 15.3127707,9.70322581 15.5552806,9.6344086 L15.6851966,9.6 L15.6851966,8.34408602 L15.4686699,8.39569892 C15.3127707,8.43870968 15.1828546,8.45591398 15.0962439,8.45591398 Z" id="Path"></path>
            </g>
            <g id="Group">
                <g transform="translate(0.445426, 0.000000)" id="Path">
                    <path d="M12.4756518,6.21075269 C12.4756518,4.25806452 12.4843129,2.29677419 12.4669907,0.344086022 C12.4669907,0.0516129032 12.5362793,-3.12944115e-15 12.8047724,0.0774193548 C13.3850641,0.240860215 13.9740168,0.387096774 14.5543084,0.533333333 C14.7881573,0.593548387 14.8834291,0.688172043 14.8834291,0.946236559 C14.874768,4.47311828 14.874768,7.99139785 14.8834291,11.5182796 C14.8834291,11.7505376 14.8141405,11.8623656 14.5802916,11.9225806 C13.9740168,12.0688172 13.3677419,12.2236559 12.7614671,12.3956989 C12.5102961,12.4645161 12.4583297,12.3956989 12.4583297,12.1462366 C12.4756518,10.1591398 12.4756518,8.18064516 12.4756518,6.21075269 Z"></path>
                    <path d="M4.6114008,8.84301075 C4.6114008,7.85376344 4.62006186,6.86451613 4.6114008,5.87526882 C4.6114008,5.64301075 4.66336721,5.57419355 4.90587715,5.64301075 C5.52947415,5.81505376 6.16173221,5.97849462 6.78532921,6.13333333 C6.9845338,6.18494624 7.03650022,6.27956989 7.02783915,6.4688172 C7.01917808,8.06021505 7.01917808,9.6516129 7.02783915,11.2430108 C7.02783915,11.4322581 6.97587274,11.5268817 6.77666814,11.5784946 C6.14441008,11.7333333 5.52081308,11.8967742 4.89721608,12.0688172 C4.67202828,12.1290323 4.60273973,12.0860215 4.60273973,11.8451613 C4.6114008,10.8473118 4.6114008,9.84086022 4.6114008,8.84301075 Z"></path>
                    <path d="M11.0465753,7.26021505 C11.0465753,8.25806452 11.0465753,9.25591398 11.0465753,10.2537634 C11.0465753,10.4602151 11.0292532,10.5462366 10.7780822,10.4688172 C10.1544852,10.288172 9.52222713,10.1333333 8.89863014,9.98709677 C8.67344233,9.93548387 8.61281485,9.82365591 8.62147592,9.60860215 C8.63013699,8.04301075 8.63013699,6.4688172 8.62147592,4.90322581 C8.62147592,4.66236559 8.69942554,4.56774194 8.93327441,4.51612903 C9.55687141,4.36989247 10.1718073,4.20645161 10.7867433,4.0344086 C11.0205921,3.97419355 11.0638975,4.04301075 11.0638975,4.25806452 C11.0465753,5.25591398 11.0465753,6.26236559 11.0465753,7.26021505 Z"></path>
                    <path d="M3.18232435,1.5483871 C3.18232435,1.5483871 3.18232435,1.5483871 3.18232435,1.5483871 L3.18232435,1.50537634 C3.17366328,1.34193548 3.11303579,1.25591398 2.93115334,1.21290323 C2.32487848,1.06666667 1.71860362,0.903225806 1.11232877,0.748387097 C0.748563853,0.653763441 0.748563853,0.653763441 0.748563853,1.04086022 C0.748563853,1.19569892 0.748563853,1.35053763 0.748563853,1.50537634 L0.739902784,1.50537634 L0.739902784,10.9247312 C0.739902784,11.1139785 0.739902784,11.3032258 0.739902784,11.4924731 C0.739902784,11.7505376 0.80053027,11.8021505 1.05170128,11.7333333 C1.66663721,11.5526882 2.28157313,11.3978495 2.90517013,11.2516129 C3.09571365,11.2086022 3.18232435,11.1311828 3.18232435,10.9333333 L3.18232435,1.66021505 C3.18232435,1.62580645 3.18232435,1.5827957 3.18232435,1.5483871 Z"></path>
                </g>
            </g>
        </g>
    </g>
</svg>