<?xml version="1.0" encoding="utf-8"?>
<!-- Generator: Adobe Illustrator 22.0.0, SVG Export Plug-In . SVG Version: 6.00 Build 0)  -->
<svg version="1.1" id="Calque_1" xmlns="http://www.w3.org/2000/svg" xmlns:xlink="http://www.w3.org/1999/xlink" x="0px" y="0px"
	 viewBox="0 0 116 22" style="enable-background:new 0 0 116 22;" xml:space="preserve">
<style type="text/css">
	.st0{fill:#B8BCCC;}
</style>
<title>Bytedance</title>
<desc>Created with Sketch.</desc>
<g id="Page-1">
	<g id="Bytedance" transform="translate(-1.000000, 0.000000)">
		<g id="Group" transform="translate(28.493151, 2.473118)">
			<path class="st0" d="M7.4,7C7.2,6.8,7,6.7,6.6,6.5C7.5,5.7,8,4.8,8,3.8c0-0.6-0.1-1.1-0.4-1.7C7.3,1.6,7,1.2,6.5,0.8
				C5.8,0.3,4.6,0,3.1,0h-3v13.8h3.7c0.8,0,1.4-0.1,1.9-0.2c0.5-0.1,1-0.4,1.4-0.8c1-0.8,1.5-1.8,1.5-3C8.6,8.7,8.2,7.8,7.4,7z
				 M5.3,5.4C5.1,5.6,4.9,5.7,4.6,5.8C4.3,5.8,3.9,5.9,3.4,5.9H2.1v-4h1.3c0.9,0,1.6,0.1,2,0.4c0.5,0.3,0.7,0.9,0.7,1.5
				C6.1,4.5,5.8,5,5.3,5.4z M2.1,7.6h1.4c1,0,1.7,0.1,2.2,0.4C6,8.2,6.2,8.4,6.4,8.8c0.2,0.3,0.3,0.7,0.3,1.1c0,0.7-0.2,1.2-0.8,1.6
				c-0.3,0.2-0.6,0.3-0.9,0.4C4.7,11.9,4.3,12,3.7,12H2.1V7.6z"/>
			<path class="st0" d="M30.7,5.7c-0.8-1-1.9-1.4-3.2-1.4c-0.8,0-1.6,0.2-2.3,0.6c-0.7,0.4-1.3,1.1-1.7,1.8
				c-0.4,0.7-0.6,1.6-0.6,2.4c0,1.3,0.4,2.4,1.2,3.3c0.9,1.1,2.1,1.6,3.5,1.6c0.9,0,1.7-0.2,2.4-0.6c0.7-0.4,1.3-1,1.8-1.8l0.1-0.2
				l-1.7-0.7L30,10.9c-0.6,1-1.4,1.4-2.5,1.4c-0.5,0-1-0.1-1.4-0.4c-0.5-0.3-0.8-0.7-1-1.3c-0.1-0.2-0.1-0.4-0.2-0.6h7l0-0.2
				c0-0.2,0-0.4,0-0.4C31.9,7.9,31.5,6.6,30.7,5.7z M30,8.3h-5.1c0.1-0.7,0.4-1.2,0.8-1.6c0.5-0.5,1-0.7,1.7-0.7
				c0.5,0,1,0.1,1.3,0.4c0.4,0.3,0.8,0.7,1,1.3C29.9,7.9,29.9,8.1,30,8.3z"/>
			<path class="st0" d="M46.4,1.5c-1.3-1-3-1.5-5.1-1.5h-3v13.8h3c2.1,0,3.8-0.5,5.1-1.6c1.6-1.2,2.4-3.1,2.4-5.4
				C48.8,4.6,48,2.8,46.4,1.5z M45.1,10.8c-0.9,0.7-2.2,1.1-3.7,1.1h-1.1V1.9h1.1c1.5,0,2.7,0.4,3.7,1.1c1.2,0.9,1.7,2.2,1.7,3.9
				C46.8,8.6,46.2,9.9,45.1,10.8z"/>
			<path class="st0" d="M57.2,4.5v0.8c-0.8-0.7-1.8-1.1-2.9-1.1c-1.2,0-2.3,0.4-3.2,1.2c-1.1,1-1.6,2.2-1.6,3.7
				c0,0.9,0.2,1.7,0.6,2.5c0.4,0.8,1,1.4,1.8,1.8c0.7,0.4,1.5,0.6,2.3,0.6c1.1,0,2.1-0.4,2.9-1.1v0.8h1.9V4.5H57.2z M57.2,9.1
				c0,0.8-0.2,1.5-0.6,2.1c-0.5,0.7-1.3,1.1-2.2,1.1c-0.8,0-1.5-0.3-2-0.8c-0.6-0.6-0.9-1.3-0.9-2.3c0-0.8,0.2-1.5,0.6-2.1
				C52.7,6.4,53.4,6,54.3,6c0.9,0,1.5,0.3,2.1,0.8C56.9,7.4,57.2,8.2,57.2,9.1z"/>
			<g>
				<path class="st0" d="M68.8,6.8c-0.1-0.5-0.4-1-0.8-1.4c-0.7-0.8-1.7-1.2-2.8-1.2c-1,0-1.8,0.3-2.4,0.9V4.5h-1.9v9.4h1.9V9.2
					c0-1.1,0.2-1.9,0.5-2.3c0.4-0.5,1-0.8,1.8-0.8c0.6,0,1.1,0.2,1.5,0.6c0.2,0.2,0.3,0.5,0.4,0.8c0.1,0.3,0.1,0.8,0.1,1.5v4.9H69
					V8.8C69,8,69,7.3,68.8,6.8z"/>
				<path class="st0" d="M77.6,11l-0.2,0.2c-0.4,0.4-0.7,0.7-1.1,0.9c-0.3,0.2-0.7,0.2-1.2,0.2c-0.9,0-1.5-0.3-2.1-0.8
					c-0.6-0.6-0.9-1.3-0.9-2.3c0-0.8,0.2-1.5,0.6-2.1C73.4,6.4,74.1,6,75.1,6c0.9,0,1.6,0.4,2.2,1.1l0.2,0.2L78.8,6l-0.2-0.2
					c-1-1.1-2.2-1.6-3.5-1.6c-1.3,0-2.4,0.4-3.3,1.2c-1.1,1-1.6,2.2-1.6,3.7c0,1.3,0.4,2.4,1.2,3.3c0.9,1.1,2.2,1.6,3.6,1.6
					c0.7,0,1.4-0.1,2-0.4c0.6-0.3,1.1-0.7,1.7-1.3l0.2-0.2L77.6,11z"/>
			</g>
			<path class="st0" d="M86.9,5.7c-0.8-1-1.9-1.4-3.2-1.4c-0.8,0-1.6,0.2-2.3,0.6c-0.7,0.4-1.3,1.1-1.7,1.8
				c-0.4,0.7-0.6,1.6-0.6,2.4c0,1.3,0.4,2.4,1.2,3.3c0.9,1.1,2.1,1.6,3.5,1.6c0.9,0,1.7-0.2,2.4-0.6c0.7-0.4,1.3-1,1.8-1.8l0.1-0.2
				l-1.7-0.7l-0.1,0.2c-0.6,1-1.4,1.4-2.5,1.4c-0.5,0-1-0.1-1.4-0.4c-0.5-0.3-0.8-0.7-1-1.3c-0.1-0.2-0.1-0.4-0.2-0.6h7l0-0.2
				c0-0.2,0-0.4,0-0.4C88.2,7.9,87.8,6.6,86.9,5.7z M86.2,8.3h-5.1c0.1-0.7,0.4-1.2,0.8-1.6C82.5,6.2,83,6,83.7,6
				c0.5,0,1,0.1,1.3,0.4c0.4,0.3,0.8,0.7,1,1.3C86.1,7.9,86.2,8.1,86.2,8.3z"/>
			<path id="Path_2_" class="st0" d="M21.6,12.2c-0.2,0-0.8,0-0.8-1.2V6.3h1.5V4.5h-1.5V2.6h-1.9v1.9h-2.7l-2.8,6.4l-2.7-6.4H8.7
				l3.7,8.7l-2.3,5.3h2l5.4-12.3h1.4v4.7c0,2.5,1.3,3.1,2.4,3.1c0.3,0,0.6,0,1-0.1l0.2,0V12l-0.3,0.1C21.9,12.1,21.7,12.2,21.6,12.2
				z"/>
		</g>
		<g id="Group_1_">
			<g id="Path_3_" transform="translate(0.636323, 0.000000)">
				<path class="st0" d="M17.8,8.9c0-2.8,0-5.6,0-8.4c0-0.4,0.1-0.5,0.5-0.4c0.8,0.2,1.7,0.4,2.5,0.7c0.3,0.1,0.5,0.2,0.5,0.6
					c0,5.1,0,10.1,0,15.2c0,0.3-0.1,0.5-0.4,0.6c-0.9,0.2-1.7,0.4-2.6,0.7c-0.4,0.1-0.4,0-0.4-0.4C17.8,14.6,17.8,11.8,17.8,8.9z"/>
				<path class="st0" d="M6.6,12.7c0-1.4,0-2.8,0-4.3C6.6,8.1,6.7,8,7,8.1c0.9,0.2,1.8,0.5,2.7,0.7C10,8.9,10.1,9,10,9.3
					c0,2.3,0,4.6,0,6.9c0,0.3-0.1,0.4-0.4,0.5c-0.9,0.2-1.8,0.5-2.7,0.7c-0.3,0.1-0.4,0-0.4-0.3C6.6,15.6,6.6,14.1,6.6,12.7z"/>
				<path class="st0" d="M15.8,10.4c0,1.4,0,2.9,0,4.3c0,0.3,0,0.4-0.4,0.3c-0.9-0.3-1.8-0.5-2.7-0.7c-0.3-0.1-0.4-0.2-0.4-0.5
					c0-2.3,0-4.5,0-6.8c0-0.3,0.1-0.5,0.4-0.6c0.9-0.2,1.8-0.4,2.6-0.7c0.3-0.1,0.4,0,0.4,0.3C15.8,7.6,15.8,9,15.8,10.4z"/>
				<path class="st0" d="M4.5,2.2L4.5,2.2L4.5,2.2c0-0.3-0.1-0.4-0.4-0.5C3.3,1.5,2.5,1.3,1.6,1.1C1.1,0.9,1.1,0.9,1.1,1.5
					c0,0.2,0,0.4,0,0.7h0v13.5c0,0.3,0,0.5,0,0.8c0,0.4,0.1,0.4,0.4,0.3c0.9-0.3,1.8-0.5,2.6-0.7c0.3-0.1,0.4-0.2,0.4-0.5V2.4
					C4.5,2.3,4.5,2.3,4.5,2.2z"/>
			</g>
		</g>
	</g>
</g>
</svg>
