<?xml version="1.0" encoding="UTF-8"?>
<svg width="63px" height="13px" viewBox="0 0 63 13" version="1.1" xmlns="http://www.w3.org/2000/svg" xmlns:xlink="http://www.w3.org/1999/xlink">
    <!-- Generator: Sketch 52.4 (67378) - http://www.bohemiancoding.com/sketch -->
    <title>Globant</title>
    <desc>Created with Sketch.</desc>
    <g id="Page-1" stroke="none" stroke-width="1" fill="none" fill-rule="evenodd">
        <g id="Globant" fill="#B8BCCC">
            <path d="M5.03161398,11.6697171 C1.94975042,11.6697171 0.0314475874,8.95507488 0.0314475874,6.04575707 C0.0314475874,2.97420965 1.75058236,0.475873544 5.03161398,0.475873544 C7.4530782,0.475873544 9.31896839,1.9359401 9.47620632,4.06655574 L7.34825291,4.06655574 C7.24342762,3.07154742 6.23710483,2.29284526 5.07354409,2.29284526 C3.35440932,2.29284526 2.24326123,3.64475874 2.24326123,6.14309484 C2.24326123,7.86272879 3.10282862,9.78785358 5.07354409,9.78785358 C6.88702163,9.78785358 7.54742097,8.8469218 7.54742097,7.38685524 L5.28319468,7.38685524 L5.28319468,5.6672213 L9.52861897,5.6672213 L9.52861897,7.44093178 C9.47620632,9.89600666 8.40698835,11.6697171 5.03161398,11.6697171 Z" id="Path"></path>
            <polygon id="Path" points="10.6816972 11.3019967 10.6816972 0.724625624 12.6524126 0.724625624 12.6524126 11.3019967"></polygon>
            <path d="M13.6168053,6.82445923 C13.7635607,5.10482529 15.2835275,3.53660566 16.9502496,3.38519135 C19.5813644,3.12562396 21.2900166,4.79118136 21.2900166,7.45174709 C21.2900166,9.89600666 19.8224626,11.5183028 17.453411,11.5183028 C14.8222962,11.5074875 13.3652246,9.52828619 13.6168053,6.82445923 Z M19.2668885,7.44093178 C19.2668885,5.87271215 18.6589018,5.09400998 17.453411,5.09400998 C16.2374376,5.09400998 15.6399334,5.87271215 15.6399334,7.44093178 C15.6399334,9.00915141 16.2479201,9.78785358 17.453411,9.78785358 C18.6589018,9.78785358 19.2668885,9.00915141 19.2668885,7.44093178 Z" id="Shape" fill-rule="nonzero"></path>
            <path d="M22.2019967,11.3019967 L22.2019967,0.724625624 L24.1727121,0.724625624 L24.1727121,4.57487521 C24.7282862,3.74209651 25.4830283,3.37437604 26.3950083,3.37437604 C28.3133111,3.37437604 29.4768719,5.03993344 29.4768719,7.38685524 C29.4768719,9.99334443 28.1141431,11.5507488 26.2482529,11.5507488 C25.3362729,11.5507488 24.6339434,11.1830283 24.1727121,10.4043261 L24.1727121,11.3452579 L22.2019967,11.3452579 L22.2019967,11.3019967 Z M27.4537438,7.49500832 C27.4537438,5.92678869 26.8981697,5.09400998 25.734609,5.09400998 C24.6234609,5.09400998 24.0678869,5.92678869 24.0678869,7.59234609 C24.0678869,8.89018303 24.822629,9.83111481 25.734609,9.83111481 C26.7409318,9.84193012 27.4537438,8.8577371 27.4537438,7.49500832 Z" id="Shape" fill-rule="nonzero"></path>
            <path d="M35.3261231,11.3019967 C35.2737105,11.0965058 35.2212978,10.8369384 35.2212978,10.6206323 C34.7705491,11.1397671 33.9633943,11.5074875 32.946589,11.5074875 C31.2274542,11.5074875 30.4202995,10.6206323 30.4202995,9.36605657 C30.4202995,7.12728785 31.8878536,6.86772047 33.8585691,6.60815308 C34.8648918,6.45673877 35.1164725,6.24043261 35.1164725,5.72129784 C35.1164725,5.20216306 34.6133111,4.94259567 33.8585691,4.94259567 C32.946589,4.94259567 32.6006656,5.40765391 32.4958403,6.0890183 L30.6299501,6.0890183 C30.6823627,4.47753744 31.5419301,3.37437604 33.9109817,3.37437604 C36.2800333,3.37437604 37.0976705,4.46672213 37.0976705,6.44592346 L37.0976705,11.3560732 L35.3261231,11.3560732 L35.3261231,11.3019967 Z M35.2317804,7.49500832 C35.0326123,7.70049917 34.6762063,7.80865225 33.9738769,7.96006656 C32.8627288,8.1655574 32.4539101,8.53327787 32.4539101,9.16056572 C32.4539101,9.73377704 32.8103161,10.047421 33.4183028,10.047421 C34.4246256,10.047421 35.1898502,9.2687188 35.2317804,8.38186356 L35.2317804,7.49500832 Z" id="Shape" fill-rule="nonzero"></path>
            <path d="M43.3557404,11.3019967 L43.3557404,6.60815308 C43.3557404,5.40765391 42.9993344,5.09400998 42.0978369,5.09400998 C41.0391015,5.09400998 40.5778702,5.6672213 40.5778702,6.86772047 L40.5778702,11.2911814 L38.6071547,11.2911814 L38.6071547,3.52579035 L40.4206323,3.52579035 L40.4206323,4.67221298 C40.871381,3.78535774 41.6366057,3.3202995 42.8420965,3.3202995 C44.2572379,3.3202995 45.3159734,4.20715474 45.3159734,5.92678869 L45.3159734,11.2911814 L43.3557404,11.2911814 L43.3557404,11.3019967 Z" id="Path"></path>
            <path d="M51.0813644,8.38186356 C51.0289517,9.21464226 50.6725458,9.73377704 49.9178037,9.73377704 C49.1106489,9.73377704 48.7542429,9.16056572 48.7542429,8.1655574 L48.7542429,4.98585691 L51.8361065,4.98585691 L51.8361065,3.37437604 L48.7542429,3.37437604 L48.7542429,1.44925125 L46.7835275,1.44925125 L46.7835275,8.38186356 C46.7835275,10.047421 47.6430948,11.5074875 49.865391,11.5074875 C51.9828619,11.5074875 52.8948419,10.047421 52.8948419,8.38186356 L51.0813644,8.38186356 Z" id="Path"></path>
            <path d="M55.3267887,0.151414309 C55.1276206,-1.38777878e-17 54.8236273,0.0973377704 54.6663894,0.302828619 C54.6139767,0.410981697 54.5615641,0.562396007 54.6139767,0.670549085 L55.5259567,2.02246256 C57.2450915,4.68302829 57.2450915,8.1655574 55.5259567,10.8261231 L54.6139767,12.1780366 C54.5615641,12.437604 54.6663894,12.6971714 54.91797,12.7512479 C55.0227953,12.8053245 55.1695507,12.7512479 55.274376,12.6971714 L62.6960067,6.85690516 C62.9475874,6.65141431 63,6.28369384 62.8008319,6.02412646 C62.7484193,5.97004992 62.7484193,5.91597338 62.6960067,5.91597338 L55.3267887,0.151414309 Z" id="Path"></path>
        </g>
    </g>
</svg>