<?xml version="1.0" encoding="UTF-8"?>
<svg width="90px" height="19px" viewBox="0 0 90 19" version="1.1" xmlns="http://www.w3.org/2000/svg" xmlns:xlink="http://www.w3.org/1999/xlink">
    <!-- Generator: Sketch 52.4 (67378) - http://www.bohemiancoding.com/sketch -->
    <title>Globant</title>
    <desc>Created with Sketch.</desc>
    <g id="Page-1" stroke="none" stroke-width="1" fill="none" fill-rule="evenodd">
        <g id="Globant" fill="#B8BCCC">
            <path d="M7.18801997,17.0557404 C2.78535774,17.0557404 0.0449251248,13.0881864 0.0449251248,8.83610649 C0.0449251248,4.3469218 2.50083195,0.695507488 7.18801997,0.695507488 C10.6472546,0.695507488 13.312812,2.82945092 13.5374376,5.94342762 L10.4975042,5.94342762 C10.3477537,4.48918469 8.91014975,3.35108153 7.24792013,3.35108153 C4.79201331,3.35108153 3.2046589,5.32695507 3.2046589,8.97836938 C3.2046589,11.4916805 4.43261231,14.3053245 7.24792013,14.3053245 C9.83860233,14.3053245 10.78203,12.9301165 10.78203,10.796173 L7.54742097,10.796173 L7.54742097,8.2828619 L13.6123128,8.2828619 L13.6123128,10.875208 C13.5374376,14.4633943 12.0099834,17.0557404 7.18801997,17.0557404 Z" id="Path"></path>
            <polygon id="Path" points="15.2595674 16.5183028 15.2595674 1.05906822 18.0748752 1.05906822 18.0748752 16.5183028"></polygon>
            <path d="M19.452579,9.97420965 C19.6622296,7.4608985 21.8336106,5.16888519 24.2146423,4.94758735 C27.9733777,4.56821963 30.4143095,7.00249584 30.4143095,10.891015 C30.4143095,14.4633943 28.3178037,16.8344426 24.9334443,16.8344426 C21.1747088,16.8186356 19.093178,13.9259567 19.452579,9.97420965 Z M27.5241265,10.875208 C27.5241265,8.58319468 26.655574,7.44509151 24.9334443,7.44509151 C23.1963394,7.44509151 22.3427621,8.58319468 22.3427621,10.875208 C22.3427621,13.1672213 23.2113145,14.3053245 24.9334443,14.3053245 C26.655574,14.3053245 27.5241265,13.1672213 27.5241265,10.875208 Z" id="Shape" fill-rule="nonzero"></path>
            <path d="M31.7171381,16.5183028 L31.7171381,1.05906822 L34.5324459,1.05906822 L34.5324459,6.68635607 C35.3261231,5.46921797 36.4043261,4.93178037 37.7071547,4.93178037 C40.4475874,4.93178037 42.109817,7.36605657 42.109817,10.796173 C42.109817,14.6056572 40.1630616,16.8818636 37.4975042,16.8818636 C36.1946755,16.8818636 35.1913478,16.344426 34.5324459,15.2063228 L34.5324459,16.5815308 L31.7171381,16.5815308 L31.7171381,16.5183028 Z M39.2196339,10.9542429 C39.2196339,8.66222962 38.4259567,7.44509151 36.7637271,7.44509151 C35.1763727,7.44509151 34.3826955,8.66222962 34.3826955,11.0965058 C34.3826955,12.9933444 35.4608985,14.3685524 36.7637271,14.3685524 C38.2013311,14.3843594 39.2196339,12.9459235 39.2196339,10.9542429 Z" id="Shape" fill-rule="nonzero"></path>
            <path d="M50.4658902,16.5183028 C50.391015,16.21797 50.3161398,15.8386023 50.3161398,15.5224626 C49.672213,16.281198 48.5191348,16.8186356 47.0665557,16.8186356 C44.6106489,16.8186356 43.4575707,15.5224626 43.4575707,13.6888519 C43.4575707,10.4168053 45.5540765,10.0374376 48.3693844,9.65806988 C49.8069884,9.43677205 50.1663894,9.12063228 50.1663894,8.36189684 C50.1663894,7.6031614 49.4475874,7.22379368 48.3693844,7.22379368 C47.0665557,7.22379368 46.5723794,7.90349418 46.422629,8.89933444 L43.7570715,8.89933444 C43.8319468,6.54409318 45.0599002,4.93178037 48.4442596,4.93178037 C51.828619,4.93178037 52.9966722,6.52828619 52.9966722,9.42096506 L52.9966722,16.5973378 L50.4658902,16.5973378 L50.4658902,16.5183028 Z M50.3311148,10.9542429 C50.046589,11.2545757 49.5374376,11.4126456 48.5341098,11.6339434 C46.9467554,11.9342762 46.3627288,12.4717138 46.3627288,13.3885191 C46.3627288,14.2262895 46.8718802,14.6846922 47.7404326,14.6846922 C49.1780366,14.6846922 50.2712146,13.546589 50.3311148,12.250416 L50.3311148,10.9542429 Z" id="Shape" fill-rule="nonzero"></path>
            <path d="M61.936772,16.5183028 L61.936772,9.65806988 C61.936772,7.90349418 61.4276206,7.44509151 60.1397671,7.44509151 C58.6272879,7.44509151 57.968386,8.2828619 57.968386,10.0374376 L57.968386,16.5024958 L55.1530782,16.5024958 L55.1530782,5.1530782 L57.7437604,5.1530782 L57.7437604,6.82861897 C58.3876872,5.53244592 59.4808652,4.85274542 61.202995,4.85274542 C63.2246256,4.85274542 64.7371048,6.14891847 64.7371048,8.66222962 L64.7371048,16.5024958 L61.936772,16.5024958 L61.936772,16.5183028 Z" id="Path"></path>
            <path d="M72.9733777,12.250416 C72.8985025,13.4675541 72.3893511,14.2262895 71.3111481,14.2262895 C70.1580699,14.2262895 69.6489185,13.3885191 69.6489185,11.9342762 L69.6489185,7.28702163 L74.0515807,7.28702163 L74.0515807,4.93178037 L69.6489185,4.93178037 L69.6489185,2.11813644 L66.8336106,2.11813644 L66.8336106,12.250416 C66.8336106,14.6846922 68.0615641,16.8186356 71.2362729,16.8186356 C74.2612313,16.8186356 75.5640599,14.6846922 75.5640599,12.250416 L72.9733777,12.250416 Z" id="Path"></path>
            <path d="M79.0382696,0.221297837 C78.7537438,-4.16333634e-17 78.3194676,0.142262895 78.0948419,0.442595674 C78.0199667,0.600665557 77.9450915,0.821963394 78.0199667,0.980033278 L79.3227953,2.95590682 C81.7787022,6.84442596 81.7787022,11.9342762 79.3227953,15.8227953 L78.0199667,17.7986689 C77.9450915,18.1780366 78.0948419,18.5574043 78.4542429,18.6364393 C78.6039933,18.7154742 78.8136439,18.6364393 78.9633943,18.5574043 L89.5657238,10.0216306 C89.9251248,9.72129784 90,9.18386023 89.7154742,8.80449251 C89.640599,8.72545757 89.640599,8.64642263 89.5657238,8.64642263 L79.0382696,0.221297837 Z" id="Path"></path>
        </g>
    </g>
</svg>