<?xml version="1.0" encoding="UTF-8"?>
<svg width="82px" height="17px" viewBox="0 0 82 17" version="1.1" xmlns="http://www.w3.org/2000/svg" xmlns:xlink="http://www.w3.org/1999/xlink">
    <!-- Generator: Sketch 52.4 (67378) - http://www.bohemiancoding.com/sketch -->
    <title>Globant</title>
    <desc>Created with Sketch.</desc>
    <g id="Page-1" stroke="none" stroke-width="1" fill="none" fill-rule="evenodd">
        <g id="Globant" fill="#B8BCCC">
            <path d="M6.54908486,15.2603993 C2.53777038,15.2603993 0.0409317804,11.7104825 0.0409317804,7.90599002 C0.0409317804,3.88935108 2.27853577,0.622296173 6.54908486,0.622296173 C9.70083195,0.622296173 12.1294509,2.53161398 12.3341098,5.31780366 L9.56439268,5.31780366 C9.42795341,4.01663894 8.11813644,2.99833611 6.60366057,2.99833611 C4.36605657,2.99833611 2.91980033,4.76622296 2.91980033,8.03327787 C2.91980033,10.28203 4.03860233,12.7995008 6.60366057,12.7995008 C8.9640599,12.7995008 9.82362729,11.5690516 9.82362729,9.65973378 L6.8765391,9.65973378 L6.8765391,7.4109817 L12.4023295,7.4109817 L12.4023295,9.73044925 C12.3341098,12.9409318 10.9424293,15.2603993 6.54908486,15.2603993 Z" id="Path"></path>
            <polygon id="Path" points="13.9031614 14.7795341 13.9031614 0.947587354 16.4682196 0.947587354 16.4682196 14.7795341"></polygon>
            <path d="M17.7234609,8.92429285 C17.9144759,6.67554077 19.8928453,4.62479201 22.0622296,4.42678869 C25.4868552,4.08735441 27.7108153,6.26539101 27.7108153,9.74459235 C27.7108153,12.9409318 25.8006656,15.062396 22.7171381,15.062396 C19.2925125,15.0482529 17.3960067,12.4600666 17.7234609,8.92429285 Z M25.0775374,9.73044925 C25.0775374,7.6797005 24.2861897,6.66139767 22.7171381,6.66139767 C21.1344426,6.66139767 20.3567388,7.6797005 20.3567388,9.73044925 C20.3567388,11.781198 21.1480865,12.7995008 22.7171381,12.7995008 C24.2861897,12.7995008 25.0775374,11.781198 25.0775374,9.73044925 Z" id="Shape" fill-rule="nonzero"></path>
            <path d="M28.8978369,14.7795341 L28.8978369,0.947587354 L31.4628952,0.947587354 L31.4628952,5.98252912 C32.1860233,4.89351082 33.168386,4.41264559 34.3554077,4.41264559 C36.8522463,4.41264559 38.3667221,6.5906822 38.3667221,9.65973378 C38.3667221,13.0682196 36.5930116,15.1048253 34.1643927,15.1048253 C32.977371,15.1048253 32.063228,14.6239601 31.4628952,13.6056572 L31.4628952,14.8361065 L28.8978369,14.8361065 L28.8978369,14.7795341 Z M35.7334443,9.80116473 C35.7334443,7.75041597 35.0103161,6.66139767 33.4958403,6.66139767 C32.049584,6.66139767 31.3264559,7.75041597 31.3264559,9.92845258 C31.3264559,11.625624 32.3088186,12.8560732 33.4958403,12.8560732 C34.8056572,12.8702163 35.7334443,11.5831947 35.7334443,9.80116473 Z" id="Shape" fill-rule="nonzero"></path>
            <path d="M45.9800333,14.7795341 C45.9118136,14.5108153 45.843594,14.171381 45.843594,13.8885191 C45.2569052,14.5673877 44.2063228,15.0482529 42.8828619,15.0482529 C40.6452579,15.0482529 39.5946755,13.8885191 39.5946755,12.2479201 C39.5946755,9.3202995 41.5048253,8.98086522 44.0698835,8.64143095 C45.3797005,8.44342762 45.7071547,8.16056572 45.7071547,7.48169717 C45.7071547,6.80282862 45.0522463,6.46339434 44.0698835,6.46339434 C42.8828619,6.46339434 42.4326123,7.07154742 42.296173,7.9625624 L39.8675541,7.9625624 C39.9357737,5.85524126 41.0545757,4.41264559 44.1381032,4.41264559 C47.2216306,4.41264559 48.2858569,5.84109817 48.2858569,8.42928453 L48.2858569,14.8502496 L45.9800333,14.8502496 L45.9800333,14.7795341 Z M45.8572379,9.80116473 C45.5980033,10.0698835 45.1341098,10.2113145 44.2199667,10.4093178 C42.7737105,10.6780366 42.2415973,11.1589018 42.2415973,11.9792013 C42.2415973,12.7287854 42.7054908,13.1389351 43.4968386,13.1389351 C44.8066556,13.1389351 45.8026622,12.1206323 45.8572379,10.9608985 L45.8572379,9.80116473 Z" id="Shape" fill-rule="nonzero"></path>
            <path d="M56.4312812,14.7795341 L56.4312812,8.64143095 C56.4312812,7.07154742 55.9673877,6.66139767 54.79401,6.66139767 C53.4159734,6.66139767 52.8156406,7.4109817 52.8156406,8.98086522 L52.8156406,14.765391 L50.2505824,14.765391 L50.2505824,4.61064892 L52.6109817,4.61064892 L52.6109817,6.10981697 C53.1976705,4.95008319 54.1936772,4.34193012 55.7627288,4.34193012 C57.6046589,4.34193012 58.9826955,5.50166389 58.9826955,7.75041597 L58.9826955,14.765391 L56.4312812,14.765391 L56.4312812,14.7795341 Z" id="Path"></path>
            <path d="M66.4868552,10.9608985 C66.4186356,12.0499168 65.9547421,12.7287854 64.9723794,12.7287854 C63.921797,12.7287854 63.4579035,11.9792013 63.4579035,10.6780366 L63.4579035,6.51996672 L67.469218,6.51996672 L67.469218,4.41264559 L63.4579035,4.41264559 L63.4579035,1.89517471 L60.8928453,1.89517471 L60.8928453,10.9608985 C60.8928453,13.1389351 62.0116473,15.0482529 64.9041597,15.0482529 C67.6602329,15.0482529 68.8472546,13.1389351 68.8472546,10.9608985 L66.4868552,10.9608985 Z" id="Path"></path>
            <path d="M72.0126456,0.198003328 C71.753411,-4.16333634e-17 71.3577371,0.127287854 71.1530782,0.396006656 C71.0848586,0.537437604 71.0166389,0.735440932 71.0848586,0.87687188 L72.2718802,2.64475874 C74.5094842,6.12396007 74.5094842,10.6780366 72.2718802,14.1572379 L71.0848586,15.9251248 C71.0166389,16.2645591 71.1530782,16.6039933 71.4805324,16.6747088 C71.6169717,16.7454243 71.8079867,16.6747088 71.944426,16.6039933 L81.6043261,8.96672213 C81.9317804,8.69800333 82,8.2171381 81.7407654,7.87770383 C81.6725458,7.80698835 81.6725458,7.73627288 81.6043261,7.73627288 L72.0126456,0.198003328 Z" id="Path"></path>
        </g>
    </g>
</svg>