<?xml version="1.0" encoding="UTF-8"?>
<svg width="90px" height="19px" viewBox="0 0 90 19" version="1.1" xmlns="http://www.w3.org/2000/svg" xmlns:xlink="http://www.w3.org/1999/xlink">
    <!-- Generator: Sketch 52.4 (67378) - http://www.bohemiancoding.com/sketch -->
    <title>Globant</title>
    <desc>Created with Sketch.</desc>
    <g id="Page-1" stroke="none" stroke-width="1" fill="none" fill-rule="evenodd">
        <g id="Globant" fill="#B8BCCC">
            <path d="M7.2,17.1 C2.8,17.1 0.1,13.1 0.1,8.9 C0.1,4.4 2.6,0.8 7.2,0.8 C10.7,0.8 13.3,2.9 13.5,6 L10.5,6 C10.4,4.5 8.9,3.4 7.3,3.4 C4.8,3.4 3.3,5.4 3.3,9 C3.3,11.5 4.5,14.3 7.3,14.3 C9.9,14.3 10.8,12.9 10.8,10.8 L7.5,10.8 L7.5,8.3 L13.6,8.3 L13.6,10.9 C13.5,14.5 12,17.1 7.2,17.1 Z" id="Path"></path>
            <polygon id="Path_1_" points="15.3 16.5 15.3 1.1 18.1 1.1 18.1 16.5"></polygon>
            <path d="M19.5,10 C19.7,7.5 21.9,5.2 24.3,5 C28.1,4.6 30.5,7.1 30.5,10.9 C30.5,14.5 28.4,16.8 25,16.8 C21.2,16.8 19.1,13.9 19.5,10 Z M27.5,10.9 C27.5,8.6 26.6,7.5 24.9,7.5 C23.2,7.5 22.3,8.6 22.3,10.9 C22.3,13.2 23.2,14.3 24.9,14.3 C26.6,14.3 27.5,13.2 27.5,10.9 Z" id="Shape" fill-rule="nonzero"></path>
            <path d="M31.7,16.5 L31.7,1.1 L34.5,1.1 L34.5,6.7 C35.3,5.5 36.4,4.9 37.7,4.9 C40.4,4.9 42.1,7.3 42.1,10.8 C42.1,14.6 40.2,16.9 37.5,16.9 C36.2,16.9 35.2,16.4 34.5,15.2 L34.5,16.6 L31.7,16.5 Z M39.2,11 C39.2,8.7 38.4,7.5 36.7,7.5 C35.1,7.5 34.3,8.7 34.3,11.2 C34.3,13.1 35.4,14.5 36.7,14.5 C38.2,14.4 39.2,12.9 39.2,11 Z" id="Shape_1_" fill-rule="nonzero"></path>
            <path d="M50.5,16.5 C50.4,16.2 50.4,15.8 50.4,15.5 C49.8,16.3 48.6,16.8 47.2,16.8 C44.7,16.8 43.6,15.5 43.6,13.7 C43.6,10.4 45.7,10 48.5,9.7 C49.9,9.5 50.3,9.2 50.3,8.4 C50.3,7.6 49.6,7.3 48.5,7.3 C47.2,7.3 46.7,8 46.6,9 L43.9,9 C44,6.6 45.2,5 48.6,5 C52,5 53.2,6.6 53.2,9.5 L53.2,16.7 L50.5,16.5 Z M50.3,11 C50,11.3 49.5,11.5 48.5,11.7 C46.9,12 46.3,12.5 46.3,13.5 C46.3,14.3 46.8,14.8 47.7,14.8 C49.1,14.8 50.2,13.7 50.3,12.4 L50.3,11 Z" id="Shape_2_" fill-rule="nonzero"></path>
            <path d="M61.9,16.5 L61.9,9.7 C61.9,7.9 61.4,7.5 60.1,7.5 C58.6,7.4 58,8.3 58,10 L58,16.5 L55.2,16.5 L55.2,5.2 L57.8,5.2 L57.8,6.9 C58.4,5.6 59.5,4.9 61.3,4.9 C63.3,4.9 64.8,6.2 64.8,8.7 L64.8,16.5 L61.9,16.5 Z" id="Path_2_"></path>
            <path d="M73,12.3 C72.9,13.5 72.4,14.3 71.3,14.3 C70.1,14.3 69.6,13.5 69.6,12 L69.6,7.3 L74,7.3 L74,4.9 L69.6,4.9 L69.6,2.1 L66.8,2.1 L66.8,12.2 C66.8,14.6 68,16.8 71.2,16.8 C74.2,16.8 75.5,14.7 75.5,12.2 L73,12.2 L73,12.3 Z" id="Path_3_"></path>
            <path d="M79,0.2 C78.7,7.07767178e-16 78.3,0.1 78.1,0.4 C78,0.6 77.9,0.8 78,1 L79.3,3 C81.8,6.9 81.8,12 79.3,15.9 L78,17.9 C77.9,18.3 78.1,18.7 78.4,18.7 C78.5,18.8 78.8,18.7 78.9,18.6 L89.6,10 C90,9.7 90,9.2 89.7,8.8 C89.6,8.7 89.6,8.6 89.6,8.6 L79,0.2 Z" id="Path_4_"></path>
        </g>
    </g>
</svg>