<?xml version="1.0" encoding="utf-8"?>
<!-- Generator: Adobe Illustrator 22.0.0, SVG Export Plug-In . SVG Version: 6.00 Build 0)  -->
<svg version="1.1" id="Globant" xmlns="http://www.w3.org/2000/svg" xmlns:xlink="http://www.w3.org/1999/xlink" x="0px" y="0px"
	 viewBox="0 0 90 19" style="enable-background:new 0 0 90 19;" xml:space="preserve">
<style type="text/css">
	.st0{fill:#B8BCCC;}
</style>
<path id="Path" class="st0" d="M7.2,17.1c-4.4,0-7.1-4-7.1-8.2c0-4.5,2.5-8.1,7.1-8.1c3.5,0,6.1,2.1,6.3,5.2h-3
	c-0.1-1.5-1.6-2.6-3.2-2.6c-2.5,0-4,2-4,5.6c0,2.5,1.2,5.3,4,5.3c2.6,0,3.5-1.4,3.5-3.5H7.5V8.3h6.1v2.6C13.5,14.5,12,17.1,7.2,17.1
	z"/>
<polygon id="Path_1_" class="st0" points="15.3,16.5 15.3,1.1 18.1,1.1 18.1,16.5 "/>
<path id="Shape" class="st0" d="M19.5,10c0.2-2.5,2.4-4.8,4.8-5c3.8-0.4,6.2,2.1,6.2,5.9c0,3.6-2.1,5.9-5.5,5.9
	C21.2,16.8,19.1,13.9,19.5,10z M27.5,10.9c0-2.3-0.9-3.4-2.6-3.4c-1.7,0-2.6,1.1-2.6,3.4s0.9,3.4,2.6,3.4S27.5,13.2,27.5,10.9z"/>
<path id="Shape_1_" class="st0" d="M31.7,16.5V1.1h2.8v5.6c0.8-1.2,1.9-1.8,3.2-1.8c2.7,0,4.4,2.4,4.4,5.9c0,3.8-1.9,6.1-4.6,6.1
	c-1.3,0-2.3-0.5-3-1.7v1.4L31.7,16.5L31.7,16.5z M39.2,11c0-2.3-0.8-3.5-2.5-3.5c-1.6,0-2.4,1.2-2.4,3.7c0,1.9,1.1,3.3,2.4,3.3
	C38.2,14.4,39.2,12.9,39.2,11z"/>
<path id="Shape_2_" class="st0" d="M50.5,16.5c-0.1-0.3-0.1-0.7-0.1-1c-0.6,0.8-1.8,1.3-3.2,1.3c-2.5,0-3.6-1.3-3.6-3.1
	c0-3.3,2.1-3.7,4.9-4c1.4-0.2,1.8-0.5,1.8-1.3s-0.7-1.1-1.8-1.1c-1.3,0-1.8,0.7-1.9,1.7h-2.7c0.1-2.4,1.3-4,4.7-4
	c3.4,0,4.6,1.6,4.6,4.5v7.2L50.5,16.5L50.5,16.5z M50.3,11c-0.3,0.3-0.8,0.5-1.8,0.7c-1.6,0.3-2.2,0.8-2.2,1.8
	c0,0.8,0.5,1.3,1.4,1.3c1.4,0,2.5-1.1,2.6-2.4V11z"/>
<path id="Path_2_" class="st0" d="M61.9,16.5V9.7c0-1.8-0.5-2.2-1.8-2.2C58.6,7.4,58,8.3,58,10v6.5h-2.8V5.2h2.6v1.7
	c0.6-1.3,1.7-2,3.5-2c2,0,3.5,1.3,3.5,3.8v7.8L61.9,16.5L61.9,16.5z"/>
<path id="Path_3_" class="st0" d="M73,12.3c-0.1,1.2-0.6,2-1.7,2c-1.2,0-1.7-0.8-1.7-2.3V7.3h4.4V4.9h-4.4V2.1h-2.8v10.1
	c0,2.4,1.2,4.6,4.4,4.6c3,0,4.3-2.1,4.3-4.6H73z"/>
<path id="Path_4_" class="st0" d="M79,0.2c-0.3-0.2-0.7-0.1-0.9,0.2C78,0.6,77.9,0.8,78,1l1.3,2c2.5,3.9,2.5,9,0,12.9l-1.3,2
	c-0.1,0.4,0.1,0.8,0.4,0.8c0.1,0.1,0.4,0,0.5-0.1L89.6,10c0.4-0.3,0.4-0.8,0.1-1.2c-0.1-0.1-0.1-0.2-0.1-0.2L79,0.2z"/>
</svg>
