<?xml version="1.0" encoding="UTF-8"?>
<svg width="49px" height="15px" viewBox="0 0 49 15" version="1.1" xmlns="http://www.w3.org/2000/svg" xmlns:xlink="http://www.w3.org/1999/xlink">
    <!-- Generator: Sketch 52.4 (67378) - http://www.bohemiancoding.com/sketch -->
    <title>Malt</title>
    <desc>Created with Sketch.</desc>
    <g id="Page-1" stroke="none" stroke-width="1" fill="none" fill-rule="evenodd">
        <g id="Malt" fill="#B8BCCC">
            <path d="M5.55242295,12.9467213 C5.55242295,14.232623 6.37240984,14.9601639 7.39193115,14.9640984 C7.39450164,14.9640984 7.38936066,14.9640984 7.39193115,14.9640984 C8.40791803,14.9644262 9.24589836,13.9844262 9.25007541,12.9467213 L7.3906459,11.0257377 L5.55242295,12.9467213 Z" id="Path"></path>
            <path d="M4.89903607,2.09065574 C4.56071233,1.72814948 4.09432267,1.5188256 3.60382951,1.50934426 C3.10676066,1.49983607 2.64150164,1.68442623 2.2848459,2.03262295 C1.5484,2.75229508 1.52301639,3.94868852 2.22797377,4.70016393 L2.50398033,4.9942623 L6.41305574,5.01131148 L7.04218361,4.37491803 L4.89903607,2.09065574 Z M12.587859,10.285082 L12.3118525,9.99098361 L8.40277705,9.97393443 L7.77364918,10.6103279 L9.91679672,12.8945902 C10.6217541,13.6454098 11.7948623,13.6716393 12.5309869,12.952623 C13.2671115,12.2329508 13.2928164,11.0365574 12.587859,10.285082 Z" id="Shape" fill-rule="nonzero"></path>
            <path d="M12.7313246,5.62868852 L8.98386885,9.38606557 L12.9588131,9.40344262 L12.9668459,9.40344262 C13.4578098,9.40344262 13.9198557,9.20967213 14.2688,8.85688525 C14.6179825,8.50502199 14.8148742,8.02535257 14.8156721,7.52459016 C14.8198492,6.48459016 14.0165705,5.60196721 12.7313246,5.62852459 L12.7313246,5.62868852 Z M1.85685902,5.58196721 L1.84818361,5.58196721 C1.36059044,5.58059172 0.892498485,5.77724126 0.547193443,6.12852459 C0.197875544,6.48011992 0.000850424319,6.95965545 -1.01901452e-16,7.46032787 C-0.00224918033,7.9642623 0.0928590164,9.3547541 2.11422951,9.3547541 L5.83180328,5.59934426 L1.85685902,5.58196721 Z" id="Shape" fill-rule="nonzero"></path>
            <path d="M12.6683475,2.17032787 C11.9505377,1.43163934 10.7777508,1.42606557 10.0538361,2.15918033 L2.15857049,10.1463934 C1.43465574,10.8791803 1.42951475,12.0759016 2.14732459,12.8145902 C2.86513443,13.5536066 4.03824262,13.5591803 4.76215738,12.8260656 L12.6571016,4.83885246 C13.3813377,4.10606557 13.3861574,2.90901639 12.6683475,2.17032787" id="Path"></path>
            <path d="M48.9333279,4.26459016 C48.9330066,3.53836066 48.3523967,2.9495082 47.6368361,2.9495082 L46.6600492,2.9495082 L46.6600492,0.53442623 L44.2887705,0.53442623 L44.2640295,1.88786885 C44.2514984,2.57770492 43.6969148,3.1304918 43.016377,3.1304918 L42.287,3.1304918 L42.287,5.48819672 L43.0183049,5.48819672 C44.0207967,5.48819672 44.006659,6.77639344 44.006659,6.77639344 L44.006659,8.96 C44.006659,11.2439344 45.2636295,12.0645902 46.8097803,12.0645902 C48.0179115,12.0645902 48.3270131,11.8 48.3270131,11.8 L48.3270131,9.63245902 C48.3270131,9.63245902 47.9530066,9.6957377 47.4977082,9.71311475 C46.864082,9.73737705 46.6600492,9.24852459 46.6600492,8.73967213 L46.6600492,5.58032787 L47.6368361,5.57934426 C48.3523967,5.57934426 48.9330066,4.9904918 48.9333279,4.26459016 Z M41.5532852,8.71262295 L41.5532852,5.58704918 L41.5401115,3.54377049 C41.547823,3.48737705 41.5532852,3.43032787 41.5532852,3.37163934 L41.5532852,1.43131148 C41.5532852,0.73295082 40.9807082,0.16704918 40.2744656,0.16704918 C39.5884656,0.16704918 39.0303475,0.700819672 38.9985377,1.37098361 L38.9953246,1.37098361 L38.9953246,8.9247541 C38.9953246,11.1204918 40.2069902,11.9096721 41.6975541,11.9096721 C41.9616721,11.9096721 42.1814492,11.8965574 42.3633115,11.8762295 L42.360741,9.64868852 C41.7499279,9.67229508 41.5532852,9.20213115 41.5532852,8.71262295 Z M38.2232131,11.8690164 L35.9375639,11.8690164 L35.9375639,10.9536066 C34.9106525,12.3247541 32.7247705,11.7811475 32.3542984,11.6483607 C30.9710525,11.1522951 30.6715902,10.087377 30.6314262,9.96737705 C30.4900492,9.54409836 30.5077213,9.17459016 30.5421016,8.84180328 C30.6021869,8.25590164 30.9649475,7.39196721 32.1223115,6.97327869 C32.7842131,6.7342623 34.2889148,6.56967213 35.0803049,6.40737705 C35.6808361,6.28442623 35.6602721,5.91262295 35.6602721,5.91262295 C35.6602721,5.91262295 35.7524885,5.31360656 35.0677738,5.05163934 C34.1244033,4.74409836 33.1530787,5.4057377 33.1434393,5.41262295 C32.9592782,5.54111097 32.7412601,5.60958886 32.5181672,5.60901639 C32.1801475,5.60901639 31.8475902,5.4542623 31.6368098,5.16311475 C31.2907574,4.68508197 31.4045016,4.02180328 31.8906459,3.68147541 C31.9481607,3.64147541 32.9577213,2.98770492 34.3493213,2.88967213 C34.4004098,2.88442623 34.4534262,2.88081967 34.5096557,2.8795082 C34.5231508,2.87918033 34.5353607,2.87983607 34.5485344,2.8795082 C34.9315461,2.86756841 35.3145845,2.90235026 35.6895115,2.98311475 L35.7062197,2.98672131 C35.7698393,3.00081967 35.8318525,3.01590164 35.892259,3.03229508 L35.8993279,3.03393443 L35.9028623,3.0352459 C37.8262328,3.55885246 38.2230525,5.26147541 38.2230525,5.93 L38.2230525,11.8690164 L38.2232131,11.8690164 Z M34.8868754,9.81983607 C35.9366,9.38967213 35.6262131,7.90836066 35.6262131,7.90836066 C35.6262131,7.90836066 35.0761279,8.15 34.1353279,8.18245902 C33.1945279,8.21459016 33.0078459,8.90704918 33.0920295,9.34967213 C33.1765344,9.79295082 33.8368295,10.2503279 34.8868754,9.81983607 Z M29.7550492,5.99196721 C29.7550492,3.89295082 27.8840525,2.86639344 26.3709967,2.86213115 C24.9867869,2.86213115 24.1700131,3.33360656 23.6032197,3.93590164 C22.9879082,3.2195082 21.9172984,2.86442623 21.0298361,2.86213115 C20.0000328,2.86213115 19.1957902,3.12278689 18.6209639,3.50442623 C18.5587504,3.54577531 18.4766353,3.53687594 18.4243213,3.48311475 L18.3629508,3.4204918 C17.9339056,2.9831627 17.2387764,2.9831627 16.8097311,3.4204918 C16.6033741,3.63038842 16.4873884,3.91547283 16.4873884,4.21278689 C16.4873884,4.51010094 16.6033741,4.79518535 16.8097311,5.00508197 C16.9013049,5.09819672 16.9883803,5.15163934 17.0503934,5.18114754 C17.1060753,5.20765346 17.1416621,5.26468035 17.1416459,5.32737705 L17.1416459,6.34344262 L17.1419672,10.5991803 C17.1419672,11.2991803 17.6978361,11.8663934 18.3835148,11.8663934 L18.3864066,11.8663934 C19.0722718,11.8663934 19.6282754,11.2990428 19.6282754,10.5991803 L19.6282754,6.32295082 C19.6282754,5.58459016 20.054977,4.85147541 20.9331213,4.85147541 C21.810623,4.85147541 22.2141902,5.5895082 22.2141902,6.49147541 L22.2141902,11.7445902 L24.6979279,11.7445902 L24.6979279,6.49131148 C24.6979279,5.58934426 25.1654361,4.85131148 26.0429377,4.85131148 C26.9204393,4.85131148 27.2716328,5.58934426 27.2716328,6.49131148 L27.2716328,11.7444262 L29.7550492,11.7444262 L29.7550492,5.99196721 Z" id="Shape" fill-rule="nonzero"></path>
            <path d="M9.4108918,2.01721311 C9.4108918,0.731311475 8.59090492,0.00409836066 7.57138361,0.000163934426 C7.56881311,0.000163934426 7.5739541,0.000163934426 7.57138361,0.000163934426 C6.55539672,-2.71050543e-20 5.71741639,0.979508197 5.71323934,2.01721311 L7.57266885,3.93819672 L9.4108918,2.01721311 Z" id="Path"></path>
        </g>
    </g>
</svg>