<?xml version="1.0" encoding="utf-8"?>
<!-- Generator: Adobe Illustrator 22.0.0, SVG Export Plug-In . SVG Version: 6.00 Build 0)  -->
<svg version="1.1" id="Malt" xmlns="http://www.w3.org/2000/svg" xmlns:xlink="http://www.w3.org/1999/xlink" x="0px" y="0px"
	 viewBox="0 0 70 22" style="enable-background:new 0 0 70 22;" xml:space="preserve">
<style type="text/css">
	.st0{fill:#B8BCCC;}
</style>
<path id="Path" class="st0" d="M7.9,19c0,1.9,1.2,3,2.6,3c0,0,0,0,0,0c1.5,0,2.6-1.4,2.7-3l-2.7-2.8L7.9,19z"/>
<path id="Shape" class="st0" d="M7,3.1C6.5,2.5,5.8,2.2,5.1,2.2C4.4,2.2,3.8,2.5,3.3,3C2.2,4,2.2,5.8,3.2,6.9l0.4,0.4l5.6,0l0.9-0.9
	L7,3.1z M18,15.1l-0.4-0.4l-5.6,0l-0.9,0.9l3.1,3.4c1,1.1,2.7,1.1,3.7,0.1C19,17.9,19,16.2,18,15.1z"/>
<path id="Shape_1_" class="st0" d="M18.2,8.3l-5.4,5.5l5.7,0h0c0.7,0,1.4-0.3,1.9-0.8c0.5-0.5,0.8-1.2,0.8-2
	C21.2,9.5,20,8.2,18.2,8.3L18.2,8.3z M2.7,8.2L2.7,8.2C1.9,8.2,1.3,8.5,0.8,9C0.3,9.5,0,10.2,0,10.9c0,0.7,0.1,2.8,3,2.8l5.3-5.5
	L2.7,8.2z"/>
<path id="Path_1_" class="st0" d="M18.1,3.2c-1-1.1-2.7-1.1-3.7,0L3.1,14.9c-1,1.1-1,2.8,0,3.9c1,1.1,2.7,1.1,3.7,0L18.1,7.1
	C19.1,6,19.1,4.3,18.1,3.2"/>
<path id="Shape_2_" class="st0" d="M69.9,6.3c0-1.1-0.8-1.9-1.9-1.9h-1.4V0.8h-3.4l0,2c0,1-0.8,1.8-1.8,1.8h-1V8h1
	c1.4,0,1.4,1.9,1.4,1.9v3.2c0,3.3,1.8,4.6,4,4.6c1.7,0,2.2-0.4,2.2-0.4v-3.2c0,0-0.5,0.1-1.2,0.1c-0.9,0-1.2-0.7-1.2-1.4V8.2l1.4,0
	C69.1,8.2,69.9,7.3,69.9,6.3z M59.4,12.8V8.2l0-3c0-0.1,0-0.2,0-0.3V2.1c0-1-0.8-1.9-1.8-1.9c-1,0-1.8,0.8-1.8,1.8h0v11.1
	c0,3.2,1.7,4.4,3.9,4.4c0.4,0,0.7,0,1,0l0-3.3C59.6,14.2,59.4,13.5,59.4,12.8z M54.6,17.4h-3.3v-1.3c-1.5,2-4.6,1.2-5.1,1
	c-2-0.7-2.4-2.3-2.5-2.5c-0.2-0.6-0.2-1.2-0.1-1.7c0.1-0.9,0.6-2.1,2.3-2.7c0.9-0.4,3.1-0.6,4.2-0.8c0.9-0.2,0.8-0.7,0.8-0.7
	s0.1-0.9-0.8-1.3c-1.3-0.5-2.7,0.5-2.7,0.5c-0.3,0.2-0.6,0.3-0.9,0.3c-0.5,0-1-0.2-1.3-0.7c-0.5-0.7-0.3-1.7,0.4-2.2
	c0.1-0.1,1.5-1,3.5-1.2c0.1,0,0.1,0,0.2,0c0,0,0,0,0.1,0c0.5,0,1.1,0,1.6,0.2l0,0c0.1,0,0.2,0,0.3,0.1l0,0l0,0
	c2.7,0.8,3.3,3.3,3.3,4.2L54.6,17.4L54.6,17.4z M49.8,14.4c1.5-0.6,1.1-2.8,1.1-2.8S50.1,12,48.8,12c-1.3,0-1.6,1.1-1.5,1.7
	C47.4,14.4,48.3,15,49.8,14.4z M42.5,8.8c0-3.1-2.7-4.6-4.8-4.6c-2,0-3.1,0.7-4,1.6c-0.9-1.1-2.4-1.6-3.7-1.6
	c-1.5,0-2.6,0.4-3.4,0.9c-0.1,0.1-0.2,0-0.3,0L26.2,5c-0.6-0.6-1.6-0.6-2.2,0c-0.3,0.3-0.5,0.7-0.5,1.2c0,0.4,0.2,0.9,0.5,1.2
	c0.1,0.1,0.3,0.2,0.3,0.3c0.1,0,0.1,0.1,0.1,0.2v1.5l0,6.2c0,1,0.8,1.9,1.8,1.9h0c1,0,1.8-0.8,1.8-1.9V9.3c0-1.1,0.6-2.2,1.9-2.2
	c1.3,0,1.8,1.1,1.8,2.4v7.7h3.5V9.5c0-1.3,0.7-2.4,1.9-2.4S39,8.2,39,9.5v7.7h3.5V8.8z"/>
<path id="Path_2_" class="st0" d="M13.4,3c0-1.9-1.2-3-2.6-3c0,0,0,0,0,0C9.4,0,8.2,1.4,8.2,3l2.7,2.8L13.4,3z"/>
</svg>
