<?xml version="1.0" encoding="UTF-8"?>
<svg width="64px" height="20px" viewBox="0 0 64 20" version="1.1" xmlns="http://www.w3.org/2000/svg" xmlns:xlink="http://www.w3.org/1999/xlink">
    <!-- Generator: Sketch 52.4 (67378) - http://www.bohemiancoding.com/sketch -->
    <title>Malt</title>
    <desc>Created with Sketch.</desc>
    <g id="Page-1" stroke="none" stroke-width="1" fill="none" fill-rule="evenodd">
        <g id="Malt" fill="#B8BCCC">
            <path d="M7.25214426,17.2622951 C7.25214426,18.9768306 8.32314754,19.9468852 9.65476721,19.9521311 C9.65812459,19.9521311 9.65140984,19.9521311 9.65476721,19.9521311 C10.9817705,19.9525683 12.0762754,18.6459016 12.0817311,17.2622951 L9.65308852,14.7009836 L7.25214426,17.2622951 Z" id="Path"></path>
            <path d="M6.39874098,2.78754098 C5.95684875,2.3041993 5.34768675,2.0251008 4.70704262,2.01245902 C4.05780984,1.99978142 3.45012459,2.24590164 2.98428852,2.71016393 C2.0224,3.66972678 1.9892459,5.26491803 2.91000656,6.26688525 L3.27050492,6.65901639 L8.37623607,6.68174863 L9.1979541,5.83322404 L6.39874098,2.78754098 Z M16.4412852,13.7134426 L16.0807869,13.3213115 L10.9750557,13.2985792 L10.1533377,14.1471038 L12.9525508,17.1927869 C13.8733115,18.1938798 15.4055344,18.2288525 16.3670033,17.2701639 C17.3284721,16.3106011 17.3620459,14.7154098 16.4412852,13.7134426 Z" id="Shape" fill-rule="nonzero"></path>
            <path d="M16.6286689,7.50491803 L11.7340328,12.5147541 L16.9257967,12.5379235 L16.9362885,12.5379235 C17.5775475,12.5379235 18.1810361,12.2795628 18.6368,11.8091803 C19.0928752,11.3400293 19.3500398,10.7004701 19.351082,10.0327869 C19.3565377,8.64612022 18.3073574,7.46928962 16.6286689,7.50469945 L16.6286689,7.50491803 Z M2.42528525,7.44262295 L2.4139541,7.44262295 C1.77709772,7.44078896 1.16571231,7.70298834 0.714701639,8.17136612 C0.25844969,8.64015989 0.00111075829,9.2795406 -1.33099369e-16,9.94710383 C-0.00293770492,10.6190164 0.121285246,12.4730055 2.76144262,12.4730055 L7.61704918,7.46579235 L2.42528525,7.44262295 Z" id="Shape" fill-rule="nonzero"></path>
            <path d="M16.5464131,2.89377049 C15.6088656,1.90885246 14.0770623,1.90142077 13.131541,2.8789071 L2.81935738,13.5285246 C1.87383607,14.5055738 1.86712131,16.1012022 2.80466885,17.0861202 C3.74221639,18.0714754 5.27443934,18.0789071 6.21996066,17.1014208 L16.5317246,6.45180328 C17.4776656,5.4747541 17.4839607,3.87868852 16.5464131,2.89377049" id="Path"></path>
            <path d="M63.912918,5.68612022 C63.9124984,4.71781421 63.1541508,3.9326776 62.219541,3.9326776 L60.9437377,3.9326776 L60.9437377,0.712568306 L57.8465574,0.712568306 L57.8142426,2.51715847 C57.7978754,3.43693989 57.0735213,4.17398907 56.1846557,4.17398907 L55.232,4.17398907 L55.232,7.31759563 L56.1871738,7.31759563 C57.4965508,7.31759563 57.4780852,9.03519126 57.4780852,9.03519126 L57.4780852,11.9466667 C57.4780852,14.9919126 59.1198426,16.0861202 61.1393049,16.0861202 C62.7172721,16.0861202 63.1209967,15.7333333 63.1209967,15.7333333 L63.1209967,12.8432787 C63.1209967,12.8432787 62.6324984,12.9276503 62.037823,12.9508197 C61.2102295,12.9831694 60.9437377,12.3313661 60.9437377,11.6528962 L60.9437377,7.44043716 L62.219541,7.43912568 C63.1541508,7.43912568 63.9124984,6.65398907 63.912918,5.68612022 Z M54.2736787,11.6168306 L54.2736787,7.44939891 L54.2564721,4.72502732 C54.2665443,4.64983607 54.2736787,4.57377049 54.2736787,4.49551913 L54.2736787,1.9084153 C54.2736787,0.97726776 53.525823,0.22273224 52.6033836,0.22273224 C51.7073836,0.22273224 50.9784131,0.93442623 50.9368656,1.82797814 L50.9326689,1.82797814 L50.9326689,11.8996721 C50.9326689,14.8273224 52.5152525,15.8795628 54.4621115,15.8795628 C54.807082,15.8795628 55.0941377,15.8620765 55.3316721,15.8349727 L55.3283148,12.864918 C54.530518,12.8963934 54.2736787,12.2695082 54.2736787,11.6168306 Z M49.9241967,15.8253552 L46.938859,15.8253552 L46.938859,14.6048087 C45.5975869,16.4330055 42.7425574,15.7081967 42.2586754,15.5311475 C40.4519869,14.8697268 40.0608525,13.4498361 40.0083934,13.2898361 C39.8237377,12.7254645 39.8468197,12.2327869 39.8917246,11.789071 C39.9702033,11.0078689 40.4440131,9.85595628 41.9556721,9.29770492 C42.8201967,8.97901639 44.7855213,8.75956284 45.8191738,8.5431694 C46.603541,8.37923497 46.576682,7.88349727 46.576682,7.88349727 C46.576682,7.88349727 46.6971279,7.08480874 45.8028066,6.73551913 C44.5706492,6.32546448 43.3019803,7.20765027 43.2893902,7.2168306 C43.0488531,7.38814796 42.7640948,7.47945182 42.4727082,7.47868852 C42.0312131,7.47868852 41.5968525,7.27234973 41.3215475,6.88415301 C40.8695607,6.24677596 41.0181246,5.36240437 41.6530885,4.90863388 C41.7282098,4.85530055 43.0468197,3.98360656 44.8644197,3.85289617 C44.9311475,3.84590164 45.0003934,3.8410929 45.0738361,3.83934426 C45.0914623,3.8389071 45.1074098,3.83978142 45.1246164,3.83934426 C45.6248765,3.82342454 46.1251716,3.86980034 46.6148721,3.97748634 L46.6366951,3.98229508 C46.7197902,4.0010929 46.8007869,4.02120219 46.8796852,4.04306011 L46.888918,4.0452459 L46.8935344,4.04699454 C49.4056918,4.74513661 49.9239869,7.01530055 49.9239869,7.90666667 L49.9239869,15.8253552 L49.9241967,15.8253552 Z M45.5665311,13.0931148 C46.9376,12.5195628 46.5321967,10.5444809 46.5321967,10.5444809 C46.5321967,10.5444809 45.813718,10.8666667 44.584918,10.9099454 C43.356118,10.9527869 43.1122885,11.8760656 43.2222426,12.4662295 C43.3326164,13.0572678 44.1950426,13.6671038 45.5665311,13.0931148 Z M38.8637377,7.98928962 C38.8637377,5.19060109 36.4199869,3.82185792 34.4437508,3.81617486 C32.6358033,3.81617486 31.5689967,4.44480874 30.8286951,5.24786885 C30.025023,4.2926776 28.6266754,3.81923497 27.467541,3.81617486 C26.1224918,3.81617486 25.0720525,4.16371585 24.321259,4.67256831 C24.2400006,4.72770041 24.1327481,4.71583458 24.0644197,4.64415301 L23.9842623,4.56065574 C23.4238766,3.97755027 22.5159529,3.97755027 21.9555672,4.56065574 C21.6860397,4.8405179 21.5345482,5.22063045 21.5345482,5.61704918 C21.5345482,6.01346791 21.6860397,6.39358046 21.9555672,6.67344262 C22.0751738,6.79759563 22.1889049,6.86885246 22.2699016,6.90819672 C22.342629,6.94353795 22.3891097,7.0195738 22.3890885,7.1031694 L22.3890885,8.4579235 L22.3895082,14.1322404 C22.3895082,15.0655738 23.115541,15.8218579 24.0111213,15.8218579 L24.0148984,15.8218579 C24.9107223,15.8218579 25.6369311,15.0653904 25.6369311,14.1322404 L25.6369311,8.43060109 C25.6369311,7.44612022 26.1942557,6.46863388 27.3412197,6.46863388 C28.4873443,6.46863388 29.0144525,7.4526776 29.0144525,8.65530055 L29.0144525,15.6594536 L32.258518,15.6594536 L32.258518,8.65508197 C32.258518,7.45245902 32.869141,6.4684153 34.0152656,6.4684153 C35.1613902,6.4684153 35.6200918,7.45245902 35.6200918,8.65508197 L35.6200918,15.659235 L38.8637377,15.659235 L38.8637377,7.98928962 Z" id="Shape" fill-rule="nonzero"></path>
            <path d="M12.291777,2.68961749 C12.291777,0.975081967 11.2207738,0.00546448087 9.8891541,0.000218579235 C9.88579672,0.000218579235 9.89251148,0.000218579235 9.8891541,0.000218579235 C8.56215082,-2.71050543e-20 7.4676459,1.30601093 7.46219016,2.68961749 L9.89083279,5.25092896 L12.291777,2.68961749 Z" id="Path"></path>
        </g>
    </g>
</svg>