<?xml version="1.0" encoding="UTF-8"?>
<svg width="99px" height="17px" viewBox="0 0 99 17" version="1.1" xmlns="http://www.w3.org/2000/svg" xmlns:xlink="http://www.w3.org/1999/xlink">
    <!-- Generator: Sketch 52.4 (67378) - http://www.bohemiancoding.com/sketch -->
    <title>g7064</title>
    <desc>Created with Sketch.</desc>
    <g id="Page-1" stroke="none" stroke-width="1" fill="none" fill-rule="evenodd">
        <g id="Sciences-Po-Paris" transform="translate(-9.000000, -15.000000)" fill="#B8BCCC">
            <g id="g7062" transform="translate(61.057066, 21.636584) scale(-1, 1) rotate(-180.000000) translate(-61.057066, -21.636584) translate(0.557066, 0.136584)">
                <g id="g7064-Clipped">
                    <g id="g7064" transform="translate(7.176471, 11.354839)">
                        <g id="g7070" transform="translate(0.598862, 0.521321)">
                            <path d="M2.15160116,4.32392718 C2.15160116,4.32392718 3.77032243,2.73992852 5.87171957,2.73992852 C7.00633058,2.73992852 8.03551313,3.33158589 8.03551313,4.55597794 C8.03551313,7.23825409 0.995474137,6.77415258 0.995474137,11.3769731 C0.995474137,13.8689964 3.13918609,15.7275645 5.99722963,15.7275645 C8.93990282,15.7275645 10.4531956,14.1219462 10.4531956,14.1219462 L9.2755526,11.9052128 C9.2755526,11.9052128 7.84688943,13.2146421 5.97571362,13.2146421 C4.71487534,13.2146421 3.72800761,12.4752506 3.72800761,11.4194917 C3.72800761,8.75883515 10.7465306,9.41318947 10.7465306,4.62011619 C10.7465306,2.23330839 8.93990282,0.227006177 5.82940474,0.227006177 C2.50876695,0.227006177 0.679905967,2.27510635 0.679905967,2.27510635 L2.15160116,4.32392718 Z" id="path7072"></path>
                        </g>
                        <g id="g7074" transform="translate(11.882576, 0.128997)">
                            <path d="M5.73760309,10.8098179 C8.25712805,10.8098179 9.4512667,9.36274365 9.4512667,9.36274365 L8.38981013,7.70740019 C8.38981013,7.70740019 7.38572958,8.75379057 5.87028517,8.75379057 C4.08875941,8.75379057 2.93406678,7.40256333 2.93406678,5.74649922 C2.93406678,4.10845147 4.10812382,2.70029252 5.94559121,2.70029252 C7.57507049,2.70029252 8.78785634,3.93765635 8.78785634,3.93765635 L9.71591364,2.22466053 C9.71591364,2.22466053 8.33243409,0.644265149 5.73760309,0.644265149 C2.53602057,0.644265149 0.489847864,2.90928234 0.489847864,5.72704155 C0.489847864,8.48714839 2.53602057,10.8098179 5.73760309,10.8098179" id="path7076"></path>
                        </g>
                        <path d="M23.0214152,10.7103676 L25.4276225,10.7103676 L25.4276225,1.00243045 L23.0214152,1.00243045 L23.0214152,10.7103676 Z M23.0214152,14.5175855 L25.4082581,14.5175855 L25.4082581,12.3664317 L23.0214152,12.3664317 L23.0214152,14.5175855 Z" id="path7078" fill-rule="nonzero"></path>
                        <g id="g7080" transform="translate(26.610788, 0.569461)" fill-rule="nonzero">
                            <path d="M7.17200387,6.48589077 C7.13399225,7.79964397 6.31996981,8.50372345 5.25851324,8.50372345 C4.02779737,8.50372345 3.17504611,7.74199161 2.94769359,6.48589077 L7.17200387,6.48589077 Z M5.31588927,10.369498 C8.10077837,10.369498 9.59685838,8.33220767 9.59685838,5.76235362 C9.59685838,5.47697442 9.54091675,4.829106 9.54091675,4.829106 L2.87095315,4.829106 C3.02299963,3.13556786 4.33045594,2.2599726 5.77059431,2.2599726 C7.32405035,2.2599726 8.55548341,3.32582065 8.55548341,3.32582065 L9.48354072,1.59408782 C9.48354072,1.59408782 8.00539072,0.203945232 5.59990062,0.203945232 C2.39831809,0.203945232 0.408804221,2.52589413 0.408804221,5.28672163 C0.408804221,8.27527596 2.43632971,10.369498 5.31588927,10.369498 Z" id="path7082"></path>
                        </g>
                        <g id="g7084" transform="translate(37.819913, 0.620772)">
                            <path d="M0,10.0891634 L2.31153685,10.0891634 L2.31153685,8.96638366 C2.31153685,8.60389443 2.27352523,8.29977822 2.27352523,8.29977822 L2.31153685,8.29977822 C2.72823027,9.11844176 3.78896964,10.3183316 5.7404719,10.3183316 C7.88131505,10.3183316 9.0933837,9.19483114 9.0933837,6.62497709 L9.0933837,0.381226246 L6.70654082,0.381226246 L6.70654082,6.12988743 C6.70654082,7.30959889 6.40316505,8.10952542 5.17244919,8.10952542 C3.88364009,8.10952542 2.93693558,7.29158253 2.57690099,6.12988743 C2.44421892,5.73064482 2.4062073,5.29176621 2.4062073,4.83559189 L2.4062073,0.381226246 L0,0.381226246 L0,10.0891634 Z" id="path7086"></path>
                        </g>
                        <g id="g7088" transform="translate(47.865595, 0.128997)">
                            <path d="M5.73760309,10.8098179 C8.25712805,10.8098179 9.4512667,9.36274365 9.4512667,9.36274365 L8.39052733,7.70740019 C8.39052733,7.70740019 7.38572958,8.75379057 5.87028517,8.75379057 C4.08947661,8.75379057 2.93406678,7.40256333 2.93406678,5.74649922 C2.93406678,4.10845147 4.10812382,2.70029252 5.94559121,2.70029252 C7.57578769,2.70029252 8.78785634,3.93765635 8.78785634,3.93765635 L9.71663084,2.22466053 C9.71663084,2.22466053 8.33315129,0.644265149 5.73760309,0.644265149 C2.53602057,0.644265149 0.489847864,2.90928234 0.489847864,5.72704155 C0.489847864,8.48714839 2.53602057,10.8098179 5.73760309,10.8098179" id="path7090"></path>
                        </g>
                        <g id="g7092" transform="translate(57.914290, 0.569461)" fill-rule="nonzero">
                            <path d="M7.17200387,6.48589077 C7.13399225,7.79964397 6.31925261,8.50372345 5.25851324,8.50372345 C4.02636297,8.50372345 3.17504611,7.74199161 2.94769359,6.48589077 L7.17200387,6.48589077 Z M5.31517207,10.369498 C8.10006117,10.369498 9.59685838,8.33220767 9.59685838,5.76235362 C9.59685838,5.47697442 9.54019955,4.829106 9.54019955,4.829106 L2.87095315,4.829106 C3.02299963,3.13556786 4.32973874,2.2599726 5.76987711,2.2599726 C7.32333315,2.2599726 8.55548341,3.32582065 8.55548341,3.32582065 L9.48282352,1.59408782 C9.48282352,1.59408782 8.00539072,0.203945232 5.59918342,0.203945232 C2.39831809,0.203945232 0.408804221,2.52589413 0.408804221,5.28672163 C0.408804221,8.27527596 2.43632971,10.369498 5.31517207,10.369498 Z" id="path7094"></path>
                        </g>
                        <g id="g7096" transform="translate(68.351922, 0.292225)">
                            <path d="M1.43440077,3.60327265 C1.43440077,3.60327265 2.49514015,2.53670394 4.06796059,2.53670394 C4.75001816,2.53670394 5.33740528,2.84154081 5.33740528,3.41301985 C5.33740528,4.85937349 0.639025545,4.66984135 0.639025545,7.79099612 C0.639025545,9.59911833 2.24914041,10.64695 4.33332474,10.64695 C6.51217951,10.64695 7.57291888,9.54218663 7.57291888,9.54218663 L6.682156,7.75280143 C6.682156,7.75280143 5.79211032,8.59092265 4.31467753,8.59092265 C3.68856159,8.59092265 3.08252726,8.32428047 3.08252726,7.71532739 C3.08252726,6.34464248 7.7816242,6.51615826 7.7816242,3.39428283 C7.7816242,1.77569276 6.37949744,0.480676571 4.087325,0.480676571 C1.68040051,0.480676571 0.335649781,1.90901385 0.335649781,1.90901385 L1.43440077,3.60327265 Z" id="path7098"></path>
                        </g>
                        <g id="g7100" transform="translate(77.769839, 0.613709)" fill-rule="nonzero">
                            <path d="M5.73760309,7.92719983 C7.31472675,7.92719983 8.23919804,8.94044009 8.23919804,10.5035398 C8.23919804,12.0450198 7.31472675,13.0373611 5.77920072,13.0373611 L3.19512772,13.0373611 L3.19512772,7.92719983 L5.73760309,7.92719983 Z M0.484110261,15.3816503 L6.24179497,15.3816503 C9.03815928,15.3816503 10.9910959,13.4178667 10.9910959,10.5035398 C10.9910959,7.5884922 9.03815928,5.561291 6.24179497,5.561291 L3.19512772,5.561291 L3.19512772,0.388432791 L0.484110261,0.388432791 L0.484110261,15.3816503 Z" id="path7102"></path>
                        </g>
                        <g id="g7104" transform="translate(88.619790, 0.667398)" fill-rule="nonzero">
                            <path d="M5.73760309,2.16196359 C7.29177633,2.16196359 8.59779824,3.37986974 8.59779824,5.18799196 C8.59779824,6.97737716 7.29177633,8.21546164 5.73760309,8.21546164 C4.16478265,8.21546164 2.85804354,6.97737716 2.85804354,5.18799196 C2.85804354,3.37986974 4.16478265,2.16196359 5.73760309,2.16196359 M5.71823868,10.271489 C8.67382148,10.271489 11.0420172,8.15852993 11.0420172,5.18799196 C11.0420172,2.20015828 8.67382148,0.105936216 5.73760309,0.105936216 C2.7827375,0.105936216 0.414541824,2.20015828 0.414541824,5.18799196 C0.414541824,8.15852993 2.7827375,10.271489 5.71823868,10.271489" id="path7106"></path>
                        </g>
                    </g>
                </g>
            </g>
        </g>
    </g>
</svg>