<?xml version="1.0" encoding="UTF-8"?>
<svg width="69px" height="12px" viewBox="0 0 69 12" version="1.1" xmlns="http://www.w3.org/2000/svg" xmlns:xlink="http://www.w3.org/1999/xlink">
    <!-- Generator: Sketch 52.4 (67378) - http://www.bohemiancoding.com/sketch -->
    <title>Sciences Po Paris</title>
    <desc>Created with Sketch.</desc>
    <defs>
        <polygon id="path-1" points="0.168894812 0.111193718 83.7528388 0.111193718 83.7528388 29.8364733 0.168894812 29.8364733"></polygon>
    </defs>
    <g id="Page-1" stroke="none" stroke-width="1" fill="none" fill-rule="evenodd">
        <g id="Sciences-Po-Paris" transform="translate(-6.000000, -10.000000)">
            <g id="g7062" transform="translate(42.388120, 15.391684) scale(-1, 1) rotate(-180.000000) translate(-42.388120, -15.391684) translate(0.388120, 0.391684)">
                <g id="g7064-Clipped">
                    <mask id="mask-2" fill="white">
                        <use xlink:href="#path-1"></use>
                    </mask>
                    <g id="path7068"></g>
                    <g id="g7064" mask="url(#mask-2)">
                        <g transform="translate(5.000000, 8.000000)">
                            <g id="g7070" stroke-width="1" fill="none" fill-rule="evenodd" transform="translate(0.417240, 0.367295)">
                                <path d="M1.49906638,3.04640324 C1.49906638,3.04640324 2.62686399,1.93040419 4.09095216,1.93040419 C4.88145983,1.93040419 5.59851325,2.3472537 5.59851325,3.20989355 C5.59851325,5.09967902 0.693568046,4.77269841 0.693568046,8.01559465 C0.693568046,9.77133839 2.18713785,11.080784 4.1783977,11.080784 C6.22862082,11.080784 7.28296417,9.94955298 7.28296417,9.94955298 L6.46247517,8.38776358 C6.46247517,8.38776358 5.4670951,9.31031603 4.16340703,9.31031603 C3.28495413,9.31031603 2.59738235,8.78938108 2.59738235,8.04555095 C2.59738235,6.17099749 7.48733689,6.63201985 7.48733689,3.25508186 C7.48733689,1.57346727 6.22862082,0.15993617 4.06147052,0.15993617 C1.7479114,0.15993617 0.473704977,1.60291584 0.473704977,1.60291584 L1.49906638,3.04640324 Z" id="path7072" fill="#B8BCCC"></path>
                            </g>
                            <g id="g7074" stroke-width="1" fill="none" fill-rule="evenodd" transform="translate(8.278844, 0.090884)">
                                <path d="M3.99751035,7.6160081 C5.75291709,7.6160081 6.58489893,6.59647848 6.58489893,6.59647848 L5.84535951,5.43021377 C5.84535951,5.43021377 5.1457952,6.16744336 4.08995278,6.16744336 C2.84872582,6.16744336 2.04422686,5.21544234 2.04422686,4.0486699 C2.04422686,2.89459081 2.86221741,1.90247882 4.1424201,1.90247882 C5.27771304,1.90247882 6.12268679,2.77425788 6.12268679,2.77425788 L6.76928409,1.56737447 C6.76928409,1.56737447 5.80538441,0.453914083 3.99751035,0.453914083 C1.76689958,0.453914083 0.341287446,2.04972165 0.341287446,4.03496109 C0.341287446,5.97958182 1.76689958,7.6160081 3.99751035,7.6160081" id="path7076" fill="#B8BCCC"></path>
                            </g>
                            <path d="M16.0395106,7.54594082 L17.7159665,7.54594082 L17.7159665,0.706257817 L16.0395106,0.706257817 L16.0395106,7.54594082 Z M16.0395106,10.2282989 L17.7024749,10.2282989 L17.7024749,8.71271326 L16.0395106,8.71271326 L16.0395106,10.2282989 Z" id="path7078" fill="#B8BCCC" fill-rule="nonzero"></path>
                            <g id="g7080" stroke-width="1" fill="none" fill-rule="evenodd" transform="translate(18.540303, 0.401211)">
                                <path d="M4.99688794,4.56960486 C4.97040444,5.49520371 4.40325765,5.9912597 3.66371824,5.9912597 C2.80625227,5.9912597 2.21212229,5.454585 2.05372094,4.56960486 L4.99688794,4.56960486 Z M3.70369334,7.3057827 C5.64398493,7.3057827 6.68633575,5.87041904 6.68633575,4.05984005 C6.68633575,3.85877744 6.64736003,3.40232468 6.64736003,3.40232468 L2.00025424,3.40232468 C2.10618827,2.20915008 3.01712094,1.59225343 4.02049604,1.59225343 C5.10282197,1.59225343 5.96078763,2.34319182 5.96078763,2.34319182 L6.60738492,1.12310733 C6.60738492,1.12310733 5.57752632,0.143688686 3.9015701,0.143688686 C1.67095933,0.143688686 0.284822613,1.77960723 0.284822613,3.72473569 C0.284822613,5.83030806 1.69744283,7.3057827 3.70369334,7.3057827 Z" id="path7082" fill="#B8BCCC" fill-rule="nonzero"></path>
                            </g>
                            <g id="g7084" stroke-width="1" fill="none" fill-rule="evenodd" transform="translate(26.349939, 0.437362)">
                                <path d="M0,7.10827422 L1.61049698,7.10827422 L1.61049698,6.31722485 C1.61049698,6.06183471 1.58401348,5.84757102 1.58401348,5.84757102 L1.61049698,5.84757102 C1.90081617,6.4243567 2.6398559,7.26973359 3.99950911,7.26973359 C5.49108016,7.26973359 6.33555422,6.47817649 6.33555422,4.6675975 L6.33555422,0.268591219 L4.67258991,0.268591219 L4.67258991,4.31878432 C4.67258991,5.14994467 4.46122155,5.71352927 3.60375558,5.71352927 C2.70581482,5.71352927 2.04622561,5.13725133 1.79538184,4.31878432 C1.70293941,4.03749976 1.6764559,3.72828983 1.6764559,3.40689429 L1.6764559,0.268591219 L0,0.268591219 L0,7.10827422 Z" id="path7086" fill="#B8BCCC"></path>
                            </g>
                            <g id="g7088" stroke-width="1" fill="none" fill-rule="evenodd" transform="translate(33.348980, 0.090884)">
                                <path d="M3.99751035,7.6160081 C5.75291709,7.6160081 6.58489893,6.59647848 6.58489893,6.59647848 L5.8458592,5.43021377 C5.8458592,5.43021377 5.1457952,6.16744336 4.08995278,6.16744336 C2.8492255,6.16744336 2.04422686,5.21544234 2.04422686,4.0486699 C2.04422686,2.89459081 2.86221741,1.90247882 4.1424201,1.90247882 C5.27821273,1.90247882 6.12268679,2.77425788 6.12268679,2.77425788 L6.76978378,1.56737447 C6.76978378,1.56737447 5.8058841,0.453914083 3.99751035,0.453914083 C1.76689958,0.453914083 0.341287446,2.04972165 0.341287446,4.03496109 C0.341287446,5.97958182 1.76689958,7.6160081 3.99751035,7.6160081" id="path7090" fill="#B8BCCC"></path>
                            </g>
                            <g id="g7092" stroke-width="1" fill="none" fill-rule="evenodd" transform="translate(40.350120, 0.401211)">
                                <path d="M4.99688794,4.56960486 C4.97040444,5.49520371 4.40275796,5.9912597 3.66371824,5.9912597 C2.80525289,5.9912597 2.21212229,5.454585 2.05372094,4.56960486 L4.99688794,4.56960486 Z M3.70319365,7.3057827 C5.64348524,7.3057827 6.68633575,5.87041904 6.68633575,4.05984005 C6.68633575,3.85877744 6.64686034,3.40232468 6.64686034,3.40232468 L2.00025424,3.40232468 C2.10618827,2.20915008 3.01662125,1.59225343 4.01999635,1.59225343 C5.10232228,1.59225343 5.96078763,2.34319182 5.96078763,2.34319182 L6.60688524,1.12310733 C6.60688524,1.12310733 5.57752632,0.143688686 3.90107042,0.143688686 C1.67095933,0.143688686 0.284822613,1.77960723 0.284822613,3.72473569 C0.284822613,5.83030806 1.69744283,7.3057827 3.70319365,7.3057827 Z" id="path7094" fill="#B8BCCC" fill-rule="nonzero"></path>
                            </g>
                            <g id="g7096" stroke-width="1" fill="none" fill-rule="evenodd" transform="translate(47.622241, 0.205886)">
                                <path d="M0.999377588,2.53866937 C0.999377588,2.53866937 1.73841731,1.78722323 2.83423484,1.78722323 C3.30943888,1.78722323 3.71868401,2.00199466 3.71868401,2.40462762 C3.71868401,3.42364951 0.445222716,3.2901155 0.445222716,5.4891109 C0.445222716,6.76301519 1.56702406,7.50126024 3.01911969,7.50126024 C4.53717425,7.50126024 5.27621398,6.72290421 5.27621398,6.72290421 L4.65560049,5.46220101 C4.65560049,5.46220101 4.0354867,6.0526955 3.00612779,6.0526955 C2.56989947,6.0526955 2.14766244,5.86483397 2.14766244,5.43579885 C2.14766244,4.47008902 5.42162342,4.59092968 5.42162342,2.39142654 C5.42162342,1.25105626 4.44473182,0.338658493 2.84772644,0.338658493 C1.17077084,0.338658493 0.233854356,1.34498703 0.233854356,1.34498703 L0.999377588,2.53866937 Z" id="path7098" fill="#B8BCCC"></path>
                            </g>
                            <g id="g7100" stroke-width="1" fill="none" fill-rule="evenodd" transform="translate(54.183904, 0.432386)">
                                <path d="M3.99751035,5.5850726 C5.09632601,5.5850726 5.74042487,6.29894643 5.74042487,7.4002212 C5.74042487,8.48626395 5.09632601,9.1854135 4.0264923,9.1854135 L2.22611358,9.1854135 L2.22611358,5.5850726 L3.99751035,5.5850726 Z M0.337289936,10.8370718 L4.34879158,10.8370718 C6.29707818,10.8370718 7.65773077,9.45349698 7.65773077,7.4002212 C7.65773077,5.34643768 6.29707818,3.9181823 4.34879158,3.9181823 L2.22611358,3.9181823 L2.22611358,0.273668558 L0.337289936,0.273668558 L0.337289936,10.8370718 Z" id="path7102" fill="#B8BCCC" fill-rule="nonzero"></path>
                            </g>
                            <g id="g7104" stroke-width="1" fill="none" fill-rule="evenodd" transform="translate(61.743296, 0.470212)">
                                <path d="M3.99751035,1.52320162 C5.08033597,1.52320162 5.99026926,2.38127186 5.99026926,3.65517615 C5.99026926,4.91587936 5.08033597,5.78816615 3.99751035,5.78816615 C2.90169283,5.78816615 1.99125984,4.91587936 1.99125984,3.65517615 C1.99125984,2.38127186 2.90169283,1.52320162 3.99751035,1.52320162 M3.98401876,7.23673089 C6.04323628,7.23673089 7.69320867,5.74805518 7.69320867,3.65517615 C7.69320867,1.55011151 6.04323628,0.0746368793 3.99751035,0.0746368793 C1.93879252,0.0746368793 0.288820123,1.55011151 0.288820123,3.65517615 C0.288820123,5.74805518 1.93879252,7.23673089 3.98401876,7.23673089" id="path7106" fill="#B8BCCC" fill-rule="nonzero"></path>
                            </g>
                        </g>
                    </g>
                </g>
            </g>
        </g>
    </g>
</svg>