<?xml version="1.0" encoding="UTF-8"?>
<svg width="90px" height="15px" viewBox="0 0 90 15" version="1.1" xmlns="http://www.w3.org/2000/svg" xmlns:xlink="http://www.w3.org/1999/xlink">
    <!-- Generator: Sketch 52.4 (67378) - http://www.bohemiancoding.com/sketch -->
    <title>Sciences Po Paris</title>
    <desc>Created with Sketch.</desc>
    <defs>
        <polygon id="path-1" points="0.220556755 0.143475765 109.371354 0.143475765 109.371354 38.4986752 0.220556755 38.4986752"></polygon>
    </defs>
    <g id="Page-1" stroke="none" stroke-width="1" fill="none" fill-rule="evenodd">
        <g id="Sciences-Po-Paris" transform="translate(-8.000000, -14.000000)">
            <g id="g7062" transform="translate(55.353897, 19.860238) scale(-1, 1) rotate(-180.000000) translate(-55.353897, -19.860238) translate(0.506838, 0.505399)">
                <g id="g7064-Clipped">
                    <mask id="mask-2" fill="white">
                        <use xlink:href="#path-1"></use>
                    </mask>
                    <g id="path7068"></g>
                    <g id="g7064" mask="url(#mask-2)">
                        <g transform="translate(6.529412, 10.322581)">
                            <g id="g7070" stroke-width="1" fill="none" fill-rule="evenodd" transform="translate(0.544867, 0.473929)">
                                <path d="M1.95760433,3.93084289 C1.95760433,3.93084289 3.43037533,2.49084411 5.34230223,2.49084411 C6.37461225,2.49084411 7.31099966,3.02871445 7.31099966,4.14179812 C7.31099966,6.580231 0.905718272,6.15832053 0.905718272,10.3427028 C0.905718272,12.6081786 2.85614472,14.2977859 5.45649582,14.2977859 C8.13384601,14.2977859 9.51069439,12.8381329 9.51069439,12.8381329 L8.43923229,10.8229208 C8.43923229,10.8229208 7.13938301,12.013311 5.43691977,12.013311 C4.28976363,12.013311 3.39187578,11.3411369 3.39187578,10.3813561 C3.39187578,7.96257741 9.77758112,8.55744497 9.77758112,4.20010563 C9.77758112,2.03028035 8.13384601,0.206369252 5.30380268,0.206369252 C2.28256665,0.206369252 0.61860297,2.0682785 0.61860297,2.0682785 L1.95760433,3.93084289 Z" id="path7072" fill="#B8BCCC"></path>
                            </g>
                            <g id="g7074" stroke-width="1" fill="none" fill-rule="evenodd" transform="translate(10.811196, 0.117270)">
                                <path d="M5.22027823,9.82710722 C7.5126329,9.82710722 8.59910331,8.51158513 8.59910331,8.51158513 L7.63335184,7.00672745 C7.63335184,7.00672745 6.71980315,7.95799143 5.34099716,7.95799143 C3.72010077,7.95799143 2.66951978,6.72960303 2.66951978,5.2240902 C2.66951978,3.73495588 3.73771921,2.45481138 5.40951331,2.45481138 C6.89207233,2.45481138 7.99550864,3.57968759 7.99550864,3.57968759 L8.83988864,2.02241867 C8.83988864,2.02241867 7.58114905,0.58569559 5.22027823,0.58569559 C2.30736298,0.58569559 0.445681254,2.64480212 0.445681254,5.20640141 C0.445681254,7.71558945 2.30736298,9.82710722 5.22027823,9.82710722" id="path7076" fill="#B8BCCC"></path>
                            </g>
                            <path d="M20.9457138,9.73669783 L23.134968,9.73669783 L23.134968,0.91130041 L20.9457138,0.91130041 L20.9457138,9.73669783 Z M20.9457138,13.197805 L23.1173496,13.197805 L23.1173496,11.2422107 L20.9457138,11.2422107 L20.9457138,13.197805 Z" id="path7078" fill="#B8BCCC" fill-rule="nonzero"></path>
                            <g id="g7080" stroke-width="1" fill="none" fill-rule="evenodd" transform="translate(24.211455, 0.517692)">
                                <path d="M6.52534778,5.89626433 C6.49076344,7.09058543 5.75013647,7.73065768 4.78438499,7.73065768 C3.66463531,7.73065768 2.88877146,7.03817419 2.68191794,5.89626433 L6.52534778,5.89626433 Z M4.83658778,9.42681639 C7.37038032,9.42681639 8.73156787,7.57473425 8.73156787,5.23850329 C8.73156787,4.97906766 8.68067015,4.39009637 8.68067015,4.39009637 L2.61209672,4.39009637 C2.75043409,2.85051623 3.94000499,2.05452055 5.25029483,2.05452055 C6.66368516,2.05452055 7.78408737,3.02347332 7.78408737,3.02347332 L8.62846737,1.44917074 C8.62846737,1.44917074 7.28359319,0.185404756 5.09499155,0.185404756 C2.1820763,0.185404756 0.371944824,2.29626739 0.371944824,4.80611057 C0.371944824,7.52297815 2.21666064,9.42681639 4.83658778,9.42681639 Z" id="path7082" fill="#B8BCCC" fill-rule="nonzero"></path>
                            </g>
                            <g id="g7084" stroke-width="1" fill="none" fill-rule="evenodd" transform="translate(34.409921, 0.564338)">
                                <path d="M0,9.17196674 L2.10311959,9.17196674 L2.10311959,8.15125787 C2.10311959,7.82172221 2.06853525,7.54525292 2.06853525,7.54525292 L2.10311959,7.54525292 C2.4822423,8.28949251 3.44734123,9.38030141 5.22288836,9.38030141 C7.17070468,9.38030141 8.27348845,8.3589374 8.27348845,6.02270645 L8.27348845,0.346569315 L6.10185271,0.346569315 L6.10185271,5.57262493 C6.10185271,6.6450899 5.8258305,7.37229584 4.70608082,7.37229584 C3.53347582,7.37229584 2.67212992,6.62871139 2.34455746,5.57262493 C2.22383852,5.20967711 2.18925418,4.81069656 2.18925418,4.39599263 L2.18925418,0.346569315 L0,0.346569315 L0,9.17196674 Z" id="path7086" fill="#B8BCCC"></path>
                            </g>
                            <g id="g7088" stroke-width="1" fill="none" fill-rule="evenodd" transform="translate(43.549845, 0.117270)">
                                <path d="M5.22027823,9.82710722 C7.5126329,9.82710722 8.59910331,8.51158513 8.59910331,8.51158513 L7.63400437,7.00672745 C7.63400437,7.00672745 6.71980315,7.95799143 5.34099716,7.95799143 C3.72075331,7.95799143 2.66951978,6.72960303 2.66951978,5.2240902 C2.66951978,3.73495588 3.73771921,2.45481138 5.40951331,2.45481138 C6.89272486,2.45481138 7.99550864,3.57968759 7.99550864,3.57968759 L8.84054118,2.02241867 C8.84054118,2.02241867 7.58180159,0.58569559 5.22027823,0.58569559 C2.30736298,0.58569559 0.445681254,2.64480212 0.445681254,5.20640141 C0.445681254,7.71558945 2.30736298,9.82710722 5.22027823,9.82710722" id="path7090" fill="#B8BCCC"></path>
                            </g>
                            <g id="g7092" stroke-width="1" fill="none" fill-rule="evenodd" transform="translate(52.692510, 0.517692)">
                                <path d="M6.52534778,5.89626433 C6.49076344,7.09058543 5.74948393,7.73065768 4.78438499,7.73065768 C3.66333024,7.73065768 2.88877146,7.03817419 2.68191794,5.89626433 L6.52534778,5.89626433 Z M4.83593524,9.42681639 C7.36972779,9.42681639 8.73156787,7.57473425 8.73156787,5.23850329 C8.73156787,4.97906766 8.68001762,4.39009637 8.68001762,4.39009637 L2.61209672,4.39009637 C2.75043409,2.85051623 3.93935246,2.05452055 5.24964229,2.05452055 C6.66303262,2.05452055 7.78408737,3.02347332 7.78408737,3.02347332 L8.62781484,1.44917074 C8.62781484,1.44917074 7.28359319,0.185404756 5.09433901,0.185404756 C2.1820763,0.185404756 0.371944824,2.29626739 0.371944824,4.80611057 C0.371944824,7.52297815 2.21666064,9.42681639 4.83593524,9.42681639 Z" id="path7094" fill="#B8BCCC" fill-rule="nonzero"></path>
                            </g>
                            <g id="g7096" stroke-width="1" fill="none" fill-rule="evenodd" transform="translate(62.189044, 0.265659)">
                                <path d="M1.30506956,3.27570241 C1.30506956,3.27570241 2.27016849,2.30609449 3.70117726,2.30609449 C4.32173784,2.30609449 4.85616382,2.58321892 4.85616382,3.10274532 C4.85616382,4.41761227 0.581408487,4.24531032 0.581408487,7.08272374 C0.581408487,8.72647121 2.04634906,9.67904547 3.94261513,9.67904547 C5.92501579,9.67904547 6.89011472,8.67471511 6.89011472,8.67471511 L6.07966653,7.0480013 C6.07966653,7.0480013 5.26987087,7.80992968 3.92564923,7.80992968 C3.35598636,7.80992968 2.80459448,7.5675277 2.80459448,7.01393399 C2.80459448,5.7678568 7.08000234,5.92378023 7.08000234,3.08571167 C7.08000234,1.61426615 5.80429685,0.436978701 3.7187957,0.436978701 C1.52888899,0.436978701 0.305386276,1.73546714 0.305386276,1.73546714 L1.30506956,3.27570241 Z" id="path7098" fill="#B8BCCC"></path>
                            </g>
                            <g id="g7100" stroke-width="1" fill="none" fill-rule="evenodd" transform="translate(70.757804, 0.557918)">
                                <path d="M5.22027823,7.2065453 C6.6552022,7.2065453 7.49631953,8.12767281 7.49631953,9.54867252 C7.49631953,10.950018 6.6552022,11.8521464 5.25812524,11.8521464 L2.90704244,11.8521464 L2.90704244,7.2065453 L5.22027823,7.2065453 Z M0.440460975,13.9833184 L5.67901017,13.9833184 C8.22324327,13.9833184 10.0000955,12.1980606 10.0000955,9.54867252 C10.0000955,6.89862927 8.22324327,5.0557191 5.67901017,5.0557191 L2.90704244,5.0557191 L2.90704244,0.353120719 L0.440460975,0.353120719 L0.440460975,13.9833184 Z" id="path7102" fill="#B8BCCC" fill-rule="nonzero"></path>
                            </g>
                            <g id="g7104" stroke-width="1" fill="none" fill-rule="evenodd" transform="translate(80.629481, 0.606726)">
                                <path d="M5.22027823,1.96542144 C6.63432109,1.96542144 7.82258692,3.07260886 7.82258692,4.71635633 C7.82258692,6.34307014 6.63432109,7.46860149 5.22027823,7.46860149 C3.78926946,7.46860149 2.60035109,6.34307014 2.60035109,4.71635633 C2.60035109,3.07260886 3.78926946,1.96542144 5.22027823,1.96542144 M5.20265979,9.33771728 C7.89175561,9.33771728 10.0464254,7.41684539 10.0464254,4.71635633 C10.0464254,2.00014389 7.89175561,0.0963056508 5.22027823,0.0963056508 C2.53183494,0.0963056508 0.377165102,2.00014389 0.377165102,4.71635633 C0.377165102,7.41684539 2.53183494,9.33771728 5.20265979,9.33771728" id="path7106" fill="#B8BCCC" fill-rule="nonzero"></path>
                            </g>
                        </g>
                    </g>
                </g>
            </g>
        </g>
    </g>
</svg>