<?xml version="1.0" encoding="UTF-8"?>
<svg width="99px" height="16px" viewBox="0 0 99 16" version="1.1" xmlns="http://www.w3.org/2000/svg" xmlns:xlink="http://www.w3.org/1999/xlink">
    <!-- Generator: Sketch 52.4 (67378) - http://www.bohemiancoding.com/sketch -->
    <title>SciencesPo</title>
    <desc>Created with Sketch.</desc>
    <g id="Page-1" stroke="none" stroke-width="1" fill="none" fill-rule="evenodd">
        <g id="SciencesPo" fill="#B8BCCC">
            <path d="M93.1,14 C94.7,14 96,12.8 96,11 C96,9.2 94.7,8 93.1,8 C91.5,8 90.2,9.2 90.2,11 C90.2,12.7 91.5,14 93.1,14 M93.1,5.8 C96.1,5.8 98.4,7.9 98.4,10.9 C98.4,13.9 96,16 93.1,16 C90.1,16 87.8,13.9 87.8,10.9 C87.8,8 90.1,5.8 93.1,5.8" id="o" fill-rule="nonzero"></path>
            <path d="M82.2,8.2 C83.8,8.2 84.7,7.2 84.7,5.6 C84.7,4.1 83.8,3.1 82.2,3.1 L79.6,3.1 L79.6,8.2 L82.2,8.2 Z M77,0.8 L82.8,0.8 C85.6,0.8 87.5,2.8 87.5,5.7 C87.5,8.6 85.5,10.6 82.8,10.6 L79.8,10.6 L79.8,15.8 L77,15.8 L77,0.8 Z" id="p" fill-rule="nonzero"></path>
            <path d="M1.5,11.9 C1.5,11.9 3.1,13.5 5.2,13.5 C6.3,13.5 7.4,12.9 7.4,11.7 C7.4,9 0.4,9.5 0.4,4.9 C0.4,2.4 2.5,0.5 5.4,0.5 C8.3,0.5 9.9,2.1 9.9,2.1 L8.6,4.4 C8.6,4.4 7.2,3.1 5.3,3.1 C4,3 3.1,3.8 3.1,4.8 C3.1,7.5 10.1,6.8 10.1,11.6 C10.1,14 8.3,16 5.2,16 C1.8,16 0,14 0,14 L1.5,11.9 Z" id="s_1_"></path>
            <path d="M32.5,9.7 C32.5,8.4 31.6,7.7 30.6,7.7 C29.4,7.7 28.5,8.5 28.3,9.7 L32.5,9.7 Z M30.7,5.8 C33.5,5.8 35,7.8 35,10.4 C35,10.7 34.9,11.3 34.9,11.3 L28.2,11.3 C28.4,13 29.7,13.9 31.1,13.9 C32.7,13.9 33.9,12.8 33.9,12.8 L34.8,14.5 C34.8,14.5 33.3,15.9 30.9,15.9 C27.7,15.9 25.7,13.6 25.7,10.8 C25.8,7.9 27.8,5.8 30.7,5.8 Z" id="e_1_" fill-rule="nonzero"></path>
            <path d="M16.4,5.8 C18.9,5.8 20.1,7.2 20.1,7.2 L19,8.9 C19,8.9 18,7.9 16.5,7.9 C14.7,7.9 13.6,9.3 13.6,10.9 C13.6,12.5 14.8,13.9 16.6,13.9 C18.2,13.9 19.4,12.7 19.4,12.7 L20.3,14.4 C20.3,14.4 18.9,16 16.3,16 C13.1,16 11.1,13.7 11.1,10.9 C11.1,8.2 13.2,5.8 16.4,5.8" id="c_1_"></path>
            <path d="M36.6,6.1 L38.9,6.1 L38.9,7.2 C38.9,7.6 38.9,7.9 38.9,7.9 C39.3,7.1 40.4,5.9 42.3,5.9 C44.4,5.9 45.7,7 45.7,9.6 L45.7,15.8 L43.3,15.8 L43.3,10 C43.3,8.8 43,8 41.8,8 C40.5,8 39.6,8.8 39.2,10 C39,10.4 39,10.9 39,11.3 L39,15.8 L36.6,15.8 L36.6,6.1 Z" id="n"></path>
            <path d="M63.8,9.7 C63.8,8.4 62.9,7.7 61.9,7.7 C60.7,7.7 59.8,8.5 59.6,9.7 L63.8,9.7 Z M62,5.8 C64.8,5.8 66.3,7.8 66.3,10.4 C66.3,10.7 66.2,11.3 66.2,11.3 L59.5,11.3 C59.7,13 61,13.9 62.4,13.9 C64,13.9 65.2,12.8 65.2,12.8 L66.1,14.5 C66.1,14.5 64.6,15.9 62.2,15.9 C59,15.9 57,13.6 57,10.8 C57.1,7.9 59.1,5.8 62,5.8 Z" id="e" fill-rule="nonzero"></path>
            <path d="M21.8,6.1 L24.2,6.1 L24.2,15.8 L21.8,15.8 L21.8,6.1 Z M21.8,2.3 L24.2,2.3 L24.2,4.5 L21.8,4.5 L21.8,2.3 Z" id="i" fill-rule="nonzero"></path>
            <path d="M52.3,5.8 C54.8,5.8 56,7.2 56,7.2 L55,8.9 C55,8.9 54,7.9 52.5,7.9 C50.7,7.9 49.6,9.3 49.6,10.9 C49.6,12.5 50.8,13.9 52.6,13.9 C54.2,13.9 55.4,12.7 55.4,12.7 L56.3,14.4 C56.3,14.4 54.9,16 52.3,16 C49.1,16 47.1,13.7 47.1,10.9 C47.1,8.2 49.1,5.8 52.3,5.8" id="c"></path>
            <path d="M68.5,12.9 C68.5,12.9 69.6,14 71.1,14 C71.8,14 72.4,13.7 72.4,13.1 C72.4,11.7 67.7,11.8 67.7,8.7 C67.7,6.9 69.3,5.8 71.4,5.8 C73.6,5.8 74.6,6.9 74.6,6.9 L73.7,8.7 C73.7,8.7 72.8,7.9 71.3,7.9 C70.7,7.9 70.1,8.2 70.1,8.8 C70.1,10.2 74.8,10 74.8,13.1 C74.8,14.7 73.4,16 71.1,16 C68.7,16 67.3,14.6 67.3,14.6 L68.5,12.9 Z" id="s"></path>
        </g>
    </g>
</svg>