<?xml version="1.0" encoding="utf-8"?>
<!-- Generator: Adobe Illustrator 22.0.0, SVG Export Plug-In . SVG Version: 6.00 Build 0)  -->
<svg version="1.1" id="SciencesPo" xmlns="http://www.w3.org/2000/svg" xmlns:xlink="http://www.w3.org/1999/xlink" x="0px" y="0px"
	 viewBox="0 0 99 17" style="enable-background:new 0 0 99 17;" xml:space="preserve">
<style type="text/css">
	.st0{fill:#B8BCCC;}
</style>
<path id="o" class="st0" d="M93.1,14c1.6,0,2.9-1.2,2.9-3c0-1.8-1.3-3-2.9-3c-1.6,0-2.9,1.2-2.9,3C90.2,12.7,91.5,14,93.1,14
	 M93.1,5.8c3,0,5.3,2.1,5.3,5.1c0,3-2.4,5.1-5.3,5.1c-3,0-5.3-2.1-5.3-5.1C87.8,8,90.1,5.8,93.1,5.8"/>
<path id="p" class="st0" d="M82.2,8.2c1.6,0,2.5-1,2.5-2.6c0-1.5-0.9-2.5-2.5-2.5h-2.6v5.1H82.2z M77,0.8h5.8c2.8,0,4.7,2,4.7,4.9
	c0,2.9-2,4.9-4.7,4.9h-3v5.2H77V0.8z"/>
<path id="s_1_" class="st0" d="M1.5,11.9c0,0,1.6,1.6,3.7,1.6c1.1,0,2.2-0.6,2.2-1.8c0-2.7-7-2.2-7-6.8c0-2.5,2.1-4.4,5-4.4
	c2.9,0,4.5,1.6,4.5,1.6L8.6,4.4c0,0-1.4-1.3-3.3-1.3C4,3,3.1,3.8,3.1,4.8c0,2.7,7,2,7,6.8c0,2.4-1.8,4.4-4.9,4.4C1.8,16,0,14,0,14
	L1.5,11.9z"/>
<path id="e_1_" class="st0" d="M32.5,9.7c0-1.3-0.9-2-1.9-2c-1.2,0-2.1,0.8-2.3,2H32.5z M30.7,5.8c2.8,0,4.3,2,4.3,4.6
	c0,0.3-0.1,0.9-0.1,0.9h-6.7c0.2,1.7,1.5,2.6,2.9,2.6c1.6,0,2.8-1.1,2.8-1.1l0.9,1.7c0,0-1.5,1.4-3.9,1.4c-3.2,0-5.2-2.3-5.2-5.1
	C25.8,7.9,27.8,5.8,30.7,5.8z"/>
<path id="c_1_" class="st0" d="M16.4,5.8c2.5,0,3.7,1.4,3.7,1.4L19,8.9c0,0-1-1-2.5-1c-1.8,0-2.9,1.4-2.9,3c0,1.6,1.2,3,3,3
	c1.6,0,2.8-1.2,2.8-1.2l0.9,1.7c0,0-1.4,1.6-4,1.6c-3.2,0-5.2-2.3-5.2-5.1C11.1,8.2,13.2,5.8,16.4,5.8"/>
<path id="n" class="st0" d="M36.6,6.1h2.3v1.1c0,0.4,0,0.7,0,0.7h0c0.4-0.8,1.5-2,3.4-2c2.1,0,3.4,1.1,3.4,3.7v6.2h-2.4V10
	c0-1.2-0.3-2-1.5-2c-1.3,0-2.2,0.8-2.6,2C39,10.4,39,10.9,39,11.3v4.5h-2.4V6.1z"/>
<path id="e" class="st0" d="M63.8,9.7c0-1.3-0.9-2-1.9-2c-1.2,0-2.1,0.8-2.3,2H63.8z M62,5.8c2.8,0,4.3,2,4.3,4.6
	c0,0.3-0.1,0.9-0.1,0.9h-6.7c0.2,1.7,1.5,2.6,2.9,2.6c1.6,0,2.8-1.1,2.8-1.1l0.9,1.7c0,0-1.5,1.4-3.9,1.4c-3.2,0-5.2-2.3-5.2-5.1
	C57.1,7.9,59.1,5.8,62,5.8z"/>
<path id="i" class="st0" d="M21.8,6.1h2.4v9.7h-2.4V6.1z M21.8,2.3h2.4v2.2h-2.4V2.3z"/>
<path id="c" class="st0" d="M52.3,5.8c2.5,0,3.7,1.4,3.7,1.4L55,8.9c0,0-1-1-2.5-1c-1.8,0-2.9,1.4-2.9,3c0,1.6,1.2,3,3,3
	c1.6,0,2.8-1.2,2.8-1.2l0.9,1.7c0,0-1.4,1.6-4,1.6c-3.2,0-5.2-2.3-5.2-5.1C47.1,8.2,49.1,5.8,52.3,5.8"/>
<path id="s" class="st0" d="M68.5,12.9c0,0,1.1,1.1,2.6,1.1c0.7,0,1.3-0.3,1.3-0.9c0-1.4-4.7-1.3-4.7-4.4c0-1.8,1.6-2.9,3.7-2.9
	c2.2,0,3.2,1.1,3.2,1.1l-0.9,1.8c0,0-0.9-0.8-2.4-0.8c-0.6,0-1.2,0.3-1.2,0.9c0,1.4,4.7,1.2,4.7,4.3c0,1.6-1.4,2.9-3.7,2.9
	c-2.4,0-3.8-1.4-3.8-1.4L68.5,12.9z"/>
</svg>
