<?xml version="1.0" encoding="utf-8"?>
<!-- Generator: Adobe Illustrator 22.0.0, SVG Export Plug-In . SVG Version: 6.00 Build 0)  -->
<svg version="1.1" id="Calque_1" xmlns="http://www.w3.org/2000/svg" xmlns:xlink="http://www.w3.org/1999/xlink" x="0px" y="0px"
	 viewBox="0 0 78 78" style="enable-background:new 0 0 78 78;" xml:space="preserve">
<style type="text/css">
	.st0{fill:#FFDDE2;stroke:#FFDDE2;}
	.st1{fill:#FF486A;}
	.st2{enable-background:new    ;}
	.st3{fill:#FFFFFF;}
</style>
<title>Number 1</title>
<desc>Created with Sketch.</desc>
<g id="Artboards">
	<g id="HOME" transform="translate(-281.000000, -1265.000000)">
		<g id="Tutorial" transform="translate(-131.000000, 528.000000)">
			<g id="Tutorial-steps" transform="translate(305.000000, 517.000000)">
				<g id="Numbers" transform="translate(108.000000, 221.000000)">
					<g id="Number-1">
						<circle id="Oval" class="st0" cx="38" cy="38" r="38"/>
						<circle id="Oval_1_" class="st1" cx="38.5" cy="38.5" r="29.5"/>
						<g class="st2">
							<path class="st3" d="M30.8,50v-4c1.3-1.3,2.6-2.5,3.7-3.7c0.5-0.5,1-1,1.5-1.5c0.5-0.5,1-1,1.4-1.4c0.4-0.4,0.8-0.8,1.2-1.2
								c0.3-0.4,0.6-0.6,0.8-0.8c0.4-0.4,0.7-0.8,1-1.2c0.3-0.3,0.5-0.7,0.7-1c0.2-0.3,0.3-0.7,0.4-1c0.1-0.3,0.1-0.7,0.1-1.1
								c0-0.7-0.3-1.4-0.9-2s-1.4-0.8-2.4-0.8c-1,0-1.8,0.3-2.4,0.9c-0.6,0.6-1,1.2-1.2,2l-4-1.7c0.2-0.6,0.5-1.2,0.9-1.9
								c0.4-0.6,0.9-1.2,1.6-1.7c0.6-0.5,1.4-0.9,2.3-1.3c0.9-0.3,1.9-0.5,2.9-0.5c1.2,0,2.2,0.2,3.2,0.5c1,0.4,1.8,0.8,2.4,1.4
								c0.7,0.6,1.2,1.3,1.5,2.2s0.5,1.7,0.5,2.7c0,1.5-0.4,2.8-1.1,4s-1.6,2.3-2.6,3.4l-2.9,2.9c-0.8,0.8-1.6,1.6-2.6,2.6l0.1,0.2
								h9.4V50H30.8z"/>
						</g>
					</g>
				</g>
			</g>
		</g>
	</g>
</g>
</svg>
