<?xml version="1.0" encoding="utf-8"?>
<!-- Generator: Adobe Illustrator 22.0.0, SVG Export Plug-In . SVG Version: 6.00 Build 0)  -->
<svg version="1.1" id="Gsuite_verified" xmlns="http://www.w3.org/2000/svg" xmlns:xlink="http://www.w3.org/1999/xlink" x="0px"
	 y="0px" viewBox="0 0 287 63" style="enable-background:new 0 0 287 63;" xml:space="preserve">
<style type="text/css">
	.st0{fill:#FFFFFF;}
	.st1{fill:none;}
	.st2{fill:#F4B400;}
</style>
<g id="verified-partner" transform="translate(0.000000, 43.000000)">
	<path id="path-1" class="st0" d="M0.1,4.5H2l3.2,8.4h0l3.3-8.4h1.8L6.1,15H4.4L0.1,4.5z M16.2,15.3c-1,0-1.9-0.2-2.7-0.7
		c-0.8-0.5-1.4-1.1-1.9-2c-0.4-0.8-0.7-1.8-0.7-2.8c0-1,0.2-1.9,0.6-2.8c0.4-0.8,1-1.5,1.8-2S15,4.2,16,4.2c1,0,1.9,0.2,2.7,0.7
		C19.4,5.4,20,6,20.4,6.8C20.8,7.6,21,8.5,21,9.6c0,0.2,0,0.4-0.1,0.5h-8.3c0,0.8,0.2,1.5,0.6,2c0.3,0.5,0.8,1,1.3,1.2
		c0.5,0.3,1.1,0.4,1.7,0.4c1.3,0,2.4-0.6,3.1-1.9l1.5,0.7c-0.5,0.8-1.1,1.5-1.8,2S17.3,15.3,16.2,15.3z M19.2,8.7
		c0-0.4-0.2-0.9-0.4-1.3s-0.6-0.8-1-1.1S16.7,5.8,16,5.8c-0.8,0-1.5,0.3-2.1,0.8c-0.6,0.5-0.9,1.2-1.1,2.1H19.2z M23.1,4.5h1.7v1.7
		h0.1c0.2-0.6,0.6-1,1.2-1.4s1.2-0.6,1.8-0.6c0.5,0,0.9,0.1,1.2,0.2v1.9C28.6,6.1,28.1,6,27.6,6c-0.5,0-1,0.1-1.4,0.4
		c-0.4,0.3-0.8,0.7-1,1.2s-0.4,1-0.4,1.6V15h-1.7V4.5z M31.8,2.6c-0.3,0-0.6-0.1-0.9-0.4c-0.2-0.2-0.4-0.5-0.4-0.9s0.1-0.6,0.4-0.9
		c0.2-0.2,0.5-0.4,0.9-0.4c0.3,0,0.6,0.1,0.9,0.4C32.9,0.7,33,1,33,1.4S32.9,2,32.7,2.2C32.4,2.5,32.1,2.6,31.8,2.6z M30.9,4.5h1.7
		V15h-1.7V4.5z M36.6,6.1h-1.9V4.5h1.9V3.4c0-0.7,0.2-1.2,0.5-1.7c0.3-0.5,0.7-0.9,1.2-1.1c0.5-0.3,1.1-0.4,1.7-0.4
		c0.6,0,1.1,0.1,1.5,0.2v1.7C41.2,2,41,1.9,40.8,1.9c-0.2-0.1-0.5-0.1-0.8-0.1c-0.5,0-0.8,0.2-1.2,0.5S38.3,3,38.3,3.6v0.9H41v1.6
		h-2.7V15h-1.7V6.1z M44,2.6c-0.3,0-0.6-0.1-0.9-0.4s-0.4-0.5-0.4-0.9s0.1-0.6,0.4-0.9s0.5-0.4,0.9-0.4s0.6,0.1,0.9,0.4
		s0.4,0.5,0.4,0.9S45.1,2,44.9,2.2S44.3,2.6,44,2.6z M43.1,4.5h1.7V15h-1.7V4.5z M52.1,15.3c-1,0-1.9-0.2-2.7-0.7
		c-0.8-0.5-1.4-1.1-1.9-2c-0.4-0.8-0.7-1.8-0.7-2.8c0-1,0.2-1.9,0.6-2.8s1-1.5,1.8-2C50.1,4.5,51,4.2,52,4.2c1,0,1.9,0.2,2.7,0.7
		S56,6,56.4,6.8S57,8.5,57,9.6c0,0.2,0,0.4-0.1,0.5h-8.3c0,0.8,0.2,1.5,0.6,2c0.3,0.5,0.8,1,1.3,1.2c0.5,0.3,1.1,0.4,1.7,0.4
		c1.3,0,2.4-0.6,3.1-1.9l1.5,0.7c-0.5,0.8-1.1,1.5-1.8,2C54.2,15.1,53.2,15.3,52.1,15.3z M55.1,8.7c0-0.4-0.2-0.9-0.4-1.3
		c-0.2-0.4-0.6-0.8-1-1.1c-0.5-0.3-1.1-0.5-1.8-0.5c-0.8,0-1.5,0.3-2.1,0.8s-0.9,1.2-1.1,2.1H55.1z M63.5,15.3
		c-0.9,0-1.8-0.2-2.5-0.7c-0.8-0.5-1.4-1.1-1.8-2c-0.4-0.8-0.7-1.8-0.7-2.9c0-1.1,0.2-2,0.7-2.8s1-1.5,1.8-2s1.6-0.7,2.5-0.7
		c0.8,0,1.5,0.2,2.2,0.5c0.6,0.4,1.1,0.8,1.4,1.3h0.1l-0.1-1.5V0.3h1.7V15h-1.7v-1.5h-0.1c-0.3,0.5-0.8,1-1.4,1.3
		S64.4,15.3,63.5,15.3z M63.8,13.7c0.6,0,1.2-0.2,1.7-0.5c0.5-0.3,0.9-0.8,1.3-1.4c0.3-0.6,0.5-1.3,0.5-2.1s-0.2-1.5-0.5-2.1
		c-0.3-0.6-0.7-1.1-1.3-1.4s-1.1-0.5-1.7-0.5c-0.6,0-1.2,0.2-1.7,0.5c-0.5,0.3-1,0.8-1.3,1.4c-0.3,0.6-0.5,1.3-0.5,2.1
		s0.2,1.5,0.5,2.1c0.3,0.6,0.7,1.1,1.3,1.4C62.6,13.6,63.2,13.7,63.8,13.7z M76.1,4.5h1.7v1.6h0.1c0.3-0.5,0.8-1,1.4-1.3
		c0.6-0.4,1.3-0.5,2.1-0.5c0.9,0,1.8,0.2,2.5,0.7c0.8,0.5,1.4,1.1,1.8,2c0.4,0.8,0.7,1.8,0.7,2.8c0,1.1-0.2,2-0.7,2.9
		c-0.4,0.8-1,1.5-1.8,2c-0.8,0.5-1.6,0.7-2.5,0.7c-0.8,0-1.5-0.2-2.1-0.5c-0.6-0.4-1.1-0.8-1.4-1.3h-0.1l0.1,1.4v4.5h-1.7V4.5z
		 M81.2,13.7c0.6,0,1.2-0.2,1.7-0.5c0.5-0.3,1-0.8,1.3-1.4c0.3-0.6,0.5-1.3,0.5-2.1s-0.2-1.5-0.5-2.1s-0.7-1.1-1.3-1.4
		s-1.1-0.5-1.7-0.5S80.1,6,79.5,6.3s-1,0.8-1.3,1.4C78,8.3,77.8,9,77.8,9.8s0.2,1.5,0.5,2.1c0.3,0.6,0.7,1.1,1.3,1.4
		C80.1,13.6,80.6,13.7,81.2,13.7z M91.8,15.3c-0.8,0-1.4-0.2-2.1-0.5c-0.6-0.3-1.1-0.7-1.4-1.2c-0.3-0.5-0.5-1.1-0.5-1.8
		c0-1.1,0.4-2,1.3-2.6s1.9-0.9,3.2-0.9c0.6,0,1.2,0.1,1.8,0.2c0.5,0.1,1,0.3,1.2,0.5V8.4c0-0.8-0.3-1.4-0.8-1.9
		c-0.5-0.5-1.2-0.7-2.1-0.7c-0.6,0-1.1,0.1-1.6,0.4c-0.5,0.3-0.9,0.6-1.2,1.1l-1.3-1c0.4-0.6,1-1.1,1.7-1.5c0.7-0.4,1.5-0.5,2.4-0.5
		c1.4,0,2.5,0.4,3.4,1.1c0.8,0.7,1.2,1.8,1.2,3V15h-1.7v-1.5h-0.1c-0.3,0.5-0.8,0.9-1.4,1.3S92.6,15.3,91.8,15.3z M92,13.8
		c0.6,0,1.1-0.2,1.6-0.5c0.5-0.3,0.9-0.7,1.2-1.2c0.3-0.5,0.5-1.1,0.5-1.7c-0.3-0.2-0.7-0.4-1.2-0.5c-0.5-0.1-1-0.2-1.5-0.2
		c-1,0-1.7,0.2-2.2,0.6c-0.5,0.4-0.7,0.9-0.7,1.5c0,0.6,0.2,1,0.7,1.4C90.8,13.6,91.3,13.8,92,13.8z M99.4,4.5h1.7v1.7h0.1
		c0.2-0.6,0.6-1,1.2-1.4s1.2-0.6,1.8-0.6c0.5,0,0.9,0.1,1.2,0.2v1.9c-0.4-0.2-0.9-0.3-1.5-0.3c-0.5,0-1,0.1-1.4,0.4
		c-0.4,0.3-0.8,0.7-1,1.2c-0.3,0.5-0.4,1-0.4,1.6V15h-1.7V4.5z M111.3,15.2c-0.4,0-0.8-0.1-1.2-0.2s-0.7-0.3-0.9-0.6
		c-0.3-0.3-0.5-0.6-0.6-0.9s-0.2-0.8-0.2-1.3V6.1h-1.8V4.5h1.8v-3h1.7v3h2.5v1.6h-2.5v5.7c0,0.6,0.1,1,0.3,1.3
		c0.3,0.3,0.6,0.5,1.1,0.5c0.4,0,0.8-0.1,1.1-0.3v1.7c-0.2,0.1-0.4,0.2-0.6,0.2C111.9,15.1,111.6,15.2,111.3,15.2z M114.9,4.5h1.7
		v1.5h0.1c0.3-0.5,0.7-1,1.4-1.3c0.6-0.4,1.3-0.5,2-0.5c1.3,0,2.2,0.4,2.9,1.1c0.7,0.7,1,1.7,1,3V15h-1.7V8.6c0-1-0.2-1.7-0.7-2.1
		s-1.1-0.7-1.9-0.7c-0.6,0-1.1,0.2-1.5,0.5s-0.8,0.7-1,1.2s-0.4,1-0.4,1.6V15h-1.7V4.5z M131,15.3c-1,0-1.9-0.2-2.7-0.7
		c-0.8-0.5-1.4-1.1-1.9-2c-0.4-0.8-0.7-1.8-0.7-2.8c0-1,0.2-1.9,0.6-2.8c0.4-0.8,1-1.5,1.8-2s1.7-0.8,2.7-0.8c1,0,1.9,0.2,2.7,0.7
		c0.8,0.5,1.3,1.1,1.7,1.9c0.4,0.8,0.6,1.7,0.6,2.8c0,0.2,0,0.4-0.1,0.5h-8.3c0,0.8,0.2,1.5,0.6,2c0.3,0.5,0.8,1,1.3,1.2
		c0.5,0.3,1.1,0.4,1.7,0.4c1.3,0,2.4-0.6,3.1-1.9l1.5,0.7c-0.5,0.8-1.1,1.5-1.8,2S132.1,15.3,131,15.3z M134,8.7
		c0-0.4-0.2-0.9-0.4-1.3c-0.2-0.4-0.6-0.8-1-1.1c-0.5-0.3-1.1-0.5-1.8-0.5c-0.8,0-1.5,0.3-2.1,0.8s-0.9,1.2-1.1,2.1H134z M137.9,4.5
		h1.7v1.7h0.1c0.2-0.6,0.6-1,1.2-1.4c0.6-0.4,1.2-0.6,1.8-0.6c0.5,0,0.9,0.1,1.2,0.2v1.9C143.5,6.1,143,6,142.4,6
		c-0.5,0-1,0.1-1.4,0.4c-0.4,0.3-0.8,0.7-1,1.2s-0.4,1-0.4,1.6V15h-1.7V4.5z"/>
</g>
<g id="Gsuite-logo">
	<path id="XMLID_69_" class="st0" d="M26.7,10.2c-1.1-1.1-2.3-2-3.6-2.6s-2.9-0.9-4.8-0.9c-1.5,0-3,0.3-4.3,0.8s-2.5,1.3-3.5,2.3
		c-1,1-1.8,2.2-2.4,3.6S7.2,16.2,7.2,18s0.3,3.2,0.9,4.6s1.4,2.6,2.4,3.5s2.2,1.8,3.6,2.3s2.8,0.8,4.3,0.8c1.6,0,3.1-0.2,4.3-0.7
		s2.3-1.1,3.1-1.9c0.6-0.5,1.1-1.2,1.6-2c0.5-0.8,0.8-1.7,1.1-2.7H18.2v-5.8H35c0.1,0.4,0.2,0.9,0.2,1.4c0.1,0.6,0.1,1.1,0.1,1.7
		c0,2.3-0.3,4.4-1,6.3s-1.7,3.6-3.1,5.1c-1.5,1.6-3.4,2.9-5.5,3.8s-4.6,1.3-7.4,1.3c-2.5,0-4.8-0.4-7-1.3s-4.1-2.1-5.8-3.7
		c-1.6-1.6-2.9-3.5-3.9-5.6S0.2,20.6,0.2,18s0.5-5,1.4-7.2s2.2-4.1,3.9-5.6c1.6-1.6,3.6-2.8,5.8-3.7s4.6-1.3,7-1.3
		c2.8,0,5.3,0.5,7.5,1.5s4.1,2.3,5.6,4L26.7,10.2z"/>
	<path id="XMLID_67_" class="st0" d="M70,25.9c0,3-1.1,5.4-3.3,7.2c-2.2,1.8-4.9,2.7-8.1,2.7c-2.8,0-5.3-0.8-7.5-2.5
		c-2.2-1.7-3.7-3.9-4.5-6.8l4.2-1.7c0.3,1,0.7,1.9,1.2,2.8c0.5,0.8,1.1,1.5,1.8,2.1c0.7,0.6,1.4,1,2.3,1.4c0.8,0.3,1.7,0.5,2.6,0.5
		c2,0,3.7-0.5,4.9-1.6c1.3-1,1.9-2.4,1.9-4.1c0-1.4-0.5-2.7-1.6-3.7c-1-1-2.8-1.9-5.5-2.9c-2.7-1-4.4-1.7-5.1-2
		c-3.6-1.8-5.4-4.5-5.4-8.1c0-2.5,1-4.6,3-6.4c2.1-1.8,4.5-2.7,7.5-2.7c2.6,0,4.9,0.7,6.8,2c1.9,1.3,3.2,2.9,3.8,4.9l-4.1,1.7
		c-0.4-1.3-1.1-2.3-2.3-3.2c-1.1-0.9-2.5-1.3-4.1-1.3c-1.7,0-3.2,0.5-4.3,1.4c-1.2,0.9-1.8,2-1.8,3.5c0,1.2,0.5,2.2,1.4,3
		c1,0.9,3.2,1.9,6.6,3c3.5,1.2,6,2.6,7.4,4.3C69.3,21.3,70,23.4,70,25.9z"/>
	<path id="XMLID_65_" class="st0" d="M94.4,35h-4.2v-3.2H90c-0.7,1.1-1.7,2.1-3.1,2.9c-1.4,0.8-2.8,1.1-4.3,1.1
		c-2.9,0-5.1-0.8-6.6-2.5c-1.5-1.6-2.3-4-2.3-7V11.7H78v14.4c0.1,3.8,2,5.7,5.8,5.7c1.8,0,3.2-0.7,4.4-2.1c1.2-1.4,1.8-3.1,1.8-5.1
		V11.7h4.4V35z"/>
	<path id="XMLID_62_" class="st0" d="M104.4,3.6c0,0.9-0.3,1.6-0.9,2.2c-0.6,0.6-1.3,0.9-2.2,0.9s-1.6-0.3-2.2-0.9s-0.9-1.3-0.9-2.2
		s0.3-1.6,0.9-2.2s1.3-0.9,2.2-0.9s1.6,0.3,2.2,0.9C104.1,2,104.4,2.8,104.4,3.6z M103.5,11.7V35h-4.4V11.7H103.5z"/>
	<path id="XMLID_60_" class="st0" d="M117,35.4c-1.9,0-3.5-0.6-4.8-1.8c-1.3-1.2-1.9-2.8-1.9-4.9V15.7h-4.1v-4h4.1V4.5h4.4v7.2h5.7
		v4h-5.7v11.6c0,1.6,0.3,2.6,0.9,3.2c0.6,0.6,1.3,0.8,2.1,0.8c0.3,0,0.7,0,1-0.1s0.6-0.2,0.9-0.3l1.4,3.9
		C119.9,35.2,118.5,35.4,117,35.4z"/>
	<path id="XMLID_57_" class="st0" d="M133.5,35.8c-3.4,0-6.3-1.2-8.5-3.5c-2.2-2.4-3.3-5.3-3.3-8.9c0-3.6,1.1-6.5,3.2-8.9
		s4.9-3.6,8.3-3.6c3.5,0,6.2,1.1,8.3,3.4s3.1,5.4,3.1,9.4l0,0.5h-18.4c0.1,2.3,0.8,4.1,2.3,5.5c1.5,1.4,3.2,2.1,5.3,2.1
		c2.8,0,5-1.4,6.6-4.2l3.9,1.9c-1,2-2.5,3.5-4.4,4.6C137.9,35.2,135.8,35.8,133.5,35.8z M126.4,20.5h13.5c-0.1-1.6-0.8-3-2-4
		c-1.2-1.1-2.8-1.6-4.8-1.6c-1.7,0-3.1,0.5-4.3,1.5C127.6,17.5,126.8,18.8,126.4,20.5z"/>
</g>
<g id="Ratings" transform="translate(186.000000, 34.000000)">
	<g id="star">
		<polygon id="Path" class="st1" points="0,0 18,0 18,18 0,18 		"/>
		<polygon id="Path_1_" class="st2" points="9,13 13.6,15.8 12.4,10.5 16.5,6.9 11.1,6.5 9,1.5 6.9,6.5 1.5,6.9 5.6,10.5 4.4,15.8 
					"/>
		<polygon id="Path_2_" class="st1" points="0,0 18,0 18,18 0,18 		"/>
	</g>
	<g id="star-" transform="translate(21.000000, 0.000000)">
		<polygon id="Path_3_" class="st1" points="0,0 18,0 18,18 0,18 		"/>
		<polygon id="Path_4_" class="st2" points="9,13 13.6,15.8 12.4,10.5 16.5,6.9 11.1,6.5 9,1.5 6.9,6.5 1.5,6.9 5.6,10.5 4.4,15.8 
					"/>
		<polygon id="Path_5_" class="st1" points="0,0 18,0 18,18 0,18 		"/>
	</g>
	<g id="star_1_" transform="translate(42.000000, 0.000000)">
		<polygon id="Path_6_" class="st1" points="0,0 18,0 18,18 0,18 		"/>
		<polygon id="Path_7_" class="st2" points="9,13 13.6,15.8 12.4,10.5 16.5,6.9 11.1,6.5 9,1.5 6.9,6.5 1.5,6.9 5.6,10.5 4.4,15.8 
					"/>
		<polygon id="Path_8_" class="st1" points="0,0 18,0 18,18 0,18 		"/>
	</g>
	<g id="star_2_" transform="translate(63.000000, 0.000000)">
		<polygon id="Path_9_" class="st1" points="0,0 18,0 18,18 0,18 		"/>
		<polygon id="Path_10_" class="st2" points="9,13 13.6,15.8 12.4,10.5 16.5,6.9 11.1,6.5 9,1.5 6.9,6.5 1.5,6.9 5.6,10.5 4.4,15.8 
					"/>
		<polygon id="Path_11_" class="st1" points="0,0 18,0 18,18 0,18 		"/>
	</g>
	<g id="star-_1_" transform="translate(84.000000, 0.000000)">
		<polygon id="Path_12_" class="st1" points="0,0 18,0 18,18 0,18 		"/>
		<polygon id="Path_13_" class="st2" points="9,13 13.6,15.8 12.4,10.5 16.5,6.9 11.1,6.5 9,1.5 6.9,6.5 1.5,6.9 5.6,10.5 4.4,15.8 
					"/>
		<polygon id="Path_14_" class="st1" points="0,0 18,0 18,18 0,18 		"/>
	</g>
</g>
<path id="Reviews" class="st0" d="M191.4,11.9v5.3h3.1c0.8,0,1.4-0.3,2-0.8c0.5-0.5,0.8-1.1,0.8-1.9c0-0.7-0.3-1.3-0.8-1.8
	c-0.5-0.5-1.1-0.8-1.9-0.8H191.4z M191.4,25h-1.9V10h5.1c1.3,0,2.4,0.4,3.3,1.3c0.9,0.9,1.4,1.9,1.4,3.2c0,1-0.3,1.9-1,2.7
	s-1.5,1.3-2.6,1.5l0,0.1l4.2,6.1V25h-2.3l-4-6.1h-2.1V25z M205.6,25.3c-1.5,0-2.7-0.5-3.7-1.5c-1-1-1.5-2.3-1.5-3.9
	c0-1.6,0.5-2.9,1.4-3.9s2.2-1.6,3.6-1.6c1.5,0,2.7,0.5,3.6,1.5s1.3,2.4,1.3,4.1l0,0.2h-8c0,1,0.4,1.8,1,2.4c0.6,0.6,1.4,0.9,2.3,0.9
	c1.2,0,2.2-0.6,2.9-1.8l1.7,0.8c-0.5,0.9-1.1,1.5-1.9,2C207.6,25.1,206.7,25.3,205.6,25.3z M202.6,18.6h5.9
	c-0.1-0.7-0.3-1.3-0.9-1.8c-0.5-0.5-1.2-0.7-2.1-0.7c-0.7,0-1.3,0.2-1.9,0.7C203.1,17.3,202.7,17.9,202.6,18.6z M217,25h-1.9
	l-4.1-10.2h2.1l3,7.9h0l3-7.9h2L217,25z M224.9,11.2c0,0.4-0.1,0.7-0.4,1c-0.3,0.3-0.6,0.4-1,0.4s-0.7-0.1-1-0.4
	c-0.3-0.3-0.4-0.6-0.4-1s0.1-0.7,0.4-1c0.3-0.3,0.6-0.4,1-0.4s0.7,0.1,1,0.4C224.8,10.5,224.9,10.9,224.9,11.2z M224.5,14.8V25h-1.9
	V14.8H224.5z M231.5,25.3c-1.5,0-2.7-0.5-3.7-1.5c-1-1-1.5-2.3-1.5-3.9c0-1.6,0.5-2.9,1.4-3.9c0.9-1,2.2-1.6,3.6-1.6
	c1.5,0,2.7,0.5,3.6,1.5c0.9,1,1.3,2.4,1.3,4.1l0,0.2h-8c0,1,0.4,1.8,1,2.4s1.4,0.9,2.3,0.9c1.2,0,2.2-0.6,2.9-1.8l1.7,0.8
	c-0.5,0.9-1.1,1.5-1.9,2S232.5,25.3,231.5,25.3z M228.4,18.6h5.9c-0.1-0.7-0.3-1.3-0.9-1.8c-0.5-0.5-1.2-0.7-2.1-0.7
	c-0.7,0-1.3,0.2-1.9,0.7S228.6,17.9,228.4,18.6z M252.4,14.8L249.1,25h-2l-2.5-7.9l-2.5,7.9h-1.9l-3.3-10.2h2l2.3,7.7h0l2.5-7.7h2
	l2.5,7.7h0l2.3-7.7H252.4z M261.5,22.2c0,0.9-0.4,1.6-1.2,2.3c-0.8,0.6-1.8,0.9-2.9,0.9c-1,0-1.9-0.3-2.7-0.8
	c-0.8-0.5-1.3-1.2-1.7-2.1l1.7-0.7c0.3,0.6,0.6,1.1,1.1,1.4s1,0.5,1.6,0.5c0.6,0,1.1-0.1,1.5-0.4s0.6-0.6,0.6-0.9
	c0-0.7-0.5-1.1-1.5-1.4l-1.8-0.4c-2-0.5-3-1.5-3-2.9c0-0.9,0.4-1.7,1.1-2.2c0.8-0.6,1.7-0.8,2.9-0.8c0.9,0,1.7,0.2,2.5,0.6
	c0.7,0.4,1.2,1,1.5,1.7l-1.7,0.7c-0.2-0.4-0.5-0.8-1-1s-0.9-0.4-1.5-0.4c-0.5,0-1,0.1-1.3,0.4s-0.6,0.6-0.6,0.9c0,0.6,0.6,1,1.7,1.3
	l1.5,0.4C260.5,19.6,261.5,20.6,261.5,22.2z"/>
</svg>
