<svg xmlns="http://www.w3.org/2000/svg" xmlns:xlink="http://www.w3.org/1999/xlink" viewBox="0 0 512 512"><path d="M321.6 301.4c-25 0-53.6-4.5-76.2-9.5-.2 9.5 2.9 18.6 8.8 25.8l1.8 2.2c-32 0-59.4-23.8-63.6-55.3-.8-5.8-6.2-10-12-9.2s-9.9 6.2-9.2 12c5.7 42 42.1 73.8 84.8 73.8 27.4 0 52.4-12.5 68.6-34.4 1.3-1.7 1.8-3.7 1.9-5.6-1.6.1-3.2.2-4.9.2h0z" fill="#ff486a"/><path d="M326.9 309.4c-27.5 0-59.5-5.4-82.9-11-43.1-10.4-98.5-31.2-112.5-55.7-4.4-7.6-3.8-14-2.6-18 4.8-16.1 27.1-23.5 66.4-21.9 5.9.2 10.5 5.2 10.2 11.1s-4.9 10.4-11.1 10.2c-33.3-1.3-44.1 5.1-45.1 6.9.7 6.2 31.2 30.1 99.8 46.6 65.4 15.7 109.5 10.4 113.8 3.3-.3-1.6-6.8-11.7-35.5-25-5.3-2.5-7.7-8.8-5.2-14.2s8.8-7.7 14.2-5.2c35.8 16.5 52 34 47 50.6-5.1 16.8-28.5 22.3-56.5 22.3z" fill="#ff92aa"/><g fill="#ff486a"><path d="M341.8 256c0-47.1-38.5-85.3-85.8-85.3-36.1 0-68.4 22.7-80.4 56.4-2 5.6.9 11.6 6.5 13.6 5.5 2 11.6-.9 13.6-6.5 4.8-13.4 14-24.4 25.6-31.8 1.8 3.2 2.8 6.7 2.8 10.3v6.3c0 6.2-4.2 11.4-10.3 12.7-5.8 1.2-9.4 6.9-8.2 12.7 1.1 5 5.5 8.4 10.4 8.4.8 0 1.5-.1 2.3-.2 15.7-3.4 27.1-17.5 27.1-33.6v-6.3c0-6.6-1.6-12.9-4.5-18.7 4.9-1.2 9.9-2 15.1-2 3.7 0 7.3.4 10.9 1-.1 9.5 2.1 18.9 7.1 27.2 5.4 9.1 14.9 14.5 25.4 14.5 1.2 0 2.3-.1 3.7-.3l12.8-1.6c2.5 6.5 4 13.5 4.3 20.8-7.5-.5-14.9 2.9-19 9.2-3.2 5-2 11.7 2.9 14.9s11.3 1.9 14.5-3l5.8 3.4c1.7 1 3.6 1.5 5.4 1.5 3.6 0 7.2-1.9 9.2-5.2 1.5-2.6 1.8-5.5 1.1-8.2.6-1.1 1-2.3 1.2-3.6.3-2.2.5-4.3.5-6.6zm37.3-76.2c-4.4 0-8-3.6-8-8 0-11.8-9.6-21.3-21.3-21.3-4.4 0-8-3.6-8-8s3.6-8 8-8c11.8 0 21.3-9.6 21.3-21.3 0-4.4 3.6-8 8-8s8 3.6 8 8c0 11.8 9.6 21.3 21.3 21.3 4.4 0 8 3.6 8 8s-3.6 8-8 8c-11.8 0-21.3 9.6-21.3 21.3 0 4.4-3.6 8-8 8z"/>
<use xlink:href="#B"/>
<use xlink:href="#B" x="-238.3" y="-66"/>
</g><defs >
<path id="B" d="M352.6 401.5a5.59 5.59 0 0 1-5.6-5.6c0-8.2-6.7-14.9-14.9-14.9a5.59 5.59 0 1 1 0-11.2c8.2 0 14.9-6.7 14.9-14.9a5.59 5.59 0 1 1 11.2 0c0 8.2 6.7 14.9 14.9 14.9a5.59 5.59 0 1 1 0 11.2c-8.2 0-14.9 6.7-14.9 14.9a5.59 5.59 0 0 1-5.6 5.6z"/></defs></svg>