<?xml version="1.0" encoding="UTF-8"?>
<svg width="368px" height="368px" viewBox="0 0 368 368" version="1.1" xmlns="http://www.w3.org/2000/svg" xmlns:xlink="http://www.w3.org/1999/xlink">
    <!-- Generator: Sketch 52.4 (67378) - http://www.bohemiancoding.com/sketch -->
    <title>Credits</title>
    <desc>Created with Sketch.</desc>
    <defs>
        <path d="M256,128 C256,198.691406 198.691406,256 128,256 C57.308594,256 0,198.691406 0,128 C0,57.308594 57.308594,0 128,0 C198.691406,0 256,57.308594 256,128 Z" id="path-1"></path>
    </defs>
    <g id="Page-1" stroke="none" stroke-width="1" fill="none" fill-rule="evenodd">
        <g id="Credits">
            <g id="Group-2" transform="translate(56.000000, 56.000000)">
                <g id="Path">
                    <mask id="mask-2" fill="white">
                        <use xlink:href="#path-1"></use>
                    </mask>
                    <use id="Mask" fill="#FFDDE2" xlink:href="#path-1"></use>
                    <path d="M150.375,30.449219 C148.289062,29.535156 146.152344,28.808594 144,28.160156 L144,0 L112,0 L112,28.230469 C110.503906,28.6875 109.007812,29.175781 107.535156,29.761719 C93.648438,35.265625 82.71875,45.839844 76.761719,59.566406 C64.496094,87.886719 77.550781,120.929688 106.257812,133.398438 L137.390625,145.960938 C143.28125,148.519531 147.824219,153.207031 150.183594,159.167969 C152.535156,165.121094 152.441406,171.617188 149.878906,177.488281 C144.632812,189.640625 130.480469,195.265625 118.375,190.039062 C109.640625,186.246094 104,177.601562 104,168 L104,152 L72,152 L72,168 C72,190.359375 85.199219,210.527344 105.664062,219.414062 C107.753906,220.3125 109.871094,221.03125 112,221.664062 L112,256 L144,256 L144,221.535156 C159.230469,216.921875 172.433594,205.921875 179.230469,190.230469 C185.199219,176.511719 185.441406,161.296875 179.929688,147.382812 C174.425781,133.503906 163.847656,122.566406 149.753906,116.457031 L118.617188,103.894531 C106.464844,98.617188 100.863281,84.433594 106.113281,72.3125 C108.671875,66.425781 113.359375,61.878906 119.320312,59.511719 C125.257812,57.160156 131.753906,57.257812 137.6875,59.839844 C146.257812,63.496094 152,71.601562 152,80 L152,96 L184,96 L184,80 C184,58.648438 170.777344,39.183594 150.375,30.449219 Z" fill="#FF486A" mask="url(#mask-2)"></path>
                </g>
            </g>
            <g id="Group" fill="#FF486A" fill-rule="nonzero">
                <path d="M184,0 C82.542969,0 0,82.535156 0,184 C0,285.464844 82.542969,368 184,368 C285.457031,368 368,285.464844 368,184 C368,82.535156 285.457031,0 184,0 Z M184,352 C91.359375,352 16,276.632812 16,184 C16,91.367188 91.359375,16 184,16 C276.640625,16 352,91.367188 352,184 C352,276.632812 276.640625,352 184,352 Z" id="Shape"></path>
            </g>
        </g>
    </g>
</svg>