<svg xmlns="http://www.w3.org/2000/svg" viewBox="0 0 512 512" ><path d="M234.7 376v-11c0-32.5 18-61.7 47.1-76.2 2.5-1.2 5.4-1.1 7.8.4s3.8 4 3.8 6.8v58.7c0 3-1.7 5.8-4.4 7.2l-42.7 21.3c-5.3 2.6-11.6-1.2-11.6-7.2zm137.7 7.2l-42.7-21.3c-2.7-1.4-4.4-4.1-4.4-7.2V296c0-2.8 1.4-5.3 3.8-6.8 2.4-1.4 5.3-1.6 7.8-.4C366 303.4 384 332.6 384 365v11c0 6-6.3 9.8-11.6 7.2h0z" fill="#ff486a"/><g fill="#ff92aa"><path d="M192 377.8l-52.9-52.9c-4.2-4.2 10.9-19.2 15.1-15.1l52.9 52.9c4.2 4.2-13 17.2-15.1 15.1zm2.5-61.6l-45.3-53.3c-3.8-4.5 12.4-18.3 16.3-13.8l45.3 53.3c3.8 4.5-14.2 16.3-16.3 13.8z"/><path d="M193.9 251.5l-37.3-53.3c-3.4-4.8 14.1-17.1 17.5-12.2l37.3 53.3c3.4 4.7-15.4 15.1-17.5 12.2zm6.1 79.2h-50.7c-5.9 0-10.7-4.8-10.7-10.7s4.8-10.7 10.7-10.7H200c5.9 0 10.7 4.8 10.7 10.7s-4.8 10.7-10.7 10.7z"/><path d="M282.7 266.7H157.3c-5.9 0-10.7-4.8-10.7-10.7s4.8-10.7 10.7-10.7h125.3c5.9 0 10.7 4.8 10.7 10.7s-4.7 10.7-10.6 10.7zm-2.7-64H168c-5.9 0-10.7-4.8-10.7-10.7s4.8-10.7 10.7-10.7h112c5.9 0 10.7 4.8 10.7 10.7s-4.8 10.7-10.7 10.7z"/><path d="M192 384h-48c-8.8 0-16-7.2-16-16 0-.5.1-1.7.1-2.1l30.7-219.5c1.5-10.5 10.5-18.4 21.1-18.4h12c11.8 0 21.3 9.6 21.3 21.3v213.3c.1 11.8-9.4 21.4-21.2 21.4zm-41.9-21.3H192V149.3h-12l-29.9 213.4z"/></g><path d="M340.4 177l-17.6-39.9c-2.5-5.6-7.7-9.1-13.5-9.1s-11 3.5-13.5 9.1L278.2 177c-.6 1.4-.9 2.8-.9 4.3V352c0 5.9 4.8 10.7 10.7 10.7h42.7c5.9 0 10.7-4.8 10.7-10.7V181.3c-.1-1.4-.4-2.9-1-4.3h0zm-31.1-17.6l10.7 24.2v19.1h-21.3v-19.1l10.6-24.2zm-10.6 181.9v-32H320v32h-21.3z" fill="#ff486a"/></svg>