<?xml version="1.0" encoding="utf-8"?>
<!-- Generator: Adobe Illustrator 22.0.0, SVG Export Plug-In . SVG Version: 6.00 Build 0)  -->
<svg version="1.1" id="Capa_1" xmlns="http://www.w3.org/2000/svg" xmlns:xlink="http://www.w3.org/1999/xlink" x="0px" y="0px"
	 viewBox="0 0 368 368" style="enable-background:new 0 0 368 368;" xml:space="preserve">
<style type="text/css">
	.st0{fill:#FFDDE2;}
	.st1{fill:#FF486A;}
</style>
<path class="st0" d="M242.7,70.2C283.9,91.5,312,134.5,312,184c0,70.7-57.3,128-128,128S56,254.7,56,184
	c0-49.5,28.1-92.5,69.3-113.8l24.8,41.4C122.9,124.3,104,152,104,184c0,44.2,35.8,80,80,80s80-35.8,80-80c0-32-18.9-59.7-46.1-72.4
	L242.7,70.2z"/>
<path class="st1" d="M184,368c101.5,0,184-82.5,184-184c0-67.8-37.1-129.9-96.8-162.1c0,0,0,0,0,0l0,0C244.6,7.6,214.4,0,184,0
	s-60.6,7.6-87.2,21.9l0,0c0,0,0,0,0,0C37.1,54.1,0,116.2,0,184C0,285.5,82.5,368,184,368z M256.2,32.2l-67.3,112.1
	c-3.3-0.4-6.6-0.4-9.8,0L111.8,32.2C156.6,11,211.4,11,256.2,32.2z M139,108.5C112.6,124.2,96,153,96,184c0,48.5,39.5,88,88,88
	s88-39.5,88-88c0-31-16.6-59.8-43-75.5L245.6,81c36.2,21.6,58.4,60.4,58.4,103c0,66.2-53.8,120-120,120S64,250.2,64,184
	c0-42.6,22.2-81.4,58.4-103L139,108.5z M190.5,160.9c0.1,0,0.1,0,0.2,0.1c10.2,2.9,17.3,12.4,17.3,23c0,13.2-10.8,24-24,24
	s-24-10.8-24-24c0-10.6,7.1-20.1,17.5-23.1c1.9-0.6,4.1-0.9,6.5-0.9S188.6,160.3,190.5,160.9z M144,184c0,22.1,17.9,40,40,40
	s40-17.9,40-40c0-14.3-7.8-27.2-19.7-34.3l16.4-27.4c21.6,12.9,35.2,36.3,35.2,61.7c0,39.7-32.3,72-72,72s-72-32.3-72-72
	c0-25.4,13.7-48.8,35.2-61.7l16.4,27.4C151.8,156.8,144,169.7,144,184z M97.8,39.9l16.4,27.4C73.2,91.8,48,135.7,48,184
	c0,75,61,136,136,136s136-61,136-136c0-48.3-25.2-92.2-66.2-116.7l16.4-27.4C320.8,70.2,352,124.7,352,184c0,92.6-75.4,168-168,168
	S16,276.6,16,184C16,124.7,47.2,70.2,97.8,39.9z"/>
</svg>
