<svg xmlns="http://www.w3.org/2000/svg" xmlns:xlink="http://www.w3.org/1999/xlink" width="512" height="512" xmlns:v="https://vecta.io/nano"><defs><path id="A" d="M0 .067h287.63v251.632H0z"/><path id="B" d="M.562.207h140.774v141.18H.562z"/></defs><g transform="translate(111 129)" fill="none" fill-rule="evenodd"><g transform="translate(0 2)"><mask id="C" fill="#fff"><use xlink:href="#A"/></mask><path d="M41.556 161.877c-8.734 16.154-16.137 29.976-17.07 46.136-.847 14.66 3.851 19.435 18.155 18.637 11.361-.633 21.844-4.285 32.695-10.373-15.285-15.216-26.2-32.493-33.78-54.4m80.666 55.644c48.888 25.75 115.017-1.463 135.783-55.213 2.16-5.591 3.55-11.495 5.073-17.312 2.04-7.79 6.035-13.59 14.953-11.73 9.736 2.031 10.725 9.641 8.775 17.717-10.998 45.538-38.167 77.242-82.332 93.166-33.564 12.103-66.893 9.506-98.618-6.728-7.084-3.626-12.064-3.118-18.537.29-14.429 7.599-29.651 13.224-46.228 13.502-25.416.428-41.418-15.173-41.088-40.505.338-25.933 12.11-47.97 25.783-68.913 6.298-9.645 10.108-19.021 11.272-30.886 5.281-53.855 43.945-96.911 96.675-109.544 3.261-.782 6.685-1.39 10.008-1.288 5.526.173 9.127 3.434 10.388 8.754 1.371 5.783-.545 10.658-5.923 13.296-3.315 1.626-7.194 2.089-10.806 3.124-37.357 10.71-62.832 34.332-73.032 71.82-10.133 37.246-1.282 70.692 25.328 99.309 6.216 6.683 10.621 6.644 17.774 1.281 24.314-18.229 45.874-39.105 64.306-63.238l5.432-7.235c4.939-6.219 11.135-8.282 17.69-3.252 6.601 5.065 5.906 11.686 1.418 18.014-13.134 18.522-28.023 35.537-44.875 50.745-9.401 8.484-19.293 16.424-29.219 24.825" fill="#ff92aa" mask="url(#C)"/></g><g transform="translate(148)"><mask id="D" fill="#fff"><use xlink:href="#B"/></mask><path d="M74.878 92.544c1.182-.616 2.748-1.008 3.702-1.991 16.527-17.027 32.453-34.397 36.952-59.029 1.041-5.702-.568-6.538-5.771-5.403-18.121 3.951-33.064 13.015-46.589 25.66-15.975 14.936-16.517 14.478-1.211 29.573 3.95 3.894 7.205 8.674 12.916 11.19m53.21 2.799c.014 21.183-15.988 41.899-32.751 45.809-4.505 1.05-6.983-1.608-9.743-4.124-28.214-25.723-55.08-52.783-81.047-80.769-5.081-5.475-5.097-9.772-1.219-15.755 10.656-16.442 23.2-32.194 44.798-26.236 15.117 4.169 26.191-.755 38.68-5.906C98.943 3.357 111.659.154 124.964.207c12.072.049 16.452 4.171 16.373 16.007-.123 17.935-5.046 34.829-13.413 50.446-3.698 6.901-5.309 12.459-1.353 19.683 1.84 3.36 1.373 7.982 1.518 8.999" fill="#ff486a" mask="url(#D)"/></g></g></svg>