<?xml version="1.0" encoding="UTF-8"?>
<svg width="65px" height="65px" viewBox="0 0 65 65" version="1.1" xmlns="http://www.w3.org/2000/svg" xmlns:xlink="http://www.w3.org/1999/xlink">
    <!-- Generator: Sketch 58 (84663) - https://sketch.com -->
    <title>Path_2520</title>
    <desc>Created with Sketch.</desc>
    <g id="Page-1" stroke="none" stroke-width="1" fill="none" fill-rule="evenodd">
        <g id="LI-Bug.svg.original" transform="translate(-1.000000, -1.000000)" fill="#0A66C2" fill-rule="nonzero">
            <path d="M56.204,56.204 L46.604,56.204 L46.604,41.17 C46.604,37.585 46.54,32.97 41.611,32.97 C36.611,32.97 35.846,36.876 35.846,40.909 L35.846,56.203 L26.246,56.203 L26.246,25.287 L35.462,25.287 L35.462,29.512 L35.591,29.512 C37.4701946,26.2989531 40.9643254,24.3799287 44.684,24.518 C54.414,24.518 56.208,30.918 56.208,39.244 L56.204,56.204 Z M15.414,21.0610001 C12.3372217,21.0615522 9.84255245,18.5677783 9.84200009,15.4910001 C9.84144791,12.4142218 12.3352218,9.91955248 15.4120001,9.91900009 C18.4887783,9.91844788 20.9834477,12.4122217 20.9840001,15.489 C20.9842652,16.9665211 20.3975766,18.3836321 19.352999,19.4285848 C18.3084214,20.4735375 16.8915211,21.0607348 15.414,21.0610001 M20.214,56.204 L10.604,56.204 L10.604,25.287 L20.214,25.287 L20.214,56.204 Z M60.99,1.004 L5.78,1.004 C3.17066137,0.974553614 1.03084555,3.06468955 0.999,5.674 L0.999,61.113 C1.02975524,63.7235677 3.16939886,65.8157731 5.78,65.7883806 L60.99,65.7883806 C63.6057657,65.8208054 65.7537885,63.7287208 65.79,61.113 L65.79,5.67 C65.7527006,3.05553485 63.6045038,0.965518385 60.99,0.999579401" id="Path_2520"></path>
        </g>
    </g>
</svg>