<svg xmlns="http://www.w3.org/2000/svg" viewBox="0 0 512 512" ><g fill="#ff486a"><path d="M296.8 384c-23.3 0-45.2-9.1-61.7-25.5-.3-.3-.5-.5-.7-.8L131.1 254.4a10.677 10.677 0 1 1 15.1-15.1l104.1 104.1c.2.2.4.5.7.7 12.4 12 28.6 18.6 45.9 18.6 36.3 0 65.9-29.5 65.9-65.9 0-17.3-6.6-33.6-18.7-45.9-.2-.2-.4-.4-.7-.6L239.3 146.2a10.677 10.677 0 1 1 15.1-15.1l103.4 103.4c.3.2.5.4.7.7 16.5 16.5 25.5 38.4 25.5 61.6 0 48.1-39.1 87.2-87.2 87.2h0zm-22.6-163.1a10.62 10.62 0 0 1-15.1 0l-34.7-34.7a10.677 10.677 0 1 1 15.1-15.1l34.7 34.7a10.62 10.62 0 0 1 0 15.1h0z"/><path d="M205.8 274.2l-10.7-10.7a10.677 10.677 0 1 1 15.1-15.1l10.7 10.7a10.677 10.677 0 1 1-15.1 15.1zm-42.7-42.7l-32-32a10.677 10.677 0 1 1 15.1-15.1l32 32a10.62 10.62 0 0 1 0 15.1c-4.1 4.2-10.9 4.2-15.1 0zm0-53.3l-32-32a10.677 10.677 0 1 1 15.1-15.1l32 32a10.677 10.677 0 1 1-15.1 15.1zm32-21.3l-10.7-10.7a10.677 10.677 0 1 1 15.1-15.1l10.7 10.7a10.62 10.62 0 0 1 0 15.1c-4.2 4.2-10.9 4.1-15.1 0zm21.4 74.6l-21.3-21.3a10.677 10.677 0 1 1 15.1-15.1l21.3 21.3a10.62 10.62 0 0 1 0 15.1c-4.2 4.2-11 4.2-15.1 0z"/></g><path d="M245.4 298.7c0 29.4 23.9 53.3 53.3 53.3s53.3-23.9 53.3-53.3-23.9-53.3-53.3-53.3c-29.4-.1-53.4 23.9-53.3 53.3zm45.7 31c-14-3.4-24.4-16-24.4-31 0-17.6 14.4-32 32-32 4.6 0 8.9 1 12.9 2.8-1.3 3.3-2.2 6.9-2.2 10.6 0 12.8 8.4 23.7 19.9 27.6-2.5 8.5-8.4 15.5-16.2 19.5-3.5-12.4-12.4-22.8-24.7-27.8-5.4-2.2-11.7.3-13.9 5.8-2.3 5.4.3 11.7 5.8 13.9 4.9 1.9 8.6 5.9 10.8 10.6h0z" fill="#ff92aa"/></svg>