<?xml version="1.0" encoding="utf-8"?>
<!-- Generator: Adobe Illustrator 22.0.0, SVG Export Plug-In . SVG Version: 6.00 Build 0)  -->
<svg version="1.1" id="Calque_1" xmlns="http://www.w3.org/2000/svg" xmlns:xlink="http://www.w3.org/1999/xlink" x="0px" y="0px"
	 viewBox="0 0 1440 396.8" style="enable-background:new 0 0 1440 396.8;" xml:space="preserve">
<style type="text/css">
	.st0{fill:url(#SVGID_1_);}
</style>
<title>Fill 1</title>
<desc>Created with Sketch.</desc>
<g id="Artboards">
	<g id="Desktop-HD" transform="translate(0.000000, -757.000000)">
		
			<radialGradient id="SVGID_1_" cx="1631.0101" cy="1759.7915" r="1.5634" gradientTransform="matrix(-374.3122 1071.792 -934.3372 -429.3791 2255447 -992100.4375)" gradientUnits="userSpaceOnUse">
			<stop  offset="0" style="stop-color:#1059B5"/>
			<stop  offset="0.1291" style="stop-color:#0D49A0"/>
			<stop  offset="0.3816" style="stop-color:#082D7C"/>
			<stop  offset="0.6186" style="stop-color:#051962"/>
			<stop  offset="0.8316" style="stop-color:#030D52"/>
			<stop  offset="1" style="stop-color:#02094D"/>
		</radialGradient>
		<path class="st0" d="M1444.7,1162.1V754.3c-0.4,0.7-0.8,3-1.4,3.6c-42.5,44.8-91.9,81-141,110.2c-51.9,30.8-105.7,40.6-164.3,29.7
			c-17-3.1-34.5-7.5-53.6-13.3c-31.9-9.8-63.8-22.4-93.7-34.5c-33.7-13.6-72.9-29.2-112.6-41.4c-71.1-21.8-129.5-28.4-183.9-20.7
			c-46.3,6.6-87.9,29.2-128.1,51.1c-14.4,7.8-29.2,15.9-44,23.1C459,892.7,398.9,897.7,333,877.5c-1.9-0.5-3.9-1.2-5.8-1.9
			c-31.4-10.2-61.8-24.5-91.1-38.2c-31.1-14.5-63.2-29.6-96.3-39.6c-17.5-5.4-34-9-50.3-11c-32.8-4.2-63.8-3.9-94.3-1.1v376.5
			L1444.7,1162.1L1444.7,1162.1z"/>
	</g>
</g>
<title>Fill 1</title>
<desc>Created with Sketch.</desc>
</svg>
