<?xml version="1.0" encoding="UTF-8"?>
<svg width="1440px" height="267px" viewBox="0 0 1440 267" version="1.1" xmlns="http://www.w3.org/2000/svg" xmlns:xlink="http://www.w3.org/1999/xlink">
    <!-- Generator: Sketch 52.4 (67378) - http://www.bohemiancoding.com/sketch -->
    <title>Fill 1</title>
    <desc>Created with Sketch.</desc>
    <defs>
        <radialGradient cx="50%" cy="0%" fx="50%" fy="0%" r="151.698875%" gradientTransform="translate(0.500000,0.000000),scale(0.519344,1.000000),rotate(83.168077),translate(-0.500000,-0.000000)" id="radialGradient-1">
            <stop stop-color="#1059B5" offset="0%"></stop>
            <stop stop-color="#02094D" offset="100%"></stop>
        </radialGradient>
    </defs>
    <g id="Artboards" stroke="none" stroke-width="1" fill="none" fill-rule="evenodd">
        <g id="Desktop-HD" transform="translate(0.000000, -757.000000)" fill="url(#radialGradient-1)">
            <path d="M1358.35826,1276.01399 C1294.05519,1275.94365 1237.48738,1267.91426 1190.2257,1252.14725 C1170.55598,1245.5858 1152.11878,1236.30281 1134.2896,1227.32546 C1122.06847,1221.17113 1109.43246,1214.80975 1096.58031,1209.42427 C1061.70273,1194.80761 1019.02345,1190.08579 978.299473,1186.50074 C953.430081,1184.3125 927.689207,1183.23279 899.600258,1183.20207 C839.463451,1183.13629 778.392615,1188.04631 719.333284,1192.79566 C702.703818,1194.13289 685.508318,1195.51433 668.630903,1196.76166 C643.901672,1198.58958 619.237276,1199.50156 595.322939,1199.4754 C504.731611,1199.3763 421.502018,1186.03267 347.948776,1159.81541 C295.389971,1141.08144 246.568848,1113.68665 199.353676,1087.19432 C179.58034,1076.09972 159.133388,1064.62618 138.698971,1053.95169 C73.8381797,1020.07047 3.7402729,994.534705 -69.6516922,978.050468 L-70.0390805,478.271042 C-55.3902466,489.249634 -42.3038115,501.702185 -33.8323347,510.299836 C-12.3369945,532.110757 4.93705328,558.266454 19.4425139,581.07209 C43.6294178,619.09862 67.8734875,655.540237 98.4604174,683.41134 C132.716871,714.624744 172.120485,732.137561 218.922008,736.949151 C232.474177,738.342358 246.67052,739.027949 262.321439,739.04507 C288.484561,739.073689 315.172924,737.167026 340.264341,735.212707 C368.476693,733.014764 401.300904,730.673206 433.857628,730.70882 C492.154412,730.77259 538.059542,738.379315 578.321424,754.646952 C612.629972,768.507659 640.410691,792.150911 667.275562,815.014883 C676.868115,823.178712 686.787415,831.620541 696.837345,839.468968 C739.644946,872.904134 784.780458,888.502668 838.881179,888.560755 C840.463789,888.562486 842.065456,888.550028 843.66473,888.525544 C869.572492,888.12758 895.348141,884.872143 920.276559,881.723994 C946.670651,878.389438 973.962025,874.942182 1001.09759,874.971866 C1015.48886,874.987608 1028.7237,875.949792 1041.56008,877.913901 C1099.0187,886.705053 1146.05975,908.425865 1195.86421,931.419867 C1217.81051,941.552741 1240.50309,952.031848 1264.17553,961.30963 C1315.74397,981.523656 1365.99976,991.797899 1413.54838,991.849912 C1431.32176,991.869354 1448.89857,990.434776 1465.80454,987.586102 L1466.02095,1266.78259 C1421.94743,1271.38219 1372.18815,1275.93402 1365.34174,1275.98993 C1363.02028,1276.00816 1360.69404,1276.01655 1358.35826,1276.01399" id="Fill-1" transform="translate(697.990935, 877.142742) scale(-1, 1) rotate(-15.000000) translate(-697.990935, -877.142742) "></path>
        </g>
    </g>
</svg>