<?xml version="1.0" encoding="utf-8"?>
<!-- Generator: Adobe Illustrator 22.0.0, SVG Export Plug-In . SVG Version: 6.00 Build 0)  -->
<svg version="1.1" id="Calque_1" xmlns="http://www.w3.org/2000/svg" xmlns:xlink="http://www.w3.org/1999/xlink" x="0px" y="0px"
	 viewBox="0 0 1920 494.8" style="enable-background:new 0 0 1920 494.8;" xml:space="preserve">
<style type="text/css">
	.st0{fill:url(#SVGID_1_);}
</style>
<title>Fill 1</title>
<desc>Created with Sketch.</desc>
<g id="Artboards">
	<g id="Desktop-HD" transform="translate(0.000000, -757.000000)">
		
			<radialGradient id="SVGID_1_" cx="1891.0798" cy="-523.7673" r="1.6869" gradientTransform="matrix(-503.0627 1080.9558 1255.7172 433.0503 1609998.375 -1816969.75)" gradientUnits="userSpaceOnUse">
			<stop  offset="0" style="stop-color:#1059B5"/>
			<stop  offset="0.1291" style="stop-color:#0D49A0"/>
			<stop  offset="0.3816" style="stop-color:#082D7C"/>
			<stop  offset="0.6186" style="stop-color:#051962"/>
			<stop  offset="0.8316" style="stop-color:#030D52"/>
			<stop  offset="1" style="stop-color:#02094D"/>
		</radialGradient>
		<path class="st0" d="M1939.9,1279V754.3c-0.5,0.7-1.1,3-1.9,3.6c-57.1,45.2-123.5,81.7-189.5,111.1
			c-69.8,31.1-142.1,40.9-220.8,30c-22.8-3.1-46.4-7.6-72-13.4c-42.9-9.9-85.7-22.6-125.9-34.8c-45.3-13.7-98-29.4-151.3-41.8
			c-95.6-22-174-28.6-247.2-20.9c-62.2,6.7-118.1,29.4-172.2,51.5c-19.4,7.9-39.2,16-59.1,23.3c-84.8,30.9-165.6,35.9-254.1,15.5
			c-2.6-0.5-5.2-1.2-7.8-1.9c-42.2-10.3-83.1-24.7-122.4-38.5c-41.8-14.6-84.9-29.9-129.4-39.9c-23.5-5.4-45.7-9.1-67.6-11.1
			c-44.1-4.2-85.7-3.9-126.7-1.1v493H1939.9z"/>
	</g>
</g>
<title>Fill 1</title>
<desc>Created with Sketch.</desc>
</svg>
