<?xml version="1.0" encoding="UTF-8"?>
<svg width="286px" height="63px" viewBox="0 0 286 63" version="1.1" xmlns="http://www.w3.org/2000/svg" xmlns:xlink="http://www.w3.org/1999/xlink">
    <!-- Generator: Sketch 52.4 (67378) - http://www.bohemiancoding.com/sketch -->
    <title>Group</title>
    <desc>Created with Sketch.</desc>
    <defs>
        <linearGradient x1="-0.00277793211%" y1="50.0006371%" x2="100%" y2="50.0006371%" id="linearGradient-1">
            <stop stop-color="#C8C8C8" offset="0%"></stop>
            <stop stop-color="#CDCDCD" offset="100%"></stop>
        </linearGradient>
        <linearGradient x1="-0.00234356691%" y1="49.9996311%" x2="100%" y2="49.9996311%" id="linearGradient-2">
            <stop stop-color="#D9D9D9" offset="0%"></stop>
            <stop stop-color="#E2E2E2" offset="100%"></stop>
        </linearGradient>
    </defs>
    <g id="Page-1" stroke="none" stroke-width="1" fill="none" fill-rule="evenodd">
        <g id="Group">
            <g id="lockup_gsuite" fill="#FFFFFF">
                <g id="XMLID_54_">
                    <g id="XMLID_55_">
                        <path d="M26.7053872,10.2405405 C25.5824916,9.0972973 24.3619529,8.22162162 23.0681818,7.61351351 C21.7744108,7.00540541 20.1388889,6.71351351 18.2592593,6.71351351 C16.7457912,6.71351351 15.3055556,6.98108108 13.962963,7.51621622 C12.6203704,8.05135135 11.4486532,8.80540541 10.4478114,9.77837838 C9.42255892,10.7513514 8.61700337,11.9432432 8.03114478,13.3297297 C7.4452862,14.7162162 7.1523569,16.2486486 7.1523569,17.9513514 C7.1523569,19.6540541 7.4452862,21.1864865 8.03114478,22.572973 C8.61700337,23.9594595 9.42255892,25.127027 10.4478114,26.1 C11.473064,27.072973 12.6691919,27.8513514 14.0117845,28.3864865 C15.3543771,28.9216216 16.8190236,29.1891892 18.3569024,29.1891892 C19.9924242,29.1891892 21.4326599,28.9702703 22.6531987,28.5081081 C23.8737374,28.0459459 24.9234007,27.4135135 25.8021886,26.6351351 C26.3880471,26.1 26.9250842,25.4432432 27.3888889,24.6648649 C27.8526936,23.8621622 28.2188552,22.9864865 28.4873737,22.0135135 L18.1616162,22.0135135 L18.1616162,16.1756757 L35.0050505,16.1756757 C35.1026936,16.5648649 35.1759259,17.027027 35.2491582,17.6108108 C35.3223906,18.1945946 35.3468013,18.7297297 35.3468013,19.2891892 C35.3468013,21.6 35.0050505,23.6918919 34.3215488,25.6135135 C33.6380471,27.5351351 32.5883838,29.2135135 31.2213805,30.6972973 C29.6835017,32.327027 27.8526936,33.5675676 25.7045455,34.4675676 C23.5563973,35.3675676 21.0909091,35.8054054 18.3324916,35.8054054 C15.8425926,35.8054054 13.4991582,35.3675676 11.3021886,34.4675676 C9.10521886,33.5675676 7.17676768,32.327027 5.51683502,30.7459459 C3.88131313,29.1648649 2.58754209,27.2918919 1.61111111,25.127027 C0.634680135,22.9621622 0.170875421,20.5540541 0.170875421,17.9756757 C0.170875421,15.3972973 0.659090909,13.0135135 1.61111111,10.8243243 C2.56313131,8.63513514 3.85690236,6.76216216 5.51683502,5.18108108 C7.1523569,3.6 9.08080808,2.38378378 11.3021886,1.48378378 C13.523569,0.583783784 15.8670034,0.145945946 18.3324916,0.145945946 C21.1641414,0.145945946 23.6784512,0.632432432 25.8510101,1.60540541 C28.023569,2.57837838 29.9031987,3.91621622 31.489899,5.61891892 L26.7053872,10.2405405 Z" id="XMLID_69_"></path>
                        <g id="XMLID_56_" transform="translate(46.380471, 0.000000)">
                            <path d="M23.6052189,25.9054054 C23.6052189,28.8972973 22.506734,31.3054054 20.3097643,33.1297297 C18.0883838,34.9054054 15.3787879,35.8054054 12.1809764,35.8054054 C9.3493266,35.8054054 6.83501684,34.9783784 4.66245791,33.3243243 C2.48989899,31.6702703 1.00084175,29.4081081 0.170875421,26.5621622 L4.36952862,24.8351351 C4.66245791,25.8567568 5.0530303,26.7810811 5.56565657,27.6081081 C6.07828283,28.4351351 6.66414141,29.1405405 7.3476431,29.7243243 C8.03114478,30.3081081 8.78787879,30.7702703 9.61784512,31.1108108 C10.4478114,31.4513514 11.3265993,31.6216216 12.2542088,31.6216216 C14.2558923,31.6216216 15.9158249,31.1108108 17.1851852,30.0648649 C18.4545455,29.0432432 19.0892256,27.6567568 19.0892256,25.9540541 C19.0892256,24.5189189 18.5521886,23.3027027 17.5025253,22.2810811 C16.5260943,21.3081081 14.6708754,20.3351351 11.9612795,19.4108108 C9.22727273,18.4378378 7.51851852,17.7567568 6.83501684,17.4162162 C3.19781145,15.5675676 1.39141414,12.8675676 1.39141414,9.26756757 C1.39141414,6.76216216 2.39225589,4.62162162 4.39393939,2.84594595 C6.44444444,1.07027027 8.93434343,0.17027027 11.9124579,0.17027027 C14.5244108,0.17027027 16.7946128,0.827027027 18.6986532,2.16486486 C20.6026936,3.47837838 21.8964646,5.10810811 22.5311448,7.07837838 L18.4545455,8.75675676 C18.0639731,7.49189189 17.3072391,6.42162162 16.1843434,5.59459459 C15.0614478,4.74324324 13.6700337,4.32972973 12.0589226,4.32972973 C10.3257576,4.32972973 8.88552189,4.81621622 7.71380471,5.76486486 C6.54208754,6.64054054 5.95622896,7.80810811 5.95622896,9.21891892 C5.95622896,10.3864865 6.42003367,11.4081081 7.3476431,12.2594595 C8.37289562,13.1108108 10.5942761,14.1324324 13.9873737,15.3 C17.4537037,16.4675676 19.9436027,17.927027 21.4326599,19.6297297 C22.8728956,21.3324324 23.6052189,23.4243243 23.6052189,25.9054054 Z" id="XMLID_67_"></path>
                            <path d="M47.9915825,35.027027 L43.7929293,35.027027 L43.7929293,31.7918919 L43.5976431,31.7918919 C42.9385522,32.9351351 41.8888889,33.8837838 40.5218855,34.6621622 C39.1304714,35.4162162 37.6902357,35.8054054 36.2011785,35.8054054 C33.3207071,35.8054054 31.1237374,34.9783784 29.5858586,33.3486486 C28.0479798,31.7189189 27.266835,29.3837838 27.266835,26.3675676 L27.266835,11.6756757 L31.6607744,11.6756757 L31.6607744,26.0756757 C31.7584175,29.8945946 33.6868687,31.7918919 37.4461279,31.7918919 C39.2037037,31.7918919 40.6683502,31.0864865 41.8400673,29.6756757 C43.0117845,28.2648649 43.5976431,26.5621622 43.5976431,24.5918919 L43.5976431,11.6756757 L47.9915825,11.6756757 L47.9915825,35.027027 Z" id="XMLID_65_"></path>
                            <path d="M58.0244108,3.62432432 C58.0244108,4.47567568 57.7314815,5.20540541 57.1212121,5.81351351 C56.5109428,6.42162162 55.7786195,6.71351351 54.9242424,6.71351351 C54.0698653,6.71351351 53.3375421,6.42162162 52.7272727,5.81351351 C52.1170034,5.20540541 51.8240741,4.47567568 51.8240741,3.62432432 C51.8240741,2.77297297 52.1170034,2.04324324 52.7272727,1.43513514 C53.3375421,0.827027027 54.0698653,0.535135135 54.9242424,0.535135135 C55.7786195,0.535135135 56.5109428,0.827027027 57.1212121,1.43513514 C57.7314815,2.04324324 58.0244108,2.77297297 58.0244108,3.62432432 Z M57.1212121,11.6756757 L57.1212121,35.027027 L52.7272727,35.027027 L52.7272727,11.6756757 L57.1212121,11.6756757 Z" id="XMLID_62_" fill-rule="nonzero"></path>
                            <path d="M70.6203704,35.4162162 C68.71633,35.4162162 67.1296296,34.8324324 65.8602694,33.6648649 C64.5909091,32.4972973 63.956229,30.8432432 63.9318182,28.7513514 L63.9318182,15.6891892 L59.8063973,15.6891892 L59.8063973,11.6756757 L63.9074074,11.6756757 L63.9074074,4.52432432 L68.3013468,4.52432432 L68.3013468,11.6756757 L74.0378788,11.6756757 L74.0378788,15.6891892 L68.3013468,15.6891892 L68.3013468,27.3162162 C68.3013468,28.872973 68.5942761,29.9189189 69.2045455,30.4783784 C69.8148148,31.0378378 70.4983165,31.3054054 71.2550505,31.3054054 C71.5968013,31.3054054 71.9385522,31.2567568 72.280303,31.1837838 C72.6220539,31.1108108 72.9149832,30.9891892 73.2079125,30.8675676 L74.5993266,34.7837838 C73.5008418,35.1972973 72.1582492,35.4162162 70.6203704,35.4162162 Z" id="XMLID_60_"></path>
                            <path d="M87.0732323,35.7810811 C83.6313131,35.7810811 80.7996633,34.6135135 78.5538721,32.2540541 C76.3324916,29.8945946 75.209596,26.927027 75.209596,23.3513514 C75.209596,19.8 76.28367,16.8324324 78.456229,14.472973 C80.6287879,12.1135135 83.3872054,10.9216216 86.780303,10.9216216 C90.246633,10.9216216 93.0294613,12.0405405 95.0799663,14.2783784 C97.1304714,16.5162162 98.1557239,19.6540541 98.1557239,23.6918919 L98.1069024,24.1783784 L79.7011785,24.1783784 C79.7744108,26.4648649 80.5311448,28.3135135 81.9957912,29.7 C83.4604377,31.0864865 85.2180135,31.7918919 87.2685185,31.7918919 C90.0757576,31.7918919 92.2727273,30.4054054 93.8594276,27.6081081 L97.7895623,29.5054054 C96.739899,31.4756757 95.2752525,33.0081081 93.4200337,34.127027 C91.540404,35.2216216 89.4166667,35.7810811 87.0732323,35.7810811 Z M80.0429293,20.5297297 L93.493266,20.5297297 C93.3712121,18.9 92.7121212,17.5621622 91.5159933,16.4918919 C90.3198653,15.4216216 88.7087542,14.8864865 86.7070707,14.8864865 C85.047138,14.8864865 83.6313131,15.3972973 82.4351852,16.4189189 C81.2146465,17.4648649 80.4335017,18.827027 80.0429293,20.5297297 Z" id="XMLID_57_" fill-rule="nonzero"></path>
                        </g>
                    </g>
                </g>
            </g>
            <g id="Gmail_Icon" transform="translate(227.000000, 9.000000)">
                <path d="M55.3125,44 L3.6875,44 C1.65077083,44 0,42.3585556 0,40.3333333 L0,3.66666667 C0,1.64144444 1.65077083,0 3.6875,0 L55.3125,0 C57.3492292,0 59,1.64144444 59,3.66666667 L59,40.3333333 C59,42.3585556 57.3492292,44 55.3125,44 Z" id="Path" fill="#EAEAEA"></path>
                <path d="M8,44 L4,44 C1.79066667,44 0,42.3585556 0,40.3333333 L0,3.66666667 C0,1.64144444 1.79066667,0 4,0 C6.20933333,0 8,1.64144444 8,3.66666667 L8,44 Z" id="Path" fill="#D54C3F"></path>
                <path d="M51,44 L55,44 C57.2093333,44 59,42.3585556 59,40.3333333 L59,3.66666667 C59,1.64144444 57.2093333,0 55,0 C52.7906667,0 51,1.64144444 51,3.66666667 L51,44 Z" id="Path" fill="#B63524"></path>
                <path d="M57.4242083,6.45272727 C58.3768125,5.811 59,4.74854545 59,3.54545455 C59,1.58718182 57.3492292,0 55.3125,0 C54.5270625,0 53.7981667,0.236363636 53.2007917,0.638181818 C53.2007917,0.638181818 29.5024583,17.2273636 29.5024583,17.2273636 L29.5,17.2285455 L29.4975417,17.2273636 L5.79920833,0.638181818 C5.20183333,0.236363636 4.4729375,0 3.6875,0 C1.65077083,0 0,1.58718182 0,3.54545455 C0,4.74854545 0.6231875,5.811 1.57579167,6.45272727 L1.47745833,6.383 L29.5,26" id="Path" fill="#DE5145"></path>
                <path d="M58,7 L30,27" id="Path" fill="#DE5145"></path>
                <path d="M56,0 C55.2240714,0 54.504,0.246947455 53.9138571,0.666758129 C53.9138571,0.666758129 30.5024286,17.9987653 30.5024286,17.9987653 L30.5,18 L30.4975714,17.9987653 L7.08614286,0.666758129 C6.496,0.246947455 5.77592857,0 5,0 L56,0 Z" id="Path" fill="#EFEFEF"></path>
                <path d="M7.99861633,12.9500397 L1.00276735,6 L1,6.00555115 C1.1466693,6.1443299 1.30302431,6.27200634 1.46906503,6.38858049 L1.35837122,6.30670103 L8,11.1570182 L7.99861633,13" id="Path" fill="#C64132"></path>
                <polyline id="Path" fill="#E3E3E3" points="25 29.9240467 8 44 8.00115899 12 24.996523 29.9191117"></polyline>
                <polygon id="Path" fill="url(#linearGradient-1)" points="25.9273293 31 30 27.6983116 8 11 8 12.4870978 25.9236624 30.9949028"></polygon>
                <polygon id="Path" fill="url(#linearGradient-2)" points="39.88779 44 52 44 52 11 30.0642137 26.9551743 26 30.1048146"></polygon>
            </g>
            <g id="google-sheets-logo" transform="translate(166.000000, 3.000000)">
                <path d="M39,49.9509461 C38.9883956,50.7712657 38.6522139,51.5533555 38.0654291,52.1251218 C37.4786444,52.6968881 36.6893364,53.0114821 35.8711864,52.9996795 L3.12881356,52.9996795 C2.31066372,53.0114821 1.52135559,52.6968881 0.934570875,52.1251218 C0.347786153,51.5533555 0.0116043871,50.7712657 0,49.9509461 L0,3.04905394 C0.0116043871,2.22873424 0.347786153,1.44664457 0.934570875,0.874878251 C1.52135559,0.303111934 2.31066372,-0.0114820454 3.12881356,0.000320496426 L24.1711864,0.000320496426 L39,14.8242346 L39,49.9509461 Z" id="Path" fill="#22A466"></path>
                <polygon id="Path" fill="#1A8E5A" points="26 14 39 26 38.9565943 14.3447038"></polygon>
                <path d="M39,14.9996757 L27.1602374,14.9996757 C26.3338705,15.0116182 25.5366352,14.6932942 24.9439571,14.1147486 C24.3512791,13.5362031 24.0117209,12.7448405 24,11.9147946 L24,0 L39,14.9996757 Z" id="Path" fill="#8ECEAF"></path>
                <path d="M20.2269273,40.5495495 L20.2269273,37.9240669 L26.5027144,37.9240669 L26.5027144,40.5495495 L20.2269273,40.5495495 Z M11.4538545,37.9240669 L17.7296417,37.9240669 L17.7296417,40.5495495 L11.4538545,40.5495495 L11.4538545,37.9240669 Z M17.7513572,36.1081081 L11.47557,36.1081081 L11.47557,33.2857143 L17.7513572,33.2857143 L17.7513572,36.1081081 Z M17.7513572,28.4285714 L17.7513572,31.4478764 L11.47557,31.4478764 L11.47557,28.4285714 L17.7513572,28.4285714 Z M20.2269273,33.2857143 L26.5027144,33.2857143 L26.5027144,36.1081081 L20.2269273,36.1081081 L20.2269273,33.2857143 Z M26.5027144,31.4478764 L20.2269273,31.4478764 L20.2269273,28.4285714 L26.5027144,28.4285714 L26.5027144,31.4478764 Z M9,26 L9,43 L29,43 L29,26 L9,26 Z" id="Shape" fill="#FFFFFF" fill-rule="nonzero"></path>
            </g>
            <text id="verified-partner" font-family="GoogleSans-Regular, Google Sans" font-size="20.5" font-weight="normal" fill="#FFFFFF">
                <tspan x="0" y="58">verified partner  </tspan>
            </text>
        </g>
    </g>
</svg>