<?xml version="1.0" encoding="UTF-8"?>
<svg width="286px" height="63px" viewBox="0 0 286 63" version="1.1" xmlns="http://www.w3.org/2000/svg" xmlns:xlink="http://www.w3.org/1999/xlink">
    <!-- Generator: Sketch 52.4 (67378) - http://www.bohemiancoding.com/sketch -->
    <title>gsuite-verified</title>
    <desc>Created with Sketch.</desc>
    <defs>
        <path d="M0.1435,47.545 L2.009,47.545 L5.248,55.95 L5.289,55.95 L8.569,47.545 L10.3935,47.545 L6.1295,58 L4.3665,58 L0.1435,47.545 Z M16.1745,58.328 C15.1768283,58.328 14.2816706,58.0888357 13.489,57.6105 C12.6963294,57.1321643 12.0779189,56.4727542 11.63375,55.63225 C11.1895811,54.7917458 10.9675,53.8453386 10.9675,52.793 C10.9675,51.7816616 11.1759146,50.8523376 11.59275,50.005 C12.0095854,49.1576624 12.6006628,48.4811692 13.366,47.9755 C14.1313372,47.4698308 15.0196616,47.217 16.031,47.217 C17.0560051,47.217 17.9443296,47.4459144 18.696,47.90375 C19.4476704,48.3615856 20.0250813,48.9936626 20.42825,49.8 C20.8314187,50.6063374 21.033,51.5288281 21.033,52.5675 C21.033,52.772501 21.0125002,52.9501659 20.9715,53.1005 L12.71,53.1005 C12.7510002,53.8931706 12.9423316,54.5628306 13.284,55.1095 C13.6256684,55.6561694 14.0595807,56.0661653 14.58575,56.3395 C15.1119193,56.6128347 15.6619971,56.7495 16.236,56.7495 C17.57534,56.7495 18.607163,56.1208396 19.3315,54.8635 L20.8075,55.581 C20.3564977,56.4283376 19.7449205,57.0979975 18.97275,57.59 C18.2005795,58.0820025 17.2678388,58.328 16.1745,58.328 Z M19.188,51.6655 C19.1606665,51.2281645 19.0376678,50.7908355 18.819,50.3535 C18.6003322,49.9161645 18.2552524,49.5471682 17.78375,49.2465 C17.3122476,48.9458318 16.7211702,48.7955 16.0105,48.7955 C15.1904959,48.7955 14.4969195,49.0585807 13.92975,49.58475 C13.3625805,50.1109193 12.9901676,50.8044957 12.8125,51.6655 L19.188,51.6655 Z M23.0625,47.545 L24.723,47.545 L24.723,49.226 L24.805,49.226 C25.010001,48.6519971 25.4063304,48.1770852 25.994,47.80125 C26.5816696,47.4254148 27.1966635,47.2375 27.839,47.2375 C28.3173357,47.2375 28.7273316,47.3058326 29.069,47.4425 L29.069,49.3285 C28.6316645,49.1098322 28.1396694,49.0005 27.593,49.0005 C27.0873308,49.0005 26.6226688,49.1439986 26.199,49.431 C25.7753312,49.7180014 25.4370846,50.1040809 25.18425,50.58925 C24.9314154,51.0744191 24.805,51.5971639 24.805,52.1575 L24.805,58 L23.0625,58 L23.0625,47.545 Z M31.775,45.618 C31.4333316,45.618 31.1395012,45.4950012 30.8935,45.249 C30.6474988,45.0029988 30.5245,44.7091684 30.5245,44.3675 C30.5245,44.0258316 30.6474988,43.7354179 30.8935,43.49625 C31.1395012,43.2570821 31.4333316,43.1375 31.775,43.1375 C32.1166684,43.1375 32.4104988,43.2570821 32.6565,43.49625 C32.9025012,43.7354179 33.0255,44.0258316 33.0255,44.3675 C33.0255,44.7091684 32.9059179,45.0029988 32.66675,45.249 C32.4275821,45.4950012 32.1303351,45.618 31.775,45.618 Z M30.914,47.545 L32.636,47.545 L32.636,58 L30.914,58 L30.914,47.545 Z M36.5925,49.1235 L34.6655,49.1235 L34.6655,47.545 L36.5925,47.545 L36.5925,46.4175 C36.5925,45.7614967 36.7428318,45.1875025 37.0435,44.6955 C37.3441682,44.2034975 37.7473308,43.8242513 38.253,43.55775 C38.7586692,43.2912487 39.3189969,43.158 39.934,43.158 C40.5216696,43.158 41.0341645,43.2399992 41.4715,43.404 L41.4715,45.1055 C41.2254988,45.0098329 40.9931678,44.9312503 40.7745,44.86975 C40.5558322,44.8082497 40.2961682,44.7775 39.9955,44.7775 C39.5444977,44.7775 39.1550016,44.9380817 38.827,45.25925 C38.4989984,45.5804183 38.335,46.0279971 38.335,46.602 L38.335,47.545 L41.0205,47.545 L41.0205,49.1235 L38.335,49.1235 L38.335,58 L36.5925,58 L36.5925,49.1235 Z M43.9725,45.618 C43.6308316,45.618 43.3370012,45.4950012 43.091,45.249 C42.8449988,45.0029988 42.722,44.7091684 42.722,44.3675 C42.722,44.0258316 42.8449988,43.7354179 43.091,43.49625 C43.3370012,43.2570821 43.6308316,43.1375 43.9725,43.1375 C44.3141684,43.1375 44.6079988,43.2570821 44.854,43.49625 C45.1000012,43.7354179 45.223,44.0258316 45.223,44.3675 C45.223,44.7091684 45.1034179,45.0029988 44.86425,45.249 C44.6250821,45.4950012 44.3278351,45.618 43.9725,45.618 Z M43.1115,47.545 L44.8335,47.545 L44.8335,58 L43.1115,58 L43.1115,47.545 Z M52.1315,58.328 C51.1338283,58.328 50.2386706,58.0888357 49.446,57.6105 C48.6533294,57.1321643 48.0349189,56.4727542 47.59075,55.63225 C47.1465811,54.7917458 46.9245,53.8453386 46.9245,52.793 C46.9245,51.7816616 47.1329146,50.8523376 47.54975,50.005 C47.9665854,49.1576624 48.5576628,48.4811692 49.323,47.9755 C50.0883372,47.4698308 50.9766616,47.217 51.988,47.217 C53.0130051,47.217 53.9013296,47.4459144 54.653,47.90375 C55.4046704,48.3615856 55.9820813,48.9936626 56.38525,49.8 C56.7884187,50.6063374 56.99,51.5288281 56.99,52.5675 C56.99,52.772501 56.9695002,52.9501659 56.9285,53.1005 L48.667,53.1005 C48.7080002,53.8931706 48.8993316,54.5628306 49.241,55.1095 C49.5826684,55.6561694 50.0165807,56.0661653 50.54275,56.3395 C51.0689193,56.6128347 51.6189971,56.7495 52.193,56.7495 C53.53234,56.7495 54.564163,56.1208396 55.2885,54.8635 L56.7645,55.581 C56.3134977,56.4283376 55.7019205,57.0979975 54.92975,57.59 C54.1575795,58.0820025 53.2248388,58.328 52.1315,58.328 Z M55.145,51.6655 C55.1176665,51.2281645 54.9946678,50.7908355 54.776,50.3535 C54.5573322,49.9161645 54.2122524,49.5471682 53.74075,49.2465 C53.2692476,48.9458318 52.6781702,48.7955 51.9675,48.7955 C51.1474959,48.7955 50.4539195,49.0585807 49.88675,49.58475 C49.3195805,50.1109193 48.9471676,50.8044957 48.7695,51.6655 L55.145,51.6655 Z M63.55,58.328 C62.620662,58.328 61.7767538,58.0888357 61.01825,57.6105 C60.2597462,57.1321643 59.6618355,56.4727542 59.2245,55.63225 C58.7871645,54.7917458 58.5685,53.8385053 58.5685,52.7725 C58.5685,51.7201614 58.7871645,50.7703376 59.2245,49.923 C59.6618355,49.0756624 60.2597462,48.4128357 61.01825,47.9345 C61.7767538,47.4561643 62.620662,47.217 63.55,47.217 C64.3563374,47.217 65.0738302,47.3980815 65.7025,47.76025 C66.3311698,48.1224185 66.8094984,48.5699973 67.1375,49.103 L67.2195,49.103 L67.1375,47.6475 L67.1375,43.322 L68.88,43.322 L68.88,58 L67.2195,58 L67.2195,56.4625 L67.1375,56.4625 C66.8094984,56.9818359 66.3311698,57.4225815 65.7025,57.78475 C65.0738302,58.1469185 64.3563374,58.328 63.55,58.328 Z M63.755,56.7495 C64.3700031,56.7495 64.9405807,56.5855016 65.46675,56.2575 C65.9929193,55.9294984 66.4165817,55.4648363 66.73775,54.8635 C67.0589183,54.2621637 67.2195,53.5651706 67.2195,52.7725 C67.2195,51.9798294 67.0589183,51.2828363 66.73775,50.6815 C66.4165817,50.0801637 65.9929193,49.6155016 65.46675,49.2875 C64.9405807,48.9594984 64.3700031,48.7955 63.755,48.7955 C63.1536637,48.7955 62.5865027,48.9594984 62.0535,49.2875 C61.5204973,49.6155016 61.0934183,50.0835803 60.77225,50.69175 C60.4510817,51.2999197 60.2905,51.9934961 60.2905,52.7725 C60.2905,53.5515039 60.4510817,54.2450803 60.77225,54.85325 C61.0934183,55.4614197 61.5204973,55.9294984 62.0535,56.2575 C62.5865027,56.5855016 63.1536637,56.7495 63.755,56.7495 Z M76.137,47.545 L77.7975,47.545 L77.7975,49.103 L77.8795,49.103 C78.1938349,48.5699973 78.6687468,48.1224185 79.30425,47.76025 C79.9397532,47.3980815 80.6538294,47.217 81.4465,47.217 C82.375838,47.217 83.2231628,47.4561643 83.9885,47.9345 C84.7538372,48.4128357 85.3551645,49.0756624 85.7925,49.923 C86.2298355,50.7703376 86.4485,51.7201614 86.4485,52.7725 C86.4485,53.8385053 86.2298355,54.7917458 85.7925,55.63225 C85.3551645,56.4727542 84.7538372,57.1321643 83.9885,57.6105 C83.2231628,58.0888357 82.375838,58.328 81.4465,58.328 C80.6538294,58.328 79.9397532,58.1469185 79.30425,57.78475 C78.6687468,57.4225815 78.1938349,56.9818359 77.8795,56.4625 L77.7975,56.4625 L77.8795,57.8975 L77.8795,62.428 L76.137,62.428 L76.137,47.545 Z M81.2415,56.7495 C81.8428363,56.7495 82.4099973,56.5855016 82.943,56.2575 C83.4760027,55.9294984 83.9030817,55.4614197 84.22425,54.85325 C84.5454183,54.2450803 84.706,53.5515039 84.706,52.7725 C84.706,51.9934961 84.5454183,51.2999197 84.22425,50.69175 C83.9030817,50.0835803 83.4760027,49.6155016 82.943,49.2875 C82.4099973,48.9594984 81.8428363,48.7955 81.2415,48.7955 C80.6401637,48.7955 80.0730027,48.9594984 79.54,49.2875 C79.0069973,49.6155016 78.5833349,50.0801637 78.269,50.6815 C77.9546651,51.2828363 77.7975,51.9798294 77.7975,52.7725 C77.7975,53.5651706 77.9546651,54.2621637 78.269,54.8635 C78.5833349,55.4648363 79.0069973,55.9294984 79.54,56.2575 C80.0730027,56.5855016 80.6401637,56.7495 81.2415,56.7495 Z M91.8195,58.328 C91.0541628,58.328 90.3708363,58.1776682 89.7695,57.877 C89.1681637,57.5763318 88.7035016,57.1629193 88.3755,56.63675 C88.0474984,56.1105807 87.8835,55.51267 87.8835,54.843 C87.8835,53.7359945 88.3003292,52.8715864 89.134,52.24975 C89.9676708,51.6279136 91.0199936,51.317 92.291,51.317 C92.9196698,51.317 93.503914,51.3853327 94.04375,51.522 C94.583586,51.6586674 94.9969986,51.8158324 95.284,51.9935 L95.284,51.358 C95.284,50.5789961 95.0106694,49.9537524 94.464,49.48225 C93.9173306,49.0107476 93.2271708,48.775 92.3935,48.775 C91.8058304,48.775 91.2660025,48.9014154 90.774,49.15425 C90.2819975,49.4070846 89.8925014,49.7589977 89.6055,50.21 L88.2935,49.226 C88.703502,48.5973302 89.2672464,48.1053351 89.98475,47.75 C90.7022536,47.3946649 91.498329,47.217 92.373,47.217 C93.7943404,47.217 94.9115793,47.5894129 95.72475,48.33425 C96.5379207,49.0790871 96.9445,50.0938269 96.9445,51.3785 L96.9445,58 L95.284,58 L95.284,56.5035 L95.202,56.5035 C94.9013318,57.0091692 94.4503363,57.4396649 93.849,57.795 C93.2476637,58.1503351 92.5711704,58.328 91.8195,58.328 Z M91.9835,56.7905 C92.5711696,56.7905 93.1178308,56.6401682 93.6235,56.3395 C94.1291692,56.0388318 94.5323318,55.6356692 94.833,55.13 C95.1336682,54.6243308 95.284,54.0708363 95.284,53.4695 C94.9559984,53.2508322 94.5528357,53.0731673 94.0745,52.9365 C93.5961643,52.7998326 93.0905027,52.7315 92.5575,52.7315 C91.6008286,52.7315 90.8799191,52.9296647 90.39475,53.326 C89.9095809,53.7223353 89.667,54.2348302 89.667,54.8635 C89.667,55.4375029 89.8856645,55.9021649 90.323,56.2575 C90.7603355,56.6128351 91.31383,56.7905 91.9835,56.7905 Z M99.3635,47.545 L101.024,47.545 L101.024,49.226 L101.106,49.226 C101.311001,48.6519971 101.70733,48.1770852 102.295,47.80125 C102.88267,47.4254148 103.497663,47.2375 104.14,47.2375 C104.618336,47.2375 105.028332,47.3058326 105.37,47.4425 L105.37,49.3285 C104.932664,49.1098322 104.440669,49.0005 103.894,49.0005 C103.388331,49.0005 102.923669,49.1439986 102.5,49.431 C102.076331,49.7180014 101.738085,50.1040809 101.48525,50.58925 C101.232415,51.0744191 101.106,51.5971639 101.106,52.1575 L101.106,58 L99.3635,58 L99.3635,47.545 Z M111.274,58.164 C110.850331,58.164 110.457418,58.0956673 110.09525,57.959 C109.733082,57.8223326 109.429001,57.6378345 109.183,57.4055 C108.909665,57.145832 108.704667,56.8451684 108.568,56.5035 C108.431333,56.1618316 108.363,55.7450025 108.363,55.253 L108.363,49.1235 L106.5385,49.1235 L106.5385,47.545 L108.363,47.545 L108.363,44.593 L110.1055,44.593 L110.1055,47.545 L112.6475,47.545 L112.6475,49.1235 L110.1055,49.1235 L110.1055,54.8225 C110.1055,55.3965029 110.214832,55.8201653 110.4335,56.0935 C110.693168,56.3941682 111.068998,56.5445 111.561,56.5445 C111.957335,56.5445 112.339998,56.4283345 112.709,56.196 L112.709,57.8975 C112.503999,57.9931671 112.295584,58.0614998 112.08375,58.1025 C111.871916,58.1435002 111.602002,58.164 111.274,58.164 Z M114.8615,47.545 L116.522,47.545 L116.522,49.0825 L116.604,49.0825 C116.891001,48.5631641 117.34883,48.1224185 117.9775,47.76025 C118.60617,47.3980815 119.27583,47.217 119.9865,47.217 C121.24384,47.217 122.203913,47.5825797 122.86675,48.31375 C123.529587,49.0449203 123.861,50.0391604 123.861,51.2965 L123.861,58 L122.1185,58 L122.1185,51.563 C122.1185,50.5926618 121.886169,49.8888355 121.4215,49.4515 C120.956831,49.0141645 120.321337,48.7955 119.515,48.7955 C118.954664,48.7955 118.452419,48.9526651 118.00825,49.267 C117.564081,49.5813349 117.219001,49.9947474 116.973,50.50725 C116.726999,51.0197526 116.604,51.5561639 116.604,52.1165 L116.604,58 L114.8615,58 L114.8615,47.545 Z M131.0155,58.328 C130.017828,58.328 129.122671,58.0888357 128.33,57.6105 C127.537329,57.1321643 126.918919,56.4727542 126.47475,55.63225 C126.030581,54.7917458 125.8085,53.8453386 125.8085,52.793 C125.8085,51.7816616 126.016915,50.8523376 126.43375,50.005 C126.850585,49.1576624 127.441663,48.4811692 128.207,47.9755 C128.972337,47.4698308 129.860662,47.217 130.872,47.217 C131.897005,47.217 132.78533,47.4459144 133.537,47.90375 C134.28867,48.3615856 134.866081,48.9936626 135.26925,49.8 C135.672419,50.6063374 135.874,51.5288281 135.874,52.5675 C135.874,52.772501 135.8535,52.9501659 135.8125,53.1005 L127.551,53.1005 C127.592,53.8931706 127.783332,54.5628306 128.125,55.1095 C128.466668,55.6561694 128.900581,56.0661653 129.42675,56.3395 C129.952919,56.6128347 130.502997,56.7495 131.077,56.7495 C132.41634,56.7495 133.448163,56.1208396 134.1725,54.8635 L135.6485,55.581 C135.197498,56.4283376 134.585921,57.0979975 133.81375,57.59 C133.041579,58.0820025 132.108839,58.328 131.0155,58.328 Z M134.029,51.6655 C134.001667,51.2281645 133.878668,50.7908355 133.66,50.3535 C133.441332,49.9161645 133.096252,49.5471682 132.62475,49.2465 C132.153248,48.9458318 131.56217,48.7955 130.8515,48.7955 C130.031496,48.7955 129.33792,49.0585807 128.77075,49.58475 C128.20358,50.1109193 127.831168,50.8044957 127.6535,51.6655 L134.029,51.6655 Z M137.9035,47.545 L139.564,47.545 L139.564,49.226 L139.646,49.226 C139.851001,48.6519971 140.24733,48.1770852 140.835,47.80125 C141.42267,47.4254148 142.037663,47.2375 142.68,47.2375 C143.158336,47.2375 143.568332,47.3058326 143.91,47.4425 L143.91,49.3285 C143.472664,49.1098322 142.980669,49.0005 142.434,49.0005 C141.928331,49.0005 141.463669,49.1439986 141.04,49.431 C140.616331,49.7180014 140.278085,50.1040809 140.02525,50.58925 C139.772415,51.0744191 139.646,51.5971639 139.646,52.1575 L139.646,58 L137.9035,58 L137.9035,47.545 Z" id="path-1"></path>
        <linearGradient x1="-0.00277793211%" y1="50.0006371%" x2="100%" y2="50.0006371%" id="linearGradient-2">
            <stop stop-color="#C8C8C8" offset="0%"></stop>
            <stop stop-color="#CDCDCD" offset="100%"></stop>
        </linearGradient>
        <linearGradient x1="-0.00234356691%" y1="49.9996311%" x2="100%" y2="49.9996311%" id="linearGradient-3">
            <stop stop-color="#D9D9D9" offset="0%"></stop>
            <stop stop-color="#E2E2E2" offset="100%"></stop>
        </linearGradient>
    </defs>
    <g id="Page-1" stroke="none" stroke-width="1" fill="none" fill-rule="evenodd">
        <g id="gsuite-verified">
            <g id="lockup_gsuite" fill="#FFFFFF">
                <g id="XMLID_54_">
                    <g id="XMLID_55_">
                        <path d="M26.7053872,10.2405405 C25.5824916,9.0972973 24.3619529,8.22162162 23.0681818,7.61351351 C21.7744108,7.00540541 20.1388889,6.71351351 18.2592593,6.71351351 C16.7457912,6.71351351 15.3055556,6.98108108 13.962963,7.51621622 C12.6203704,8.05135135 11.4486532,8.80540541 10.4478114,9.77837838 C9.42255892,10.7513514 8.61700337,11.9432432 8.03114478,13.3297297 C7.4452862,14.7162162 7.1523569,16.2486486 7.1523569,17.9513514 C7.1523569,19.6540541 7.4452862,21.1864865 8.03114478,22.572973 C8.61700337,23.9594595 9.42255892,25.127027 10.4478114,26.1 C11.473064,27.072973 12.6691919,27.8513514 14.0117845,28.3864865 C15.3543771,28.9216216 16.8190236,29.1891892 18.3569024,29.1891892 C19.9924242,29.1891892 21.4326599,28.9702703 22.6531987,28.5081081 C23.8737374,28.0459459 24.9234007,27.4135135 25.8021886,26.6351351 C26.3880471,26.1 26.9250842,25.4432432 27.3888889,24.6648649 C27.8526936,23.8621622 28.2188552,22.9864865 28.4873737,22.0135135 L18.1616162,22.0135135 L18.1616162,16.1756757 L35.0050505,16.1756757 C35.1026936,16.5648649 35.1759259,17.027027 35.2491582,17.6108108 C35.3223906,18.1945946 35.3468013,18.7297297 35.3468013,19.2891892 C35.3468013,21.6 35.0050505,23.6918919 34.3215488,25.6135135 C33.6380471,27.5351351 32.5883838,29.2135135 31.2213805,30.6972973 C29.6835017,32.327027 27.8526936,33.5675676 25.7045455,34.4675676 C23.5563973,35.3675676 21.0909091,35.8054054 18.3324916,35.8054054 C15.8425926,35.8054054 13.4991582,35.3675676 11.3021886,34.4675676 C9.10521886,33.5675676 7.17676768,32.327027 5.51683502,30.7459459 C3.88131313,29.1648649 2.58754209,27.2918919 1.61111111,25.127027 C0.634680135,22.9621622 0.170875421,20.5540541 0.170875421,17.9756757 C0.170875421,15.3972973 0.659090909,13.0135135 1.61111111,10.8243243 C2.56313131,8.63513514 3.85690236,6.76216216 5.51683502,5.18108108 C7.1523569,3.6 9.08080808,2.38378378 11.3021886,1.48378378 C13.523569,0.583783784 15.8670034,0.145945946 18.3324916,0.145945946 C21.1641414,0.145945946 23.6784512,0.632432432 25.8510101,1.60540541 C28.023569,2.57837838 29.9031987,3.91621622 31.489899,5.61891892 L26.7053872,10.2405405 Z" id="XMLID_69_"></path>
                        <g id="XMLID_56_" transform="translate(46.380471, 0.000000)">
                            <path d="M23.6052189,25.9054054 C23.6052189,28.8972973 22.506734,31.3054054 20.3097643,33.1297297 C18.0883838,34.9054054 15.3787879,35.8054054 12.1809764,35.8054054 C9.3493266,35.8054054 6.83501684,34.9783784 4.66245791,33.3243243 C2.48989899,31.6702703 1.00084175,29.4081081 0.170875421,26.5621622 L4.36952862,24.8351351 C4.66245791,25.8567568 5.0530303,26.7810811 5.56565657,27.6081081 C6.07828283,28.4351351 6.66414141,29.1405405 7.3476431,29.7243243 C8.03114478,30.3081081 8.78787879,30.7702703 9.61784512,31.1108108 C10.4478114,31.4513514 11.3265993,31.6216216 12.2542088,31.6216216 C14.2558923,31.6216216 15.9158249,31.1108108 17.1851852,30.0648649 C18.4545455,29.0432432 19.0892256,27.6567568 19.0892256,25.9540541 C19.0892256,24.5189189 18.5521886,23.3027027 17.5025253,22.2810811 C16.5260943,21.3081081 14.6708754,20.3351351 11.9612795,19.4108108 C9.22727273,18.4378378 7.51851852,17.7567568 6.83501684,17.4162162 C3.19781145,15.5675676 1.39141414,12.8675676 1.39141414,9.26756757 C1.39141414,6.76216216 2.39225589,4.62162162 4.39393939,2.84594595 C6.44444444,1.07027027 8.93434343,0.17027027 11.9124579,0.17027027 C14.5244108,0.17027027 16.7946128,0.827027027 18.6986532,2.16486486 C20.6026936,3.47837838 21.8964646,5.10810811 22.5311448,7.07837838 L18.4545455,8.75675676 C18.0639731,7.49189189 17.3072391,6.42162162 16.1843434,5.59459459 C15.0614478,4.74324324 13.6700337,4.32972973 12.0589226,4.32972973 C10.3257576,4.32972973 8.88552189,4.81621622 7.71380471,5.76486486 C6.54208754,6.64054054 5.95622896,7.80810811 5.95622896,9.21891892 C5.95622896,10.3864865 6.42003367,11.4081081 7.3476431,12.2594595 C8.37289562,13.1108108 10.5942761,14.1324324 13.9873737,15.3 C17.4537037,16.4675676 19.9436027,17.927027 21.4326599,19.6297297 C22.8728956,21.3324324 23.6052189,23.4243243 23.6052189,25.9054054 Z" id="XMLID_67_"></path>
                            <path d="M47.9915825,35.027027 L43.7929293,35.027027 L43.7929293,31.7918919 L43.5976431,31.7918919 C42.9385522,32.9351351 41.8888889,33.8837838 40.5218855,34.6621622 C39.1304714,35.4162162 37.6902357,35.8054054 36.2011785,35.8054054 C33.3207071,35.8054054 31.1237374,34.9783784 29.5858586,33.3486486 C28.0479798,31.7189189 27.266835,29.3837838 27.266835,26.3675676 L27.266835,11.6756757 L31.6607744,11.6756757 L31.6607744,26.0756757 C31.7584175,29.8945946 33.6868687,31.7918919 37.4461279,31.7918919 C39.2037037,31.7918919 40.6683502,31.0864865 41.8400673,29.6756757 C43.0117845,28.2648649 43.5976431,26.5621622 43.5976431,24.5918919 L43.5976431,11.6756757 L47.9915825,11.6756757 L47.9915825,35.027027 Z" id="XMLID_65_"></path>
                            <path d="M58.0244108,3.62432432 C58.0244108,4.47567568 57.7314815,5.20540541 57.1212121,5.81351351 C56.5109428,6.42162162 55.7786195,6.71351351 54.9242424,6.71351351 C54.0698653,6.71351351 53.3375421,6.42162162 52.7272727,5.81351351 C52.1170034,5.20540541 51.8240741,4.47567568 51.8240741,3.62432432 C51.8240741,2.77297297 52.1170034,2.04324324 52.7272727,1.43513514 C53.3375421,0.827027027 54.0698653,0.535135135 54.9242424,0.535135135 C55.7786195,0.535135135 56.5109428,0.827027027 57.1212121,1.43513514 C57.7314815,2.04324324 58.0244108,2.77297297 58.0244108,3.62432432 Z M57.1212121,11.6756757 L57.1212121,35.027027 L52.7272727,35.027027 L52.7272727,11.6756757 L57.1212121,11.6756757 Z" id="XMLID_62_" fill-rule="nonzero"></path>
                            <path d="M70.6203704,35.4162162 C68.71633,35.4162162 67.1296296,34.8324324 65.8602694,33.6648649 C64.5909091,32.4972973 63.956229,30.8432432 63.9318182,28.7513514 L63.9318182,15.6891892 L59.8063973,15.6891892 L59.8063973,11.6756757 L63.9074074,11.6756757 L63.9074074,4.52432432 L68.3013468,4.52432432 L68.3013468,11.6756757 L74.0378788,11.6756757 L74.0378788,15.6891892 L68.3013468,15.6891892 L68.3013468,27.3162162 C68.3013468,28.872973 68.5942761,29.9189189 69.2045455,30.4783784 C69.8148148,31.0378378 70.4983165,31.3054054 71.2550505,31.3054054 C71.5968013,31.3054054 71.9385522,31.2567568 72.280303,31.1837838 C72.6220539,31.1108108 72.9149832,30.9891892 73.2079125,30.8675676 L74.5993266,34.7837838 C73.5008418,35.1972973 72.1582492,35.4162162 70.6203704,35.4162162 Z" id="XMLID_60_"></path>
                            <path d="M87.0732323,35.7810811 C83.6313131,35.7810811 80.7996633,34.6135135 78.5538721,32.2540541 C76.3324916,29.8945946 75.209596,26.927027 75.209596,23.3513514 C75.209596,19.8 76.28367,16.8324324 78.456229,14.472973 C80.6287879,12.1135135 83.3872054,10.9216216 86.780303,10.9216216 C90.246633,10.9216216 93.0294613,12.0405405 95.0799663,14.2783784 C97.1304714,16.5162162 98.1557239,19.6540541 98.1557239,23.6918919 L98.1069024,24.1783784 L79.7011785,24.1783784 C79.7744108,26.4648649 80.5311448,28.3135135 81.9957912,29.7 C83.4604377,31.0864865 85.2180135,31.7918919 87.2685185,31.7918919 C90.0757576,31.7918919 92.2727273,30.4054054 93.8594276,27.6081081 L97.7895623,29.5054054 C96.739899,31.4756757 95.2752525,33.0081081 93.4200337,34.127027 C91.540404,35.2216216 89.4166667,35.7810811 87.0732323,35.7810811 Z M80.0429293,20.5297297 L93.493266,20.5297297 C93.3712121,18.9 92.7121212,17.5621622 91.5159933,16.4918919 C90.3198653,15.4216216 88.7087542,14.8864865 86.7070707,14.8864865 C85.047138,14.8864865 83.6313131,15.3972973 82.4351852,16.4189189 C81.2146465,17.4648649 80.4335017,18.827027 80.0429293,20.5297297 Z" id="XMLID_57_" fill-rule="nonzero"></path>
                        </g>
                    </g>
                </g>
            </g>
            <g id="google-sheets-logo" transform="translate(166.000000, 3.000000)">
                <path d="M39,49.9509461 C38.9883956,50.7712657 38.6522139,51.5533555 38.0654291,52.1251218 C37.4786444,52.6968881 36.6893364,53.0114821 35.8711864,52.9996795 L3.12881356,52.9996795 C2.31066372,53.0114821 1.52135559,52.6968881 0.934570875,52.1251218 C0.347786153,51.5533555 0.0116043871,50.7712657 0,49.9509461 L0,3.04905394 C0.0116043871,2.22873424 0.347786153,1.44664457 0.934570875,0.874878251 C1.52135559,0.303111934 2.31066372,-0.0114820454 3.12881356,0.000320496426 L24.1711864,0.000320496426 L39,14.8242346 L39,49.9509461 Z" id="Path" fill="#22A466"></path>
                <polygon id="Path" fill="#1A8E5A" points="26 14 39 26 38.9565943 14.3447038"></polygon>
                <path d="M39,14.9996757 L27.1602374,14.9996757 C26.3338705,15.0116182 25.5366352,14.6932942 24.9439571,14.1147486 C24.3512791,13.5362031 24.0117209,12.7448405 24,11.9147946 L24,0 L39,14.9996757 Z" id="Path" fill="#8ECEAF"></path>
                <path d="M20.2269273,40.5495495 L20.2269273,37.9240669 L26.5027144,37.9240669 L26.5027144,40.5495495 L20.2269273,40.5495495 Z M11.4538545,37.9240669 L17.7296417,37.9240669 L17.7296417,40.5495495 L11.4538545,40.5495495 L11.4538545,37.9240669 Z M17.7513572,36.1081081 L11.47557,36.1081081 L11.47557,33.2857143 L17.7513572,33.2857143 L17.7513572,36.1081081 Z M17.7513572,28.4285714 L17.7513572,31.4478764 L11.47557,31.4478764 L11.47557,28.4285714 L17.7513572,28.4285714 Z M20.2269273,33.2857143 L26.5027144,33.2857143 L26.5027144,36.1081081 L20.2269273,36.1081081 L20.2269273,33.2857143 Z M26.5027144,31.4478764 L20.2269273,31.4478764 L20.2269273,28.4285714 L26.5027144,28.4285714 L26.5027144,31.4478764 Z M9,26 L9,43 L29,43 L29,26 L9,26 Z" id="Shape" fill="#FFFFFF" fill-rule="nonzero"></path>
            </g>
            <g id="verified-partner">
                <use fill="#000000" xlink:href="#path-1"></use>
                <use fill="#FFFFFF" xlink:href="#path-1"></use>
            </g>
            <g id="Gmail_Icon" transform="translate(227.000000, 9.000000)">
                <path d="M55.3125,44 L3.6875,44 C1.65077083,44 0,42.3585556 0,40.3333333 L0,3.66666667 C0,1.64144444 1.65077083,0 3.6875,0 L55.3125,0 C57.3492292,0 59,1.64144444 59,3.66666667 L59,40.3333333 C59,42.3585556 57.3492292,44 55.3125,44 Z" id="Path" fill="#EAEAEA"></path>
                <path d="M7,44 L3.5,44 C1.56683333,44 0,42.3585556 0,40.3333333 L0,3.66666667 C0,1.64144444 1.56683333,0 3.5,0 C5.43316667,0 7,1.64144444 7,3.66666667 L7,44 Z" id="Path" fill="#D54C3F"></path>
                <path d="M52,44 L55.5,44 C57.4331667,44 59,42.3585556 59,40.3333333 L59,3.66666667 C59,1.64144444 57.4331667,0 55.5,0 C53.5668333,0 52,1.64144444 52,3.66666667 L52,44 Z" id="Path" fill="#B63524"></path>
                <path d="M57.4242083,6.70090909 C58.3768125,6.0345 59,4.93118182 59,3.68181818 C59,1.64822727 57.3492292,0 55.3125,0 C54.5270625,0 53.7981667,0.245454545 53.2007917,0.662727273 C53.2007917,0.662727273 29.5024583,17.8899545 29.5024583,17.8899545 L29.5,17.8911818 L29.4975417,17.8899545 L5.79920833,0.662727273 C5.20183333,0.245454545 4.4729375,0 3.6875,0 C1.65077083,0 0,1.64822727 0,3.68181818 C0,4.93118182 0.6231875,6.0345 1.57579167,6.70090909 L1.47745833,6.6285 L29.5,27" id="Path" fill="#DE5145"></path>
                <path d="M58,7 L30,27" id="Path" fill="#DE5145"></path>
                <path d="M56,0 C55.2088571,0 54.4746667,0.246947455 53.8729524,0.666758129 C53.8729524,0.666758129 30.0024762,17.9987653 30.0024762,17.9987653 L30,18 L29.9975238,17.9987653 L6.12704762,0.666758129 C5.52533333,0.246947455 4.79114286,0 4,0 L56,0 Z" id="Path" fill="#EFEFEF"></path>
                <path d="M6.99881399,11.9571768 L1.00237201,6 L1,6.00475813 C1.12571654,6.12371134 1.25973513,6.2331483 1.40205574,6.33306899 L1.30717533,6.2628866 L7,10.4203013 L6.99881399,12" id="Path" fill="#C64132"></path>
                <polyline id="Path" fill="#E3E3E3" points="25 29.9240467 7 44 7.00122716 12 24.9963185 29.9191117"></polyline>
                <polygon id="Path" fill="url(#linearGradient-2)" points="24.9273293 30 29 26.863396 7 11 7 12.4127429 24.9236624 29.9951577"></polygon>
                <polygon id="Path" fill="url(#linearGradient-3)" points="39.88779 44 52 44 52 11 30.0642137 26.9551743 26 30.1048146"></polygon>
            </g>
        </g>
    </g>
</svg>