<?xml version="1.0" encoding="utf-8"?>
<!-- Generator: Adobe Illustrator 22.0.0, SVG Export Plug-In . SVG Version: 6.00 Build 0)  -->
<svg version="1.1" id="Calque_1" xmlns="http://www.w3.org/2000/svg" xmlns:xlink="http://www.w3.org/1999/xlink" x="0px" y="0px"
	 viewBox="0 0 1280 650.1" style="enable-background:new 0 0 1280 650.1;" xml:space="preserve">
<style type="text/css">
	.st0{fill:url(#SVGID_1_);}
	.st1{fill:url(#SVGID_2_);}
</style>
<title>Path</title>
<desc>Created with Sketch.</desc>
<g id="Artboards">
	<g id="HOME" transform="translate(0.000000, -680.000000)">
		<g id="Tutorial" transform="translate(-174.000000, 475.000000)">
			
				<g id="why" transform="translate(789.157027, 519.145536) scale(1, -1) rotate(-11.000000) translate(-789.157027, -519.145536) translate(60.657027, 132.145536)">
				
					<g id="Group-6" transform="translate(728.615162, 387.027111) scale(-1, 1) rotate(174.000000) translate(-728.615162, -387.027111) translate(29.615162, 72.027111)">
					
						<radialGradient id="SVGID_1_" cx="626.2451" cy="348.0221" r="1.3029" gradientTransform="matrix(155.5126 631.282 -619.5773 156.3307 118935.9375 -449773.0312)" gradientUnits="userSpaceOnUse">
						<stop  offset="0" style="stop-color:#1059B5"/>
						<stop  offset="1" style="stop-color:#02094D"/>
					</radialGradient>
					<path class="st0" d="M1372.2,293.7c-1.9,0-3.7,0-5.6,0c-45.7-0.1-94.1-6.7-143.7-19.7c-22.7-6-44.6-12.7-65.7-19.2
						c-47.9-14.8-93.2-28.7-148.4-34.4c-12.4-1.3-25.1-1.9-38.9-1.9c-26.1,0-52.4,2.2-77.8,4.3c-23.9,2-48.8,4.1-73.7,4.3
						c-1.5,0-3.1,0-4.6,0c-52-0.1-95.4-10.1-136.7-31.5c-9.6-5.1-19.3-10.5-28.5-15.7c-25.8-14.7-52.5-29.8-85.6-38.7
						c-38.7-10.4-82.9-15.3-138.9-15.4c-31.3,0-62.8,1.4-90.1,2.8c-24.2,1.2-49.8,2.4-75,2.4c-15,0-28.7-0.5-41.8-1.4
						c-45-3.2-82.9-14.3-115.9-34.4C84,84.6,68.7,72.1,54.3,58.6c0,0,52.8,603.2,52.8,603.2c1.2,11.8,87.2,34.1,150.4,28.6
						c164.2-14.4,214.7-83.8,350.6-95.7c126.3-11.1,173.1,12.7,245.9,23.9c62,9.6,126.6,11.9,187.9-2.7
						c57.6-13.7,81.5-50.3,159.5-72.7c75.6-21.7,123,8.2,183.7-6.1c3.7-0.9,6.4-1.4,8.2-2L1372.2,293.7z"/>
				</g>
			</g>
		</g>
	</g>
</g>
<radialGradient id="SVGID_2_" cx="651.9735" cy="-44.0464" r="0" gradientUnits="userSpaceOnUse">
	<stop  offset="0" style="stop-color:#1059B5"/>
	<stop  offset="1" style="stop-color:#02094D"/>
</radialGradient>
<path class="st1" d="M652-44"/>
</svg>
