<?xml version="1.0" encoding="utf-8"?>
<!-- Generator: Adobe Illustrator 22.0.0, SVG Export Plug-In . SVG Version: 6.00 Build 0)  -->
<svg version="1.1" id="Calque_1" xmlns="http://www.w3.org/2000/svg" xmlns:xlink="http://www.w3.org/1999/xlink" x="0px" y="0px"
	 viewBox="0 0 1920 647" style="enable-background:new 0 0 1920 647;" xml:space="preserve">
<style type="text/css">
	.st0{fill:url(#Fill-1_1_);}
</style>
<title>Fill 1</title>
<desc>Created with Sketch.</desc>
<g id="Artboards">
	<g id="Desktop-HD" transform="translate(0.000000, -225.000000)">
		
			<radialGradient id="Fill-1_1_" cx="903.6672" cy="771.2393" r="1013.8199" gradientTransform="matrix(1.3339 5.793053e-04 0 -1 -319.9425 872.0268)" gradientUnits="userSpaceOnUse">
			<stop  offset="0" style="stop-color:#1059B5"/>
			<stop  offset="0.2059" style="stop-color:#0E4DA5"/>
			<stop  offset="0.6057" style="stop-color:#082D7C"/>
			<stop  offset="1" style="stop-color:#02094D"/>
		</radialGradient>
		<path id="Fill-1" class="st0" d="M1769.1,417.4c-84.4-18.7-163.4-48-250.1-62.2c-51.8-8.5-108-11.2-159.7-0.5
			c-48.2,10.1-88.4,33-133.7,47.5c-40.3,13-83.4,21.5-127.1,25.3c-77,6.8-149.5-5.8-224.8-14.9c-105.6-12.8-207.3-8.6-312.7,5
			c-79.1,10.3-151.5,25.9-232.6,20c-60.6-4.4-121-19.7-165.7-49c-19.3-12.7-34.7-27.2-47.9-42.8c-17.5-20.8-30.8-43.5-43.9-66
			c-14.7-25.2-39-46.6-74.7-55.2l-0.1,509.5c67.5,28.5,158.9,22.3,238.1,17.7c55.6-3.2,112.7-6.9,167.9,0.8
			c67.1,9.3,102.6,40.6,153,69.9c110.2,63.6,280.7,56.9,406.3,23.2c112.1-30.1,195.3-94.4,325.1-70.9
			c114.3,20.7,214.1,42.2,332.9,24.6c103.4-15.4,200.8-50.9,284.8-94.1c5.7-2.9,11.5-6,16.7-9.4V438.8
			C1883.6,438.6,1780.9,420,1769.1,417.4"/>
	</g>
</g>
</svg>
