<?xml version="1.0" encoding="utf-8"?>
<!-- Generator: Adobe Illustrator 19.1.0, SVG Export Plug-In . SVG Version: 6.00 Build 0)  -->
<svg version="1.1" id="Calque_1" xmlns="http://www.w3.org/2000/svg" xmlns:xlink="http://www.w3.org/1999/xlink" x="0px" y="0px"
	 viewBox="220 177 1440 647" style="enable-background:new 220 177 1440 647;" xml:space="preserve">
<style type="text/css">
	.st0{fill:url(#Fill-1_1_);}
</style>
<title>Fill 1</title>
<desc>Created with Sketch.</desc>
<g id="Artboards">
	<g id="Desktop-HD" transform="translate(0.000000, -225.000000)">
		<radialGradient id="Fill-1_1_" cx="883.6672" cy="276.9702" r="1013.8785" gradientUnits="userSpaceOnUse">
			<stop  offset="0" style="stop-color:#1059B5"/>
			<stop  offset="0.2059" style="stop-color:#0E4DA5"/>
			<stop  offset="0.6057" style="stop-color:#082D7C"/>
			<stop  offset="1" style="stop-color:#02094D"/>
		</radialGradient>
		<path id="Fill-1" class="st0" d="M1546.1,594.5c-63.3-18.7-122.5-47.9-187.5-62.1c-38.8-8.5-81-11.2-119.7-0.4
			c-36.1,10.1-66.3,33-100.2,47.6c-30.2,13-62.5,21.5-95.3,25.4c-57.7,6.8-112.1-5.7-168.5-14.8c-79.2-12.8-155.4-8.5-234.4,5.1
			c-59.3,10.3-113.6,26-174.4,20.1c-45.4-4.4-90.7-19.6-124.2-48.9c-14.5-12.7-26-27.2-35.9-42.8c-13.1-20.8-23.1-43.5-32.9-66
			c-11-25.2-29.3-48.1-56.1-56.7v511c50.6,28.5,119.1,22.2,178.5,17.6c41.7-3.2,84.5-6.9,125.9,0.7c50.3,9.3,76.9,40.6,114.7,69.8
			c82.6,63.6,210.4,56.8,304.6,23c84-30.1,146.4-94.5,243.7-71c85.7,20.7,160.5,42.1,249.6,24.5c77.5-15.4,150.5-51,213.5-94.2
			c4.3-2.9,8.6-6,12.5-9.4V615.8C1631.9,615.6,1554.9,597.1,1546.1,594.5"/>
	</g>
</g>
</svg>
