<?xml version="1.0" encoding="UTF-8"?>
<svg width="1440px" height="647px" viewBox="0 0 1440 647" version="1.1" xmlns="http://www.w3.org/2000/svg" xmlns:xlink="http://www.w3.org/1999/xlink">
    <!-- Generator: Sketch 52.4 (67378) - http://www.bohemiancoding.com/sketch -->
    <title>Fill 1</title>
    <desc>Created with Sketch.</desc>
    <defs>
        <linearGradient x1="50%" y1="0%" x2="50%" y2="100%" id="linearGradient-1">
            <stop stop-color="#18369E" offset="0%"></stop>
            <stop stop-color="#0A1965" offset="100%"></stop>
        </linearGradient>
    </defs>
    <g id="Artboards" stroke="none" stroke-width="1" fill="none" fill-rule="evenodd">
        <g id="Desktop-HD" transform="translate(0.000000, -225.000000)" fill="url(#linearGradient-1)">
            <path d="M1326.11683,417.482239 C1262.79288,398.815194 1203.57336,369.545556 1138.63908,355.367116 C1099.85526,346.89923 1057.597,344.216021 1018.9558,354.971094 C982.810953,365.031539 952.698669,387.998707 918.714404,402.596465 C888.543725,415.55719 856.259628,424.121434 823.366884,428.012828 C765.664492,434.839445 711.31078,422.269448 654.838034,413.181057 C575.610665,400.431049 499.447865,404.641167 420.439474,418.316638 C361.16044,428.577213 306.803359,444.277268 246.030783,438.376114 C200.639448,433.969044 155.371639,418.747604 121.879232,389.525616 C107.37615,376.870907 95.8320778,362.308092 86.0173709,346.698042 C72.9292233,325.882525 62.9202435,303.20655 53.0763395,280.720115 C42.0398475,255.502822 23.8130158,232.664838 -3,224 L-3,734.974476 C47.6153647,763.458423 116.133024,757.160188 175.476067,752.587932 C217.19194,749.374223 259.962277,745.681899 301.394041,753.324914 C351.653426,762.594374 378.245217,793.935187 416.127291,823.091524 C498.766226,886.696495 626.477573,879.906939 720.694268,846.115872 C804.735785,815.974773 867.045699,751.608465 964.390972,775.151665 C1050.11806,795.885649 1124.92432,817.288847 1213.99784,799.627741 C1291.48686,784.263352 1364.54691,748.640417 1427.46771,705.391409 C1431.72824,702.463598 1436.04042,699.399191 1439.927,696.000177 L1439.927,438.832492 C1411.90118,438.631305 1334.92873,420.079678 1326.11683,417.482239" id="Fill-1"></path>
        </g>
    </g>
</svg>