<?xml version="1.0" encoding="utf-8"?>
<!-- Generator: Adobe Illustrator 22.0.0, SVG Export Plug-In . SVG Version: 6.00 Build 0)  -->
<svg version="1.1" id="Calque_1" xmlns="http://www.w3.org/2000/svg" xmlns:xlink="http://www.w3.org/1999/xlink" x="0px" y="0px"
	 viewBox="0 0 1440 671.1" style="enable-background:new 0 0 1440 671.1;" xml:space="preserve">
<style type="text/css">
	.st0{fill:url(#SVGID_1_);}
	.st1{fill:url(#SVGID_2_);}
</style>
<title>Path</title>
<desc>Created with Sketch.</desc>
<g id="Artboards">
	<g id="HOME" transform="translate(0.000000, -680.000000)">
		<g id="Tutorial" transform="translate(-174.000000, 475.000000)">
			
				<g id="why" transform="translate(789.157027, 519.145536) scale(1, -1) rotate(-11.000000) translate(-789.157027, -519.145536) translate(60.657027, 132.145536)">
				
					<g id="Group-6" transform="translate(728.615162, 387.027111) scale(-1, 1) rotate(174.000000) translate(-728.615162, -387.027111) translate(29.615162, 72.027111)">
					
						<radialGradient id="SVGID_1_" cx="725.8138" cy="255.3894" r="1.3193" gradientTransform="matrix(233.3028 662.9523 683.0312 -230.123 -342983.4375 -422456.0938)" gradientUnits="userSpaceOnUse">
						<stop  offset="0" style="stop-color:#1059B5"/>
						<stop  offset="1" style="stop-color:#02094D"/>
					</radialGradient>
					<path class="st0" d="M1550.1,531.7c-6.9-81.4-26.2-292.9-28.6-319.6c-96.8,17.7-196.5,31.2-294.4,12.9
						c-67.4-12.6-133.5-35.2-202.2-37.7c-92.4-3.3-184.9,41.4-276.2,6.8c-43.5-16.4-83.1-43.6-127.8-56.5
						c-48.8-14.1-100.8-15.3-150.9-15.2c-35.4,0.1-71,1.8-101.8,3.4c-27.3,1.4-56.3,2.8-84.8,2.9c-16.9,0.1-32.4-0.4-47.2-1.3
						c-50.8-3.3-93.6-15.1-130.8-36.6C85.9,79.7,68.7,66.2,52.5,51.7c0,0,40.3,459.9,53.1,606.4L1550.1,531.7z"/>
				</g>
			</g>
		</g>
	</g>
</g>
<radialGradient id="SVGID_2_" cx="732" cy="694" r="0" gradientTransform="matrix(1 0 0 -1 0 650)" gradientUnits="userSpaceOnUse">
	<stop  offset="0" style="stop-color:#1059B5"/>
	<stop  offset="1" style="stop-color:#02094D"/>
</radialGradient>
<path class="st1" d="M732-44"/>
</svg>
