<?xml version="1.0" encoding="utf-8"?>
<!-- Generator: Adobe Illustrator 22.0.0, SVG Export Plug-In . SVG Version: 6.00 Build 0)  -->
<svg version="1.1" id="Calque_1" xmlns="http://www.w3.org/2000/svg" xmlns:xlink="http://www.w3.org/1999/xlink" x="0px" y="0px"
	 viewBox="0 0 1440 647" style="enable-background:new 0 0 1440 647;" xml:space="preserve">
<style type="text/css">
	.st0{fill:url(#Fill-1_1_);}
</style>
<title>Fill 1</title>
<desc>Created with Sketch.</desc>
<g id="Artboards">
	<g id="Desktop-HD" transform="translate(0.000000, -225.000000)">
		
			<radialGradient id="Fill-1_1_" cx="663.6672" cy="773.0298" r="1013.8785" gradientTransform="matrix(1 0 0 -0.9477 0 839.0541)" gradientUnits="userSpaceOnUse">
			<stop  offset="0" style="stop-color:#1059B5"/>
			<stop  offset="0.2059" style="stop-color:#0E4DA5"/>
			<stop  offset="0.6057" style="stop-color:#082D7C"/>
			<stop  offset="1" style="stop-color:#02094D"/>
		</radialGradient>
		<path id="Fill-1" class="st0" d="M1326.1,407.4c-63.3-17.7-122.5-45.4-187.5-58.9c-38.8-8.1-81-10.6-119.7-0.4
			c-36.1,9.6-66.3,31.3-100.2,45.1c-30.2,12.3-62.5,20.4-95.3,24.1c-57.7,6.4-112.1-5.4-168.5-14c-79.2-12.1-155.4-8.1-234.4,4.8
			c-59.3,9.8-113.6,24.6-174.4,19c-45.4-4.2-90.7-18.6-124.2-46.3c-14.5-12-26-25.8-35.9-40.6c-13.1-19.7-23.1-41.2-32.9-62.5
			C42.1,253.9,23.8,232.2-3,224v484.3c50.6,27,119.1,21,178.5,16.7c41.7-3,84.5-6.5,125.9,0.7c50.3,8.8,76.9,38.5,114.7,66.1
			c82.6,60.3,210.4,53.8,304.6,21.8c84-28.5,146.4-89.6,243.7-67.3c85.7,19.6,160.5,39.9,249.6,23.2
			c77.5-14.6,150.5-48.3,213.5-89.3c4.3-2.7,8.6-5.7,12.5-8.9V427.6C1411.9,427.4,1334.9,409.8,1326.1,407.4"/>
	</g>
</g>
</svg>
