<?xml version="1.0" encoding="UTF-8"?>
<svg width="1280px" height="891px" viewBox="0 0 1280 891" version="1.1" xmlns="http://www.w3.org/2000/svg" xmlns:xlink="http://www.w3.org/1999/xlink">
    <!-- Generator: Sketch 52.4 (67378) - http://www.bohemiancoding.com/sketch -->
    <title>Path</title>
    <desc>Created with Sketch.</desc>
    <defs>
        <radialGradient cx="49.7504465%" cy="104.523016%" fx="49.7504465%" fy="104.523016%" r="125.977097%" gradientTransform="translate(0.497504,1.045230),scale(0.670227,1.000000),rotate(-76.969150),translate(-0.497504,-1.045230)" id="radialGradient-1">
            <stop stop-color="#1059B5" offset="0%"></stop>
            <stop stop-color="#02094D" offset="100%"></stop>
        </radialGradient>
    </defs>
    <g id="Artboards" stroke="none" stroke-width="1" fill="none" fill-rule="evenodd">
        <g id="HOME" transform="translate(0.000000, -642.000000)" fill="url(#radialGradient-1)">
            <g id="Tutorial" transform="translate(-204.000000, 456.000000)">
                <g id="why" transform="translate(827.890409, 666.164003) scale(1, -1) rotate(-11.000000) translate(-827.890409, -666.164003) translate(89.390409, 131.164003)">
                    <g id="Group-6" transform="translate(738.728451, 535.310660) scale(-1, 1) rotate(174.000000) translate(-738.728451, -535.310660) translate(45.728451, 70.810660)">
                        <path d="M1341.8,510.2 C1297.1,510.2 1249.9,519.5 1201.4,538 C1179.2,546.5 1157.8,556 1137.2,565.3 C1090.4,586.3 1046.2,606.1 992.2,614.1 C980.1,615.9 967.7,616.7 954.2,616.7 C928.7,616.7 903,613.5 878.2,610.4 C854.8,607.5 830.5,604.5 806.2,604.1 C804.7,604.1 803.2,604.1 801.7,604.1 C750.9,604.1 708.5,618.3 668.2,648.8 C658.8,656 649.4,663.7 640.4,671.1 C615.2,692 589.1,713.6 556.8,726.2 C519,741 475.8,747.9 421.1,747.9 C390.5,747.9 359.7,745.7 333.1,743.7 C309.5,741.9 284.4,740.1 259.8,740.1 C245.1,740.1 231.8,740.7 219,742 C175,746.4 138,762.3 105.8,790.8 C77.1,816.3 54.3,849.6 31.6,884.3 C22.4,898.4 12,913.9 0,928.6 L97.9,0 C139.5,3.6 202,10.2 209.8,11 C298.8,20.9 385.7,47.3 466.9,84.7 C538.2,117.6 610,148.8 689.2,154.6 C770.2,160.5 850.8,147.7 931.5,142.5 C1020.6,136.7 1110.5,128.9 1199.4,136 C1238.9,139.2 1372.5,165.6 1385.5,187.1 L1351.5,510.3 C1348.2,510.2 1345,510.2 1341.8,510.2 Z" id="Path" transform="translate(692.750000, 464.300000) scale(1, -1) translate(-692.750000, -464.300000) "></path>
                    </g>
                </g>
            </g>
        </g>
    </g>
</svg>