<?xml version="1.0" encoding="UTF-8"?>
<svg width="1280px" height="581px" viewBox="0 0 1280 581" version="1.1" xmlns="http://www.w3.org/2000/svg" xmlns:xlink="http://www.w3.org/1999/xlink">
    <!-- Generator: Sketch 52.4 (67378) - http://www.bohemiancoding.com/sketch -->
    <title>Path</title>
    <desc>Created with Sketch.</desc>
    <defs>
        <radialGradient cx="49.7504465%" cy="104.523016%" fx="49.7504465%" fy="104.523016%" r="129.803957%" gradientTransform="translate(0.497504,1.045230),scale(0.450519,1.000000),rotate(-71.001333),translate(-0.497504,-1.045230)" id="radialGradient-1">
            <stop stop-color="#1059B5" offset="0%"></stop>
            <stop stop-color="#02094D" offset="100%"></stop>
        </radialGradient>
    </defs>
    <g id="Artboards" stroke="none" stroke-width="1" fill="none" fill-rule="evenodd">
        <g id="HOME" transform="translate(0.000000, -680.000000)" fill="url(#radialGradient-1)">
            <g id="Tutorial" transform="translate(-174.000000, 475.000000)">
                <g id="why" transform="translate(789.157027, 519.145536) scale(1, -1) rotate(-11.000000) translate(-789.157027, -519.145536) translate(60.657027, 132.145536)">
                    <g id="Group-6" transform="translate(728.615162, 387.027111) scale(-1, 1) rotate(174.000000) translate(-728.615162, -387.027111) translate(29.615162, 72.027111)">
                        <path d="M1353.42151,345.920655 C1308.33436,345.920655 1260.72555,352.226147 1211.80549,364.76933 C1189.41321,370.532414 1167.82786,376.973509 1147.04944,383.279001 C1099.8441,397.517209 1055.26128,410.941805 1000.79358,416.365884 C988.588777,417.586302 976.081379,418.12871 962.464453,418.12871 C936.743594,418.12871 910.821003,415.959078 885.806207,413.857247 C862.203537,411.891019 837.693071,409.856989 813.182606,409.585785 C811.669614,409.585785 810.156622,409.585785 808.64363,409.585785 C757.403645,409.585785 714.636413,419.213526 673.987369,439.892828 C664.505955,444.774499 655.02454,449.995176 645.94659,455.012449 C620.528329,469.182856 594.202274,483.82787 561.622519,492.370795 C523.495128,502.405341 479.920967,507.08361 424.747203,507.08361 C393.882173,507.08361 362.81541,505.591988 335.985023,504.235968 C312.180621,503.01555 286.863226,501.795132 262.050162,501.795132 C247.222844,501.795132 233.807651,502.201938 220.896788,503.083351 C176.515698,506.066595 139.195236,516.846952 106.716348,536.170235 C77.7677734,553.459487 54.7702995,576.037217 31.8736918,599.564161 C22.5940094,609.124101 12.1039336,619.633254 -1.13686838e-13,629.6 L98.7479249,-2.27373675e-13 C140.708228,2.44083567 203.749549,6.91570106 211.617106,7.45810898 C301.387947,14.1704071 389.040599,32.0698686 470.943883,57.4274392 C542.861422,79.7339651 615.283291,100.887874 695.169253,104.820332 C776.870805,108.82059 858.168892,100.142063 939.567846,96.6164118 C1029.43955,92.6839543 1120.11819,87.3954771 1209.78816,92.2093474 C1249.63028,94.3789791 1384.38741,112.278441 1397.5,126.855654 L1363.20552,345.988456 C1359.87694,345.920655 1356.64922,345.920655 1353.42151,345.920655 Z" id="Path" transform="translate(698.750000, 314.800000) scale(1, -1) translate(-698.750000, -314.800000) "></path>
                    </g>
                </g>
            </g>
        </g>
    </g>
</svg>