<?xml version="1.0" encoding="UTF-8"?>
<svg width="1440px" height="726px" viewBox="0 0 1440 726" version="1.1" xmlns="http://www.w3.org/2000/svg" xmlns:xlink="http://www.w3.org/1999/xlink">
    <!-- Generator: Sketch 52.4 (67378) - http://www.bohemiancoding.com/sketch -->
    <title>Fill 1</title>
    <desc>Created with Sketch.</desc>
    <defs>
        <radialGradient cx="50%" cy="0%" fx="50%" fy="0%" r="151.762932%" gradientTransform="translate(0.500000,0.000000),scale(0.504505,1.000000),rotate(82.969108),translate(-0.500000,-0.000000)" id="radialGradient-1">
            <stop stop-color="#1059B5" offset="0%"></stop>
            <stop stop-color="#02094D" offset="100%"></stop>
        </radialGradient>
    </defs>
    <g id="Artboards" stroke="none" stroke-width="1" fill="none" fill-rule="evenodd">
        <g id="Desktop-HD" transform="translate(0.000000, -2.000000)" fill="url(#radialGradient-1)">
            <path d="M1338.81292,728 C1278.38156,728 1225.22553,720.714783 1180.82095,706.345244 C1162.34032,700.365349 1145.01998,691.895746 1128.27082,683.704999 C1116.79001,678.089915 1104.91944,672.285928 1092.84504,667.374479 C1060.07807,654.0444 1019.97193,649.76962 981.702545,646.532301 C958.332124,644.556327 934.141885,643.594826 907.744185,643.594826 C851.228243,643.594826 793.830884,648.145463 738.324035,652.547177 C722.694849,653.786534 706.533677,655.066869 690.671537,656.224268 C667.429913,657.920387 644.249888,658.778942 621.775443,658.778942 C536.638659,658.778942 458.430012,646.661234 389.324483,622.762642 C339.943872,605.685509 294.082207,580.68549 249.729143,556.509043 C231.154435,546.3843 211.946944,535.913737 192.750653,526.173794 C131.819787,495.258846 65.9610525,471.979933 -3,456.980722 L-3,0 C10.7588354,10.0237953 23.0482697,21.3968901 31.0034189,29.2498126 C51.188644,49.1714687 67.4035743,73.0700598 81.0190535,93.90824 C103.721972,128.654199 126.479769,161.95091 155.204768,187.404694 C187.375915,215.910892 224.394294,231.884598 268.374408,236.237338 C281.109591,237.497684 294.450677,238.110366 309.159248,238.110366 C333.747076,238.110366 358.829931,236.340285 382.412026,234.528226 C408.927324,232.490284 439.776906,230.316413 470.373375,230.316413 C525.160084,230.316413 568.29574,237.225825 606.121618,252.060123 C638.354364,264.69956 664.445192,286.290349 689.675884,307.169508 C698.684925,314.624637 708.000838,322.333634 717.439948,329.499914 C757.645763,360.029062 800.052319,374.24668 850.895611,374.24568 C852.382932,374.24568 853.888172,374.232687 855.391172,374.208699 C879.739327,373.818902 903.965405,370.816461 927.395184,367.912968 C952.202527,364.837565 977.853207,361.658216 1003.35493,361.658216 C1016.87969,361.658216 1029.31696,362.524766 1041.37904,364.30784 C1095.37169,372.288696 1139.5646,392.102408 1186.3536,413.077517 C1206.97114,422.320718 1228.28977,431.879755 1250.53014,440.339362 C1298.97894,458.770792 1346.20137,468.11494 1390.88706,468.11494 C1407.5903,468.11494 1424.10986,466.785631 1440,464.163992 L1440,719.451439 C1398.57678,723.701232 1351.81018,727.913045 1345.37595,727.971015 C1343.19425,727.990005 1341.00806,728 1338.81292,728" id="Fill-1"></path>
        </g>
    </g>
</svg>