<?xml version="1.0" encoding="utf-8"?>
<!-- Generator: Adobe Illustrator 22.0.0, SVG Export Plug-In . SVG Version: 6.00 Build 0)  -->
<svg version="1.1" id="Calque_1" xmlns="http://www.w3.org/2000/svg" xmlns:xlink="http://www.w3.org/1999/xlink" x="0px" y="0px"
	 viewBox="0 0 1920 647" style="enable-background:new 0 0 1920 647;" xml:space="preserve">
<style type="text/css">
	.st0{fill:url(#SVGID_1_);}
</style>
<title>Fill 1</title>
<desc>Created with Sketch.</desc>
<g id="Artboards">
	<g id="Desktop-HD" transform="translate(0.000000, -225.000000)">
		
			<radialGradient id="SVGID_1_" cx="906.1711" cy="771.2393" r="1017.5337" gradientTransform="matrix(1.337 5.793053e-04 0 -1 -320.6584 872.0268)" gradientUnits="userSpaceOnUse">
			<stop  offset="0" style="stop-color:#1059B5"/>
			<stop  offset="0.2059" style="stop-color:#0E4DA5"/>
			<stop  offset="0.6057" style="stop-color:#082D7C"/>
			<stop  offset="1" style="stop-color:#02094D"/>
		</radialGradient>
		<path class="st0" d="M1922,438.7c-40-1.2-137.4-18.8-148.9-21.3c-84.6-18.7-163.8-48-250.7-62.2c-51.9-8.5-108.3-11.2-160-0.5
			c-48.3,10.1-88.6,33-134,47.5c-40.4,13-83.6,21.5-127.4,25.3c-77.1,6.8-149.9-5.8-225.3-14.9c-105.9-12.8-207.8-8.6-313.4,5
			c-79.3,10.3-151.9,25.9-233.2,20c-60.7-4.4-121.3-19.7-166-49c-19.4-12.7-34.8-27.2-48-42.8c-17.5-20.8-30.9-43.5-44-66
			c-14.7-25.2-39-46.6-74.9-55.2l-0.1,493.4C-2.5,718-1.3,718,0,718h1922V438.7z"/>
	</g>
</g>
</svg>
