<?xml version="1.0" encoding="utf-8"?>
<!-- Generator: Adobe Illustrator 22.0.0, SVG Export Plug-In . SVG Version: 6.00 Build 0)  -->
<svg version="1.1" id="Calque_1" xmlns="http://www.w3.org/2000/svg" xmlns:xlink="http://www.w3.org/1999/xlink" x="0px" y="0px"
	 viewBox="0 0 198.8 64.8" style="enable-background:new 0 0 198.8 64.8;" xml:space="preserve">
<style type="text/css">
	.st0{fill:#04143A;}
	.st1{font-family:'CircularStd-Medium';}
	.st2{font-size:28.4478px;}
	.st3{fill:#FFDDE2;}
	.st4{fill:#FF486A;}
	.st5{fill:#FFFFFF;}
</style>
<g id="Color1_1_">
	<text transform="matrix(1 0 0 1 0 53.9548)" class="st0 st1 st2">mailmeteor</text>
	<g>
		<g>
			<g>
				<path class="st3" d="M152.9,7.2c1.3,2.5,2.7,5,4,7.5c0,0,0,0,0,0C149.5,9.8,142,4.9,134.5,0c0,0,0,0,0,0
					c5.8,9.2,11.7,18.4,17.5,27.6c0,0,0,0,0,0.1c-2.5-0.9-5-1.8-7.5-2.7c0.2,0.4,0.4,0.8,0.6,1.1c1.7,3.1,3.5,6.2,5.2,9.3
					c2.4,4.1,4.9,8.2,7.5,12.1c1.8,2.8,3.8,5.5,5.8,8c1.3,1.5,2.5,3.1,4,4.4c2.8,2.4,6,4,9.6,4.5c4,0.6,7.8,0,11.3-1.8
					c5.3-2.8,8.7-7.1,9.8-13c1.2-5.9-0.3-11.2-4.1-15.9c-1.5-1.8-3.2-3.2-5-4.6c-3.2-2.5-6.5-4.7-9.9-6.9c-3-1.8-5.9-3.7-9-5.4
					c-3.9-2.3-7.9-4.5-11.8-6.7c-1.8-1-3.6-2-5.4-2.9C153.1,7.3,153,7.2,152.9,7.2C152.9,7.2,152.9,7.2,152.9,7.2z M164.6,37.8
					c-4.2-6.6-8.3-13.2-12.5-19.7c0,0,0,0,0.1,0c6.5,4.3,13,8.6,19.5,12.9c0,0,0,0,0,0c-0.9-1.7-1.8-3.4-2.7-5.1
					c-0.9-1.7-1.8-3.4-2.8-5.1c0.1,0,0.1,0.1,0.2,0.1c2.9,1.6,5.7,3.3,8.5,5c3.9,2.5,7.8,5,11.4,7.9c1.2,0.9,2.3,1.9,3.4,2.9
					c0.3,0.3,0.6,0.6,0.9,1c2.6,3.2,3.6,6.9,2.8,11c-0.9,4.3-3.4,7.5-7.3,9.5c-4.2,2.2-8.5,2-12.6-0.3c-1.5-0.9-2.8-2.1-3.9-3.4
					c-1.9-2.1-3.5-4.3-5.1-6.6c-2.7-3.9-5.3-7.9-7.7-12c-0.2-0.3-0.3-0.6-0.5-0.9c0,0,0,0,0,0C159,35.8,161.8,36.8,164.6,37.8z"/>
				<path class="st4" d="M164.6,37.8c-2.8-1-5.7-2-8.5-3c0,0,0,0,0,0c0.2,0.3,0.3,0.6,0.5,0.9c2.4,4.1,5,8.1,7.7,12
					c1.6,2.3,3.3,4.5,5.1,6.6c1.2,1.3,2.4,2.5,3.9,3.4c4.1,2.3,8.4,2.5,12.6,0.3c3.9-2,6.4-5.2,7.3-9.5c0.8-4.1-0.2-7.7-2.8-11
					c-0.3-0.3-0.5-0.7-0.9-1c-1.1-1-2.2-2-3.4-2.9c-3.6-2.9-7.5-5.4-11.4-7.9c-2.8-1.8-5.6-3.4-8.5-5c0,0-0.1,0-0.2-0.1
					c0.9,1.7,1.9,3.4,2.8,5.1c0.9,1.7,1.8,3.4,2.7,5.1c0,0,0,0,0,0c-6.5-4.3-13-8.6-19.5-12.9c0,0,0,0-0.1,0
					C156.3,24.6,160.5,31.2,164.6,37.8z"/>
			</g>
		</g>
		<path class="st5" d="M188.5,41.9c-0.1-0.1-0.2-0.2-0.3-0.3c-0.1,0-0.1-0.1-0.2-0.1c-0.1,0-0.2-0.1-0.4-0.1l0,0h0L187,42l0,0
			l-5.8,4.2l-5.9-4.3l-0.6-0.4h-0.1c-0.5,0-1,0.4-1,1V43v8.4c0,0.1,0,0.2,0,0.3c0.1,0.4,0.5,0.7,0.9,0.7l0.7,0v-8.2l4.3,3.1l1.4,1
			l0.3,0.2l1.6-1.2l4.1-3v8l0.7,0c0.4,0,0.8-0.3,0.9-0.7c0-0.1,0-0.2,0-0.3v-8.3l0-0.7C188.7,42.3,188.6,42.1,188.5,41.9z"/>
	</g>
</g>
</svg>
