<?xml version="1.0" encoding="utf-8"?>
<!-- Generator: Adobe Illustrator 22.0.0, SVG Export Plug-In . SVG Version: 6.00 Build 0)  -->
<svg version="1.1" id="Calque_1" xmlns="http://www.w3.org/2000/svg" xmlns:xlink="http://www.w3.org/1999/xlink" x="0px" y="0px"
	 viewBox="0 0 198.8 64.8" style="enable-background:new 0 0 198.8 64.8;" xml:space="preserve">
<style type="text/css">
	.st0{enable-background:new    ;}
	.st1{fill:#04143A;}
	.st2{fill:#FFDDE2;}
	.st3{fill:#FF486A;}
	.st4{fill:#FFFFFF;}
</style>
<g id="mailmeteor">
	<g class="st0">
		<path class="st1" d="M5.4,54H2.1V40.1h3.2v1.8c0.4-0.7,1-1.2,1.7-1.6c0.8-0.4,1.6-0.6,2.4-0.6c0.9,0,1.8,0.2,2.5,0.6
			c0.7,0.4,1.3,1,1.6,1.8c1-1.6,2.5-2.4,4.5-2.4c1.4,0,2.5,0.4,3.5,1.3s1.4,2.2,1.4,3.9v9h-3.2v-8.4c0-0.9-0.2-1.5-0.7-2.1
			c-0.4-0.5-1.1-0.8-2-0.8c-0.9,0-1.5,0.3-2.1,0.9c-0.5,0.6-0.8,1.3-0.8,2.2V54H11v-8.4c0-0.9-0.2-1.5-0.7-2.1
			c-0.4-0.5-1.1-0.8-2-0.8c-0.9,0-1.6,0.3-2.1,0.9c-0.5,0.6-0.8,1.3-0.8,2.2V54z"/>
		<path class="st1" d="M26.1,50.2c0-1.2,0.4-2.1,1.2-2.8c0.8-0.7,1.8-1.2,3-1.4l3.6-0.5c0.7-0.1,1-0.4,1-1c0-0.6-0.2-1.1-0.7-1.5
			c-0.4-0.4-1.1-0.6-2-0.6c-0.8,0-1.5,0.2-2,0.7c-0.5,0.5-0.8,1.1-0.9,1.8l-3-0.7c0.1-1.3,0.7-2.3,1.8-3.2c1.1-0.9,2.4-1.3,4-1.3
			c2,0,3.5,0.5,4.5,1.5c1,1,1.4,2.2,1.4,3.7v6.9c0,0.9,0.1,1.6,0.2,2.2h-3.1c-0.1-0.3-0.1-0.9-0.1-1.8c-0.9,1.5-2.3,2.2-4.3,2.2
			c-1.4,0-2.5-0.4-3.4-1.2C26.5,52.3,26.1,51.3,26.1,50.2z M31.4,51.8c1,0,1.9-0.3,2.5-0.8s1-1.5,1-2.7v-0.6l-3.6,0.5
			C30,48.3,29.4,49,29.4,50c0,0.5,0.2,0.9,0.5,1.3C30.3,51.6,30.8,51.8,31.4,51.8z"/>
		<path class="st1" d="M42.2,36.7c-0.4-0.4-0.6-0.9-0.6-1.5s0.2-1.1,0.6-1.5c0.4-0.4,0.9-0.6,1.5-0.6c0.6,0,1.1,0.2,1.5,0.6
			c0.4,0.4,0.6,0.9,0.6,1.5c0,0.6-0.2,1.1-0.6,1.5c-0.4,0.4-0.9,0.6-1.5,0.6C43.1,37.4,42.6,37.2,42.2,36.7z M45.4,54h-3.3V40.1h3.3
			V54z"/>
		<path class="st1" d="M52.9,54h-3.3V33.4h3.3V54z"/>
		<path class="st1" d="M60.5,54h-3.3V40.1h3.2v1.8c0.4-0.7,1-1.2,1.7-1.6c0.8-0.4,1.6-0.6,2.4-0.6c0.9,0,1.8,0.2,2.5,0.6
			c0.7,0.4,1.3,1,1.6,1.8c1-1.6,2.5-2.4,4.5-2.4c1.4,0,2.5,0.4,3.5,1.3S78,43.2,78,45v9h-3.2v-8.4c0-0.9-0.2-1.5-0.7-2.1
			c-0.4-0.5-1.1-0.8-2-0.8c-0.9,0-1.5,0.3-2.1,0.9c-0.5,0.6-0.8,1.3-0.8,2.2V54H66v-8.4c0-0.9-0.2-1.5-0.7-2.1
			c-0.4-0.5-1.1-0.8-2-0.8c-0.9,0-1.6,0.3-2.1,0.9c-0.5,0.6-0.8,1.3-0.8,2.2V54z"/>
		<path class="st1" d="M91.5,49.1l2.8,0.9c-0.4,1.3-1.1,2.3-2.2,3.1c-1.1,0.8-2.4,1.2-4,1.2c-2,0-3.6-0.7-5-2C81.6,51,81,49.2,81,47
			c0-2.1,0.7-3.9,2-5.2s2.9-2,4.7-2c2.1,0,3.8,0.7,5,1.9s1.8,3,1.8,5.2c0,0.6,0,0.9-0.1,1.1H84.3c0,1,0.4,1.9,1.2,2.6
			c0.7,0.7,1.6,1,2.6,1C89.8,51.5,91,50.7,91.5,49.1z M84.3,45.5h6.8c0-0.9-0.3-1.6-0.9-2.2c-0.6-0.6-1.4-0.9-2.5-0.9
			c-1,0-1.8,0.3-2.4,0.9C84.7,44,84.4,44.7,84.3,45.5z"/>
		<path class="st1" d="M101.8,35.9v4.2h2.9V43h-2.9v6.4c0,0.6,0.1,1,0.4,1.3c0.3,0.3,0.7,0.4,1.3,0.4c0.4,0,0.8,0,1.1-0.1v2.7
			c-0.5,0.2-1.2,0.3-2,0.3c-1.3,0-2.3-0.4-3-1.1c-0.7-0.7-1.1-1.7-1.1-3v-7H96v-2.9h0.7c0.7,0,1.2-0.2,1.6-0.6
			c0.4-0.4,0.5-0.9,0.5-1.6v-2.1H101.8z"/>
		<path class="st1" d="M117.4,49.1l2.8,0.9c-0.4,1.3-1.1,2.3-2.2,3.1s-2.4,1.2-4,1.2c-2,0-3.6-0.7-5-2s-2.1-3.1-2.1-5.4
			c0-2.1,0.7-3.9,2-5.2c1.3-1.4,2.9-2,4.7-2c2.1,0,3.8,0.7,5,1.9c1.2,1.3,1.8,3,1.8,5.2c0,0.6,0,0.9-0.1,1.1h-10.1
			c0,1,0.4,1.9,1.2,2.6c0.7,0.7,1.6,1,2.6,1C115.7,51.5,116.9,50.7,117.4,49.1z M110.2,45.5h6.8c0-0.9-0.3-1.6-0.9-2.2
			c-0.6-0.6-1.4-0.9-2.5-0.9c-1,0-1.8,0.3-2.4,0.9C110.6,44,110.3,44.7,110.2,45.5z"/>
		<path class="st1" d="M129.6,39.7c2.1,0,3.8,0.7,5.2,2.1c1.4,1.4,2,3.1,2,5.3s-0.7,3.9-2,5.3c-1.4,1.4-3.1,2.1-5.2,2.1
			c-2.1,0-3.8-0.7-5.1-2.1c-1.4-1.4-2-3.2-2-5.3s0.7-3.9,2-5.3C125.8,40.4,127.5,39.7,129.6,39.7z M126.9,50.2
			c0.7,0.8,1.7,1.2,2.7,1.2s2-0.4,2.7-1.2c0.7-0.8,1.1-1.9,1.1-3.2c0-1.4-0.4-2.4-1.1-3.2c-0.8-0.8-1.7-1.2-2.7-1.2s-2,0.4-2.7,1.2
			c-0.8,0.8-1.1,1.8-1.1,3.2S126.1,49.5,126.9,50.2z"/>
		<path class="st1" d="M148.1,40v3.4c-0.4-0.1-0.7-0.1-1.1-0.1c-2.5,0-3.7,1.4-3.7,4.1V54H140V40.1h3.2v2.2c0.3-0.7,0.8-1.3,1.6-1.8
			c0.7-0.4,1.5-0.6,2.4-0.6C147.5,39.9,147.8,40,148.1,40z"/>
	</g>
	<g>
		<g>
			<g>
				<path class="st2" d="M152.9,7.2c1.3,2.5,2.7,5,4,7.5l0,0C149.5,9.8,142,4.9,134.5,0l0,0c5.8,9.2,11.7,18.4,17.5,27.6
					c0,0,0,0,0,0.1c-2.5-0.9-5-1.8-7.5-2.7c0.2,0.4,0.4,0.8,0.6,1.1c1.7,3.1,3.5,6.2,5.2,9.3c2.4,4.1,4.9,8.2,7.5,12.1
					c1.8,2.8,3.8,5.5,5.8,8c1.3,1.5,2.5,3.1,4,4.4c2.8,2.4,6,4,9.6,4.5c4,0.6,7.8,0,11.3-1.8c5.3-2.8,8.7-7.1,9.8-13
					c1.2-5.9-0.3-11.2-4.1-15.9c-1.5-1.8-3.2-3.2-5-4.6c-3.2-2.5-6.5-4.7-9.9-6.9c-3-1.8-5.9-3.7-9-5.4c-3.9-2.3-7.9-4.5-11.8-6.7
					c-1.8-1-3.6-2-5.4-2.9C153.1,7.3,153,7.2,152.9,7.2L152.9,7.2z M164.6,37.8c-4.2-6.6-8.3-13.2-12.5-19.7c0,0,0,0,0.1,0
					c6.5,4.3,13,8.6,19.5,12.9l0,0c-0.9-1.7-1.8-3.4-2.7-5.1s-1.8-3.4-2.8-5.1c0.1,0,0.1,0.1,0.2,0.1c2.9,1.6,5.7,3.3,8.5,5
					c3.9,2.5,7.8,5,11.4,7.9c1.2,0.9,2.3,1.9,3.4,2.9c0.3,0.3,0.6,0.6,0.9,1c2.6,3.2,3.6,6.9,2.8,11c-0.9,4.3-3.4,7.5-7.3,9.5
					c-4.2,2.2-8.5,2-12.6-0.3c-1.5-0.9-2.8-2.1-3.9-3.4c-1.9-2.1-3.5-4.3-5.1-6.6c-2.7-3.9-5.3-7.9-7.7-12c-0.2-0.3-0.3-0.6-0.5-0.9
					l0,0C159,35.8,161.8,36.8,164.6,37.8z"/>
				<path class="st3" d="M164.6,37.8c-2.8-1-5.7-2-8.5-3l0,0c0.2,0.3,0.3,0.6,0.5,0.9c2.4,4.1,5,8.1,7.7,12c1.6,2.3,3.3,4.5,5.1,6.6
					c1.2,1.3,2.4,2.5,3.9,3.4c4.1,2.3,8.4,2.5,12.6,0.3c3.9-2,6.4-5.2,7.3-9.5c0.8-4.1-0.2-7.7-2.8-11c-0.3-0.3-0.5-0.7-0.9-1
					c-1.1-1-2.2-2-3.4-2.9c-3.6-2.9-7.5-5.4-11.4-7.9c-2.8-1.8-5.6-3.4-8.5-5c0,0-0.1,0-0.2-0.1c0.9,1.7,1.9,3.4,2.8,5.1
					c0.9,1.7,1.8,3.4,2.7,5.1l0,0c-6.5-4.3-13-8.6-19.5-12.9c0,0,0,0-0.1,0C156.3,24.6,160.5,31.2,164.6,37.8z"/>
			</g>
		</g>
		<path class="st4" d="M188.5,41.9c-0.1-0.1-0.2-0.2-0.3-0.3c-0.1,0-0.1-0.1-0.2-0.1c-0.1,0-0.2-0.1-0.4-0.1l0,0l0,0L187,42l0,0
			l-5.8,4.2l-5.9-4.3l-0.6-0.4h-0.1c-0.5,0-1,0.4-1,1V43v8.4c0,0.1,0,0.2,0,0.3c0.1,0.4,0.5,0.7,0.9,0.7h0.7v-8.2l4.3,3.1l1.4,1
			l0.3,0.2l1.6-1.2l4.1-3v8h0.7c0.4,0,0.8-0.3,0.9-0.7c0-0.1,0-0.2,0-0.3V43v-0.7C188.7,42.3,188.6,42.1,188.5,41.9z"/>
	</g>
</g>
</svg>
