<?xml version="1.0" encoding="utf-8"?>
<!-- Generator: Adobe Illustrator 22.0.0, SVG Export Plug-In . SVG Version: 6.00 Build 0)  -->
<svg version="1.1" id="Capa_1" xmlns="http://www.w3.org/2000/svg" xmlns:xlink="http://www.w3.org/1999/xlink" x="0px" y="0px"
	 viewBox="0 0 368 368" style="enable-background:new 0 0 368 368;" xml:space="preserve">
<style type="text/css">
	.st0{fill:#FFDDE2;}
	.st1{fill:#FF486A;}
</style>
<circle class="st0" cx="280" cy="280" r="32"/>
<g>
	<path class="st1" d="M210.6,338.5c17.2,17.2,41.2,27.9,66.1,29.4c2,0.1,4,0.2,6,0.2c23.8,0,45.3-8.5,61.1-24.3
		c17.1-17.1,25.6-40.9,24.1-67.1c-1.5-24.8-12.2-48.9-29.4-66.1L125.6,2.3c-3.2-3.1-8.2-3-11.3,0.1c-3.1,3.2-3,8.2,0.1,11.3
		l212.7,208.2c14.5,14.4,23.5,34.7,24.7,55.7c1.3,21.5-5.6,41-19.4,54.8c-13.8,13.8-33.3,20.7-54.8,19.4
		c-21-1.2-41.3-10.2-55.6-24.6L13.7,114.4c-3.1-3.2-8.2-3.2-11.3-0.1c-3.2,3.1-3.2,8.2-0.1,11.3L210.6,338.5z"/>
	<path class="st1" d="M138.4,101.7c1.6,1.6,3.6,2.3,5.7,2.3s4.1-0.8,5.7-2.3c3.1-3.1,3.1-8.2,0-11.3l-56-56c-3.1-3.1-8.2-3.1-11.3,0
		s-3.1,8.2,0,11.3L138.4,101.7z"/>
	<path class="st1" d="M189.7,130.3c-3.1-3.1-8.2-3.1-11.3,0c-3.1,3.1-3.1,8.2,0,11.3l72,72c1.6,1.6,3.6,2.3,5.7,2.3
		c2,0,4.1-0.8,5.7-2.3c3.1-3.1,3.1-8.2,0-11.3L189.7,130.3z"/>
	<path class="st1" d="M122.4,181.7c1.6,1.6,3.6,2.3,5.7,2.3c2,0,4.1-0.8,5.7-2.3c3.1-3.1,3.1-8.2,0-11.3l-88-88
		c-3.1-3.1-8.2-3.1-11.3,0s-3.1,8.2,0,11.3L122.4,181.7z"/>
	<path class="st1" d="M162.4,210.3c-3.1,3.1-3.1,8.2,0,11.3l40,40c1.6,1.6,3.6,2.3,5.7,2.3s4.1-0.8,5.7-2.3c3.1-3.1,3.1-8.2,0-11.3
		l-40-40C170.5,207.2,165.5,207.2,162.4,210.3z"/>
	<path class="st1" d="M240,280c0,22.1,17.9,40,40,40s40-17.9,40-40s-17.9-40-40-40S240,257.9,240,280z M280,256
		c13.2,0,24,10.8,24,24s-10.8,24-24,24s-24-10.8-24-24S266.8,256,280,256z"/>
</g>
</svg>
