<?xml version="1.0" encoding="utf-8"?>
<!-- Generator: Adobe Illustrator 22.0.0, SVG Export Plug-In . SVG Version: 6.00 Build 0)  -->
<svg version="1.1" id="Capa_1" xmlns="http://www.w3.org/2000/svg" xmlns:xlink="http://www.w3.org/1999/xlink" x="0px" y="0px"
	 viewBox="0 0 368 368" style="enable-background:new 0 0 368 368;" xml:space="preserve">
<style type="text/css">
	.st0{fill:#FFDDE2;}
	.st1{fill:#FF486A;}
</style>
<path class="st0" d="M280,136c0,96,80,112,80,112s-80,16-80,112c0-96-80-112-80-112S280,232,280,136z"/>
<g>
	<path class="st1" d="M6.4,127.8C7.2,128,80,143.6,80,232c0,4.4,3.6,8,8,8s8-3.6,8-8c0-88,70.6-103.5,73.6-104.2
		c3.7-0.7,6.4-4,6.4-7.8s-2.7-7.1-6.4-7.8C168.8,112,96,96.4,96,8c0-4.4-3.6-8-8-8s-8,3.6-8,8C80,96,9.5,111.5,6.4,112.2
		c-3.7,0.8-6.4,4-6.4,7.8C0,123.8,2.7,127.1,6.4,127.8z M88,57c12.9,35.6,38.7,54,57.2,63c-18.5,9-44.3,27.5-57.2,63
		c-12.9-35.6-38.7-54-57.2-63C49.3,111,75.1,92.5,88,57z"/>
	<path class="st1" d="M198.4,255.8C199.2,256,272,271.6,272,360c0,4.4,3.6,8,8,8s8-3.6,8-8c0-88,70.6-103.5,73.6-104.2
		c3.7-0.7,6.4-4,6.4-7.8s-2.7-7.1-6.4-7.8C360.8,240,288,224.4,288,136c0-4.4-3.6-8-8-8s-8,3.6-8,8c0,88-70.5,103.5-73.6,104.2
		c-3.7,0.8-6.4,4-6.4,7.8C192,251.8,194.7,255.1,198.4,255.8z M280,185c12.9,35.6,38.7,54,57.2,63c-18.5,9-44.3,27.5-57.2,63
		c-12.9-35.6-38.7-54-57.2-63C241.3,239,267.1,220.5,280,185z"/>
</g>
</svg>
