<svg xmlns="http://www.w3.org/2000/svg" xmlns:xlink="http://www.w3.org/1999/xlink" width="167" height="50"><defs><path d="M13.76 4.44c1.36 0 2.457.417 3.29 1.25s1.25 1.997 1.25 3.49v6.5h-2.8V9.56c0-.867-.22-1.53-.66-1.99s-1.04-.69-1.8-.69-1.363.23-1.81.69-.67 1.123-.67 1.99v6.12h-2.8V9.56c0-.867-.22-1.53-.66-1.99s-1.04-.69-1.8-.69c-.773 0-1.383.23-1.83.69S2.8 8.693 2.8 9.56v6.12H0V4.6h2.8v1.34c.36-.467.823-.833 1.39-1.1s1.19-.4 1.87-.4c.867 0 1.64.183 2.32.55s1.207.89 1.58 1.57c.36-.64.883-1.153 1.57-1.54a4.47 4.47 0 0 1 2.23-.58z" id="A"/><path d="M20.24 10.1c0-1.12.223-2.113.67-2.98s1.053-1.533 1.82-2 1.623-.7 2.57-.7c.827 0 1.55.167 2.17.5s1.117.753 1.49 1.26V4.6h2.82v11.08h-2.82v-1.62c-.36.52-.857.95-1.49 1.29s-1.363.51-2.19.51c-.933 0-1.783-.24-2.55-.72s-1.373-1.157-1.82-2.03-.67-1.877-.67-3.01zm8.72.04c0-.68-.133-1.263-.4-1.75a2.82 2.82 0 0 0-1.08-1.12c-.453-.26-.94-.39-1.46-.39s-1 .127-1.44.38-.797.623-1.07 1.11-.41 1.063-.41 1.73.137 1.25.41 1.75.633.883 1.08 1.15.923.4 1.43.4c.52 0 1.007-.13 1.46-.39a2.82 2.82 0 0 0 1.08-1.12c.267-.487.4-1.07.4-1.75z" id="B"/><path d="M35.94 3.28c-.493 0-.903-.157-1.23-.47s-.49-.703-.49-1.17.163-.857.49-1.17.737-.47 1.23-.47.903.157 1.23.47.49.703.49 1.17-.163.857-.49 1.17-.737.47-1.23.47zm1.38 1.32v11.08h-2.8V4.6h2.8z" id="C"/><path id="D" d="M42.88.88v14.8h-2.8V.88z"/><path d="M59.4 4.44c1.36 0 2.457.417 3.29 1.25s1.25 1.997 1.25 3.49v6.5h-2.8V9.56c0-.867-.22-1.53-.66-1.99s-1.04-.69-1.8-.69-1.363.23-1.81.69-.67 1.123-.67 1.99v6.12h-2.8V9.56c0-.867-.22-1.53-.66-1.99s-1.04-.69-1.8-.69c-.773 0-1.383.23-1.83.69s-.67 1.123-.67 1.99v6.12h-2.8V4.6h2.8v1.34c.36-.467.823-.833 1.39-1.1s1.19-.4 1.87-.4c.867 0 1.64.183 2.32.55s1.207.89 1.58 1.57c.36-.64.883-1.153 1.57-1.54a4.47 4.47 0 0 1 2.23-.58z" id="E"/><path d="M76.9 9.9c0 .4-.027.76-.08 1.08h-8.1c.067.8.347 1.427.84 1.88s1.1.68 1.82.68c1.04 0 1.78-.447 2.22-1.34h3.02c-.32 1.067-.933 1.943-1.84 2.63s-2.02 1.03-3.34 1.03c-1.067 0-2.023-.237-2.87-.71s-1.507-1.143-1.98-2.01-.71-1.867-.71-3c0-1.147.233-2.153.7-3.02s1.12-1.533 1.96-2 1.807-.7 2.9-.7c1.053 0 1.997.227 2.83.68s1.48 1.097 1.94 1.93.69 1.79.69 2.87zM74 9.1c-.013-.72-.273-1.297-.78-1.73s-1.127-.65-1.86-.65c-.693 0-1.277.21-1.75.63s-.763 1.003-.87 1.75H74z" id="F"/><path d="M82.2 6.9v5.36c0 .373.09.643.27.81s.483.25.91.25h1.3v2.36h-1.76c-2.36 0-3.54-1.147-3.54-3.44V6.9h-1.32V4.6h1.32V1.86h2.82V4.6h2.48v2.3H82.2z" id="G"/><path d="M97 9.9c0 .4-.027.76-.08 1.08h-8.1c.067.8.347 1.427.84 1.88s1.1.68 1.82.68c1.04 0 1.78-.447 2.22-1.34h3.02c-.32 1.067-.933 1.943-1.84 2.63s-2.02 1.03-3.34 1.03c-1.067 0-2.023-.237-2.87-.71s-1.507-1.143-1.98-2.01-.71-1.867-.71-3c0-1.147.233-2.153.7-3.02s1.12-1.533 1.96-2 1.807-.7 2.9-.7c1.053 0 1.997.227 2.83.68s1.48 1.097 1.94 1.93S97 8.82 97 9.9zm-2.9-.8c-.013-.72-.273-1.297-.78-1.73s-1.127-.65-1.86-.65c-.693 0-1.277.21-1.75.63s-.763 1.003-.87 1.75h5.26z" id="H"/><path d="M103.96 15.86c-1.067 0-2.027-.237-2.88-.71s-1.523-1.143-2.01-2.01-.73-1.867-.73-3 .25-2.133.75-3a5.21 5.21 0 0 1 2.05-2.01c.867-.473 1.833-.71 2.9-.71s2.033.237 2.9.71a5.21 5.21 0 0 1 2.05 2.01c.5.867.75 1.867.75 3s-.257 2.133-.77 3a5.33 5.33 0 0 1-2.08 2.01c-.873.473-1.85.71-2.93.71zm0-2.44c.507 0 .983-.123 1.43-.37s.803-.617 1.07-1.11.4-1.093.4-1.8c0-1.053-.277-1.863-.83-2.43s-1.23-.85-2.03-.85-1.47.283-2.01.85-.81 1.377-.81 2.43.263 1.863.79 2.43 1.19.85 1.99.85z" id="I"/><path d="M114.6 6.32c.36-.587.83-1.047 1.41-1.38s1.243-.5 1.99-.5v2.94h-.74c-.88 0-1.543.207-1.99.62s-.67 1.133-.67 2.16v5.52h-2.8V4.6h2.8v1.72z" id="J"/></defs><g transform="translate(.38)"><g transform="translate(0 26.32)" fill="#fff"><use xlink:href="#A"/><use xlink:href="#A"/><use xlink:href="#B"/><use xlink:href="#B"/><use xlink:href="#C"/><use xlink:href="#C"/><use xlink:href="#D"/><use xlink:href="#D"/><use xlink:href="#E"/><use xlink:href="#E"/><use xlink:href="#F"/><use xlink:href="#F"/><use xlink:href="#G"/><use xlink:href="#G"/><use xlink:href="#H"/><use xlink:href="#H"/><use xlink:href="#I"/><use xlink:href="#I"/><use xlink:href="#J"/><use xlink:href="#J"/></g><path d="M130.944 5.593l3.137 5.772-.026.026L116.646 0l-.026.026 13.604 21.299c0 .026-.026.026-.026.051l-5.838-2.094.489.894 4.063 7.202a146.75 146.75 0 0 0 5.812 9.398l4.552 6.206c.977 1.2 1.98 2.35 3.137 3.371 2.135 1.89 4.629 3.039 7.458 3.473 3.086.46 6.044.026 8.795-1.43 4.115-2.145 6.738-5.491 7.638-10.011.926-4.571-.206-8.657-3.215-12.233-1.132-1.354-2.495-2.477-3.883-3.575-2.469-1.915-5.066-3.652-7.741-5.312l-6.969-4.214-9.207-5.159-4.166-2.247-.154-.077s-.026 0-.026.026zm9.104 23.597l-9.695-15.221c.026 0 .026-.026.051-.026l15.122 9.985.026-.026-2.135-3.933-2.16-3.933c.051.026.103.051.129.077a101.39 101.39 0 0 1 6.609 3.882c3.035 1.915 6.044 3.882 8.872 6.078a55.06 55.06 0 0 1 2.623 2.247c.257.23.463.485.669.741 2.006 2.503 2.803 5.337 2.16 8.479-.694 3.345-2.623 5.797-5.658 7.329-3.292 1.66-6.584 1.532-9.824-.255-1.183-.664-2.16-1.583-3.06-2.605-1.44-1.634-2.752-3.345-3.986-5.133-2.135-3.013-4.115-6.104-5.992-9.27-.129-.23-.283-.46-.411-.715l.026-.026 6.635 2.324z" fill="#ffdde2"/><path d="M140.048 29.19l-6.584-2.324-.026.026.411.715a126.68 126.68 0 0 0 5.992 9.27l3.986 5.133c.9 1.022 1.877 1.941 3.06 2.605 3.215 1.788 6.532 1.915 9.824.255 3.035-1.532 4.989-4.009 5.658-7.329.643-3.141-.154-5.976-2.16-8.479-.206-.255-.437-.536-.669-.741l-2.623-2.247c-2.829-2.222-5.838-4.163-8.872-6.078-2.16-1.354-4.346-2.656-6.609-3.882-.026-.026-.051-.026-.129-.077l2.16 3.933 2.135 3.933-.026.026-15.122-9.985c-.026 0-.026.026-.051.026l9.644 15.221z" fill="#ff486a"/><path d="M158.136 32.645c-.05-.076-.126-.152-.201-.202-.05-.025-.075-.051-.126-.076-.101-.051-.201-.051-.302-.051h0-.025l-.477.354-.025.025-4.372 3.207-4.473-3.283-.452-.328h-.101a.76.76 0 0 0-.754.758v.404 6.439c0 .076 0 .152.025.202.101.303.377.53.729.53h.553v-6.237l3.242 2.374 1.055.783.201.152 1.231-.909 3.116-2.298V40.6h.553c.352 0 .628-.227.729-.53.025-.076.025-.152.025-.202v-6.313-.53c-.025-.126-.05-.253-.151-.379z" fill="#fff"/></g></svg>