<?xml version="1.0" encoding="utf-8"?>
<!-- Generator: Adobe Illustrator 19.1.0, SVG Export Plug-In . SVG Version: 6.00 Build 0)  -->
<svg version="1.1" id="Logo" xmlns="http://www.w3.org/2000/svg" xmlns:xlink="http://www.w3.org/1999/xlink" x="0px" y="0px"
	 viewBox="0 0 601.1 195.8" style="enable-background:new 0 0 601.1 195.8;" xml:space="preserve">
<style type="text/css">
	.st0{fill:#0F1031;}
	.st1{fill:#FCDCE1;}
	.st2{fill:#EF4B6C;}
	.st3{fill:#FFFFFF;}
</style>
<g id="Color1">
	<g>
		<path class="st0" d="M6.4,163.1v-41.9H16v5.3c2.4-4.3,7.7-6.5,12.4-6.5c5.5,0,10.3,2.5,12.6,7.4c3.3-5.5,8.2-7.4,13.6-7.4
			c7.6,0,14.8,4.8,14.8,15.9v27.2h-9.6v-25.5c0-4.9-2.5-8.6-8.1-8.6c-5.2,0-8.7,4.1-8.7,9.3v24.9h-9.8v-25.5c0-4.8-2.4-8.6-8.1-8.6
			c-5.3,0-8.7,4-8.7,9.3v24.9H6.4z"/>
		<path class="st0" d="M91.6,139.1l10.8-1.6c2.4-0.3,3.1-1.5,3.1-3c0-3.5-2.4-6.4-7.9-6.4c-5.2,0-8.2,3.4-8.6,7.6l-9.1-2.1
			c0.8-7.2,7.3-13.7,17.6-13.7c12.9,0,17.8,7.3,17.8,15.7v20.8c0,3.8,0.4,6.3,0.5,6.7h-9.3c-0.1-0.3-0.4-2-0.4-5.3
			c-2,3.2-6.1,6.6-12.9,6.6c-8.8,0-14.2-6-14.2-12.6C78.9,144.3,84.5,140.1,91.6,139.1z M105.4,145.7v-1.9l-10.9,1.6
			c-3.1,0.5-5.6,2.2-5.6,5.7c0,2.8,2.1,5.4,6.1,5.4C100.6,156.6,105.4,153.9,105.4,145.7z"/>
		<path class="st0" d="M132.2,100c3.6,0,6.5,2.9,6.5,6.5s-2.9,6.5-6.5,6.5c-3.5,0-6.5-2.8-6.5-6.5S128.7,100,132.2,100z
			 M127.3,163.1v-41.9h9.9v41.9H127.3z"/>
		<path class="st0" d="M150.1,163.1v-62.3h10v62.3H150.1z"/>
		<path class="st0" d="M172.9,163.1v-41.9h9.5v5.3c2.4-4.3,7.7-6.5,12.4-6.5c5.5,0,10.3,2.5,12.6,7.4c3.3-5.5,8.2-7.4,13.6-7.4
			c7.6,0,14.8,4.8,14.8,15.9v27.2h-9.6v-25.5c0-4.9-2.5-8.6-8.1-8.6c-5.2,0-8.7,4.1-8.7,9.3v24.9h-9.8v-25.5c0-4.8-2.4-8.6-8.1-8.6
			c-5.3,0-8.7,4-8.7,9.3v24.9H172.9z"/>
		<path class="st0" d="M285.1,151.2c-2.2,7.3-8.9,13.2-18.9,13.2c-11.4,0-21.4-8.3-21.4-22.4c0-13.2,9.8-22,20.4-22
			c12.9,0,20.5,8.5,20.5,21.8c0,1.6-0.2,3-0.3,3.2h-30.6c0.3,6.4,5.2,10.9,11.4,10.9c6,0,9.1-3.2,10.5-7.3L285.1,151.2z
			 M275.5,137.6c-0.2-4.9-3.4-9.3-10.3-9.3c-6.3,0-9.9,4.8-10.2,9.3H275.5z"/>
		<path class="st0" d="M307.8,121.2h8.7v8.9h-8.7v19.4c0,3.7,1.6,5.2,5.3,5.2c1.4,0,3-0.3,3.4-0.3v8.3c-0.6,0.3-2.5,0.9-6.1,0.9
			c-7.7,0-12.6-4.6-12.6-12.5v-21.1h-7.7v-8.9h2.1c4.5,0,6.5-2.8,6.5-6.5v-6.3h9V121.2z"/>
		<path class="st0" d="M363.3,151.2c-2.2,7.3-8.9,13.2-18.9,13.2c-11.4,0-21.4-8.3-21.4-22.4c0-13.2,9.8-22,20.4-22
			c12.9,0,20.5,8.5,20.5,21.8c0,1.6-0.2,3-0.3,3.2H333c0.3,6.4,5.2,10.9,11.4,10.9c6,0,9.1-3.2,10.5-7.3L363.3,151.2z M353.8,137.6
			c-0.2-4.9-3.4-9.3-10.3-9.3c-6.3,0-9.9,4.8-10.2,9.3H353.8z"/>
		<path class="st0" d="M413.6,142.1c0,12.9-9.2,22.3-21.8,22.3c-12.5,0-21.7-9.4-21.7-22.3c0-12.8,9.2-22.2,21.7-22.2
			C404.4,119.9,413.6,129.3,413.6,142.1z M403.5,142.1c0-8.7-5.5-13.2-11.7-13.2c-6.1,0-11.7,4.5-11.7,13.2s5.6,13.3,11.7,13.3
			C398,155.5,403.5,150.9,403.5,142.1z"/>
		<path class="st0" d="M447.7,131.1c-1.1-0.2-2.2-0.3-3.3-0.3c-7.7,0-11.3,4.5-11.3,12.3v20h-10v-41.9h9.7v6.7
			c2-4.6,6.6-7.2,12.1-7.2c1.2,0,2.2,0.2,2.7,0.3V131.1z"/>
	</g>
	<g>
		<g>
			<g>
				<path class="st1" d="M462.3,21.9c4.1,7.5,8.1,15.1,12.2,22.6c0,0-0.1,0.1-0.1,0.1C451.8,29.7,429.3,14.9,406.7,0
					c0,0-0.1,0.1-0.1,0.1c17.6,27.8,35.3,55.6,52.9,83.4c0,0.1-0.1,0.1-0.1,0.2c-7.5-2.7-15-5.4-22.7-8.2c0.7,1.3,1.3,2.4,1.9,3.5
					c5.3,9.4,10.4,18.9,15.8,28.2C461.5,119.8,469,132,477,144c5.6,8.3,11.4,16.5,17.7,24.3c3.8,4.7,7.7,9.2,12.2,13.2
					c8.3,7.4,18,11.9,29,13.6c12,1.8,23.5,0.1,34.2-5.6c16-8.4,26.2-21.5,29.7-39.2c3.6-17.9-0.8-33.9-12.5-47.9
					c-4.4-5.3-9.7-9.7-15.1-14c-9.6-7.5-19.7-14.3-30.1-20.8c-9-5.6-18-11.2-27.1-16.5c-11.9-6.9-23.8-13.5-35.8-20.2
					c-5.4-3-10.8-5.9-16.2-8.8c-0.2-0.1-0.4-0.2-0.6-0.3C462.4,21.8,462.3,21.8,462.3,21.9z M497.7,114.3
					c-12.6-19.9-25.1-39.8-37.7-59.6c0.1,0,0.1-0.1,0.2-0.1c19.6,13,39.2,26,58.8,39.1c0,0,0.1-0.1,0.1-0.1
					c-2.8-5.1-5.5-10.3-8.3-15.4c-2.8-5.1-5.5-10.2-8.4-15.4c0.2,0.1,0.4,0.2,0.5,0.3c8.7,4.7,17.3,9.8,25.7,15.2
					c11.8,7.5,23.5,15.2,34.5,23.8c3.5,2.8,6.9,5.8,10.2,8.8c1,0.9,1.8,1.9,2.6,2.9c7.8,9.8,10.9,20.9,8.4,33.2
					c-2.7,13.1-10.2,22.7-22,28.7c-12.8,6.5-25.6,6-38.2-1c-4.6-2.6-8.4-6.2-11.9-10.2c-5.6-6.4-10.7-13.1-15.5-20.1
					c-8.3-11.8-16-23.9-23.3-36.3c-0.5-0.9-1.1-1.8-1.6-2.8c0,0,0.1-0.1,0.1-0.1C480.6,108.2,489.1,111.2,497.7,114.3z"/>
				<path class="st2" d="M497.7,114.3c-8.6-3.1-17.1-6.1-25.6-9.1c0,0-0.1,0.1-0.1,0.1c0.5,0.9,1,1.8,1.6,2.8
					c7.2,12.4,15,24.5,23.3,36.3c4.9,6.9,9.9,13.7,15.5,20.1c3.5,4,7.3,7.6,11.9,10.2c12.5,7,25.4,7.5,38.2,1
					c11.8-6,19.4-15.7,22-28.7c2.5-12.3-0.6-23.4-8.4-33.2c-0.8-1-1.7-2.1-2.6-2.9c-3.4-3-6.7-6-10.2-8.8
					c-11-8.7-22.7-16.3-34.5-23.8c-8.4-5.3-16.9-10.4-25.7-15.2c-0.1-0.1-0.2-0.1-0.5-0.3c2.8,5.2,5.6,10.3,8.4,15.4
					c2.8,5.1,5.5,10.2,8.3,15.4c0,0-0.1,0.1-0.1,0.1c-19.6-13-39.2-26-58.8-39.1c-0.1,0-0.1,0.1-0.2,0.1
					C472.6,74.5,485.1,94.3,497.7,114.3z"/>
			</g>
		</g>
		<path class="st3" d="M569.9,126.8c-0.2-0.3-0.5-0.6-0.8-0.8c-0.2-0.1-0.3-0.2-0.5-0.3c-0.4-0.2-0.8-0.2-1.2-0.2l0,0h-0.1l-1.9,1.4
			l-0.1,0.1l-17.4,12.7l-17.8-13l-1.8-1.3h-0.4c-1.6,0-3,1.3-3,3v1.6v25.5c0,0.3,0,0.6,0.1,0.8c0.4,1.2,1.5,2.1,2.9,2.1h2.2l0-24.7
			l12.9,9.4l4.2,3.1l0.8,0.6l4.9-3.6l12.4-9.1v24.2h2.2c1.4,0,2.5-0.9,2.9-2.1c0.1-0.3,0.1-0.6,0.1-0.8v-25v-2.1
			C570.4,127.8,570.3,127.3,569.9,126.8z"/>
	</g>
</g>
</svg>
