<svg viewBox="0 0 512 512" fill="none" xmlns="http://www.w3.org/2000/svg">
<path d="M489 255.9C489 255.7 489 255.4 489 255.2C489 253.6 489 252 488.9 250.5C488.9 249.6 488.8 248.7 488.8 247.7C488.8 246.8 488.7 245.9 488.7 245C488.6 243.9 488.6 242.8 488.5 241.7C488.5 241 488.4 240.3 488.4 239.6C488.3 238.4 488.2 237.2 488.1 236C488.1 235.5 488 234.9 488 234.4C487.9 233.1 487.7 231.8 487.6 230.4C487.6 230.1 487.5 229.7 487.5 229.4C474.3 113.2 375.7 22.9 256 22.9C136.3 22.9 37.7 113.2 24.5 229.5C24.5 229.8 24.4 230.2 24.4 230.5C24.3 231.8 24.1 233.1 24 234.5C23.9 235 23.9 235.6 23.9 236.1C23.8 237.3 23.7 238.5 23.6 239.7C23.6 240.4 23.5 241.1 23.5 241.8C23.4 242.9 23.4 244 23.3 245.1C23.3 246 23.2 246.9 23.2 247.8C23.2 248.7 23.1 249.6 23.1 250.6C23.1 252.2 23 253.8 23 255.3C23 255.5 23 255.8 23 256C23 256 23 256 23 256.1C23 256.2 23 256.1 23 256.2C23 256.4 23 256.7 23 256.9C23 258.5 23 260.1 23.1 261.6C23.1 262.5 23.2 263.4 23.2 264.4C23.2 265.3 23.3 266.2 23.3 267.1C23.4 268.2 23.4 269.3 23.5 270.4C23.5 271.1 23.6 271.8 23.6 272.5C23.7 273.7 23.8 274.9 23.9 276.1C23.9 276.6 24 277.2 24 277.7C24.1 279 24.3 280.3 24.4 281.7C24.4 282 24.5 282.4 24.5 282.7C37.7 398.8 136.3 489.1 256 489.1C375.7 489.1 474.3 398.8 487.5 282.6C487.5 282.3 487.6 281.9 487.6 281.6C487.7 280.3 487.9 279 488 277.6C488.1 277.1 488.1 276.5 488.1 276C488.2 274.8 488.3 273.6 488.4 272.4C488.4 271.7 488.5 271 488.5 270.3C488.6 269.2 488.6 268.1 488.7 267C488.7 266.1 488.8 265.2 488.8 264.3C488.8 263.4 488.9 262.5 488.9 261.5C488.9 259.9 489 258.3 489 256.8C489 256.6 489 256.3 489 256.1C489 256 489 256 489 255.9C489 256 489 256 489 255.9Z" fill="#D85140"/>
<path d="M256 415.5C344.089 415.5 415.5 344.089 415.5 256C415.5 167.911 344.089 96.5 256 96.5C167.911 96.5 96.5 167.911 96.5 256C96.5 344.089 167.911 415.5 256 415.5Z" fill="white"/>
<path d="M181.9 181.9L330.1 330.1" stroke="#D85140" stroke-width="30" stroke-miterlimit="10"/>
<path d="M181.9 330.1L330.1 181.9" stroke="#D85140" stroke-width="30" stroke-miterlimit="10"/>
</svg>
