<?xml version="1.0" encoding="utf-8"?>
<!-- Generator: Adobe Illustrator 22.0.0, SVG Export Plug-In . SVG Version: 6.00 Build 0)  -->
<svg version="1.1" id="Calque_1" xmlns="http://www.w3.org/2000/svg" xmlns:xlink="http://www.w3.org/1999/xlink" x="0px" y="0px"
	 viewBox="0 0 500 500" style="enable-background:new 0 0 500 500;" xml:space="preserve">
<style type="text/css">
	.st0{fill:#FFDDE2;}
	.st1{fill:#FF486A;}
	.st2{fill:#FFFFFF;}
</style>
<g>
	<g>
		<g>
			<path class="st0" d="M145.1,59.2c10.2,19,20.5,38.1,30.7,57.1c-0.1,0.1-0.2,0.2-0.3,0.3C118.7,79,61.8,41.5,5,4
				C4.9,4.1,4.7,4.2,4.6,4.4c44.5,70.2,89,140.4,133.5,210.6c-0.1,0.2-0.2,0.4-0.3,0.5c-19-6.8-37.9-13.7-57.3-20.7
				c1.8,3.2,3.3,6,4.8,8.7c13.3,23.8,26.4,47.6,39.9,71.2c18,31.5,37.1,62.5,57.3,92.6c14.1,21,28.7,41.6,44.6,61.2
				c9.6,11.8,19.4,23.3,30.8,33.3c21,18.6,45.4,30.1,73.2,34.3c30.3,4.6,59.2,0.2,86.3-14.1c40.3-21.3,66-54.3,75.1-99
				c9.1-45.1-2-85.6-31.5-120.9c-11.1-13.4-24.5-24.5-38.1-35.2c-24.3-19-49.8-36.1-75.9-52.4c-22.6-14.1-45.3-28.2-68.4-41.6
				C248.5,115.6,218.2,98.9,188,82c-13.6-7.6-27.3-14.9-41-22.3c-0.5-0.3-1-0.5-1.6-0.8C145.4,59,145.3,59.1,145.1,59.2z
				 M234.6,292.4C202.8,242,171.1,192,139.5,142c0.1-0.1,0.3-0.2,0.4-0.3c49.5,32.9,99,65.7,148.5,98.6c0.1-0.1,0.2-0.2,0.3-0.3
				c-7-12.9-13.9-25.9-20.9-38.8c-7-12.9-14-25.8-21.1-38.9c0.6,0.3,0.9,0.5,1.2,0.6c22.1,11.9,43.6,24.8,64.8,38.2
				c29.9,18.9,59.4,38.2,87.2,60.1c8.9,7,17.3,14.6,25.8,22.1c2.5,2.2,4.6,4.8,6.7,7.4c19.7,24.7,27.5,52.7,21.2,83.8
				c-6.7,32.9-25.8,57.3-55.6,72.5c-32.3,16.5-64.7,15-96.3-2.6c-11.7-6.5-21.3-15.6-30.1-25.6c-14.2-16-26.9-33.2-39.2-50.6
				c-20.8-29.7-40.4-60.2-58.7-91.5c-1.4-2.3-2.7-4.7-4-7c0.1-0.1,0.2-0.2,0.3-0.3C191.4,277,212.9,284.6,234.6,292.4z"/>
			<path class="st1" d="M234.6,292.4c-21.7-7.7-43.2-15.4-64.6-23c-0.1,0.1-0.2,0.2-0.3,0.3c1.3,2.3,2.6,4.7,4,7
				c18.3,31.3,37.9,61.8,58.7,91.5c12.3,17.5,25,34.6,39.2,50.6c8.8,10,18.4,19.1,30.1,25.6c31.6,17.6,64,19,96.3,2.6
				c29.8-15.2,48.8-39.5,55.6-72.5c6.3-31.1-1.5-59.1-21.2-83.8c-2.1-2.6-4.2-5.2-6.7-7.4c-8.5-7.5-16.9-15.1-25.8-22.1
				c-27.8-21.9-57.3-41.2-87.2-60.1c-21.2-13.4-42.7-26.3-64.8-38.2c-0.3-0.2-0.6-0.3-1.2-0.6c7.1,13.2,14.1,26.1,21.1,38.9
				c7,12.9,14,25.9,20.9,38.8c-0.1,0.1-0.2,0.2-0.3,0.3c-49.5-32.9-99-65.7-148.5-98.6c-0.1,0.1-0.3,0.2-0.4,0.3
				C171.1,192,202.8,242,234.6,292.4z"/>
		</g>
	</g>
	<path class="st2" d="M416.8,324c-0.5-0.8-1.2-1.5-2-2c-0.4-0.3-0.8-0.5-1.3-0.7c-0.9-0.4-1.9-0.6-2.9-0.6h0h-0.3l-4.9,3.5l-0.4,0.3
		l-44,32.1l-44.8-32.7l-4.4-3.2h-1.1c-4.2,0-7.5,3.4-7.5,7.5v4.1l0,64.3c0,0.7,0.1,1.5,0.3,2.1c0.9,3.1,3.8,5.4,7.2,5.4l5.6,0
		l0-62.2l32.5,23.7l10.7,7.8l2,1.4l12.3-9L405,343l0,61.1h5.6c3.4,0,6.3-2.3,7.2-5.4c0.2-0.7,0.3-1.4,0.3-2.1l0-63.2v-5.2
		C418.1,326.6,417.6,325.2,416.8,324z"/>
</g>
</svg>
