<svg width="18" height="22" viewBox="0 0 18 22" fill="none" xmlns="http://www.w3.org/2000/svg">
<path d="M11 1L11.7071 0.292893C11.5196 0.105357 11.2652 0 11 0V1ZM3 1L3 0L3 1ZM1 3H0H1ZM1 19H0H1ZM17 7H18C18 6.73478 17.8946 6.48043 17.7071 6.29289L17 7ZM11 7H10C10 7.55228 10.4477 8 11 8V7ZM13 13C13.5523 13 14 12.5523 14 12C14 11.4477 13.5523 11 13 11V13ZM5 11C4.44772 11 4 11.4477 4 12C4 12.5523 4.44772 13 5 13V11ZM13 17C13.5523 17 14 16.5523 14 16C14 15.4477 13.5523 15 13 15V17ZM5 15C4.44772 15 4 15.4477 4 16C4 16.5523 4.44772 17 5 17V15ZM7 9C7.55228 9 8 8.55228 8 8C8 7.44772 7.55228 7 7 7V9ZM5 7C4.44772 7 4 7.44772 4 8C4 8.55228 4.44772 9 5 9V7ZM11 0H3V2H11V0ZM3 0C2.20435 0 1.44129 0.31607 0.87868 0.87868L2.29289 2.29289C2.48043 2.10536 2.73478 2 3 2L3 0ZM0.87868 0.87868C0.31607 1.44129 0 2.20435 0 3L2 3C2 2.73478 2.10536 2.48043 2.29289 2.29289L0.87868 0.87868ZM0 3V19H2V3H0ZM0 19C0 19.7956 0.31607 20.5587 0.87868 21.1213L2.29289 19.7071C2.10536 19.5196 2 19.2652 2 19H0ZM0.87868 21.1213C1.44129 21.6839 2.20435 22 3 22V20C2.73478 20 2.48043 19.8946 2.29289 19.7071L0.87868 21.1213ZM3 22H15V20H3V22ZM15 22C15.7957 22 16.5587 21.6839 17.1213 21.1213L15.7071 19.7071C15.5196 19.8946 15.2652 20 15 20V22ZM17.1213 21.1213C17.6839 20.5587 18 19.7957 18 19H16C16 19.2652 15.8946 19.5196 15.7071 19.7071L17.1213 21.1213ZM18 19V7H16V19H18ZM17.7071 6.29289L11.7071 0.292893L10.2929 1.70711L16.2929 7.70711L17.7071 6.29289ZM10 1V7H12V1H10ZM11 8H17V6H11V8ZM13 11H5V13H13V11ZM13 15H5V17H13V15ZM7 7H5V9H7V7Z" fill="#1A53FF"/>
</svg>
