<?xml version="1.0" encoding="UTF-8"?>
<svg width="108px" height="42px" viewBox="0 0 108 42" version="1.1" xmlns="http://www.w3.org/2000/svg" xmlns:xlink="http://www.w3.org/1999/xlink">
    <!-- Generator: Sketch 52.4 (67378) - http://www.bohemiancoding.com/sketch -->
    <title>GDPR compliant - GDPR Copy 4</title>
    <desc>Created with Sketch.</desc>
    <g id="Page-1" stroke="none" stroke-width="1" fill="none" fill-rule="evenodd">
        <g id="GDPR-Badges" transform="translate(-427.000000, -294.000000)">
            <g id="GDPR-compliant---GDPR-Copy-4" transform="translate(428.000000, 295.000000)">
                <rect id="Rectangle-" stroke="#FFFFFF" fill="#FFFFFF" x="-0.5" y="-0.5" width="107" height="41" rx="6"></rect>
                <path d="M6,0 L40,0 L40,40 L6,40 C2.6862915,40 4.05812251e-16,37.3137085 0,34 L0,6 C-4.05812251e-16,2.6862915 2.6862915,6.08718376e-16 6,0 Z" id="Rectangle-" fill="#2050E0"></path>
                <g id="Group" transform="translate(6.000000, 6.000000)" fill="#F8D12E" fill-rule="nonzero">
                    <polygon id="Shape" points="14.0000393 0 14.4535908 1.46796068 15.9215686 1.46796068 14.7340281 2.37517657 15.1875797 3.84313725 14.0000393 2.93534337 12.8127343 3.84313725 13.2663644 2.37517657 12.0784314 1.46796068 13.5464092 1.46796068"></polygon>
                    <polygon id="Shape" points="14.0000393 24.1568627 14.4535908 25.6252632 15.9215686 25.6252632 14.7340281 26.5323426 15.1875797 28 14.0000393 27.0930031 12.8127343 28 13.2663644 26.5323426 12.0784314 25.6252632 13.5464092 25.6252632"></polygon>
                    <polygon id="Shape" points="20.0392157 2.19607843 20.4925966 3.66402247 21.9607843 3.66402247 20.7729955 4.57160186 21.2266904 6.03921569 20.0392157 5.1316363 18.8515054 6.03921569 19.3051218 4.57160186 18.1176471 3.66402247 19.5858348 3.66402247"></polygon>
                    <polygon id="Shape" points="24.9217649 18 25.375118 19.468444 26.8431373 19.468444 25.6554997 20.3756015 26.1094024 21.8431373 24.9217649 20.9363101 23.7340489 21.8431373 24.187716 20.3756015 23 19.468444 24.4680977 19.468444"></polygon>
                    <polygon id="Shape" points="26.0785491 12.0784314 26.5319023 13.5462659 28 13.5462659 26.8123625 14.4534038 27.2659511 15.9215686 26.0785491 15.014761 24.8909116 15.9215686 25.3448143 14.4534038 24.1568627 13.5462659 25.6246464 13.5462659"></polygon>
                    <polygon id="Shape" points="1.92184346 12.0784314 2.37523362 13.5462659 3.84313725 13.5462659 2.65540266 14.4534038 3.10934248 15.9215686 1.92184346 15.014761 0.734030343 15.9215686 1.18773459 14.4534038 0 13.5462659 1.46813921 13.5462659"></polygon>
                    <polygon id="Shape" points="2.92184346 18 3.37523362 19.468444 4.84313725 19.468444 3.65571675 20.3756015 4.10902839 21.8431373 2.92184346 20.9363101 1.73410887 21.8431373 2.18773459 20.3756015 1 19.468444 2.46821773 19.468444"></polygon>
                    <polygon id="Shape" points="24.9217649 6 25.375118 7.46844404 26.8431373 7.46844404 25.6554997 8.37560145 26.1094024 9.84313725 24.9217649 8.93631011 23.7340489 9.84313725 24.187716 8.37560145 23 7.46844404 24.4680977 7.46844404"></polygon>
                    <polygon id="Shape" points="3.42184346 6 3.87523362 7.46844404 5.34313725 7.46844404 4.15571675 8.37560145 4.60902839 9.84313725 3.42184346 8.93631011 2.23410887 9.84313725 2.68773459 8.37560145 1.5 7.46844404 2.96821773 7.46844404"></polygon>
                    <polygon id="Shape" points="21.1373727 23.0588235 21.5907258 24.5265635 23.0588235 24.5265635 21.8708719 25.4342208 22.3247747 26.9019608 21.1373727 25.9948813 19.9494211 26.9019608 20.4034023 25.4342208 19.2156863 24.5265635 20.683784 24.5265635"></polygon>
                    <polygon id="Shape" points="7.96082358 2.19607843 8.41413521 3.66402247 9.88235294 3.66402247 8.69461835 4.57160186 9.14855817 6.03921569 7.96082358 5.1316363 6.77332455 6.03921569 7.22695028 4.57160186 6.03921569 3.66402247 7.50711933 3.66402247"></polygon>
                    <polygon id="Shape" points="6.86262732 23.0588235 7.31621598 24.5273186 8.78431373 24.5273186 7.5966762 25.4341262 8.05026485 26.9019608 6.86262732 25.9954008 5.67522534 26.9019608 6.128814 25.4341262 4.94117647 24.5273186 6.40896015 24.5273186"></polygon>
                </g>
                <path d="M47,15.5957447 C47,18.4197965 49.1632047,20.1914894 51.8204748,20.1914894 C53.5029674,20.1914894 54.7982196,19.5121184 55.7596439,18.4597595 L55.7596439,14.9829787 L51.4599407,14.9829787 L51.4599407,16.8878816 L53.5029674,16.8878816 L53.5029674,17.6338575 C53.1424332,17.9269195 52.5148368,18.1666975 51.8204748,18.1666975 C50.3649852,18.1666975 49.3367953,17.0477336 49.3367953,15.5957447 C49.3367953,14.1437558 50.3649852,13.0247919 51.8204748,13.0247919 C52.6617211,13.0247919 53.34273,13.4910268 53.7032641,14.0771508 L55.6261128,13.0647549 C54.9718101,11.9591119 53.7700297,11 51.8204748,11 C49.1632047,11 47,12.7716929 47,15.5957447 Z M57.1083086,20.0316374 L57.1083086,11.146531 L60.847181,11.146531 C63.6513353,11.146531 65.6676558,12.8249769 65.6676558,15.5824237 C65.6676558,18.3398705 63.6513353,20.0316374 60.8605341,20.0316374 L57.1083086,20.0316374 Z M59.4050445,18.0334875 L60.847181,18.0334875 C62.4094955,18.0334875 63.3175074,16.9012026 63.3175074,15.5824237 C63.3175074,14.2103608 62.4896142,13.1446809 60.8605341,13.1446809 L59.4050445,13.1446809 L59.4050445,18.0334875 Z M66.8160237,20.0316374 L66.8160237,11.146531 L71.2759644,11.146531 C73.2789318,11.146531 74.3738872,12.4919519 74.3738872,14.1037928 C74.3738872,15.7023127 73.2789318,17.0210916 71.2759644,17.0210916 L69.1127596,17.0210916 L69.1127596,20.0316374 L66.8160237,20.0316374 Z M72.037092,14.0904718 C72.037092,13.4777058 71.5830861,13.0780759 70.9688427,13.0780759 L69.1127596,13.0780759 L69.1127596,15.0762257 L70.9688427,15.0762257 C71.5830861,15.0762257 72.037092,14.6899167 72.037092,14.0904718 Z M80.3694362,20.0316374 L78.8738872,17.0210916 L77.6988131,17.0210916 L77.6988131,20.0316374 L75.4020772,20.0316374 L75.4020772,11.146531 L79.8620178,11.146531 C81.8382789,11.146531 82.9599407,12.4519889 82.9599407,14.1037928 C82.9599407,15.6490287 82.0118694,16.4749306 81.1839763,16.7679926 L83,20.0316374 L80.3694362,20.0316374 Z M80.6231454,14.0771508 C80.6231454,13.4643848 80.115727,13.0780759 79.5148368,13.0780759 L77.6988131,13.0780759 L77.6988131,15.0762257 L79.5148368,15.0762257 C80.115727,15.0762257 80.6231454,14.6899167 80.6231454,14.0771508 Z" id="GDPR" fill="#2B3945"></path>
                <path d="M23.1428571,19.1363636 L22.7142857,19.1363636 L22.7142857,17.8068182 C22.7142857,16.259375 21.4964286,15 20,15 C18.5035714,15 17.2857143,16.259375 17.2857143,17.8068182 L17.2857143,19.1363636 L16.8571429,19.1363636 C16.3839286,19.1363636 16,19.5333807 16,20.0227273 L16,23.5681818 C16,24.0575284 16.3839286,24.4545455 16.8571429,24.4545455 L23.1428571,24.4545455 C23.6160714,24.4545455 24,24.0575284 24,23.5681818 L24,20.0227273 C24,19.5333807 23.6160714,19.1363636 23.1428571,19.1363636 Z M21.2857143,19.1363636 L18.7142857,19.1363636 L18.7142857,17.8068182 C18.7142857,17.0737216 19.2910714,16.4772727 20,16.4772727 C20.7089286,16.4772727 21.2857143,17.0737216 21.2857143,17.8068182 L21.2857143,19.1363636 Z" id="Shape" fill="#FFFFFF" fill-rule="nonzero"></path>
                <text id="Compliant" font-family="HelveticaNeue-Medium, Helvetica Neue" font-size="8" font-weight="400" letter-spacing="0.200000003" fill="#2B3945">
                    <tspan x="47" y="31">COMPLIANT</tspan>
                </text>
            </g>
        </g>
    </g>
</svg>