<?xml version="1.0" encoding="UTF-8"?>
<svg width="20px" height="20px" viewBox="0 0 20 20" version="1.1" xmlns="http://www.w3.org/2000/svg" xmlns:xlink="http://www.w3.org/1999/xlink">
    <!-- Generator: Sketch 52.4 (67378) - http://www.bohemiancoding.com/sketch -->
    <title>questionmark</title>
    <desc>Created with Sketch.</desc>
    <g id="Page-1" stroke="none" stroke-width="1" fill="none" fill-rule="evenodd">
        <g id="questionmark">
            <circle id="Oval" fill="#F6F6F6" cx="10" cy="10" r="10"></circle>
            <circle id="Oval_1_" fill="#2C7BFF" cx="10.1315789" cy="10.1315789" r="7.76315789"></circle>
            <path d="M10.768,16 L9.28,16 L9.28,8.304 L10.768,8.304 L10.768,16 Z M9.248,6.16 C9.04533232,5.9466656 8.944,5.69066816 8.944,5.392 C8.944,5.09333184 9.04799896,4.8373344 9.256,4.624 C9.46400104,4.4106656 9.71733184,4.304 10.016,4.304 C10.3146682,4.304 10.5706656,4.40799896 10.784,4.616 C10.9973344,4.82400104 11.104,5.08266512 11.104,5.392 C11.104,5.69066816 10.9973344,5.94399896 10.784,6.152 C10.5706656,6.36000104 10.3146682,6.464 10.016,6.464 C9.71733184,6.464 9.4613344,6.36266768 9.248,6.16 Z" id="i" fill="#FFFFFF"></path>
        </g>
    </g>
</svg>