<?xml version="1.0" encoding="UTF-8"?>
<svg width="18px" height="18px" viewBox="0 0 18 18" version="1.1" xmlns="http://www.w3.org/2000/svg" xmlns:xlink="http://www.w3.org/1999/xlink">
    <!-- Generator: Sketch 52.4 (67378) - http://www.bohemiancoding.com/sketch -->
    <title>info</title>
    <desc>Created with Sketch.</desc>
    <g id="Page-1" stroke="none" stroke-width="1" fill="none" fill-rule="evenodd">
        <g id="info">
            <circle id="Oval" fill="#F6F6F6" cx="9" cy="9" r="9"></circle>
            <circle id="Oval_1_" fill="#6C757D" cx="9.11842101" cy="9.11842101" r="6.9868421"></circle>
            <path d="M9.6912,14.4 L8.352,14.4 L8.352,7.4736 L9.6912,7.4736 L9.6912,14.4 Z M8.3232,5.544 C8.14079909,5.35199904 8.0496,5.12160134 8.0496,4.8528 C8.0496,4.58399866 8.14319906,4.35360096 8.3304,4.1616 C8.51760094,3.96959904 8.74559866,3.8736 9.0144,3.8736 C9.28320134,3.8736 9.51359904,3.96719906 9.7056,4.1544 C9.89760096,4.34160094 9.9936,4.57439861 9.9936,4.8528 C9.9936,5.12160134 9.89760096,5.34959906 9.7056,5.5368 C9.51359904,5.72400094 9.28320134,5.8176 9.0144,5.8176 C8.74559866,5.8176 8.51520096,5.72640091 8.3232,5.544 Z" id="i" fill="#FFFFFF" fill-rule="nonzero"></path>
        </g>
    </g>
</svg>