<?xml version="1.0" encoding="utf-8"?>
<!-- Generator: Adobe Illustrator 22.0.0, SVG Export Plug-In . SVG Version: 6.00 Build 0)  -->
<svg version="1.1" id="Calque_1" xmlns="http://www.w3.org/2000/svg" xmlns:xlink="http://www.w3.org/1999/xlink" x="0px" y="0px"
	 viewBox="0 0 78 78" style="enable-background:new 0 0 78 78;" xml:space="preserve">
<style type="text/css">
	.st0{fill:#FFDDE2;stroke:#FFDDE2;}
	.st1{fill:#FF486A;}
	.st2{enable-background:new    ;}
	.st3{fill:#FFFFFF;}
</style>
<title>Number 1</title>
<desc>Created with Sketch.</desc>
<g id="Artboards">
	<g id="HOME" transform="translate(-281.000000, -1265.000000)">
		<g id="Tutorial" transform="translate(-131.000000, 528.000000)">
			<g id="Tutorial-steps" transform="translate(305.000000, 517.000000)">
				<g id="Numbers" transform="translate(108.000000, 221.000000)">
					<g id="Number-1">
						<circle id="Oval" class="st0" cx="38" cy="38" r="38"/>
						<circle id="Oval_1_" class="st1" cx="38.5" cy="38.5" r="29.5"/>
						<g class="st2">
							<path class="st3" d="M38.5,50.5c-1,0-1.9-0.1-2.7-0.4s-1.7-0.6-2.4-1.1c-0.7-0.5-1.4-1.2-1.9-1.9c-0.6-0.8-1-1.7-1.3-2.7
								l4.2-1.7c0.3,1.1,0.8,2,1.5,2.6s1.6,0.9,2.7,0.9c0.5,0,0.9-0.1,1.4-0.2c0.4-0.1,0.8-0.4,1.1-0.6c0.3-0.3,0.6-0.6,0.8-1
								c0.2-0.4,0.3-0.8,0.3-1.3c0-1-0.4-1.8-1.1-2.3s-1.8-0.8-3-0.8h-2v-4h1.8c0.5,0,0.9-0.1,1.3-0.2c0.4-0.1,0.8-0.3,1.1-0.5
								s0.6-0.5,0.8-0.9s0.3-0.8,0.3-1.3c0-0.8-0.3-1.4-0.8-1.9c-0.5-0.5-1.3-0.7-2.2-0.7c-1,0-1.8,0.3-2.3,0.8s-0.9,1.1-1.1,1.8
								l-4.1-1.7c0.2-0.6,0.5-1.2,0.9-1.8c0.4-0.6,0.9-1.1,1.5-1.6c0.6-0.5,1.4-0.9,2.2-1.2c0.8-0.3,1.8-0.5,2.9-0.5
								c1.1,0,2.1,0.2,3,0.5c0.9,0.3,1.7,0.8,2.4,1.3c0.7,0.6,1.2,1.2,1.5,2c0.4,0.8,0.5,1.6,0.5,2.5c0,0.7-0.1,1.3-0.3,1.8
								s-0.4,1-0.7,1.5c-0.3,0.4-0.6,0.8-0.9,1.1c-0.4,0.3-0.7,0.5-1.1,0.7v0.3c1.1,0.4,2,1.1,2.7,2.1c0.7,1,1.1,2.2,1.1,3.6
								c0,1-0.2,2-0.6,2.8c-0.4,0.9-0.9,1.6-1.6,2.2c-0.7,0.6-1.6,1.1-2.6,1.5C40.9,50.4,39.8,50.5,38.5,50.5z"/>
						</g>
					</g>
				</g>
			</g>
		</g>
	</g>
</g>
</svg>
