<?xml version="1.0" encoding="UTF-8"?>
<svg width="20px" height="20px" viewBox="0 0 20 20" version="1.1" xmlns="http://www.w3.org/2000/svg" xmlns:xlink="http://www.w3.org/1999/xlink">
    <!-- Generator: Sketch 52.4 (67378) - http://www.bohemiancoding.com/sketch -->
    <title>questionmark</title>
    <desc>Created with Sketch.</desc>
    <g id="Page-1" stroke="none" stroke-width="1" fill="none" fill-rule="evenodd">
        <g id="questionmark">
            <circle id="Oval" fill="#F6F6F6" cx="10" cy="10" r="10"></circle>
            <circle id="Oval_1_" fill="#414142" cx="10.1315789" cy="10.1315789" r="7.76315789"></circle>
            <path d="M10.544,12.752 L9.136,12.752 C9.12533328,12.6239994 9.12,12.4373346 9.12,12.192 C9.12,11.125328 9.56266224,10.2933363 10.448,9.696 L11.152,9.216 C11.7173362,8.83199808 12,8.30933664 12,7.648 C12,7.13599744 11.8346683,6.70400176 11.504,6.352 C11.1733317,5.99999824 10.704003,5.824 10.096,5.824 C9.44533008,5.824 8.94933504,6.02666464 8.608,6.432 C8.26666496,6.83733536 8.096,7.31733056 8.096,7.872 C8.096,8.1920016 8.13333296,8.45333232 8.208,8.656 L6.656,8.464 C6.59199968,8.23999888 6.56,7.98400144 6.56,7.696 C6.56,7.17333072 6.67733216,6.6720024 6.912,6.192 C7.14666784,5.7119976 7.54133056,5.29600176 8.096,4.944 C8.65066944,4.59199824 9.31732944,4.416 10.096,4.416 C11.162672,4.416 12.0133302,4.7359968 12.648,5.376 C13.2826698,6.0160032 13.6,6.76799568 13.6,7.632 C13.6,8.7520056 13.0560054,9.67999632 11.968,10.416 L11.232,10.912 C10.7626643,11.2320016 10.528,11.7439965 10.528,12.448 C10.528,12.5440005 10.5333333,12.6453328 10.544,12.752 Z M9.088,15.776 C8.88533232,15.5733323 8.784,15.3280014 8.784,15.04 C8.784,14.7519986 8.88533232,14.504001 9.088,14.296 C9.29066768,14.087999 9.53599856,13.984 9.824,13.984 C10.1120014,13.984 10.359999,14.087999 10.568,14.296 C10.776001,14.504001 10.88,14.7519986 10.88,15.04 C10.88,15.3280014 10.776001,15.5733323 10.568,15.776 C10.359999,15.9786677 10.1120014,16.08 9.824,16.08 C9.53599856,16.08 9.29066768,15.9786677 9.088,15.776 Z" id="?" fill="#FFFFFF"></path>
        </g>
    </g>
</svg>