<?xml version="1.0" encoding="UTF-8"?>
<svg width="25px" height="25px" viewBox="0 0 25 25" version="1.1" xmlns="http://www.w3.org/2000/svg" xmlns:xlink="http://www.w3.org/1999/xlink">
    <!-- Generator: Sketch 52.4 (67378) - http://www.bohemiancoding.com/sketch -->
    <title>questionmark</title>
    <desc>Created with Sketch.</desc>
    <defs>
        <path d="M12.9921053,14.825 L11.7184211,14.825 C11.7087719,14.7092099 11.7039474,14.540352 11.7039474,14.3184211 C11.7039474,13.3535039 12.104382,12.6008799 12.9052632,12.0605263 L13.5421053,11.6263158 C14.0535113,11.2789456 14.3092105,10.8061433 14.3092105,10.2078947 C14.3092105,9.74473453 14.1596506,9.35394896 13.8605263,9.03552632 C13.561402,8.71710367 13.1368449,8.55789474 12.5868421,8.55789474 C11.9982427,8.55789474 11.5495629,8.74122624 11.2407895,9.10789474 C10.932016,9.47456324 10.7776316,9.90876942 10.7776316,10.4105263 C10.7776316,10.7000014 10.8114032,10.9364026 10.8789474,11.1197368 L9.475,10.9460526 C9.41710497,10.74342 9.38815789,10.5118434 9.38815789,10.2513158 C9.38815789,9.77850641 9.49429718,9.32500217 9.70657895,8.89078947 C9.91886071,8.45657678 10.2758747,8.08026475 10.7776316,7.76184211 C11.2793885,7.44341946 11.8824526,7.28421053 12.5868421,7.28421053 C13.5517592,7.28421053 14.3212691,7.57368132 14.8953947,8.15263158 C15.4695204,8.73158184 15.7565789,9.4118382 15.7565789,10.1934211 C15.7565789,11.206584 15.2644786,12.0460493 14.2802632,12.7118421 L13.6144737,13.1605263 C13.1899102,13.4500014 12.9776316,13.9131547 12.9776316,14.55 C12.9776316,14.6368425 12.9824561,14.7285083 12.9921053,14.825 Z M11.675,17.5605263 C11.4916658,17.3771921 11.4,17.1552645 11.4,16.8947368 C11.4,16.6342092 11.4916658,16.4098694 11.675,16.2217105 C11.8583342,16.0335517 12.0802619,15.9394737 12.3407895,15.9394737 C12.6013171,15.9394737 12.825657,16.0335517 13.0138158,16.2217105 C13.2019746,16.4098694 13.2960526,16.6342092 13.2960526,16.8947368 C13.2960526,17.1552645 13.2019746,17.3771921 13.0138158,17.5605263 C12.825657,17.7438606 12.6013171,17.8355263 12.3407895,17.8355263 C12.0802619,17.8355263 11.8583342,17.7438606 11.675,17.5605263 Z" id="path-1"></path>
    </defs>
    <g id="Page-1" stroke="none" stroke-width="1" fill="none" fill-rule="evenodd">
        <g id="questionmark">
            <circle id="Oval" fill="#D3E3FF" cx="12.5" cy="12.5" r="12.5"></circle>
            <circle id="Oval_1_" fill="#2C7BFF" cx="12.6644737" cy="12.6644737" r="9.70394737"></circle>
            <g id="?">
                <use fill="#000000" xlink:href="#path-1"></use>
                <use fill="#FFFFFF" xlink:href="#path-1"></use>
            </g>
        </g>
    </g>
</svg>