<?xml version="1.0" encoding="UTF-8"?>
<svg width="20px" height="20px" viewBox="0 0 20 20" version="1.1" xmlns="http://www.w3.org/2000/svg" xmlns:xlink="http://www.w3.org/1999/xlink">
    <!-- Generator: Sketch 52.4 (67378) - http://www.bohemiancoding.com/sketch -->
    <title>questionmark</title>
    <desc>Created with Sketch.</desc>
    <defs>
        <path d="M10.3936842,11.86 L9.37473684,11.86 C9.36701751,11.767368 9.36315789,11.6322816 9.36315789,11.4547368 C9.36315789,10.6828032 9.68350557,10.0807039 10.3242105,9.64842105 L10.8336842,9.30105263 C11.2428091,9.02315651 11.4473684,8.64491467 11.4473684,8.16631579 C11.4473684,7.79578762 11.3277205,7.48315917 11.0884211,7.22842105 C10.8491216,6.97368294 10.5094759,6.84631579 10.0694737,6.84631579 C9.59859414,6.84631579 9.23965036,6.99298099 8.99263158,7.28631579 C8.7456128,7.57965059 8.62210526,7.92701554 8.62210526,8.32842105 C8.62210526,8.56000116 8.64912254,8.74912207 8.70315789,8.89578947 L7.58,8.75684211 C7.53368398,8.59473603 7.51052632,8.40947473 7.51052632,8.20105263 C7.51052632,7.82280513 7.59543775,7.46000174 7.76526316,7.11263158 C7.93508857,6.76526142 8.22069975,6.4642118 8.62210526,6.20947368 C9.02351078,5.95473557 9.50596209,5.82736842 10.0694737,5.82736842 C10.8414074,5.82736842 11.4570152,6.05894505 11.9163158,6.52210526 C12.3756163,6.98526547 12.6052632,7.52947056 12.6052632,8.15473684 C12.6052632,8.96526721 12.2115829,9.63683944 11.4242105,10.1694737 L10.8915789,10.5284211 C10.5519281,10.7600012 10.3821053,11.1305238 10.3821053,11.64 C10.3821053,11.709474 10.3859649,11.7828066 10.3936842,11.86 Z M9.34,14.0484211 C9.1933326,13.9017537 9.12,13.7242116 9.12,13.5157895 C9.12,13.3073674 9.1933326,13.1278955 9.34,12.9773684 C9.4866674,12.8268414 9.66420948,12.7515789 9.87263158,12.7515789 C10.0810537,12.7515789 10.2605256,12.8268414 10.4110526,12.9773684 C10.5615797,13.1278955 10.6368421,13.3073674 10.6368421,13.5157895 C10.6368421,13.7242116 10.5615797,13.9017537 10.4110526,14.0484211 C10.2605256,14.1950885 10.0810537,14.2684211 9.87263158,14.2684211 C9.66420948,14.2684211 9.4866674,14.1950885 9.34,14.0484211 Z" id="path-1"></path>
    </defs>
    <g id="Page-1" stroke="none" stroke-width="1" fill="none" fill-rule="evenodd">
        <g id="questionmark">
            <circle id="Oval" fill="#D3E3FF" cx="10" cy="10" r="10"></circle>
            <circle id="Oval_1_" fill="#2C7BFF" cx="10.1315789" cy="10.1315789" r="7.76315789"></circle>
            <g id="?">
                <use fill="#000000" xlink:href="#path-1"></use>
                <use fill="#FFFFFF" xlink:href="#path-1"></use>
            </g>
        </g>
    </g>
</svg>