<?xml version="1.0" encoding="UTF-8"?>
<svg width="287px" height="63px" viewBox="0 0 287 63" version="1.1" xmlns="http://www.w3.org/2000/svg" xmlns:xlink="http://www.w3.org/1999/xlink">
    <!-- Generator: Sketch 52.4 (67378) - http://www.bohemiancoding.com/sketch -->
    <title>ratings</title>
    <desc>Created with Sketch.</desc>
    <g id="Page-1" stroke="none" stroke-width="1" fill="none" fill-rule="evenodd">
        <g id="ratings">
            <g id="verified-partner" transform="translate(0.000000, 43.000000)" fill="#04143A" fill-rule="nonzero">
                <path d="M0.1435,4.545 L2.009,4.545 L5.248,12.95 L5.289,12.95 L8.569,4.545 L10.3935,4.545 L6.1295,15 L4.3665,15 L0.1435,4.545 Z M16.1745,15.328 C15.1768283,15.328 14.2816706,15.0888357 13.489,14.6105 C12.6963294,14.1321643 12.0779189,13.4727542 11.63375,12.63225 C11.1895811,11.7917458 10.9675,10.8453386 10.9675,9.793 C10.9675,8.7816616 11.1759146,7.8523376 11.59275,7.005 C12.0095854,6.1576624 12.6006628,5.4811692 13.366,4.9755 C14.1313372,4.4698308 15.0196616,4.217 16.031,4.217 C17.0560051,4.217 17.9443296,4.4459144 18.696,4.90375 C19.4476704,5.3615856 20.0250813,5.9936626 20.42825,6.8 C20.8314187,7.6063374 21.033,8.5288281 21.033,9.5675 C21.033,9.772501 21.0125002,9.9501659 20.9715,10.1005 L12.71,10.1005 C12.7510002,10.8931706 12.9423316,11.5628306 13.284,12.1095 C13.6256684,12.6561694 14.0595807,13.0661653 14.58575,13.3395 C15.1119193,13.6128347 15.6619971,13.7495 16.236,13.7495 C17.57534,13.7495 18.607163,13.1208396 19.3315,11.8635 L20.8075,12.581 C20.3564977,13.4283376 19.7449205,14.0979975 18.97275,14.59 C18.2005795,15.0820025 17.2678388,15.328 16.1745,15.328 Z M19.188,8.6655 C19.1606665,8.2281645 19.0376678,7.7908355 18.819,7.3535 C18.6003322,6.9161645 18.2552524,6.5471682 17.78375,6.2465 C17.3122476,5.9458318 16.7211702,5.7955 16.0105,5.7955 C15.1904959,5.7955 14.4969195,6.0585807 13.92975,6.58475 C13.3625805,7.1109193 12.9901676,7.8044957 12.8125,8.6655 L19.188,8.6655 Z M23.0625,4.545 L24.723,4.545 L24.723,6.226 L24.805,6.226 C25.010001,5.6519971 25.4063304,5.1770852 25.994,4.80125 C26.5816696,4.4254148 27.1966635,4.2375 27.839,4.2375 C28.3173357,4.2375 28.7273316,4.3058326 29.069,4.4425 L29.069,6.3285 C28.6316645,6.1098322 28.1396694,6.0005 27.593,6.0005 C27.0873308,6.0005 26.6226688,6.1439986 26.199,6.431 C25.7753312,6.7180014 25.4370846,7.1040809 25.18425,7.58925 C24.9314154,8.0744191 24.805,8.5971639 24.805,9.1575 L24.805,15 L23.0625,15 L23.0625,4.545 Z M31.775,2.618 C31.4333316,2.618 31.1395012,2.4950012 30.8935,2.249 C30.6474988,2.0029988 30.5245,1.7091684 30.5245,1.3675 C30.5245,1.0258316 30.6474988,0.7354179 30.8935,0.49625 C31.1395012,0.2570821 31.4333316,0.1375 31.775,0.1375 C32.1166684,0.1375 32.4104988,0.2570821 32.6565,0.49625 C32.9025012,0.7354179 33.0255,1.0258316 33.0255,1.3675 C33.0255,1.7091684 32.9059179,2.0029988 32.66675,2.249 C32.4275821,2.4950012 32.1303351,2.618 31.775,2.618 Z M30.914,4.545 L32.636,4.545 L32.636,15 L30.914,15 L30.914,4.545 Z M36.5925,6.1235 L34.6655,6.1235 L34.6655,4.545 L36.5925,4.545 L36.5925,3.4175 C36.5925,2.7614967 36.7428318,2.1875025 37.0435,1.6955 C37.3441682,1.2034975 37.7473308,0.8242513 38.253,0.55775 C38.7586692,0.2912487 39.3189969,0.158 39.934,0.158 C40.5216696,0.158 41.0341645,0.2399992 41.4715,0.404 L41.4715,2.1055 C41.2254988,2.0098329 40.9931678,1.9312503 40.7745,1.86975 C40.5558322,1.8082497 40.2961682,1.7775 39.9955,1.7775 C39.5444977,1.7775 39.1550016,1.9380817 38.827,2.25925 C38.4989984,2.5804183 38.335,3.0279971 38.335,3.602 L38.335,4.545 L41.0205,4.545 L41.0205,6.1235 L38.335,6.1235 L38.335,15 L36.5925,15 L36.5925,6.1235 Z M43.9725,2.618 C43.6308316,2.618 43.3370012,2.4950012 43.091,2.249 C42.8449988,2.0029988 42.722,1.7091684 42.722,1.3675 C42.722,1.0258316 42.8449988,0.7354179 43.091,0.49625 C43.3370012,0.2570821 43.6308316,0.1375 43.9725,0.1375 C44.3141684,0.1375 44.6079988,0.2570821 44.854,0.49625 C45.1000012,0.7354179 45.223,1.0258316 45.223,1.3675 C45.223,1.7091684 45.1034179,2.0029988 44.86425,2.249 C44.6250821,2.4950012 44.3278351,2.618 43.9725,2.618 Z M43.1115,4.545 L44.8335,4.545 L44.8335,15 L43.1115,15 L43.1115,4.545 Z M52.1315,15.328 C51.1338283,15.328 50.2386706,15.0888357 49.446,14.6105 C48.6533294,14.1321643 48.0349189,13.4727542 47.59075,12.63225 C47.1465811,11.7917458 46.9245,10.8453386 46.9245,9.793 C46.9245,8.7816616 47.1329146,7.8523376 47.54975,7.005 C47.9665854,6.1576624 48.5576628,5.4811692 49.323,4.9755 C50.0883372,4.4698308 50.9766616,4.217 51.988,4.217 C53.0130051,4.217 53.9013296,4.4459144 54.653,4.90375 C55.4046704,5.3615856 55.9820813,5.9936626 56.38525,6.8 C56.7884187,7.6063374 56.99,8.5288281 56.99,9.5675 C56.99,9.772501 56.9695002,9.9501659 56.9285,10.1005 L48.667,10.1005 C48.7080002,10.8931706 48.8993316,11.5628306 49.241,12.1095 C49.5826684,12.6561694 50.0165807,13.0661653 50.54275,13.3395 C51.0689193,13.6128347 51.6189971,13.7495 52.193,13.7495 C53.53234,13.7495 54.564163,13.1208396 55.2885,11.8635 L56.7645,12.581 C56.3134977,13.4283376 55.7019205,14.0979975 54.92975,14.59 C54.1575795,15.0820025 53.2248388,15.328 52.1315,15.328 Z M55.145,8.6655 C55.1176665,8.2281645 54.9946678,7.7908355 54.776,7.3535 C54.5573322,6.9161645 54.2122524,6.5471682 53.74075,6.2465 C53.2692476,5.9458318 52.6781702,5.7955 51.9675,5.7955 C51.1474959,5.7955 50.4539195,6.0585807 49.88675,6.58475 C49.3195805,7.1109193 48.9471676,7.8044957 48.7695,8.6655 L55.145,8.6655 Z M63.55,15.328 C62.620662,15.328 61.7767538,15.0888357 61.01825,14.6105 C60.2597462,14.1321643 59.6618355,13.4727542 59.2245,12.63225 C58.7871645,11.7917458 58.5685,10.8385053 58.5685,9.7725 C58.5685,8.7201614 58.7871645,7.7703376 59.2245,6.923 C59.6618355,6.0756624 60.2597462,5.4128357 61.01825,4.9345 C61.7767538,4.4561643 62.620662,4.217 63.55,4.217 C64.3563374,4.217 65.0738302,4.3980815 65.7025,4.76025 C66.3311698,5.1224185 66.8094984,5.5699973 67.1375,6.103 L67.2195,6.103 L67.1375,4.6475 L67.1375,0.322 L68.88,0.322 L68.88,15 L67.2195,15 L67.2195,13.4625 L67.1375,13.4625 C66.8094984,13.9818359 66.3311698,14.4225815 65.7025,14.78475 C65.0738302,15.1469185 64.3563374,15.328 63.55,15.328 Z M63.755,13.7495 C64.3700031,13.7495 64.9405807,13.5855016 65.46675,13.2575 C65.9929193,12.9294984 66.4165817,12.4648363 66.73775,11.8635 C67.0589183,11.2621637 67.2195,10.5651706 67.2195,9.7725 C67.2195,8.9798294 67.0589183,8.2828363 66.73775,7.6815 C66.4165817,7.0801637 65.9929193,6.6155016 65.46675,6.2875 C64.9405807,5.9594984 64.3700031,5.7955 63.755,5.7955 C63.1536637,5.7955 62.5865027,5.9594984 62.0535,6.2875 C61.5204973,6.6155016 61.0934183,7.0835803 60.77225,7.69175 C60.4510817,8.2999197 60.2905,8.9934961 60.2905,9.7725 C60.2905,10.5515039 60.4510817,11.2450803 60.77225,11.85325 C61.0934183,12.4614197 61.5204973,12.9294984 62.0535,13.2575 C62.5865027,13.5855016 63.1536637,13.7495 63.755,13.7495 Z M76.137,4.545 L77.7975,4.545 L77.7975,6.103 L77.8795,6.103 C78.1938349,5.5699973 78.6687468,5.1224185 79.30425,4.76025 C79.9397532,4.3980815 80.6538294,4.217 81.4465,4.217 C82.375838,4.217 83.2231628,4.4561643 83.9885,4.9345 C84.7538372,5.4128357 85.3551645,6.0756624 85.7925,6.923 C86.2298355,7.7703376 86.4485,8.7201614 86.4485,9.7725 C86.4485,10.8385053 86.2298355,11.7917458 85.7925,12.63225 C85.3551645,13.4727542 84.7538372,14.1321643 83.9885,14.6105 C83.2231628,15.0888357 82.375838,15.328 81.4465,15.328 C80.6538294,15.328 79.9397532,15.1469185 79.30425,14.78475 C78.6687468,14.4225815 78.1938349,13.9818359 77.8795,13.4625 L77.7975,13.4625 L77.8795,14.8975 L77.8795,19.428 L76.137,19.428 L76.137,4.545 Z M81.2415,13.7495 C81.8428363,13.7495 82.4099973,13.5855016 82.943,13.2575 C83.4760027,12.9294984 83.9030817,12.4614197 84.22425,11.85325 C84.5454183,11.2450803 84.706,10.5515039 84.706,9.7725 C84.706,8.9934961 84.5454183,8.2999197 84.22425,7.69175 C83.9030817,7.0835803 83.4760027,6.6155016 82.943,6.2875 C82.4099973,5.9594984 81.8428363,5.7955 81.2415,5.7955 C80.6401637,5.7955 80.0730027,5.9594984 79.54,6.2875 C79.0069973,6.6155016 78.5833349,7.0801637 78.269,7.6815 C77.9546651,8.2828363 77.7975,8.9798294 77.7975,9.7725 C77.7975,10.5651706 77.9546651,11.2621637 78.269,11.8635 C78.5833349,12.4648363 79.0069973,12.9294984 79.54,13.2575 C80.0730027,13.5855016 80.6401637,13.7495 81.2415,13.7495 Z M91.8195,15.328 C91.0541628,15.328 90.3708363,15.1776682 89.7695,14.877 C89.1681637,14.5763318 88.7035016,14.1629193 88.3755,13.63675 C88.0474984,13.1105807 87.8835,12.51267 87.8835,11.843 C87.8835,10.7359945 88.3003292,9.8715864 89.134,9.24975 C89.9676708,8.6279136 91.0199936,8.317 92.291,8.317 C92.9196698,8.317 93.503914,8.3853327 94.04375,8.522 C94.583586,8.6586674 94.9969986,8.8158324 95.284,8.9935 L95.284,8.358 C95.284,7.5789961 95.0106694,6.9537524 94.464,6.48225 C93.9173306,6.0107476 93.2271708,5.775 92.3935,5.775 C91.8058304,5.775 91.2660025,5.9014154 90.774,6.15425 C90.2819975,6.4070846 89.8925014,6.7589977 89.6055,7.21 L88.2935,6.226 C88.703502,5.5973302 89.2672464,5.1053351 89.98475,4.75 C90.7022536,4.3946649 91.498329,4.217 92.373,4.217 C93.7943404,4.217 94.9115793,4.5894129 95.72475,5.33425 C96.5379207,6.0790871 96.9445,7.0938269 96.9445,8.3785 L96.9445,15 L95.284,15 L95.284,13.5035 L95.202,13.5035 C94.9013318,14.0091692 94.4503363,14.4396649 93.849,14.795 C93.2476637,15.1503351 92.5711704,15.328 91.8195,15.328 Z M91.9835,13.7905 C92.5711696,13.7905 93.1178308,13.6401682 93.6235,13.3395 C94.1291692,13.0388318 94.5323318,12.6356692 94.833,12.13 C95.1336682,11.6243308 95.284,11.0708363 95.284,10.4695 C94.9559984,10.2508322 94.5528357,10.0731673 94.0745,9.9365 C93.5961643,9.7998326 93.0905027,9.7315 92.5575,9.7315 C91.6008286,9.7315 90.8799191,9.9296647 90.39475,10.326 C89.9095809,10.7223353 89.667,11.2348302 89.667,11.8635 C89.667,12.4375029 89.8856645,12.9021649 90.323,13.2575 C90.7603355,13.6128351 91.31383,13.7905 91.9835,13.7905 Z M99.3635,4.545 L101.024,4.545 L101.024,6.226 L101.106,6.226 C101.311001,5.6519971 101.70733,5.1770852 102.295,4.80125 C102.88267,4.4254148 103.497663,4.2375 104.14,4.2375 C104.618336,4.2375 105.028332,4.3058326 105.37,4.4425 L105.37,6.3285 C104.932664,6.1098322 104.440669,6.0005 103.894,6.0005 C103.388331,6.0005 102.923669,6.1439986 102.5,6.431 C102.076331,6.7180014 101.738085,7.1040809 101.48525,7.58925 C101.232415,8.0744191 101.106,8.5971639 101.106,9.1575 L101.106,15 L99.3635,15 L99.3635,4.545 Z M111.274,15.164 C110.850331,15.164 110.457418,15.0956673 110.09525,14.959 C109.733082,14.8223326 109.429001,14.6378345 109.183,14.4055 C108.909665,14.145832 108.704667,13.8451684 108.568,13.5035 C108.431333,13.1618316 108.363,12.7450025 108.363,12.253 L108.363,6.1235 L106.5385,6.1235 L106.5385,4.545 L108.363,4.545 L108.363,1.593 L110.1055,1.593 L110.1055,4.545 L112.6475,4.545 L112.6475,6.1235 L110.1055,6.1235 L110.1055,11.8225 C110.1055,12.3965029 110.214832,12.8201653 110.4335,13.0935 C110.693168,13.3941682 111.068998,13.5445 111.561,13.5445 C111.957335,13.5445 112.339998,13.4283345 112.709,13.196 L112.709,14.8975 C112.503999,14.9931671 112.295584,15.0614998 112.08375,15.1025 C111.871916,15.1435002 111.602002,15.164 111.274,15.164 Z M114.8615,4.545 L116.522,4.545 L116.522,6.0825 L116.604,6.0825 C116.891001,5.5631641 117.34883,5.1224185 117.9775,4.76025 C118.60617,4.3980815 119.27583,4.217 119.9865,4.217 C121.24384,4.217 122.203913,4.5825797 122.86675,5.31375 C123.529587,6.0449203 123.861,7.0391604 123.861,8.2965 L123.861,15 L122.1185,15 L122.1185,8.563 C122.1185,7.5926618 121.886169,6.8888355 121.4215,6.4515 C120.956831,6.0141645 120.321337,5.7955 119.515,5.7955 C118.954664,5.7955 118.452419,5.9526651 118.00825,6.267 C117.564081,6.5813349 117.219001,6.9947474 116.973,7.50725 C116.726999,8.0197526 116.604,8.5561639 116.604,9.1165 L116.604,15 L114.8615,15 L114.8615,4.545 Z M131.0155,15.328 C130.017828,15.328 129.122671,15.0888357 128.33,14.6105 C127.537329,14.1321643 126.918919,13.4727542 126.47475,12.63225 C126.030581,11.7917458 125.8085,10.8453386 125.8085,9.793 C125.8085,8.7816616 126.016915,7.8523376 126.43375,7.005 C126.850585,6.1576624 127.441663,5.4811692 128.207,4.9755 C128.972337,4.4698308 129.860662,4.217 130.872,4.217 C131.897005,4.217 132.78533,4.4459144 133.537,4.90375 C134.28867,5.3615856 134.866081,5.9936626 135.26925,6.8 C135.672419,7.6063374 135.874,8.5288281 135.874,9.5675 C135.874,9.772501 135.8535,9.9501659 135.8125,10.1005 L127.551,10.1005 C127.592,10.8931706 127.783332,11.5628306 128.125,12.1095 C128.466668,12.6561694 128.900581,13.0661653 129.42675,13.3395 C129.952919,13.6128347 130.502997,13.7495 131.077,13.7495 C132.41634,13.7495 133.448163,13.1208396 134.1725,11.8635 L135.6485,12.581 C135.197498,13.4283376 134.585921,14.0979975 133.81375,14.59 C133.041579,15.0820025 132.108839,15.328 131.0155,15.328 Z M134.029,8.6655 C134.001667,8.2281645 133.878668,7.7908355 133.66,7.3535 C133.441332,6.9161645 133.096252,6.5471682 132.62475,6.2465 C132.153248,5.9458318 131.56217,5.7955 130.8515,5.7955 C130.031496,5.7955 129.33792,6.0585807 128.77075,6.58475 C128.20358,7.1109193 127.831168,7.8044957 127.6535,8.6655 L134.029,8.6655 Z M137.9035,4.545 L139.564,4.545 L139.564,6.226 L139.646,6.226 C139.851001,5.6519971 140.24733,5.1770852 140.835,4.80125 C141.42267,4.4254148 142.037663,4.2375 142.68,4.2375 C143.158336,4.2375 143.568332,4.3058326 143.91,4.4425 L143.91,6.3285 C143.472664,6.1098322 142.980669,6.0005 142.434,6.0005 C141.928331,6.0005 141.463669,6.1439986 141.04,6.431 C140.616331,6.7180014 140.278085,7.1040809 140.02525,7.58925 C139.772415,8.0744191 139.646,8.5971639 139.646,9.1575 L139.646,15 L137.9035,15 L137.9035,4.545 Z" id="path-1"></path>
            </g>
            <g id="Gsuite-logo" fill="#04143A">
                <path d="M26.7053872,10.2405405 C25.5824916,9.0972973 24.3619529,8.22162162 23.0681818,7.61351351 C21.7744108,7.00540541 20.1388889,6.71351351 18.2592593,6.71351351 C16.7457912,6.71351351 15.3055556,6.98108108 13.962963,7.51621622 C12.6203704,8.05135135 11.4486532,8.80540541 10.4478114,9.77837838 C9.42255892,10.7513514 8.61700337,11.9432432 8.03114478,13.3297297 C7.4452862,14.7162162 7.1523569,16.2486486 7.1523569,17.9513514 C7.1523569,19.6540541 7.4452862,21.1864865 8.03114478,22.572973 C8.61700337,23.9594595 9.42255892,25.127027 10.4478114,26.1 C11.473064,27.072973 12.6691919,27.8513514 14.0117845,28.3864865 C15.3543771,28.9216216 16.8190236,29.1891892 18.3569024,29.1891892 C19.9924242,29.1891892 21.4326599,28.9702703 22.6531987,28.5081081 C23.8737374,28.0459459 24.9234007,27.4135135 25.8021886,26.6351351 C26.3880471,26.1 26.9250842,25.4432432 27.3888889,24.6648649 C27.8526936,23.8621622 28.2188552,22.9864865 28.4873737,22.0135135 L18.1616162,22.0135135 L18.1616162,16.1756757 L35.0050505,16.1756757 C35.1026936,16.5648649 35.1759259,17.027027 35.2491582,17.6108108 C35.3223906,18.1945946 35.3468013,18.7297297 35.3468013,19.2891892 C35.3468013,21.6 35.0050505,23.6918919 34.3215488,25.6135135 C33.6380471,27.5351351 32.5883838,29.2135135 31.2213805,30.6972973 C29.6835017,32.327027 27.8526936,33.5675676 25.7045455,34.4675676 C23.5563973,35.3675676 21.0909091,35.8054054 18.3324916,35.8054054 C15.8425926,35.8054054 13.4991582,35.3675676 11.3021886,34.4675676 C9.10521886,33.5675676 7.17676768,32.327027 5.51683502,30.7459459 C3.88131313,29.1648649 2.58754209,27.2918919 1.61111111,25.127027 C0.634680135,22.9621622 0.170875421,20.5540541 0.170875421,17.9756757 C0.170875421,15.3972973 0.659090909,13.0135135 1.61111111,10.8243243 C2.56313131,8.63513514 3.85690236,6.76216216 5.51683502,5.18108108 C7.1523569,3.6 9.08080808,2.38378378 11.3021886,1.48378378 C13.523569,0.583783784 15.8670034,0.145945946 18.3324916,0.145945946 C21.1641414,0.145945946 23.6784512,0.632432432 25.8510101,1.60540541 C28.023569,2.57837838 29.9031987,3.91621622 31.489899,5.61891892 L26.7053872,10.2405405 Z" id="XMLID_69_"></path>
                <path d="M69.9856899,25.9054054 C69.9856899,28.8972973 68.887205,31.3054054 66.6902353,33.1297297 C64.4688548,34.9054054 61.7592589,35.8054054 58.5614474,35.8054054 C55.7297976,35.8054054 53.2154878,34.9783784 51.0429289,33.3243243 C48.87037,31.6702703 47.3813127,29.4081081 46.5513464,26.5621622 L50.7499996,24.8351351 C51.0429289,25.8567568 51.4335013,26.7810811 51.9461276,27.6081081 C52.4587538,28.4351351 53.0446124,29.1405405 53.7281141,29.7243243 C54.4116158,30.3081081 55.1683498,30.7702703 55.9983161,31.1108108 C56.8282824,31.4513514 57.7070703,31.6216216 58.6346798,31.6216216 C60.6363633,31.6216216 62.2962959,31.1108108 63.5656562,30.0648649 C64.8350165,29.0432432 65.4696966,27.6567568 65.4696966,25.9540541 C65.4696966,24.5189189 64.9326596,23.3027027 63.8829963,22.2810811 C62.9065653,21.3081081 61.0513464,20.3351351 58.3417505,19.4108108 C55.6077437,18.4378378 53.8989895,17.7567568 53.2154878,17.4162162 C49.5782824,15.5675676 47.7718851,12.8675676 47.7718851,9.26756757 C47.7718851,6.76216216 48.7727269,4.62162162 50.7744104,2.84594595 C52.8249154,1.07027027 55.3148144,0.17027027 58.2929289,0.17027027 C60.9048818,0.17027027 63.1750838,0.827027027 65.0791242,2.16486486 C66.9831646,3.47837838 68.2769356,5.10810811 68.9116158,7.07837838 L64.8350165,8.75675676 C64.4444441,7.49189189 63.6877101,6.42162162 62.5648144,5.59459459 C61.4419188,4.74324324 60.0505047,4.32972973 58.4393936,4.32972973 C56.7062286,4.32972973 55.2659929,4.81621622 54.0942757,5.76486486 C52.9225585,6.64054054 52.3367,7.80810811 52.3367,9.21891892 C52.3367,10.3864865 52.8005047,11.4081081 53.7281141,12.2594595 C54.7533666,13.1108108 56.9747471,14.1324324 60.3678447,15.3 C63.8341747,16.4675676 66.3240737,17.927027 67.8131309,19.6297297 C69.2533666,21.3324324 69.9856899,23.4243243 69.9856899,25.9054054 Z" id="XMLID_67_"></path>
                <path d="M94.3720535,35.027027 L90.1734003,35.027027 L90.1734003,31.7918919 L89.9781141,31.7918919 C89.3190232,32.9351351 88.2693599,33.8837838 86.9023565,34.6621622 C85.5109424,35.4162162 84.0707067,35.8054054 82.5816495,35.8054054 C79.7011781,35.8054054 77.5042084,34.9783784 75.9663296,33.3486486 C74.4284508,31.7189189 73.647306,29.3837838 73.647306,26.3675676 L73.647306,11.6756757 L78.0412454,11.6756757 L78.0412454,26.0756757 C78.1388885,29.8945946 80.0673397,31.7918919 83.8265989,31.7918919 C85.5841747,31.7918919 87.0488212,31.0864865 88.2205383,29.6756757 C89.3922555,28.2648649 89.9781141,26.5621622 89.9781141,24.5918919 L89.9781141,11.6756757 L94.3720535,11.6756757 L94.3720535,35.027027 Z" id="XMLID_65_"></path>
                <path d="M104.404882,3.62432432 C104.404882,4.47567568 104.111953,5.20540541 103.501683,5.81351351 C102.891414,6.42162162 102.159091,6.71351351 101.304713,6.71351351 C100.450336,6.71351351 99.7180131,6.42162162 99.1077437,5.81351351 C98.4974744,5.20540541 98.2045451,4.47567568 98.2045451,3.62432432 C98.2045451,2.77297297 98.4974744,2.04324324 99.1077437,1.43513514 C99.7180131,0.827027027 100.450336,0.535135135 101.304713,0.535135135 C102.159091,0.535135135 102.891414,0.827027027 103.501683,1.43513514 C104.111953,2.04324324 104.404882,2.77297297 104.404882,3.62432432 Z M103.501683,11.6756757 L103.501683,35.027027 L99.1077437,35.027027 L99.1077437,11.6756757 L103.501683,11.6756757 Z" id="XMLID_62_" fill-rule="nonzero"></path>
                <path d="M117.000841,35.4162162 C115.096801,35.4162162 113.510101,34.8324324 112.24074,33.6648649 C110.97138,32.4972973 110.3367,30.8432432 110.312289,28.7513514 L110.312289,15.6891892 L106.186868,15.6891892 L106.186868,11.6756757 L110.287878,11.6756757 L110.287878,4.52432432 L114.681818,4.52432432 L114.681818,11.6756757 L120.41835,11.6756757 L120.41835,15.6891892 L114.681818,15.6891892 L114.681818,27.3162162 C114.681818,28.872973 114.974747,29.9189189 115.585017,30.4783784 C116.195286,31.0378378 116.878788,31.3054054 117.635522,31.3054054 C117.977272,31.3054054 118.319023,31.2567568 118.660774,31.1837838 C119.002525,31.1108108 119.295454,30.9891892 119.588384,30.8675676 L120.979798,34.7837838 C119.881313,35.1972973 118.53872,35.4162162 117.000841,35.4162162 Z" id="XMLID_60_"></path>
                <path d="M133.453703,35.7810811 C130.011784,35.7810811 127.180134,34.6135135 124.934343,32.2540541 C122.712963,29.8945946 121.590067,26.927027 121.590067,23.3513514 C121.590067,19.8 122.664141,16.8324324 124.8367,14.472973 C127.009259,12.1135135 129.767676,10.9216216 133.160774,10.9216216 C136.627104,10.9216216 139.409932,12.0405405 141.460437,14.2783784 C143.510942,16.5162162 144.536195,19.6540541 144.536195,23.6918919 L144.487373,24.1783784 L126.081649,24.1783784 C126.154882,26.4648649 126.911616,28.3135135 128.376262,29.7 C129.840909,31.0864865 131.598485,31.7918919 133.648989,31.7918919 C136.456229,31.7918919 138.653198,30.4054054 140.239899,27.6081081 L144.170033,29.5054054 C143.12037,31.4756757 141.655723,33.0081081 139.800505,34.127027 C137.920875,35.2216216 135.797138,35.7810811 133.453703,35.7810811 Z M126.4234,20.5297297 L139.873737,20.5297297 C139.751683,18.9 139.092592,17.5621622 137.896464,16.4918919 C136.700336,15.4216216 135.089225,14.8864865 133.087542,14.8864865 C131.427609,14.8864865 130.011784,15.3972973 128.815656,16.4189189 C127.595118,17.4648649 126.813973,18.827027 126.4234,20.5297297 Z" id="XMLID_57_" fill-rule="nonzero"></path>
            </g>
            <g id="Ratings" transform="translate(186.000000, 34.000000)">
                <g id="star">
                    <polygon id="Path" points="0 0 18 0 18 18 0 18"></polygon>
                    <polygon id="Path" fill="#F4B400" points="9 12.9525 13.635 15.75 12.405 10.4775 16.5 6.93 11.1075 6.4725 9 1.5 6.8925 6.4725 1.5 6.93 5.595 10.4775 4.365 15.75"></polygon>
                    <polygon id="Path" points="0 0 18 0 18 18 0 18"></polygon>
                </g>
                <g id="star-" transform="translate(21.000000, 0.000000)">
                    <polygon id="Path" points="0 0 18 0 18 18 0 18"></polygon>
                    <polygon id="Path" fill="#F4B400" points="9 12.9525 13.635 15.75 12.405 10.4775 16.5 6.93 11.1075 6.4725 9 1.5 6.8925 6.4725 1.5 6.93 5.595 10.4775 4.365 15.75"></polygon>
                    <polygon id="Path" points="0 0 18 0 18 18 0 18"></polygon>
                </g>
                <g id="star" transform="translate(42.000000, 0.000000)">
                    <polygon id="Path" points="0 0 18 0 18 18 0 18"></polygon>
                    <polygon id="Path" fill="#F4B400" points="9 12.9525 13.635 15.75 12.405 10.4775 16.5 6.93 11.1075 6.4725 9 1.5 6.8925 6.4725 1.5 6.93 5.595 10.4775 4.365 15.75"></polygon>
                    <polygon id="Path" points="0 0 18 0 18 18 0 18"></polygon>
                </g>
                <g id="star" transform="translate(63.000000, 0.000000)">
                    <polygon id="Path" points="0 0 18 0 18 18 0 18"></polygon>
                    <polygon id="Path" fill="#F4B400" points="9 12.9525 13.635 15.75 12.405 10.4775 16.5 6.93 11.1075 6.4725 9 1.5 6.8925 6.4725 1.5 6.93 5.595 10.4775 4.365 15.75"></polygon>
                    <polygon id="Path" points="0 0 18 0 18 18 0 18"></polygon>
                </g>
                <g id="star-" transform="translate(84.000000, 0.000000)">
                    <polygon id="Path" points="0 0 18 0 18 18 0 18"></polygon>
                    <polygon id="Path" fill="#F4B400" points="9 12.9525 13.635 15.75 12.405 10.4775 16.5 6.93 11.1075 6.4725 9 1.5 6.8925 6.4725 1.5 6.93 5.595 10.4775 4.365 15.75"></polygon>
                    <polygon id="Path" points="0 0 18 0 18 18 0 18"></polygon>
                </g>
            </g>
            <path d="M191.42596,11.88108 L191.42596,17.14536 L194.51768,17.14536 C195.297577,17.14536 195.959087,16.8912009 196.50223,16.382875 C197.045373,15.8745491 197.31694,15.2443738 197.31694,14.49233 C197.31694,13.7959932 197.062781,13.1867076 196.554455,12.664455 C196.046129,12.1422024 195.40899,11.88108 194.64302,11.88108 L191.42596,11.88108 Z M191.42596,25 L189.50408,25 L189.50408,10.04276 L194.60124,10.04276 C195.896426,10.04276 197.000104,10.4710007 197.912305,11.327495 C198.824506,12.1839893 199.2806,13.2389237 199.2806,14.49233 C199.2806,15.5229085 198.942882,16.4385777 198.267435,17.239365 C197.591988,18.0401523 196.738988,18.5519522 195.70841,18.77478 L195.66663,18.83745 L199.86552,24.91644 L199.86552,25 L197.58851,25 L193.55674,18.9419 L191.42596,18.9419 L191.42596,25 Z M205.63116,25.33424 C204.127072,25.33424 202.887612,24.8189585 201.91274,23.78838 C200.937868,22.7578015 200.45044,21.4556712 200.45044,19.88195 C200.45044,18.3221555 200.923942,17.0235069 201.87096,15.985965 C202.817978,14.9484231 204.029586,14.42966 205.50582,14.42966 C207.023834,14.42966 208.231961,14.9205701 209.130235,15.902405 C210.028509,16.8842399 210.47764,18.2594845 210.47764,20.02818 L210.45675,20.23708 L202.4141,20.23708 C202.441953,21.239805 202.77619,22.0475436 203.41682,22.66032 C204.05745,23.2730964 204.823409,23.57948 205.71472,23.57948 C206.940273,23.57948 207.901203,22.9667128 208.59754,21.74116 L210.31052,22.57676 C209.850938,23.4402177 209.213799,24.1156542 208.399085,24.60309 C207.584371,25.0905258 206.661738,25.33424 205.63116,25.33424 Z M202.56033,18.64944 L208.43042,18.64944 C208.374713,17.9391764 208.085738,17.3507807 207.563485,16.884235 C207.041232,16.4176893 206.341424,16.18442 205.46404,16.18442 C204.73985,16.18442 204.116638,16.4072444 203.594385,16.8529 C203.072132,17.2985556 202.727451,17.8973962 202.56033,18.64944 Z M216.99532,25 L215.07344,25 L210.93722,14.7639 L213.02622,14.7639 L216.03438,22.7021 L216.07616,22.7021 L219.1261,14.7639 L221.17332,14.7639 L216.99532,25 Z M224.91263,11.23349 C224.91263,11.6095119 224.780328,11.929822 224.51572,12.19443 C224.251112,12.459038 223.930802,12.59134 223.55478,12.59134 C223.178758,12.59134 222.858448,12.459038 222.59384,12.19443 C222.329232,11.929822 222.19693,11.6095119 222.19693,11.23349 C222.19693,10.8574681 222.329232,10.537158 222.59384,10.27255 C222.858448,10.007942 223.178758,9.87564 223.55478,9.87564 C223.930802,9.87564 224.251112,10.007942 224.51572,10.27255 C224.780328,10.537158 224.91263,10.8574681 224.91263,11.23349 Z M224.51572,14.7639 L224.51572,25 L222.59384,25 L222.59384,14.7639 L224.51572,14.7639 Z M231.51387,25.33424 C230.009782,25.33424 228.770322,24.8189585 227.79545,23.78838 C226.820578,22.7578015 226.33315,21.4556712 226.33315,19.88195 C226.33315,18.3221555 226.806652,17.0235069 227.75367,15.985965 C228.700688,14.9484231 229.912296,14.42966 231.38853,14.42966 C232.906544,14.42966 234.114671,14.9205701 235.012945,15.902405 C235.911219,16.8842399 236.36035,18.2594845 236.36035,20.02818 L236.33946,20.23708 L228.29681,20.23708 C228.324663,21.239805 228.6589,22.0475436 229.29953,22.66032 C229.94016,23.2730964 230.706119,23.57948 231.59743,23.57948 C232.822983,23.57948 233.783913,22.9667128 234.48025,21.74116 L236.19323,22.57676 C235.733648,23.4402177 235.096509,24.1156542 234.281795,24.60309 C233.467081,25.0905258 232.544448,25.33424 231.51387,25.33424 Z M228.44304,18.64944 L234.31313,18.64944 C234.257423,17.9391764 233.968448,17.3507807 233.446195,16.884235 C232.923942,16.4176893 232.224134,16.18442 231.34675,16.18442 C230.62256,16.18442 229.999348,16.4072444 229.477095,16.8529 C228.954842,17.2985556 228.610161,17.8973962 228.44304,18.64944 Z M252.40387,14.7639 L249.10325,25 L247.13959,25 L244.59101,17.14536 L242.06332,25 L240.12055,25 L236.81993,14.7639 L238.82537,14.7639 L241.10238,22.4932 L241.12327,22.4932 L243.65096,14.7639 L245.63551,14.7639 L248.1632,22.4932 L248.18409,22.4932 L250.44021,14.7639 L252.40387,14.7639 Z M261.49102,22.15896 C261.49102,23.0502711 261.101077,23.8023036 260.32118,24.41508 C259.541283,25.0278564 258.559463,25.33424 257.37569,25.33424 C256.345112,25.33424 255.439887,25.0661543 254.65999,24.529975 C253.880093,23.9937957 253.323032,23.2870244 252.98879,22.40964 L254.70177,21.67849 C254.952451,22.2912664 255.318023,22.76825 255.798495,23.109455 C256.278967,23.45066 256.804694,23.62126 257.37569,23.62126 C257.988466,23.62126 258.500266,23.488958 258.911105,23.22435 C259.321944,22.959742 259.52736,22.6463951 259.52736,22.2843 C259.52736,21.6297434 259.026005,21.1492782 258.02328,20.84289 L256.26852,20.4042 C254.276997,19.9028375 253.28125,18.9419071 253.28125,17.52138 C253.28125,16.5882887 253.660748,15.8397378 254.419755,15.275705 C255.178762,14.7116722 256.150137,14.42966 257.33391,14.42966 C258.239148,14.42966 259.057331,14.6455212 259.788485,15.07725 C260.519639,15.5089788 261.031439,16.0869297 261.3239,16.81112 L259.61092,17.52138 C259.415946,17.0896512 259.099117,16.7519329 258.660425,16.508215 C258.221733,16.2644971 257.730823,16.14264 257.18768,16.14264 C256.686317,16.14264 256.237187,16.2679787 255.840275,16.51866 C255.443363,16.7693413 255.24491,17.0757249 255.24491,17.43782 C255.24491,18.0227429 255.795008,18.4405387 256.89522,18.69122 L258.44108,19.08813 C260.474383,19.5894925 261.49102,20.6130923 261.49102,22.15896 Z" id="Reviews" fill="#04143A" fill-rule="nonzero"></path>
        </g>
    </g>
</svg>