<svg width="24px" height="24px" viewBox="0 0 24 24" version="1.1" xmlns="http://www.w3.org/2000/svg" xmlns:xlink="http://www.w3.org/1999/xlink">
    <g stroke="none" stroke-width="1" fill="none" fill-rule="evenodd">
        <g transform="translate(12.000000, 12.000000) rotate(90.000000) translate(-12.000000, -12.000000) ">
            <circle fill="#E1EDFD" cx="12" cy="12" r="12"></circle>
            <polygon points="1.13650925e-15 0 24 0 24 24 1.13650925e-15 24"></polygon>
            <path d="M14.1818182,8.72727273 L14.1818182,15 C14.1818182,16.2054545 13.2054545,17.1818182 12,17.1818182 C10.7945455,17.1818182 9.81818182,16.2054545 9.81818182,15 L9.81818182,8.18181818 C9.81818182,7.42909091 10.4290909,6.81818182 11.1818182,6.81818182 C11.9345455,6.81818182 12.5454545,7.42909091 12.5454545,8.18181818 L12.5454545,13.9090909 C12.5454545,14.2090909 12.3,14.4545455 12,14.4545455 C11.7,14.4545455 11.4545455,14.2090909 11.4545455,13.9090909 L11.4545455,8.72727273 L10.6363636,8.72727273 L10.6363636,13.9090909 C10.6363636,14.6618182 11.2472727,15.2727273 12,15.2727273 C12.7527273,15.2727273 13.3636364,14.6618182 13.3636364,13.9090909 L13.3636364,8.18181818 C13.3636364,6.97636364 12.3872727,6 11.1818182,6 C9.97636364,6 9,6.97636364 9,8.18181818 L9,15 C9,16.6581818 10.3418182,18 12,18 C13.6581818,18 15,16.6581818 15,15 L15,8.72727273 L14.1818182,8.72727273 Z" fill="#006CDD" fill-rule="nonzero"></path>
        </g>
    </g>
</svg>