<svg width="24px" height="24px" viewBox="0 0 24 24" version="1.1" xmlns="http://www.w3.org/2000/svg" xmlns:xlink="http://www.w3.org/1999/xlink">
    <g stroke="none" stroke-width="1" fill="none" fill-rule="evenodd">
        <g transform="translate(12.000000, 12.000000) rotate(90.000000) translate(-12.000000, -12.000000) translate(0.000000, 0.000000)">
            <circle fill="#E1EDFD" cx="12" cy="12" r="12"></circle>
            <polygon points="1.13650925e-15 0 24 0 24 24 1.13650925e-15 24"></polygon>
            <path d="M14.9090909,7.63636364 L14.9090909,16 C14.9090909,17.6072727 13.6072727,18.9090909 12,18.9090909 C10.3927273,18.9090909 9.09090909,17.6072727 9.09090909,16 L9.09090909,6.90909091 C9.09090909,5.90545455 9.90545455,5.09090909 10.9090909,5.09090909 C11.9127273,5.09090909 12.7272727,5.90545455 12.7272727,6.90909091 L12.7272727,14.5454545 C12.7272727,14.9454545 12.4,15.2727273 12,15.2727273 C11.6,15.2727273 11.2727273,14.9454545 11.2727273,14.5454545 L11.2727273,7.63636364 L10.1818182,7.63636364 L10.1818182,14.5454545 C10.1818182,15.5490909 10.9963636,16.3636364 12,16.3636364 C13.0036364,16.3636364 13.8181818,15.5490909 13.8181818,14.5454545 L13.8181818,6.90909091 C13.8181818,5.30181818 12.5163636,4 10.9090909,4 C9.30181818,4 8,5.30181818 8,6.90909091 L8,16 C8,18.2109091 9.78909091,20 12,20 C14.2109091,20 16,18.2109091 16,16 L16,7.63636364 L14.9090909,7.63636364 Z" fill="#006CDD" fill-rule="nonzero"></path>
        </g>
    </g>
</svg>