<?xml version="1.0" encoding="UTF-8"?>
<svg width="39px" height="25px" viewBox="0 0 39 25" version="1.1" xmlns="http://www.w3.org/2000/svg" xmlns:xlink="http://www.w3.org/1999/xlink">
    <!-- Generator: Sketch 52.4 (67378) - http://www.bohemiancoding.com/sketch -->
    <title>Slice</title>
    <desc>Created with Sketch.</desc>
    <g id="Page-1" stroke="none" stroke-width="1" fill="none" fill-rule="evenodd">
        <g id="Bolt" transform="translate(1.000000, 3.000000)" fill="#B8BCCC">
            <path d="M18.8146341,12.375 C17.795122,12.375 16.8682927,11.55 16.8682927,10.45 C16.8682927,9.35 17.702439,8.525 18.8146341,8.525 C19.8341463,8.525 20.7609756,9.35 20.7609756,10.45 C20.7609756,11.55 19.9268293,12.375 18.8146341,12.375 M18.8146341,4.58333333 C15.5707317,4.58333333 12.8829268,7.24166667 12.8829268,10.45 C12.8829268,13.6583333 15.5707317,16.3166667 18.8146341,16.3166667 C22.0585366,16.3166667 24.7463415,13.6583333 24.7463415,10.45 C24.7463415,7.24166667 22.1512195,4.58333333 18.8146341,4.58333333" id="Fill-2" fill-rule="nonzero"></path>
            <path d="M18.8146341,17.6916667 C19.8341463,17.6916667 20.7609756,18.5166667 20.7609756,19.6166667 C20.7609756,20.7166667 19.9268293,21.5416667 18.8146341,21.5416667 C17.795122,21.5416667 16.8682927,20.7166667 16.8682927,19.6166667 C16.8682927,18.5166667 17.795122,17.6916667 18.8146341,17.6916667" id="Fill-4"></path>
            <g id="Group-8" fill-rule="nonzero">
                <path d="M6.76585366,12.375 L3.89268293,12.375 L3.89268293,9.99166667 L6.76585366,9.99166667 C7.41463415,9.99166667 7.97073171,10.5416667 7.97073171,11.1833333 C7.97073171,11.825 7.41463415,12.375 6.76585366,12.375 Z M3.89268293,3.75833333 L6.02439024,3.75833333 C6.67317073,3.75833333 7.22926829,4.30833333 7.22926829,4.95 C7.22926829,5.59166667 6.67317073,6.14166667 6.02439024,6.14166667 L3.89268293,6.14166667 L3.89268293,3.75833333 Z M10.2878049,7.60833333 C10.7512195,6.875 11.0292683,5.95833333 11.0292683,4.95 C11.0292683,2.2 8.80487805,0 6.02439024,0 L3.8,0 L0,0 L0,16.1333333 L3.8,16.1333333 L6.67317073,16.1333333 C9.45365854,16.1333333 11.6780488,13.9333333 11.6780488,11.1833333 C11.7707317,9.80833333 11.2146341,8.525 10.2878049,7.60833333 Z" id="Fill-6"></path>
            </g>
            <g id="Group-11" transform="translate(31.250439, 1.902017)">
                <path d="M5.83902439,6.69166667 L5.83902439,2.93333333 L3.89268293,2.93333333 L3.89268293,0 L0,0.825 L0,6.69166667 L0,10.6333333 C0,12.925 1.48292683,14.3 3.61463415,14.3916667 C3.61463415,14.3916667 3.70731707,14.3916667 3.70731707,14.3916667 C3.8,14.3916667 3.8,14.3916667 3.8,14.3916667 L3.89268293,14.3916667 C5.00487805,14.3916667 5.74634146,13.9333333 5.74634146,13.9333333 L5.74634146,11.0916667 C5.74634146,11.0916667 5.37560976,11.1833333 4.91219512,11.1833333 C4.17073171,11.1833333 3.89268293,10.5416667 3.89268293,9.625 L3.89268293,6.6 L5.83902439,6.6 L5.83902439,6.69166667 Z" id="Fill-9"></path>
            </g>
            <polygon id="Fill-1" points="29.7512195 0 25.9512195 0.825 25.9512195 16.1333333 29.7512195 16.1333333"></polygon>
        </g>
    </g>
</svg>