<?xml version="1.0" encoding="UTF-8"?>
<svg width="86px" height="18px" viewBox="0 0 86 18" version="1.1" xmlns="http://www.w3.org/2000/svg" xmlns:xlink="http://www.w3.org/1999/xlink">
    <!-- Generator: Sketch 52.4 (67378) - http://www.bohemiancoding.com/sketch -->
    <title>Globant</title>
    <desc>Created with Sketch.</desc>
    <g id="Page-1" stroke="none" stroke-width="1" fill="none" fill-rule="evenodd">
        <g id="Globant" fill="#B8BCCC">
            <path d="M6.88,16.2 C2.67555556,16.2 0.0955555556,12.4105263 0.0955555556,8.43157895 C0.0955555556,4.16842105 2.48444444,0.757894737 6.88,0.757894737 C10.2244444,0.757894737 12.7088889,2.74736842 12.9,5.68421053 L10.0333333,5.68421053 C9.93777778,4.26315789 8.50444444,3.22105263 6.97555556,3.22105263 C4.58666667,3.22105263 3.15333333,5.11578947 3.15333333,8.52631579 C3.15333333,10.8947368 4.3,13.5473684 6.97555556,13.5473684 C9.46,13.5473684 10.32,12.2210526 10.32,10.2315789 L7.16666667,10.2315789 L7.16666667,7.86315789 L12.9955556,7.86315789 L12.9955556,10.3263158 C12.9,13.7368421 11.4666667,16.2 6.88,16.2 Z" id="Path"></path>
            <polygon id="Path_1_" points="14.62 15.6315789 14.62 1.04210526 17.2955556 1.04210526 17.2955556 15.6315789"></polygon>
            <path d="M18.6333333,9.47368421 C18.8244444,7.10526316 20.9266667,4.92631579 23.22,4.73684211 C26.8511111,4.35789474 29.1444444,6.72631579 29.1444444,10.3263158 C29.1444444,13.7368421 27.1377778,15.9157895 23.8888889,15.9157895 C20.2577778,15.9157895 18.2511111,13.1684211 18.6333333,9.47368421 Z M26.2777778,10.3263158 C26.2777778,8.14736842 25.4177778,7.10526316 23.7933333,7.10526316 C22.1688889,7.10526316 21.3088889,8.14736842 21.3088889,10.3263158 C21.3088889,12.5052632 22.1688889,13.5473684 23.7933333,13.5473684 C25.4177778,13.5473684 26.2777778,12.5052632 26.2777778,10.3263158 Z" id="Shape" fill-rule="nonzero"></path>
            <path d="M30.2911111,15.6315789 L30.2911111,1.04210526 L32.9666667,1.04210526 L32.9666667,6.34736842 C33.7311111,5.21052632 34.7822222,4.64210526 36.0244444,4.64210526 C38.6044444,4.64210526 40.2288889,6.91578947 40.2288889,10.2315789 C40.2288889,13.8315789 38.4133333,16.0105263 35.8333333,16.0105263 C34.5911111,16.0105263 33.6355556,15.5368421 32.9666667,14.4 L32.9666667,15.7263158 L30.2911111,15.6315789 Z M37.4577778,10.4210526 C37.4577778,8.24210526 36.6933333,7.10526316 35.0688889,7.10526316 C33.54,7.10526316 32.7755556,8.24210526 32.7755556,10.6105263 C32.7755556,12.4105263 33.8266667,13.7368421 35.0688889,13.7368421 C36.5022222,13.6421053 37.4577778,12.2210526 37.4577778,10.4210526 Z" id="Shape_1_" fill-rule="nonzero"></path>
            <path d="M48.2555556,15.6315789 C48.16,15.3473684 48.16,14.9684211 48.16,14.6842105 C47.5866667,15.4421053 46.44,15.9157895 45.1022222,15.9157895 C42.7133333,15.9157895 41.6622222,14.6842105 41.6622222,12.9789474 C41.6622222,9.85263158 43.6688889,9.47368421 46.3444444,9.18947368 C47.6822222,9 48.0644444,8.71578947 48.0644444,7.95789474 C48.0644444,7.2 47.3955556,6.91578947 46.3444444,6.91578947 C45.1022222,6.91578947 44.6244444,7.57894737 44.5288889,8.52631579 L41.9488889,8.52631579 C42.0444444,6.25263158 43.1911111,4.73684211 46.44,4.73684211 C49.6888889,4.73684211 50.8355556,6.25263158 50.8355556,9 L50.8355556,15.8210526 L48.2555556,15.6315789 Z M48.0644444,10.4210526 C47.7777778,10.7052632 47.3,10.8947368 46.3444444,11.0842105 C44.8155556,11.3684211 44.2422222,11.8421053 44.2422222,12.7894737 C44.2422222,13.5473684 44.72,14.0210526 45.58,14.0210526 C46.9177778,14.0210526 47.9688889,12.9789474 48.0644444,11.7473684 L48.0644444,10.4210526 Z" id="Shape_2_" fill-rule="nonzero"></path>
            <path d="M59.1488889,15.6315789 L59.1488889,9.18947368 C59.1488889,7.48421053 58.6711111,7.10526316 57.4288889,7.10526316 C55.9955556,7.01052632 55.4222222,7.86315789 55.4222222,9.47368421 L55.4222222,15.6315789 L52.7466667,15.6315789 L52.7466667,4.92631579 L55.2311111,4.92631579 L55.2311111,6.53684211 C55.8044444,5.30526316 56.8555556,4.64210526 58.5755556,4.64210526 C60.4866667,4.64210526 61.92,5.87368421 61.92,8.24210526 L61.92,15.6315789 L59.1488889,15.6315789 Z" id="Path_2_"></path>
            <path d="M69.7555556,11.6526316 C69.66,12.7894737 69.1822222,13.5473684 68.1311111,13.5473684 C66.9844444,13.5473684 66.5066667,12.7894737 66.5066667,11.3684211 L66.5066667,6.91578947 L70.7111111,6.91578947 L70.7111111,4.64210526 L66.5066667,4.64210526 L66.5066667,1.98947368 L63.8311111,1.98947368 L63.8311111,11.5578947 C63.8311111,13.8315789 64.9777778,15.9157895 68.0355556,15.9157895 C70.9022222,15.9157895 72.1444444,13.9263158 72.1444444,11.5578947 L69.7555556,11.5578947 L69.7555556,11.6526316 Z" id="Path_3_"></path>
            <path d="M75.4888889,0.189473684 C75.2022222,6.9388939e-16 74.82,0.0947368421 74.6288889,0.378947368 C74.5333333,0.568421053 74.4377778,0.757894737 74.5333333,0.947368421 L75.7755556,2.84210526 C78.1644444,6.53684211 78.1644444,11.3684211 75.7755556,15.0631579 L74.5333333,16.9578947 C74.4377778,17.3368421 74.6288889,17.7157895 74.9155556,17.7157895 C75.0111111,17.8105263 75.2977778,17.7157895 75.3933333,17.6210526 L85.6177778,9.47368421 C86,9.18947368 86,8.71578947 85.7133333,8.33684211 C85.6177778,8.24210526 85.6177778,8.14736842 85.6177778,8.14736842 L75.4888889,0.189473684 Z" id="Path_4_"></path>
        </g>
    </g>
</svg>