<svg xmlns="http://www.w3.org/2000/svg" viewBox="0 0 1943 575"><radialGradient id="A" cx="2095.771" cy="645.047" r="2.296" gradientTransform="matrix(3.538028e-14 577.9316 577.8039 -3.538810e-14 -371788.7188 -1211612.25)" gradientUnits="userSpaceOnUse"><stop offset="0" stop-color="#1916d6"/><stop offset="1" stop-color="#0a0873"/></radialGradient><path d="M1947.7 115l-3.1-.3c-33-3.1-67.1-7.6-104.2-13.5-62.1-10-124-22.7-182.1-35-65.6-13.8-141.8-29.6-218.9-42.1-138.3-22.1-251.8-28.7-357.7-21-90 6.7-170.9 29.6-249.1 51.8l-85.5 23.4C624.4 109.5 507.5 114.5 379.5 94c-3.7-.5-7.5-1.2-11.3-1.9-61-10.4-120.2-24.8-177-38.7C130.8 38.6 68.4 23.2 4 13.2l-9.5-1.5V578h1953.1l.1-463h0z" fill="url(#A)"/></svg>