<?xml version="1.0" encoding="utf-8"?>
<svg version="1.1" id="Calque_1" xmlns="http://www.w3.org/2000/svg" xmlns:xlink="http://www.w3.org/1999/xlink" x="0px" y="0px"
	 viewBox="0 0 1943 575" style="enable-background:new 0 0 1943 575;" xml:space="preserve">
<style type="text/css">
	.st0{fill:url(#Path_1_);}
</style>
<radialGradient id="Path_1_" cx="1763.6461" cy="2.3789" r="2.2961" gradientTransform="matrix(3.538028e-14 574.4885 -577.8039 3.517727e-14 2296.1931 -1013591.75)" gradientUnits="userSpaceOnUse">
	<stop  offset="0" style="stop-color:#1916D6"/>
	<stop  offset="1" style="stop-color:#0A0873"/>
</radialGradient>
<path id="Path" class="st0" d="M1947.7,114.3c-1-0.1-2.1-0.2-3.1-0.3c-33-3.1-67.1-7.6-104.2-13.4c-62.1-9.9-124-22.6-182.1-34.8
	c-65.6-13.7-141.8-29.4-218.9-41.8C1301.1,2,1187.6-4.6,1081.7,3.1c-90,6.7-170.9,29.4-249.1,51.5c-28.1,7.9-56.7,16-85.5,23.3
	c-122.7,30.9-239.6,35.9-367.6,15.5c-3.7-0.5-7.5-1.2-11.3-1.9C307.2,81.2,248,66.8,191.2,53C130.8,38.4,68.4,23.1,4,13.1
	c-3.2-0.5-6.3-1-9.5-1.5v562.9h1953.1V114.3L1947.7,114.3z"/>
</svg>
