<?xml version="1.0" encoding="utf-8"?>
<!-- Generator: Adobe Illustrator 22.0.0, SVG Export Plug-In . SVG Version: 6.00 Build 0)  -->
<svg version="1.1" id="Calque_1" xmlns="http://www.w3.org/2000/svg" xmlns:xlink="http://www.w3.org/1999/xlink" x="0px" y="0px"
	 viewBox="0 0 1920 675.1" style="enable-background:new 0 0 1920 675.1;" xml:space="preserve">
<style type="text/css">
	.st0{fill:url(#SVGID_1_);}
	.st1{fill:url(#SVGID_2_);}
</style>
<title>Path</title>
<desc>Created with Sketch.</desc>
<g id="Artboards">
	<g id="HOME" transform="translate(0.000000, -680.000000)">
		<g id="Tutorial" transform="translate(-174.000000, 475.000000)">
			
				<g id="why" transform="translate(789.157027, 519.145536) scale(1, -1) rotate(-11.000000) translate(-789.157027, -519.145536) translate(60.657027, 132.145536)">
				
					<g id="Group-6" transform="translate(728.615162, 387.027111) scale(-1, 1) rotate(174.000000) translate(-728.615162, -387.027111) translate(29.615162, 72.027111)">
					
						<radialGradient id="SVGID_1_" cx="1862.7465" cy="460.5581" r="1.3193" gradientTransform="matrix(287.9904 630.562 912.6008 -243.3265 -955725.8125 -1062578.125)" gradientUnits="userSpaceOnUse">
						<stop  offset="0" style="stop-color:#1059B5"/>
						<stop  offset="1" style="stop-color:#02094D"/>
					</radialGradient>
					<path class="st0" d="M1994.3,159.1c-128.9,20.1-261.6,36.4-390.6,21.9c-88.9-10-175.8-29.6-266.8-29.7
						c-122.3-0.2-246.3,45.7-366.4,15.5c-57.1-14.4-108.7-39.3-167.5-50.2c-64.2-12-133.1-11.5-199.4-9.9
						c-46.8,1.2-94.1,3.9-135.1,6.6c-36.2,2.3-74.7,4.5-112.4,5.5c-22.4,0.6-43,0.7-62.6,0.2c-67.3-1.5-123.6-11.5-172.2-31.1
						c-25.5-10.3-47.9-22.7-68.9-36c0,0,54.6,624.2,54.6,624.3c1.8,20.5,154.5,22.6,174.9,23.1c134.2,3,267.1-23.6,396.7-53.1
						c73.6-16.7,146.1-37.3,221.1-48.9c165.9-25.8,333.5,17.4,500.6,5.8c59.6-4.2,136.2-19,191.8-38.1
						c56.1-19.3,110.1-43.5,169.3-55.7c86-17.5,175.5-3.2,262.5-12.9C2025.5,496.2,1997,190.9,1994.3,159.1z"/>
				</g>
			</g>
		</g>
	</g>
</g>
<radialGradient id="SVGID_2_" cx="732" cy="1226" r="0" gradientTransform="matrix(1 0 0 -1 -5.684342e-14 1182)" gradientUnits="userSpaceOnUse">
	<stop  offset="0" style="stop-color:#1059B5"/>
	<stop  offset="1" style="stop-color:#02094D"/>
</radialGradient>
<path class="st1" d="M732-44"/>
</svg>
