<?xml version="1.0" encoding="utf-8"?>
<svg version="1.1" id="Calque_1" xmlns="http://www.w3.org/2000/svg" xmlns:xlink="http://www.w3.org/1999/xlink" x="0px" y="0px"
	 viewBox="0 0 1927 756" style="enable-background:new 0 0 1927 756;" xml:space="preserve">
<style type="text/css">
	.st0{fill:url(#SVGID_1_);}
</style>
<radialGradient id="SVGID_1_" cx="873.7144" cy="427.1541" r="1.354" gradientTransform="matrix(219.7504 697.3821 702.215 -218.2378 -490963.7812 -516122.3438)" gradientUnits="userSpaceOnUse">
	<stop  offset="0" style="stop-color:#171FD1"/>
	<stop  offset="1" style="stop-color:#090D65"/>
</radialGradient>
<path class="st0" d="M1925.2,311.3c-131.1,9.9-265.6,15.2-393.8-13.7c-88.3-19.9-173.7-50.4-265-59.5
	c-122.7-12.3-251.1,27.1-368.8-18.6c-56-21.8-105.6-54.6-163.6-72.6c-63.4-19.8-132.4-26-199.2-30.6c-47-3.3-94.8-4.8-136.1-5.8
	c-36.5-1-75.3-2.2-113.3-4.8c-22.5-1.5-43.2-3.4-62.9-6C155.1,91.4,99.6,74.7,52.5,48C32.3,36.3,14.3,23.3-2.6,9.6v710
	c4.3,2.2,9.3,3.5,14,4.5c157.3,35.2,320.9,36.3,480.3,14.6c99.2-13.5,197.2-36.2,297.2-43.7c168.6-12.7,333,52.2,501.6,55.6
	c60.1,1.2,138.3-7.9,195.8-23.9c57.9-16,114.2-38,174.6-45.8c87.8-11.1,176.4,13.6,264.4,11.2
	C1926.9,692.1,1925.2,347.2,1925.2,311.3z"/>
</svg>
