<?xml version="1.0" encoding="utf-8"?>
<!-- Generator: Adobe Illustrator 22.0.0, SVG Export Plug-In . SVG Version: 6.00 Build 0)  -->
<svg version="1.1" id="Calque_1" xmlns="http://www.w3.org/2000/svg" xmlns:xlink="http://www.w3.org/1999/xlink" x="0px" y="0px"
	 viewBox="0 0 1920 688.6" style="enable-background:new 0 0 1920 688.6;" xml:space="preserve">
<style type="text/css">
	.st0{fill:url(#SVGID_1_);}
	.st1{fill:url(#SVGID_2_);}
</style>
<title>Path</title>
<desc>Created with Sketch.</desc>
<g id="Artboards">
	<g id="HOME" transform="translate(0.000000, -680.000000)">
		<g id="Tutorial" transform="translate(-174.000000, 475.000000)">
			
				<g id="why" transform="translate(789.157027, 519.145536) scale(1, -1) rotate(-11.000000) translate(-789.157027, -519.145536) translate(60.657027, 132.145536)">
				
					<g id="Group-6" transform="translate(728.615162, 387.027111) scale(-1, 1) rotate(174.000000) translate(-728.615162, -387.027111) translate(29.615162, 72.027111)">
					
						<radialGradient id="SVGID_1_" cx="1862.7465" cy="460.5581" r="1.3193" gradientTransform="matrix(289.2232 644.6526 912.2935 -246.8394 -957880.6875 -1087208.375)" gradientUnits="userSpaceOnUse">
						<stop  offset="0" style="stop-color:#1059B5"/>
						<stop  offset="1" style="stop-color:#02094D"/>
					</radialGradient>
					<path class="st0" d="M1994.9,165c-128.9,20.3-261.5,36.7-390.7,21.7c-88.9-10.4-175.8-30.6-266.9-30.9
						c-122.4-0.5-246.3,46.3-366.4,15.1c-57.1-14.9-108.8-40.3-167.6-51.6c-64.2-12.4-133.1-12-199.4-10.4
						c-46.8,1.1-94.1,3.8-135.1,6.5c-36.2,2.2-74.7,4.5-112.4,5.4c-22.4,0.6-43,0.6-62.6,0.1C226.3,119.2,170,109,121.4,88.8
						c-25.6-10.6-47.9-23.3-69-36.9c0,0,55.8,637.7,55.8,637.8c1.8,20.9,154.6,23.4,175,23.9c134.3,3.3,267.1-23.6,396.7-53.5
						c73.5-16.9,146.1-37.9,221-49.6c165.8-26.1,333.5,18.4,500.7,6.9c59.6-4.1,136.2-19.1,191.8-38.6c56-19.6,110-44.2,169.2-56.6
						c85.9-17.7,175.6-3,262.6-12.7C2026.6,509.4,1997.6,197.5,1994.9,165z"/>
				</g>
			</g>
		</g>
	</g>
</g>
<radialGradient id="SVGID_2_" cx="732" cy="1226" r="0" gradientTransform="matrix(1 0 0 -1 -5.684342e-14 1182)" gradientUnits="userSpaceOnUse">
	<stop  offset="0" style="stop-color:#1059B5"/>
	<stop  offset="1" style="stop-color:#02094D"/>
</radialGradient>
<path class="st1" d="M732-44"/>
</svg>
