<?xml version="1.0" encoding="utf-8"?>
<!-- Generator: Adobe Illustrator 22.0.0, SVG Export Plug-In . SVG Version: 6.00 Build 0)  -->
<svg version="1.1" id="Calque_1" xmlns="http://www.w3.org/2000/svg" xmlns:xlink="http://www.w3.org/1999/xlink" x="0px" y="0px"
	 viewBox="0 0 1920 759.3" style="enable-background:new 0 0 1920 759.3;" xml:space="preserve">
<style type="text/css">
	.st0{fill:url(#SVGID_1_);}
	.st1{fill:url(#SVGID_2_);}
</style>
<title>Path</title>
<desc>Created with Sketch.</desc>
<g id="Artboards">
	<g id="HOME" transform="translate(0.000000, -680.000000)">
		<g id="Tutorial" transform="translate(-174.000000, 475.000000)">
			
				<g id="why" transform="translate(789.157027, 519.145536) scale(1, -1) rotate(-11.000000) translate(-789.157027, -519.145536) translate(60.657027, 132.145536)">
				
					<g id="Group-6" transform="translate(728.615162, 387.027111) scale(-1, 1) rotate(174.000000) translate(-728.615162, -387.027111) translate(29.615162, 72.027111)">
					
						<radialGradient id="SVGID_1_" cx="1862.7465" cy="460.5581" r="1.3193" gradientTransform="matrix(295.1133 711.9762 910.8251 -263.6234 -968176.4375 -1204888.25)" gradientUnits="userSpaceOnUse">
						<stop  offset="0" style="stop-color:#1059B5"/>
						<stop  offset="1" style="stop-color:#02094D"/>
					</radialGradient>
					<path class="st0" d="M1997.3,193.5c-128.8,21.2-261.4,38.1-390.8,20.4c-89.1-12.2-176.2-35.2-267.4-36.3
						c-122.5-1.6-246.1,48.7-366.5,13.4c-57.3-16.9-109.2-45.3-168.2-58.2c-64.4-14.2-133.3-14.4-199.7-13.2
						c-46.8,0.8-94.2,3.4-135.2,6c-36.2,2.2-74.7,4.3-112.5,5c-22.4,0.5-43,0.3-62.7-0.5c-67.4-2.4-123.8-14.2-172.7-36.8
						C96.1,81.3,73.6,67.1,52.4,51.9c0,0,61.5,702.3,61.5,702.4c2,23.1,154.9,27.1,175.3,27.8c134.4,4.8,267.1-23.6,396.5-55.4
						c73.5-18,145.9-40.4,220.8-52.6c165.7-27.2,334,23.2,501.1,12c59.6-4,136.1-19.8,191.6-40.8c55.9-21,109.7-47.7,168.8-60.7
						c85.9-18.7,175.7-1.7,262.6-11.7C2032.2,572.7,2000.4,229.3,1997.3,193.5z"/>
				</g>
			</g>
		</g>
	</g>
</g>
<radialGradient id="SVGID_2_" cx="732" cy="1226" r="0" gradientTransform="matrix(1 0 0 -1 -5.684342e-14 1182)" gradientUnits="userSpaceOnUse">
	<stop  offset="0" style="stop-color:#1059B5"/>
	<stop  offset="1" style="stop-color:#02094D"/>
</radialGradient>
<path class="st1" d="M732-44"/>
</svg>
