<?xml version="1.0" encoding="utf-8"?>
<!-- Generator: Adobe Illustrator 22.0.0, SVG Export Plug-In . SVG Version: 6.00 Build 0)  -->
<svg version="1.1" id="Calque_1" xmlns="http://www.w3.org/2000/svg" xmlns:xlink="http://www.w3.org/1999/xlink" x="0px" y="0px"
	 viewBox="0 0 1920 671.1" style="enable-background:new 0 0 1920 671.1;" xml:space="preserve">
<style type="text/css">
	.st0{fill:url(#SVGID_1_);}
	.st1{fill:url(#SVGID_2_);}
</style>
<title>Path</title>
<desc>Created with Sketch.</desc>
<g id="Artboards">
	<g id="HOME" transform="translate(0.000000, -680.000000)">
		<g id="Tutorial" transform="translate(-174.000000, 475.000000)">
			
				<g id="why" transform="translate(789.157027, 519.145536) scale(1, -1) rotate(-11.000000) translate(-789.157027, -519.145536) translate(60.657027, 132.145536)">
				
					<g id="Group-6" transform="translate(728.615162, 387.027111) scale(-1, 1) rotate(174.000000) translate(-728.615162, -387.027111) translate(29.615162, 72.027111)">
					
						<radialGradient id="SVGID_1_" cx="1401.9973" cy="90.061" r="1.3193" gradientTransform="matrix(205.1064 623.6652 -934.5845 183.372 -202355.9219 -890957.375)" gradientUnits="userSpaceOnUse">
						<stop  offset="0" style="stop-color:#1059B5"/>
						<stop  offset="1" style="stop-color:#02094D"/>
					</radialGradient>
					<path class="st0" d="M1993.4,148.4c-128.9,19.8-261.6,35.9-390.6,22.4c-88.8-9.3-175.6-27.9-266.6-27.7
						c-122.3,0.2-246.4,44.8-366.3,16.1c-57-13.7-108.5-37.4-167.3-47.7c-64.1-11.3-133-10.6-199.3-8.8
						c-46.8,1.3-94.1,4.1-135.1,6.8c-36.2,2.3-74.7,4.6-112.4,5.7c-22.4,0.7-43,0.8-62.6,0.4c-67.3-1.2-123.5-10.6-172-29.3
						c-25.5-9.8-47.8-21.7-68.8-34.4c0,0,52.5,600,52.5,600.1c1.7,19.7,154.4,21.2,174.8,21.6c134.2,2.4,267.1-23.6,396.8-52.4
						c73.6-16.3,146.2-36.4,221.2-47.8c165.9-25.4,333.3,15.6,500.4,3.9c59.6-4.2,136.2-18.7,191.9-37.3
						c56.1-18.7,110.2-42.2,169.4-54.1c86-17.1,175.5-3.7,262.5-13.3C2023.4,472.4,1996,179,1993.4,148.4z"/>
				</g>
			</g>
		</g>
	</g>
</g>
<radialGradient id="SVGID_2_" cx="732" cy="-554" r="0" gradientTransform="matrix(1 0 0 1 0 510)" gradientUnits="userSpaceOnUse">
	<stop  offset="0" style="stop-color:#1059B5"/>
	<stop  offset="1" style="stop-color:#02094D"/>
</radialGradient>
<path class="st1" d="M732-44"/>
</svg>
