<?xml version="1.0" encoding="utf-8"?>
<!-- Generator: Adobe Illustrator 22.0.0, SVG Export Plug-In . SVG Version: 6.00 Build 0)  -->
<svg version="1.1" id="Calque_1" xmlns="http://www.w3.org/2000/svg" xmlns:xlink="http://www.w3.org/1999/xlink" x="0px" y="0px"
	 viewBox="0 0 1920 703.6" style="enable-background:new 0 0 1920 703.6;" xml:space="preserve">
<style type="text/css">
	.st0{fill:url(#SVGID_1_);}
	.st1{fill:url(#SVGID_2_);}
</style>
<title>Path</title>
<desc>Created with Sketch.</desc>
<g id="Artboards">
	<g id="HOME" transform="translate(0.000000, -680.000000)">
		<g id="Tutorial" transform="translate(-174.000000, 475.000000)">
			
				<g id="why" transform="translate(789.157027, 519.145536) scale(1, -1) rotate(-11.000000) translate(-789.157027, -519.145536) translate(60.657027, 132.145536)">
				
					<g id="Group-6" transform="translate(728.615162, 387.027111) scale(-1, 1) rotate(174.000000) translate(-728.615162, -387.027111) translate(29.615162, 72.027111)">
					
						<radialGradient id="SVGID_1_" cx="1862.7465" cy="460.5581" r="1.3193" gradientTransform="matrix(291.1326 666.4771 911.8175 -252.2803 -961218.3125 -1125357)" gradientUnits="userSpaceOnUse">
						<stop  offset="0" style="stop-color:#1059B5"/>
						<stop  offset="1" style="stop-color:#02094D"/>
					</radialGradient>
					<path class="st0" d="M1995.7,174.2c-128.8,20.6-261.5,37.2-390.7,21.3c-88.9-11-176-32.1-267-32.7
						c-122.4-0.8-246.2,47.1-366.4,14.6c-57.2-15.5-108.9-42-167.8-53.7c-64.2-12.9-133.2-12.8-199.5-11.3
						c-46.8,1-94.1,3.7-135.1,6.3c-36.2,2.2-74.7,4.4-112.4,5.3c-22.4,0.6-43,0.5-62.6-0.1c-67.4-1.9-123.7-12.7-172.4-33.6
						c-25.6-11-48-24.2-69.1-38.3c0,0,57.6,658.7,57.6,658.8c1.9,21.6,154.7,24.6,175.1,25.2c134.3,3.8,267.1-23.6,396.6-54.1
						c73.5-17.3,146-38.7,221-50.6c165.8-26.5,333.7,19.9,500.8,8.5c59.6-4.1,136.1-19.4,191.7-39.3c56-20,109.9-45.4,169.1-57.9
						c85.9-18,175.6-2.6,262.6-12.4C2028.4,529.9,1998.5,207.8,1995.7,174.2z"/>
				</g>
			</g>
		</g>
	</g>
</g>
<radialGradient id="SVGID_2_" cx="732" cy="1226" r="0" gradientTransform="matrix(1 0 0 -1 -5.684342e-14 1182)" gradientUnits="userSpaceOnUse">
	<stop  offset="0" style="stop-color:#1059B5"/>
	<stop  offset="1" style="stop-color:#02094D"/>
</radialGradient>
<path class="st1" d="M732-44"/>
</svg>
