<?xml version="1.0" encoding="utf-8"?>
<svg version="1.1" id="Calque_1" xmlns="http://www.w3.org/2000/svg" xmlns:xlink="http://www.w3.org/1999/xlink" x="0px" y="0px"
	 viewBox="0 0 1925 647" style="enable-background:new 0 0 1925 647;" xml:space="preserve">
<style type="text/css">
	.st0{fill:url(#Install_1_);}
</style>
<radialGradient id="Install_1_" cx="873.3473" cy="372.775" r="1.6136" gradientTransform="matrix(-126.3434 633.8752 636.2137 125.879 -125863.9922 -600635.125)" gradientUnits="userSpaceOnUse">
	<stop  offset="0" style="stop-color:#1A22DE"/>
	<stop  offset="0.1235" style="stop-color:#141CD6"/>
	<stop  offset="0.7118" style="stop-color:#101695"/>
	<stop  offset="1" style="stop-color:#080C61"/>
</radialGradient>
<path id="Install" class="st0" d="M1772.5,193.4c-84.7-18.7-164-48-251-62.2c-52-8.5-108.4-11.2-160.3-0.5
	c-48.4,10.1-88.7,33-134.2,47.5c-40.4,13-83.7,21.5-127.6,25.3c-77.3,6.8-150.1-5.8-225.6-14.9c-106-12.8-208.1-8.6-313.9,5
	c-79.4,10.3-152.1,25.9-233.5,20c-60.8-4.4-121.4-19.7-166.3-49c-19.4-12.7-34.8-27.2-48.1-42.8c-17.6-20.8-30.9-43.5-44.1-66
	C53.3,30.6,28.9,9.2-6.9,0.6L-7,510.1c67.7,28.5,159.5,22.3,239,17.7c55.8-3.2,113.1-6.9,168.5,0.8c67.3,9.3,103,40.6,153.6,69.9
	c110.6,63.6,281.7,56.9,407.8,23.2c112.5-30.1,196-94.4,326.3-70.9c114.7,20.7,214.9,42.2,334.1,24.6
	c103.8-15.4,201.5-50.9,285.9-94.1c5.7-2.9,11.5-6,16.8-9.4V214.8C1887.5,214.6,1784.4,196,1772.5,193.4"/>
</svg>
