<svg xmlns="http://www.w3.org/2000/svg" viewBox="0 0 1925 535.5"><radialGradient id="A" cx="657.104" cy="2103.727" r="1.689" gradientTransform="matrix(-126.3434 633.8752 636.2137 125.879 -1254504.75 -681538.9375)" gradientUnits="userSpaceOnUse"><stop offset="0" stop-color="#1a22de"/><stop offset=".124" stop-color="#141cd6"/><stop offset=".712" stop-color="#101695"/><stop offset="1" stop-color="#080c61"/></radialGradient><path d="M1772.5 124.1c-84.7-18.7-164-48-251-62.2-52-8.5-108.4-11.2-160.3-.5-48.4 10.1-88.7 33-134.2 47.5-40.4 13-83.7 21.5-127.6 25.3-77.3 6.8-150.1-5.8-225.6-14.9-106-12.8-208.1-8.6-313.9 5-48.7 6.3-97 15.1-146 19.1-57.2 4.7-114.9 10.1-172.2 3.9-62-6.6-103-34.9-157.8-60-26.4-12.1-58.2-16.7-87-18.7v388.5c70.6 7.6 147.8 7.5 218.3-.9 66.3-7.9 134-20.3 200.9-11.8 75.1 9.6 143.1 47.5 216 65.5 118.8 29.3 238.9 20.3 356.3-10.6 99.8-26.3 197.6-36.2 299.9-17.8 114.7 20.7 214.9 42.2 334.1 24.6 103.8-15.4 201.5-50.9 285.9-94.1 5.7-2.9 11.5-6 16.8-9.4V145.5c-37.6-.2-140.7-18.8-152.6-21.4z" fill="url(#A)"/></svg>