<svg xmlns="http://www.w3.org/2000/svg" viewBox="0 0 1927 833.4"><radialGradient id="A" cx="1109.991" cy="800.022" r="1167.202" fx="681.539" fy="756.733" gradientTransform="matrix(0.1057 -0.9944 1.0414 0.1107 159.5951 1815.2704)" gradientUnits="userSpaceOnUse"><stop offset="0" stop-color="#171fd1"/><stop offset=".186" stop-color="#161ecd"/><stop offset=".38" stop-color="#151cc0"/><stop offset=".579" stop-color="#1219ab"/><stop offset=".781" stop-color="#0e148e"/><stop offset=".984" stop-color="#090e68"/><stop offset="1" stop-color="#090d65"/></radialGradient><path d="M1927 208.3c-20.1 21.4-205.1 17.1-223.9 16.9-167-2.3-303.8-63.3-471.9-44.1-86.1 9.9-169.6 32.8-257.1 28.9-99-4.4-192.4-49.3-288.6-72.9-107.2-26.1-218.5-17.4-327.8-20-103.2-2.5-214.8-8.8-305.2-64.2C32.3 40.5 14.3 26.8-2.6 12.3v758.9c4.3 2.3 9.3 3.7 14 4.8 146.3 32.9 297.9 37.5 446.7 19.8 146.1-17.3 290.1-42.7 437.6-23.7 191.7 24.7 405.9 62.1 595.7 6.6 69.1-20.2 137.1-48.3 209.8-51.3 76.7-3.2 152.4 16.9 229.2 14.7 1.1-.1 2-1 2.9-2.8l-6.3-531z" fill="url(#A)"/></svg>